DBRep_DrawableShape

CASCADE Topology V1, (c) Matra-Datavision
Locations 1
1
              1               0               0             250 
              0               1               0             150 
              0               0               1               0 
Curve2ds 32
1 0 -0.35355339059311525 1 0 
1 6.2831853071795862 0.35355321728427236 -1 0 
7 0 0  1 2 2  6.2831853071800001 -0.35355339059311525  6.2831853071800001 0 
 -0.35355339059300001 2 0 2
7 0 0  1 2 2  0 -0.35355339059311525  0 0 
 -0.35355339059300001 2 0 2
1 0 0 1 0 
1 6.2831853071795862 6.75 -1 0 
1 6.2831853071795862 0 -0 1 
1 -4.1389000000000002e-13 0 -0 1 
1 6.2831853071795862 0 -1 0 
1 6.2831853071791723 0 -0 1 
1 0 0 -0 1 
1 6.2831853071795862 0.25 -1 0 
1 6.2831853071795862 0 -1 0 
1 0 0.35355321728419908 1 0 
7 0 0  1 2 2  -4.1389000000000002e-13 0  -4.1389000000000002e-13 -0.35355339059311525 
 0 2 0.35355339059300001 2
7 0 0  1 2 2  6.2831853071795862 0  6.2831853071795862 -0.35355339059311525 
 0 2 0.35355339059300001 2
1 6.2831853071795862 -0.35355339059327373 -1 0 
1 0 0 1 0 
1 6.2831853071795862 0 0 1 
1 4.1389000000000002e-13 0 0 1 
1 0 0.35355321728419908 1 0 
1 0 0 1 0 
1 0 0 1 0 
1 6.2831853071795862 0 0 1 
1 4.1389000000000002e-13 0 0 1 
1 6.2831853071795862 0 0 1 
1 4.1389000000000002e-13 0 0 1 
1 0 7 1 0 
1 6.2831853071795862 0.35355321728427236 -1 0 
1 6.2831853071795862 0 -1 0 
1 6.2831853071795862 0 -0 1 
1 -4.1389000000000002e-13 0 -0 1 
Curves 22
2 0 1.5499999999999999e-15 3.5 0 -4.4e-16 -1 1 7.0000000000000003e-17 -3.0800000000000004e-32 7.0000000000000003e-17 -1 4.4e-16 10.75
2 0 1.5499999999999999e-15 3.5 -0 -4.4e-16 -1 1 8.0000000000000006e-17 -3.5200000000000001e-32 8.0000000000000006e-17 -1 4.4e-16 9.25
1 11 2.2200000000000002e-15 3.25 0.70710678118654757 -2.5999999999999998e-16 -0.70710678118654757 
2 0 1.4399999999999999e-15 3.25 0 -4.4e-16 -1 1 7.0000000000000003e-17 -3.0800000000000004e-32 7.0000000000000003e-17 -1 4.4e-16 11
1 9.0000002450960004 2.16e-15 3.25 0.70710643456796263 4.7000000000000004e-16 0.70710712780496254 
2 0 1.4399999999999999e-15 3.25 0 -4.4e-16 -1 1 8.0000000000000006e-17 -3.5200000000000001e-32 8.0000000000000006e-17 -1 4.4e-16 9.0000002450960004
1 11 -2.33e-15 -3.5 0 6.7000000000000004e-16 1 
2 0 -1.4399999999999999e-15 -3.25 0 -4.4e-16 -1 1 -7.0000000000000003e-17 3.0800000000000004e-32 -7.0000000000000003e-17 -1 4.4e-16 11
2 0 1.4399999999999999e-15 3.25 -0 -4.4e-16 -1 1 1.1e-16 -4.8400000000000002e-32 1.1e-16 -1 4.4e-16 6.7499997549039996
1 11 -2.2200000000000002e-15 -3.25 -0.70710678118654757 -2.5999999999999998e-16 -0.70710678118654757 
2 0 -1.5499999999999999e-15 -3.5 0 -4.4e-16 -1 1 -7.0000000000000003e-17 3.0800000000000004e-32 -7.0000000000000003e-17 -1 4.4e-16 10.75
2 0 1.5499999999999999e-15 3.5 -0 -4.4e-16 -1 1 1.2e-16 -5.2800000000000004e-32 1.2e-16 -1 4.4e-16 6.5
1 6.5 2.33e-15 3.5 0.70710643456796263 -4.7000000000000004e-16 -0.70710712780496254 
2 0 -1.5499999999999999e-15 -3.5 0 -4.4e-16 -1 1 -8.0000000000000006e-17 3.5200000000000001e-32 -8.0000000000000006e-17 -1 4.4e-16 9.25
2 0 1.5499999999999999e-15 3.5 -0 -4.4e-16 -1 1 1.9000000000000001e-16 -8.3600000000000003e-32 1.9000000000000001e-16 -1 4.4e-16 4
2 0 -1.4399999999999999e-15 -3.25 0 -4.4e-16 -1 1 -8.0000000000000006e-17 3.5200000000000001e-32 -8.0000000000000006e-17 -1 4.4e-16 9.0000002450960004
1 9.0000002450960004 -2.16e-15 -3.25 0.70710643456796263 -4.7000000000000004e-16 -0.70710712780496254 
1 4 2.33e-15 3.5 0 -6.7000000000000004e-16 -1 
2 0 -1.5499999999999999e-15 -3.5 0 -4.4e-16 -1 1 -1.9000000000000001e-16 8.3600000000000003e-32 -1.9000000000000001e-16 -1 4.4e-16 4
2 0 -1.4399999999999999e-15 -3.25 0 -4.4e-16 -1 1 -1.1e-16 4.8400000000000002e-32 -1.1e-16 -1 4.4e-16 6.7499997549039996
2 0 -1.5499999999999999e-15 -3.5 0 -4.4e-16 -1 1 -1.2e-16 5.2800000000000004e-32 -1.2e-16 -1 4.4e-16 6.5
1 6.5 -2.33e-15 -3.5 0.70710643456796263 4.7000000000000004e-16 0.70710712780496254 
Polygon3D 0
PolygonOnTriangulations 0
Surfaces 14
1 0 1.5499999999999999e-15 3.5 0 -4.4e-16 -1 1 7.0000000000000003e-17 -3.0800000000000004e-32 7.0000000000000003e-17 -1 4.4e-16 
3 0 1.4399999999999999e-15 3.25 0 -4.4e-16 -1 1 7.0000000000000003e-17 -3.0800000000000004e-32 7.0000000000000003e-17 -1 4.4e-16 11
0.78539816339699997
3 0 1.4399999999999999e-15 3.25 0 4.4e-16 1 1 8.0000000000000006e-17 -3.5200000000000001e-32 -8.0000000000000006e-17 1 -4.4e-16 9.0000002450960004
0.78539767320499998
2 0 -1.5499999999999999e-15 -3.5 0 4.4e-16 1 1 -7.0000000000000003e-17 3.0800000000000004e-32 7.0000000000000003e-17 1 -4.4e-16 11
1 0 1.4399999999999999e-15 3.25 0 -4.4e-16 -1 1 1.1e-16 -4.8400000000000002e-32 1.1e-16 -1 4.4e-16 
3 0 -1.4399999999999999e-15 -3.25 0 4.4e-16 1 1 -7.0000000000000003e-17 3.0800000000000004e-32 7.0000000000000003e-17 1 -4.4e-16 11
0.78539816339699997
3 0 1.5499999999999999e-15 3.5 0 -4.4e-16 -1 1 1.2e-16 -5.2800000000000004e-32 1.2e-16 -1 4.4e-16 6.5
0.78539767320499998
1 0 -1.5499999999999999e-15 -3.5 0 4.4e-16 1 -1 8.0000000000000006e-17 -3.5200000000000001e-32 -8.0000000000000006e-17 -1 4.4e-16 
1 0 1.5499999999999999e-15 3.5 0 4.4e-16 1 -1 -1.2e-16 5.2800000000000004e-32 1.2e-16 -1 4.4e-16 
3 0 -1.4399999999999999e-15 -3.25 0 -4.4e-16 -1 1 -8.0000000000000006e-17 3.5200000000000001e-32 -8.0000000000000006e-17 -1 4.4e-16 9.0000002450960004
0.78539767320499998
2 0 1.5499999999999999e-15 3.5 0 -4.4e-16 -1 1 1.9000000000000001e-16 -8.3600000000000003e-32 1.9000000000000001e-16 -1 4.4e-16 4
1 0 -1.4399999999999999e-15 -3.25 0 -4.4e-16 -1 1 -1.1e-16 4.8400000000000002e-32 -1.1e-16 -1 4.4e-16 
1 0 -1.5499999999999999e-15 -3.5 0 -4.4e-16 -1 1 -1.9000000000000001e-16 8.3600000000000003e-32 -1.9000000000000001e-16 -1 4.4e-16 
3 0 -1.5499999999999999e-15 -3.5 0 4.4e-16 1 1 -1.2e-16 5.2800000000000004e-32 1.2e-16 1 -4.4e-16 6.5
0.78539767320499998
Triangulations 0

TShapes 72
Ve
1e-07
10.75 2e-15 3.5
0 0

0101101
*
Ed
 1e-07 1 1 0
1  1 0 0 6.28318530717959
2  1 2 0 0 6.28318530717959
4 C0 1 0 2 0
0

0101000
+72 0 -72 0 *
Wi

0101100
+71 0 *
Ve
1e-07
9.25 2e-15 3.5
0 0

0101101
*
Ed
 1e-07 1 1 0
1  2 0 0 6.28318530717959
2  2 3 0 0 6.28318530717959
4 C0 1 0 3 0
0

0101000
+69 0 -69 0 *
Wi

0101100
-68 0 *
Fa
0  1e-07 1 0

0111000
+70 0 +67 0 *
Ve
1e-07
11 2e-15 3.25
0 0

0101101
*
Ed
 1e-07 1 1 0
1  3 0 -0.353553390593274 0
3  3 4CN 2 0 -0.353553390593274 0
0

0101000
+72 0 -65 0 *
Ed
 1e-07 1 1 0
1  4 0 0 6.28318530717959
2  5 2 0 0 6.28318530717959
2  6 4 0 0 6.28318530717959
4 C0 2 0 4 0
0

0101000
+65 0 -65 0 *
Wi

0101100
-64 0 +71 0 +64 0 -63 0 *
Fa
0  1e-07 2 0

0111000
+62 0 *
Ve
1e-07
9.000000245096 2e-15 3.25
0 0

0101101
*
Ed
 1e-07 1 1 0
1  5 0 0 0.353553217284272
3  7 8CN 3 0 0 0.353553217284272
0

0101000
+60 0 -69 0 *
Ed
 1e-07 1 1 0
1  6 0 0 6.28318530717959
2  9 3 0 0 6.28318530717959
4 C0 3 0 5 0
0

0101000
+60 0 -60 0 *
Wi

0101100
+59 0 +68 0 -59 0 -58 0 *
Fa
0  1e-07 3 0

0111000
+57 0 *
Ve
1e-07
11 -2e-15 -3.25
0 0

0101101
*
Ed
 1e-07 1 1 0
1  7 0 0.25 6.75
3  10 11CN 4 0 0.25 6.75
0

0101000
+55 0 -65 0 *
Ed
 1e-07 1 1 0
1  8 0 0 6.28318530717959
2  12 4 0 0 6.28318530717959
2  13 6 0 0 6.28318530717959
4 C0 4 0 6 0
0

0101000
+55 0 -55 0 *
Wi

0101100
+63 0 -54 0 -53 0 +54 0 *
Fa
0  1e-07 4 0

0111000
+52 0 *
Ve
1e-07
6.749999754904 2e-15 3.25
0 0

0101101
*
Ed
 1e-07 1 1 0
1  9 0 0 6.28318530717959
2  14 7 0 0 6.28318530717959
4 C0 5 0 7 0
0

0101000
+50 0 -50 0 *
Wi

0101100
+49 0 *
Wi

0101100
-58 0 *
Fa
0  1e-07 5 0

0111000
-48 0 -47 0 *
Ve
1e-07
10.75 -2e-15 -3.5
0 0

0101101
*
Ed
 1e-07 1 1 0
1  10 0 -0 0.353553390593274
3  15 16CN 6 0 -0 0.353553390593274
0

0101000
+55 0 -45 0 *
Ed
 1e-07 1 1 0
1  11 0 0 6.28318530717959
2  17 6 0 0 6.28318530717959
4 C0 6 0 8 0
0

0101000
+45 0 -45 0 *
Wi

0101100
-44 0 +53 0 +44 0 -43 0 *
Fa
0  1e-07 6 0

0111000
+42 0 *
Ve
1e-07
6.5 2e-15 3.5
0 0

0101101
*
Ed
 1e-07 1 1 0
1  12 0 0 6.28318530717959
2  18 7 0 0 6.28318530717959
4 C0 7 0 9 0
0

0101000
+40 0 -40 0 *
Ed
 1e-07 1 1 0
1  13 0 0 0.353553217284272
3  19 20CN 7 0 0 0.353553217284272
0

0101000
+40 0 -50 0 *
Wi

0101100
+39 0 +38 0 -49 0 -38 0 *
Fa
0  1e-07 7 0

0111000
+37 0 *
Wi

0101100
-43 0 *
Ve
1e-07
9.25 -2e-15 -3.5
0 0

0101101
*
Ed
 1e-07 1 1 0
1  14 0 0 6.28318530717959
2  21 10 0 0 6.28318530717959
4 C0 8 0 10 0
0

0101000
+34 0 -34 0 *
Wi

0101100
+33 0 *
Fa
0  1e-07 8 0

0111000
+35 0 +32 0 *
Wi

0101100
+39 0 *
Ve
1e-07
4 2e-15 3.5
0 0

0101101
*
Ed
 1e-07 1 1 0
1  15 0 0 6.28318530717959
2  22 11 0 0 6.28318530717959
4 C0 9 0 11 0
0

0101000
+29 0 -29 0 *
Wi

0101100
-28 0 *
Fa
0  1e-07 9 0

0111000
-30 0 -27 0 *
Ve
1e-07
9.000000245096 -2e-15 -3.25
0 0

0101101
*
Ed
 1e-07 1 1 0
1  16 0 0 6.28318530717959
2  23 10 0 0 6.28318530717959
4 C0 10 0 12 0
0

0101000
+25 0 -25 0 *
Ed
 1e-07 1 1 0
1  17 0 0 0.353553217284272
3  24 25CN 10 0 0 0.353553217284272
0

0101000
+25 0 -34 0 *
Wi

0101100
+24 0 +23 0 -33 0 -23 0 *
Fa
0  1e-07 10 0

0111000
+22 0 *
Ve
1e-07
4 -2e-15 -3.5
0 0

0101101
*
Ed
 1e-07 1 1 0
1  18 0 0 7
3  26 27CN 11 0 0 7
0

0101000
+29 0 -20 0 *
Ed
 1e-07 1 1 0
1  19 0 0 6.28318530717959
2  28 11 0 0 6.28318530717959
4 C0 11 0 13 0
0

0101000
+20 0 -20 0 *
Wi

0101100
+28 0 +19 0 -18 0 -19 0 *
Fa
0  1e-07 11 0

0111000
+17 0 *
Ve
1e-07
6.749999754904 -2e-15 -3.25
0 0

0101101
*
Ed
 1e-07 1 1 0
1  20 0 0 6.28318530717959
2  29 14 0 0 6.28318530717959
4 C0 12 0 14 0
0

0101000
+15 0 -15 0 *
Wi

0101100
+14 0 *
Wi

0101100
-24 0 *
Fa
0  1e-07 12 0

0111000
-13 0 -12 0 *
Wi

0101100
+18 0 *
Ve
1e-07
6.5 -2e-15 -3.5
0 0

0101101
*
Ed
 1e-07 1 1 0
1  21 0 0 6.28318530717959
2  30 14 0 0 6.28318530717959
4 C0 13 0 14 0
0

0101000
+9 0 -9 0 *
Wi

0101100
-8 0 *
Fa
0  1e-07 13 0

0111000
-10 0 -7 0 *
Ed
 1e-07 1 1 0
1  22 0 0 0.353553217284272
3  31 32CN 14 0 0 0.353553217284272
0

0101000
+9 0 -15 0 *
Wi

0101100
+5 0 +14 0 -5 0 -8 0 *
Fa
0  1e-07 14 0

0111000
+4 0 *
Sh

0101100
-66 0 +61 0 -56 0 +51 0 -46 0 +41 0 +36 0 -31 0 +26 0 -21 0 
-16 0 +11 0 +6 0 +3 0 *
So

0100000
+2 0 *

+1 1 