DBRep_DrawableShape

CASCADE Topology V1, (c) Matra-Datavision
Locations 85
1
              1               0               0             300 
              0               1               0              50 
              0               0               1               0 
1
              1               0               0               0 
              0               1               0               0 
              0               0               1               0 
1
              1               0               0               0 
              0               1               0               0 
              0               0               1               0 
1
              1               0               0               0 
              0               1               0               0 
              0               0               1               0 
1
              1               0               0               0 
              0               1               0               0 
              0               0               1               0 
1
              1               0               0               0 
              0               1               0               0 
              0               0               1               0 
1
              1               0               0               0 
              0               1               0               0 
              0               0               1               0 
2  2 1 3 -1 4 1 5 -1 6 1 7 -1 0
1
              1               0               0               0 
              0               1               0               0 
              0               0               1               0 
2  9 -1 0
1
              1               0               0               0 
              0               1               0               0 
              0               0               1               2 
2  9 -1 11 1 0
1
              1               0               0               0 
              0               1               0               0 
              0               0               1               0 
2  13 1 9 -1 0
2  9 1 13 -1 0
2  11 -1 9 1 13 -1 0
2  13 -1 0
2  13 1 9 -1 11 1 0
1
              1               0               0               0 
              0               1               0               0 
              0               0               1               0 
2  19 1 2 -1 0
1
              1               0               0               0 
              0               1               0               0 
              0               0               1               0 
2  21 1 2 -1 0
1
              1               0               0               0 
              0               1               0               0 
              0               0               1               0 
2  23 1 2 -1 0
1
              1               0               0               0 
              0               1               0               0 
              0               0               1               0 
2  25 1 2 -1 0
1
              1               0               0               0 
              0               1               0               0 
              0               0               1               0 
2  27 1 2 -1 0
2  13 1 9 -1 2 1 3 -1 4 1 5 -1 6 1 7 -1 0
2  13 1 9 -1 11 1 2 1 3 -1 4 1 5 -1 6 1 7 -1 0
2  2 -1 11 -1 9 1 13 -1 0
1
              1               0               0               0 
              0               1               0               0 
              0               0               1               2 
2  32 1 3 -1 4 1 5 -1 6 1 7 -1 0
2  32 -1 0
2  3 1 32 -1 0
1
              1               0               0               0 
              0               1               0               0 
              0               0               1              10 
2  36 -1 3 1 32 -1 0
2  9 -1 11 1 2 1 32 -1 0
2  2 1 32 -1 0
1
              1               0               0               0 
              0               0              -1              -3 
              0               1               0               0 
2  40 1 7 -1 0
2  7 1 40 -1 0
1
              1               0               0               0 
              0               1               0             -10 
              0               0               1           2e-15 
2  43 -1 7 1 40 -1 0
2  40 -1 0
2  2 1 3 -1 4 1 5 -1 6 1 40 -1 0
2  9 -1 2 1 3 -1 4 1 5 -1 6 1 7 -1 0
2  19 1 2 -1 9 1 13 -1 0
2  19 1 2 -1 11 -1 9 1 13 -1 0
2  21 1 2 -1 11 -1 9 1 13 -1 0
2  23 1 2 -1 11 -1 9 1 13 -1 0
2  25 1 2 -1 9 1 13 -1 0
2  25 1 2 -1 11 -1 9 1 13 -1 0
2  27 1 2 -1 11 -1 9 1 13 -1 0
2  4 1 5 -1 6 1 7 -1 0
2  9 -1 11 1 2 1 3 -1 0
2  13 1 9 -1 11 1 2 1 3 -1 0
2  32 1 3 -1 0
2  2 1 3 -1 0
2  3 1 2 -1 0
2  13 1 9 -1 2 1 3 -1 0
2  3 1 2 -1 11 -1 9 1 13 -1 0
2  3 -1 0
2  3 -1 36 1 0
2  32 1 3 -1 36 1 4 1 5 -1 6 1 7 -1 0
2  4 1 5 -1 6 1 40 -1 0
2  7 -1 0
2  7 -1 43 1 0
2  40 1 7 -1 43 1 0
2  6 1 7 -1 0
2  4 1 5 -1 0
2  32 1 3 -1 4 1 5 -1 0
2  13 1 9 -1 11 1 2 1 3 -1 4 1 5 -1 0
2  4 -1 0
1
              0               0              -1            -2.5 
             -1               0               0               0 
              0               1               0               0 
2  75 1 5 -1 0
2  5 1 75 -1 0
1
              1               0               0           10000 
              0               1               0               0 
              0               0               1               0 
2  78 -1 5 1 75 -1 0
2  75 -1 0
2  4 1 75 -1 0
2  32 1 3 -1 36 1 4 1 5 -1 0
2  5 1 4 -1 0
2  3 -1 36 1 4 1 5 -1 6 1 7 -1 0
2  5 -1 0
Curve2ds 168
1 1.5707963267948966 0 0 -1 
1 0 0 0 -1 
1 4.7123889803846897 0 0 -1 
1 0 0 0 -1 
1 0 0 1 0 
1 0 -2 1 0 
2 -6 -1.2000000000000002 1 0 -0 1 3
1 0 0 0 -1 
1 3.5 0 0 -1 
1 6 -98 0 -1 
1 6 0 0 -1 
1 6 0 0 -1 
1 6 -3 0 -1 
1 6 0 0 -1 
1 -6 1.7999999999999998 1 0 
1 0 0 1 0 
1 0 -2 1 0 
1 0 0 1 0 
1 0 -2 1 0 
1 -6 -4.2000000000000002 1 0 
1 4.7123889803846897 0 0 -1 
1 12 0 0 -1 
1 -2.5 -5 1 0 
1 0 -0 1 0 
1 0 -10 1 0 
1 2.4999999999999996 -4.2000000000000002 -1 0 
1 8.5 -2 -1 0 
1 0 0 1 0 
1 0 -10 1 0 
2 0 0 0 1 -1 0 0.19999999999999996
2 4.7300000000000004 -1.5 1 0 0 -1 0.19999999999999996
1 0 0 1 0 
1 0 -10 1 0 
2 0 0 0 1 -1 0 0.19999999999999996
2 7.2699999999999996 -1.5 1 0 0 -1 0.19999999999999996
1 0 0 1 0 
1 0 -2 1 0 
2 6 -1.2000000000000002 1 0 -0 1 3
1 2.4999999999999996 1.7999999999999998 1 0 
1 0 0 1 0 
1 0 -2 1 0 
1 0 0 1 0 
1 0 -2 1 0 
1 2.4999999999999996 5.7999999999999998 0 -1 
1 0 -98 1 0 
1 0 -100 1 0 
1 0 -2 1 0 
1 0 -2 1 0 
1 0 -3 1 0 
1 0 -5 1 0 
1 0 -2 1 0 
1 0 0 1 0 
1 0 -2 1 0 
1 -2.5000000000000004 5.7999999999999998 1 0 
1 0 -98 1 0 
1 0 -100 1 0 
1 0 -2 1 0 
1 0 -2 1 0 
1 0 -3 1 0 
1 0 -5 1 0 
1 0 -2 1 0 
1 0 0 1 0 
1 0 -2 1 0 
1 -2.5000000000000004 1.7999999999999998 0 1 
1 6 -98 1 0 
1 6 -100 1 0 
1 6 -2 1 0 
1 6 -2 1 0 
1 6 -3 1 0 
1 6 -5 1 0 
1 6 -2 1 0 
1 0 0 1 0 
1 0 -2 1 0 
2 6 -1.2000000000000002 1 0 -0 1 1.5
1 0 0 1 0 
1 0 -2 1 0 
2 -6 -1.2000000000000002 1 0 -0 1 1.5
1 2.5 -5 0 1 
1 0 0 1 0 
1 0 -10 1 0 
1 -2.5000000000000004 -4.2000000000000002 0 1 
1 0 0 0 -1 
1 4 0 0 -1 
1 0 -98 0 -1 
1 10 -98 0 -1 
1 0 -3 0 -1 
1 10 -3 0 -1 
1 6 0 1 0 
1 7.8539816339744828 0 0 -1 
1 3.5 0 0 -1 
1 10 0 0 -1 
1 0 -0 0 -1 
1 0 0 0 -1 
1 5 0 0 -1 
1 0 0 1 0 
1 0 -10 1 0 
2 1.7800000000000001e-15 0 0 1 -1 0 0.19999999999999996
2 3.77 -8.6999999999999993 -1 -0 0 -1 0.19999999999999996
1 0 0 1 0 
1 0 -10 1 0 
2 1.7800000000000001e-15 0 0 1 -1 0 0.19999999999999996
2 1.23 -8.6999999999999993 -1 -0 0 -1 0.19999999999999996
1 0 0 1 0 
1 0 -10 1 0 
1 -2.5 5 0 -1 
1 2.4999999999999996 5.7999999999999998 0 -1 
1 0 0 0 -1 
1 6.2831853071795862 0 0 -1 
1 0 0 0 -1 
1 6.2831853071795862 0 0 -1 
1 4 0 0 -1 
1 0 0 0 -1 
1 4 -98 0 -1 
1 4 0 0 -1 
1 4 0 0 -1 
1 4 -3 0 -1 
1 4 0 0 -1 
1 0 0 0 -1 
1 5 0 0 -1 
1 5 -98 0 -1 
1 0 -98 0 -1 
1 5 -3 0 -1 
1 0 -3 0 -1 
1 0 0 1 0 
1 0 0 1 0 
1 0 0 0 -1 
1 6.2831853071795862 0 0 -1 
1 0 0 0 -1 
1 6.2831853071795862 0 0 -1 
1 0 0 0 -1 
1 10 0 0 -1 
1 0 0 1 0 
1 0 -10000 1 0 
1 -1.5 3.75 0 -1 
1 2.5 -3 1 0 
1 1.5 3.75 -1 0 
1 0 0 1 0 
1 0 -10000 1 0 
1 2.5 -6 0 1 
1 0 -0 1 0 
1 0 -10000 1 0 
1 1.5 -3.75 0 1 
1 10 -6 -1 0 
1 0 0 0 -1 
1 5 0 0 -1 
8 -8.25 0.75
1 0 -6 -1 0 
8 -8.25 0.75
1 0 -5 -1 0 
8 -0.29999999999999982 3.2999999999999998
1 7.5 -3 0 -1 
8 -0.29999999999999982 3.2999999999999998
1 3 -5 -1 -0 
8 -4.5 4.5
1 3.75 -3 1 0 
8 -4.5 4.5
1 3.75 -5 -1 0 
1 2.5 5 -1 0 
1 0 0 1 0 
1 0 -10 1 0 
1 0 0 0 -1 
1 6.2831853071795862 0 0 -1 
1 0 0 0 -1 
1 6.2831853071795862 0 0 -1 
1 7.5 0 0 -1 
1 0 0 0 -1 
1 0 -3 1 0 
1 0 0 0 -1 
1 3 0 0 -1 
1 7.5 0 0 -1 
1 0 0 0 -1 
1 0 -0 0 -1 
1 3 0 0 -1 
1 0 -6 1 0 
Curves 46
1 -6 3 0 0 0 1 
1 -6 -3 0 0 0 1 
2 -6 0 0 0 0 1 1 0 -0 -0 1 0 3
1 -2.5 3 0 0 0 1 
1 -6 3 0 1 0 0 
1 -6 -3 0 1 0 0 
1 6 -3 0 0 0 1 
1 2.5 -3 0 -1 0 0 
2 -1.27 1.5 0 0 0 1 1 0 -0 -0 1 0 0.20000000000000001
2 1.27 1.5 0 0 0 1 1 0 -0 -0 1 0 0.20000000000000001
2 6 0 0 0 0 1 1 0 -0 -0 1 0 3
1 2.5 3 0 1 0 0 
1 2.5 7 0 0 -1 0 
1 -2.5 7 0 1 0 0 
1 -2.5 3 0 0 1 0 
2 6 0 0 0 0 1 1 0 -0 -0 1 0 1.5
2 -6 0 0 0 0 1 1 0 -0 -0 1 0 1.5
1 -2.5 -3 0 0 1 0 
1 -2.5 7 0 0 0 1 
1 6 3 0 0 0 1 
1 2.5 -3 2 0 0 1 
1 -2.5 -3 2 0 0 1 
2 -1.27 10.699999999999999 0 0 0 1 1 0 -0 -0 1 0 0.20000000000000001
2 1.27 10.699999999999999 0 0 0 1 1 0 -0 -0 1 0 0.20000000000000001
1 2.5 7 0 0 -1 0 
1 -1.0700000000000001 -2.9999999999999996 1.5 0 -1 2.2e-16 
1 1.47 -2.9999999999999996 1.5 0 -1 2.2e-16 
1 2.5 3 0 0 0 1 
1 2.5 7 0 0 0 1 
1 7.5 0 0 0 0 1 
1 -4.5 0 0 0 0 1 
1 -2.5 7 2 0 0 1 
1 0.5 5 0 -1 0 0 
1 0.5 8 0 0 -1 0 
1 -7 8 0 1 0 0 
1 2.5 7 2 0 0 1 
1 2.5 7 8 -0 1 0 
1 2.5 -0.5 5 0 -0 1 
1 2.5 3.25 5 0 -1 0 
1 -2.5 7 0 1 0 0 
1 -1.0700000000000001 -2.9999999999999978 10.699999999999999 0 -1 2.2e-16 
1 1.47 -2.9999999999999978 10.699999999999999 0 -1 2.2e-16 
1 -2.5 7 5 1 0 0 
1 -2.5 -0.5 5 1 0 0 
1 -2.5 -0.5 8 1 0 0 
1 -2.5 7 8 1 0 0 
Polygon3D 0
PolygonOnTriangulations 0
Surfaces 44
2 -6 0 0 -0 -0 -1 1 0 0 -0 1 -0 3
1 -6 3 0 0 1 0 1 0 0 0 0 -1 
1 -6 -3 0 0 1 0 1 0 0 0 0 -1 
1 3.5999999999999998e-16 1.2000000000000002 0 0 0 1 1 0 -0 -0 1 0 
1 -2.5 3 0 -1 0 0 0 1 0 0 0 -1 
1 -2.5 -3 -98 -1 0 0 0 1 0 0 0 -1 
1 -2.5 -3 0 -1 0 0 0 1 0 0 0 -1 
1 -2.5 -3 0 -1 0 0 0 1 0 0 0 -1 
1 -2.5 -3 -3 -1 0 0 0 1 0 0 0 -1 
1 -2.5 -3 0 -1 0 0 0 1 0 0 0 -1 
2 6 0 0 -0 -0 -1 1 0 0 -0 1 -0 3
1 0 2 2 -0 -0 -1 -1 0 0 0 1 -0 
1 2.5 -3 2 0 -1 0 -1 0 0 -0 -0 -1 
2 -1.27 -2.9999999999999996 1.5 -0 1 -2.2e-16 1 0 0 -0 2.2e-16 1 0.20000000000000001
1 -1.27 -2.9999999999999996 1.5 -0 -1 -0 0 0 -1 1 -0 0 
2 1.27 -2.9999999999999996 1.5 -0 1 -2.2e-16 1 0 0 -0 2.2e-16 1 0.20000000000000001
1 1.27 -2.9999999999999996 1.5 -0 -1 -0 0 0 -1 1 -0 0 
1 2.5 3 0 0 1 0 1 0 0 0 0 -1 
1 2.5 7 0 1 0 -0 0 -1 0 0 -0 -1 
1 2.5 7 -98 1 0 -0 0 -1 0 0 -0 -1 
1 2.5 7 0 1 0 -0 0 -1 0 0 -0 -1 
1 2.5 7 0 1 0 -0 0 -1 0 0 -0 -1 
1 2.5 7 -3 1 0 -0 0 -1 0 0 -0 -1 
1 2.5 7 0 1 0 -0 0 -1 0 0 -0 -1 
1 -2.5 7 0 0 1 0 1 0 0 0 0 -1 
1 -2.5 7 -98 0 1 0 1 0 0 0 0 -1 
1 -2.5 7 0 0 1 0 1 0 0 0 0 -1 
1 -2.5 7 0 0 1 0 1 0 0 0 0 -1 
1 -2.5 7 -3 0 1 0 1 0 0 0 0 -1 
1 -2.5 7 0 0 1 0 1 0 0 0 0 -1 
2 6 0 0 -0 -0 -1 1 0 0 -0 1 -0 1.5
2 -6 0 0 -0 -0 -1 1 0 0 -0 1 -0 1.5
1 -2.5 -3 2 -1 0 0 0 1 0 0 0 -1 
1 2.5 7 2 1 0 -0 0 -1 0 0 -0 -1 
2 -1.27 -2.9999999999999978 10.699999999999999 -0 1 -2.2e-16 1 0 0 -0 2.2e-16 1 0.20000000000000001
1 -1.27 -2.9999999999999982 10.700000000000001 -0 -1 -0 0 0 -1 1 -0 0 
2 1.27 -2.9999999999999978 10.699999999999999 -0 1 -2.2e-16 1 0 0 -0 2.2e-16 1 0.20000000000000001
1 1.27 -2.9999999999999982 10.700000000000001 -0 -1 -0 0 0 -1 1 -0 0 
1 -2.5 7 2 0 1 0 1 0 0 0 0 -1 
1 -2.5 -0.5 5 0 0 1 0 1 0 -1 0 0 
1 -2.5 3.25 6.5 1 0 0 -0 0 1 0 -1 0 
1 -2.5 -0.5 8 -0 1 0 0 0 -1 -1 0 -0 
1 -2.5 7 8 0 0 -1 0 -1 0 -1 -0 -0 
1 -2.5 7 5 0 -1 0 0 0 1 -1 0 0 
Triangulations 0

TShapes 153
Ve
1e-07
-6 3 0
0 0

0101101
*
Ed
 1e-07 1 1 0
1  1 0 0 2
2  1 1 0 0 2
4 G1 1 0 2 0
2  2 2 0 0 2
0

0101000
+153 10 -153 12 *
Ve
1e-07
-6 -3 0
0 0

0101101
*
Ed
 1e-07 1 1 0
1  2 0 0 2
2  3 1 0 0 2
4 G1 1 0 3 0
2  4 3 0 0 2
0

0101000
+151 10 -151 12 *
Ed
 1e-07 1 1 0
1  3 0 1.5707963267949 4.71238898038469
2  5 1 15 1.5707963267949 4.71238898038469
2  6 1 16 1.5707963267949 4.71238898038469
2  7 4 17 1.5707963267949 4.71238898038469
0

0101000
+153 17 -151 17 *
Wi

0101100
+152 0 -150 0 -149 14 +149 18 *
Fa
0  1e-07 1 0

0111000
+148 0 *
Ve
2.12133034e-07
-2.5 3 0
0 0

0101101
*
Ed
 1e-07 1 1 0
1  4 0 0 2
2  8 5 0 0 2
2  9 2 0 0 2
2  10 6 20 0 2
2  11 7 22 0 2
2  12 8 24 0 2
2  13 9 26 0 2
2  14 10 28 0 2
0

0101000
+146 10 -146 12 *
Ed
 1e-07 1 1 0
1  5 0 0 3.5
2  15 4 17 0 3.5
2  16 2 15 0 3.5
2  17 2 16 0 3.5
0

0101000
+153 17 -146 17 *
Wi

0101100
+152 0 -145 0 -144 14 +144 18 *
Fa
0  1e-07 2 0

0111000
+143 0 *
Ve
1e-07
6 -3 0
0 0

0101101
*
Ed
 1e-07 1 1 0
1  6 0 0 12
2  18 3 15 0 12
2  19 3 16 0 12
2  20 4 17 0 12
0

0101000
+151 17 -141 17 *
Ve
2.12133034e-07
-2.5 -3 2
0 0

0101101
*
Ed
 1e-07 1 1 0
1  6 0 0 3.5
2  18 3 15 0 3.5
2  19 3 16 0 3.5
2  20 4 17 0 3.5
0

0101000
+151 17 -139 31 *
Ed
 1e-07 1 1 0
1  7 0 0 2
2  21 11 0 0 2
4 G1 3 0 11 0
2  22 3 0 0 2
0

0101000
+141 10 -141 12 *
Ve
2.12133034e-07
2.5 -3 2
0 0

0101101
*
Ed
 1e-07 1 1 0
1  8 0 0 5
2  23 12 34 0 5
2  24 13 35 0 5
2  25 13 37 0 5
2  26 4 38 0 5
2  27 3 39 0 5
0

0101000
+136 34 -139 34 *
Ed
 1e-07 1 1 0
1  6 0 8.5 12
2  18 3 15 8.5 12
2  19 3 16 8.5 12
2  20 4 17 8.5 12
0

0101000
+136 31 -141 17 *
Wi

0101100
+150 8 -140 29 +138 30 -137 8 -135 33 +134 30 *
Ve
1.50001e-07
-1.07 -3 1.5
0 0

0101101
*
Ed
 1e-07 1 1 0
1  9 0 0 6.28318530717959
2  28 14 42 0 6.28318530717959
2  29 14 44 0 6.28318530717959
2  30 15 45 0 6.28318530717959
2  31 3 46 0 6.28318530717959
0

0101000
+132 45 -132 45 *
Wi

0101100
+131 41 *
Ve
1.50001e-07
1.47 -3 1.5
0 0

0101101
*
Ed
 1e-07 1 1 0
1  10 0 0 6.28318530717959
2  32 16 42 0 6.28318530717959
2  33 16 44 0 6.28318530717959
2  34 17 45 0 6.28318530717959
2  35 3 46 0 6.28318530717959
0

0101000
+129 45 -129 45 *
Wi

0101100
+128 41 *
Fa
0  1e-07 3 8

0111000
+133 0 +130 0 +127 0 *
Ve
2.12133034e-07
6 3 0
0 0

0101101
*
Ed
 1e-07 1 1 0
1  11 0 4.71238898038469 7.85398163397448
2  36 11 15 4.71238898038469 7.85398163397448
2  37 11 16 4.71238898038469 7.85398163397448
2  38 4 17 4.71238898038469 7.85398163397448
0

0101000
+141 17 -125 17 *
Ve
2.12133034e-07
2.5 3 0
0 0

0101101
*
Ed
 1e-07 1 1 0
1  12 0 0 3.5
2  39 4 17 0 3.5
2  40 18 15 0 3.5
2  41 18 16 0 3.5
0

0101000
+123 17 -125 17 *
Ve
2.12133034e-07
2.5 7 0
0 0

0101101
*
Ed
 1e-07 1 1 0
1  13 0 0 4
2  42 19 15 0 4
2  43 19 16 0 4
2  44 4 17 0 4
2  45 20 48 0 4
2  46 20 49 0 4
2  47 21 50 0 4
2  48 22 51 0 4
2  49 23 52 0 4
2  50 23 53 0 4
2  51 24 54 0 4
0

0101000
+121 17 -123 17 *
Ve
2.12133034e-07
-2.5 7 0
0 0

0101101
*
Ed
 1e-07 1 1 0
1  14 0 0 5
2  52 25 15 0 5
2  53 25 16 0 5
2  54 4 17 0 5
2  55 26 48 0 5
2  56 26 49 0 5
2  57 27 50 0 5
2  58 28 51 0 5
2  59 29 52 0 5
2  60 29 53 0 5
2  61 30 54 0 5
0

0101000
+119 17 -121 17 *
Ed
 1e-07 1 1 0
1  15 0 0 4
2  62 5 15 0 4
2  63 5 16 0 4
2  64 4 17 0 4
2  65 6 48 0 4
2  66 6 49 0 4
2  67 7 50 0 4
2  68 8 51 0 4
2  69 9 52 0 4
2  70 9 53 0 4
2  71 10 54 0 4
0

0101000
+146 17 -119 17 *
Wi

0101100
+149 13 +140 13 +124 13 -122 13 -120 13 -118 13 -117 13 -144 13 *
Ve
1e-07
7.5 0 0
0 0

0101101
*
Ed
 1e-07 1 1 0
1  16 0 0 6.28318530717959
2  72 31 15 0 6.28318530717959
2  73 31 16 0 6.28318530717959
2  74 4 17 0 6.28318530717959
0

0101000
+115 17 -115 17 *
Wi

0101100
-114 13 *
Ve
1e-07
-4.5 0 0
0 0

0101101
*
Ed
 1e-07 1 1 0
1  17 0 0 6.28318530717959
2  75 32 15 0 6.28318530717959
2  76 32 16 0 6.28318530717959
2  77 4 17 0 6.28318530717959
0

0101000
+112 17 -112 17 *
Wi

0101100
-111 13 *
Fa
0  1e-07 4 0

0111000
+116 0 +113 0 +110 0 *
Ed
 1e-07 1 1 0
1  18 0 0 6
2  78 12 34 0 6
2  79 33 35 0 6
2  80 33 37 0 6
2  81 4 38 0 6
0

0101000
+139 34 -146 38 *
Wi

0101100
-144 57 +108 58 +138 57 +149 57 *
Wi

0101100
-111 57 *
Fa
0  1e-07 4 56

0111000
+107 0 +106 0 *
Ve
2.12133034e-07
-2.5 7 2
0 0

0101101
*
Ed
 1.00000005e-07 1 1 0
1  19 0 0 2
2  82 25 0 0 2
2  83 5 0 0 2
2  84 26 20 0 2
2  85 6 20 0 2
2  86 29 26 0 2
2  87 9 26 0 2
0

0101000
+119 10 -104 60 *
Ed
 1.00000001e-07 1 1 0
1  15 0 0 4
2  62 5 15 0 4
2  63 5 16 0 4
2  64 4 17 0 4
2  65 6 48 0 4
2  66 6 49 0 4
2  67 7 50 0 4
2  68 8 51 0 4
2  69 9 52 0 4
2  70 9 53 0 4
2  71 10 54 0 4
2  88 33 62 0 4
0

0101000
+146 17 -104 62 *
Wi

0101100
+145 59 -103 59 -117 61 +102 57 *
Fa
0  1e-07 5 59

0111000
+101 0 *
Ed
 1e-07 1 1 0
1  20 0 0 2
2  89 11 0 0 2
4 G1 11 0 18 0
2  90 18 0 0 2
0

0101000
+125 10 -125 12 *
Wi

0101100
+137 0 -99 0 -124 14 +124 18 *
Fa
0  1e-07 11 0

0111000
+98 0 *
Ed
 1e-07 1 1 0
1  21 0 0 10
2  91 34 0 0 10
2  92 13 0 0 10
0

0101000
+136 63 -136 64 *
Ed
 1e-07 1 1 0
1  22 0 0 10
2  93 33 0 0 10
2  94 13 0 0 10
0

0101000
+139 63 -139 64 *
Wi

0101100
+96 55 -135 33 +135 65 -95 55 *
Ve
1.50001e-07
-1.07 -3 10.7
0 0

0101101
*
Ed
 1.00000002e-07 1 1 0
1  23 0 0 6.28318530717959
2  95 35 42 0 6.28318530717959
2  96 35 44 0 6.28318530717959
2  97 36 45 0 6.28318530717959
2  98 13 66 0 6.28318530717959
0

0101000
+93 45 -93 45 *
Wi

0101100
-92 41 *
Ve
1.50001e-07
1.47 -3 10.7
0 0

0101101
*
Ed
 1.00000002e-07 1 1 0
1  24 0 0 6.28318530717959
2  99 37 42 0 6.28318530717959
2  100 37 44 0 6.28318530717959
2  101 38 45 0 6.28318530717959
2  102 13 66 0 6.28318530717959
0

0101000
+90 45 -90 45 *
Wi

0101100
-89 41 *
Fa
0  1e-07 13 55

0111000
+94 0 +91 0 +88 0 *
Ed
 1e-07 1 1 0
1  25 0 4 10
2  103 34 35 4 10
2  104 34 37 4 10
2  105 12 34 4 10
2  106 4 38 4 10
0

0101000
+123 38 -136 34 *
Wi

0101100
+86 58 -122 57 +124 57 +134 57 *
Wi

0101100
-114 57 *
Fa
0  1e-07 4 56

0111000
+85 0 +84 0 *
Ed
 1e-07 1 1 0
1  26 0 0 10
3  107 108CN 14 0 0 10
0

0101000
+132 67 -132 68 *
Wi

0101100
+82 0 -82 0 -131 41 +131 69 *
Fa
0  1e-07 14 0

0111000
+81 0 *
Ed
 1e-07 1 1 0
1  27 0 0 10
3  109 110CN 16 0 0 10
0

0101000
+129 67 -129 68 *
Wi

0101100
+79 0 -79 0 -128 41 +128 69 *
Fa
0  1e-07 16 0

0111000
+78 0 *
Ed
 1e-07 1 1 0
1  28 0 0 2
2  111 19 0 0 2
2  112 18 0 0 2
2  113 20 20 0 2
2  114 21 22 0 2
2  115 22 24 0 2
2  116 23 26 0 2
2  117 24 28 0 2
0

0101000
+123 10 -123 12 *
Wi

0101100
+76 0 -99 0 -122 14 +122 18 *
Fa
0  1e-07 18 0

0111000
+75 0 *
Ve
2.12133034e-07
2.5 7 2
0 0

0101101
*
Ed
 1.00000005e-07 1 1 0
1  29 0 0 2
2  118 19 0 0 2
2  119 25 0 0 2
2  120 26 20 0 2
2  121 20 20 0 2
2  122 29 26 0 2
2  123 23 26 0 2
0

0101000
+121 10 -73 60 *
Ed
 1e-07 1 1 0
1  13 0 0 4
2  42 19 15 0 4
2  43 19 16 0 4
2  44 4 17 0 4
2  45 20 48 0 4
2  46 20 49 0 4
2  47 21 50 0 4
2  48 22 51 0 4
2  49 23 52 0 4
2  50 23 53 0 4
2  51 24 54 0 4
2  124 34 62 0 4
0

0101000
+73 62 -123 17 *
Wi

0101100
+72 59 -76 59 -120 61 +71 57 *
Fa
0  1e-07 19 59

0111000
+70 0 *
Ed
 1e-07 1 1 0
1  14 0 0 5
2  52 25 15 0 5
2  53 25 16 0 5
2  54 4 17 0 5
2  55 26 48 0 5
2  56 26 49 0 5
2  57 27 50 0 5
2  58 28 51 0 5
2  59 29 52 0 5
2  60 29 53 0 5
2  61 30 54 0 5
2  125 39 62 0 5
0

0101000
+104 62 -73 62 *
Wi

0101100
+103 59 -72 59 -118 61 +68 57 *
Fa
0  1e-07 25 59

0111000
+67 0 *
Ed
 1e-07 1 1 0
1  30 0 0 2
3  126 127CN 31 0 0 2
0

0101000
+115 10 -115 12 *
Wi

0101100
+65 0 -65 0 -114 14 +114 18 *
Fa
0  1e-07 31 0

0111000
+64 0 *
Ed
 1e-07 1 1 0
1  31 0 0 2
3  128 129CN 32 0 0 2
0

0101000
+112 10 -112 12 *
Wi

0101100
+62 0 -62 0 -111 14 +111 18 *
Fa
0  1e-07 32 0

0111000
+61 0 *
Ve
2.12133034e-07
-2.5 7 5
0 0

0101101
*
Ed
 1e-07 1 1 0
1  32 0 0 3
2  130 39 0 0 3
2  131 33 0 0 3
0

0101000
+104 0 -59 74 *
Ve
2.12133034e-07
-2.5 -0.5 5
0 0

0101101
*
Ed
 1e-07 1 1 0
1  33 0 0 7.5
2  132 40 77 0 7.5
2  133 40 79 0 7.5
2  134 41 80 0 7.5
2  135 33 81 0 7.5
0

0101000
+57 80 -59 80 *
Ve
2.12133034e-07
-2.5 -0.5 8
0 0

0101101
*
Ed
 1e-07 1 1 0
1  34 0 0 3
2  136 41 80 0 3
2  137 42 77 0 3
2  138 42 79 0 3
2  139 33 81 0 3
0

0101000
+55 80 -57 80 *
Ve
2.12133034e-07
-2.5 7 8
0 0

0101101
*
Ed
 1e-07 1 1 0
1  35 0 0 7.5
2  140 43 77 0 7.5
2  141 43 79 0 7.5
2  142 41 80 0 7.5
2  143 33 81 0 7.5
0

0101000
+53 80 -55 80 *
Ve
1e-07
-2.5 7 2
0 0

0101101
*
Ed
 1e-07 1 1 0
1  32 0 6 10
2  130 39 0 6 10
2  131 33 0 6 10
0

0101000
+53 74 -51 64 *
Ed
 1e-07 1 1 0
1  18 0 0 10
2  78 12 34 0 10
2  79 33 35 0 10
2  80 33 37 0 10
0

0101000
+139 34 -51 34 *
Wi

0101100
-108 72 -102 73 -58 71 +56 76 +54 76 +52 76 -50 71 +49 82 +95 71 *
Fa
0  1e-07 33 71

0111000
+48 0 *
Ve
1e-07
2.5 7 2
0 0

0101101
*
Ed
 1e-07 1 1 0
1  25 0 0 10
2  103 34 35 0 10
2  104 34 37 0 10
2  105 12 34 0 10
0

0101000
+46 34 -136 34 *
Ve
1.5e-07
2.5 7 8
0 0

0101101
*
Ed
 1e-07 1 1 0
1  36 0 6 10
2  144 34 0 6 10
2  145 39 0 6 10
0

0101000
+44 83 -46 64 *
Ve
1.5e-07
2.5 -0.5 8
0 0

0101101
*
Ed
 1.5e-07 1 1 0
1  37 0 -7.5 0
2  146 34 71 -7.5 0
2  147 43 0 -7.5 0
0

0101000
+42 0 -44 0 *
Ve
1.5e-07
2.5 -0.5 5
0 0

0101101
*
Ed
 1.5e-07 1 1 0
1  38 0 0 3
2  148 34 71 0 3
2  149 42 0 0 3
0

0101000
+40 0 -42 0 *
Ve
1.5e-07
2.5 7 5
0 0

0101101
*
Ed
 1.5e-07 1 1 0
1  39 0 -3.75 3.75
2  150 34 71 -3.75 3.75
2  151 40 0 -3.75 3.75
0

0101000
+38 0 -40 0 *
Ed
 1e-07 1 1 0
1  36 0 0 3
2  144 34 0 0 3
2  145 39 0 0 3
0

0101000
+73 0 -38 83 *
Wi

0101100
-71 73 -86 72 -96 71 +45 82 +43 71 +41 0 +39 0 +37 0 +36 71 *
Fa
0  1e-07 34 71

0111000
+35 0 *
Ed
 1e-07 1 1 0
1  40 0 0 5
2  152 12 34 0 5
2  153 39 35 0 5
2  154 39 37 0 5
0

0101000
+51 34 -46 34 *
Wi

0101100
+33 0 +45 0 +135 0 +49 0 *
Fa
0  1e-07 12 0

0111000
+32 32 *
Ed
 1e-07 1 1 0
1  41 0 0 10
3  155 156CN 35 0 0 10
0

0101000
+93 67 -93 68 *
Wi

0101100
+30 0 -30 0 -92 41 +92 69 *
Fa
0  1e-07 35 0

0111000
+29 0 *
Ed
 1e-07 1 1 0
1  42 0 0 10
3  157 158CN 37 0 0 10
0

0101000
+90 67 -90 68 *
Wi

0101100
+27 0 -27 0 -89 41 +89 69 *
Fa
0  1e-07 37 0

0111000
+26 0 *
Wi

0101100
+131 0 *
Fa
0  1e-07 15 0

0111000
+24 40 *
Wi

0101100
+128 0 *
Fa
0  1e-07 17 0

0111000
+22 40 *
Ed
 1e-07 1 1 0
1  43 0 0 5
2  159 40 0 0 5
2  160 44 0 0 5
2  161 39 71 0 5
0

0101000
+59 85 -38 0 *
Wi

0101100
-68 73 -36 71 +20 0 +58 71 *
Fa
0  1e-07 39 71

0111000
+19 0 *
Ed
 1e-07 1 1 0
1  44 0 0 5
2  162 40 0 0 5
2  163 42 0 0 5
0

0101000
+57 85 -40 0 *
Wi

0101100
-56 76 -20 0 -37 0 +17 0 *
Fa
0  1e-07 40 0

0111000
+16 0 *
Ed
 1e-07 1 1 0
1  45 0 0 5
2  164 43 0 0 5
2  165 42 0 0 5
0

0101000
+55 85 -42 0 *
Wi

0101100
-54 76 -17 0 -39 0 +14 0 *
Fa
0  1e-07 42 0

0111000
+13 0 *
Ed
 1e-07 1 1 0
1  46 0 0 5
2  166 43 0 0 5
2  167 44 0 0 5
2  168 39 71 0 5
0

0101000
+53 85 -44 0 *
Wi

0101100
-52 76 -14 0 -41 0 +11 0 *
Fa
0  1e-07 43 0

0111000
+10 0 *
Wi

0101100
-11 0 -43 71 +33 82 +50 71 *
Fa
0  1e-07 39 71

0111000
+8 0 *
Wi

0101100
+92 0 *
Fa
0  1e-07 36 0

0111000
+6 40 *
Wi

0101100
+89 0 *
Fa
0  1e-07 38 0

0111000
+4 40 *
Sh

0101100
-147 8 +142 8 -126 0 -109 47 +105 55 +100 55 -97 8 +87 0 +83 55 -80 0 
-77 0 +74 8 +69 55 +66 55 +63 8 +60 8 +47 70 +34 70 -31 84 -28 0 
-25 0 +23 68 +21 68 +18 70 +15 70 +12 70 +9 70 +7 70 +5 68 +3 68 
*
So

0100000
+2 0 *

+1 1 