DBRep_DrawableShape

CASCADE Topology V1, (c) Matra-Datavision
Locations 28
1
              1               0               0             300 
              0               1               0             300 
              0               0               1               0 
1
              1               0               0               0 
              0               1               0               0 
              0               0               1               0 
1
              1               0               0               0 
              0               1               0               0 
              0               0               1               0 
2  2 1 3 1 0
1
              1               0               0               0 
              0               1               0           -0.55 
              0               0               1               0 
2  3 -1 2 -1 0
2  5 1 2 1 3 1 0
2  5 -1 0
1
              1               0               0               0 
              0               1               0               0 
              0               0               1               0 
2  9 -1 3 -1 2 -1 5 -1 0
2  9 -1 0
2  5 1 2 1 0
2  9 -1 3 -1 0
1
              1               0               0               0 
              0               1               0              -1 
              0               0               1            0.76 
2  14 1 2 1 3 1 0
2  14 -1 0
2  9 -1 3 -1 2 -1 14 -1 0
2  9 -1 3 -1 2 -1 0
1
              1               0               0               0 
              0               1               0               0 
              0               0               1               0 
2  19 1 2 1 3 1 0
2  19 -1 0
2  9 -1 3 -1 2 -1 19 -1 0
1
              1               0               0               0 
              0               1               0            0.55 
              0               0               1            0.76 
2  23 1 2 1 3 1 0
2  23 -1 0
2  9 -1 3 -1 2 -1 23 -1 0
2  2 -1 0
2  19 1 2 1 0
Curve2ds 72
1 0 5 1 0 
1 -0.76000000000000001 -0.44999999999999996 1 0 
1 0.56000000000000005 0 0 1 
1 0 0 0 1 
1 0.53999999999999992 0 0 1 
1 0 0 0 1 
1 0 0 1 0 
1 -0.76000000000000001 -0.44999999999999996 1 0 
2 -0.19999999999999996 -0.25 1 0 -0 1 0.20000000000000001
1 -4.7123889803846897 5 1 0 
2 -0.22000000000000008 -0.98999999999999988 1 0 -0 1 0.54000000000000004
1 -1.5707963267948966 5 1 0 
1 0 0 0 -1 
1 5 0 0 1 
1 -0.76000000000000001 -0.44999999999999996 0 -1 
1 5 0 0 1 
1 0 0 1 0 
1 0 5 1 0 
2 -0.22000000000000008 -1.0100000000000002 1 0 0 -1 0.54000000000000004
1 -1.5707963267948966 5 1 0 
1 0.76000000000000001 -1.55 0 -1 
1 5 1.55 0 1 
1 -0.76000000000000001 -1.55 1 0 
1 0 5 1 0 
1 0 -2 1 0 
1 0 5 1 0 
2 -0.19999999999999996 -1.75 1 0 0 -1 0.20000000000000001
1 -4.7123889803846897 5 1 0 
1 0 -1.55 0 -1 
1 5 0 0 1 
1 -4.7123889803846897 0 1 0 
2 -0.19999999999999996 -0.25 1 0 -0 1 0.20000000000000001
1 1.5707963267948966 0 0 1 
1 0 0.25 1 0 
1 -1.5707963267948966 0 1 0 
2 -0.22000000000000008 -0.98999999999999988 1 0 -0 1 0.54000000000000004
1 1.5707963267948966 0 0 1 
1 0 0.53999999999999992 1 0 
1 -0.76000000000000001 -1.55 1 0 
1 0 0 1 0 
2 -0.19999999999999996 -1.75 1 0 0 -1 0.20000000000000001
1 -4.7123889803846897 0 1 0 
2 -0.22000000000000008 -1.0100000000000002 1 0 0 -1 0.54000000000000004
1 -1.5707963267948966 0 1 0 
1 0 -1.55 0 -1 
1 0 0 0 1 
1 -0.76000000000000001 -1 0 -1 
1 0 0.55000000000000004 0 1 
1 0 -2 1 0 
1 0 0 1 0 
1 0.76000000000000001 -1.55 0 -1 
1 0 1.55 0 1 
1 0 0 1 0 
1 0 0 1 0 
1 0 0 0 -1 
1 0 0 0 1 
1 0 0 1 0 
1 0 0 0 1 
1 0 0.56000000000000016 1 0 
1 1.5707963267948966 0 0 1 
1 0.76000000000000001 0 0 1 
1 0 0 1 0 
1 0 0 0 1 
1 0.53999999999999992 0 0 1 
1 0 2 1 0 
1 0.76000000000000001 0 0 1 
1 0.56000000000000005 0 0 1 
1 0 0 0 1 
1 0 0 0 1 
1 0 0.45000000000000001 1 0 
1 1.5707963267948966 0 0 1 
1 0 0.19999999999999996 1 0 
Curves 36
1 5 0 0 0 0 1 
1 0 -0.55000000000000004 0.56000000000000005 1 0 0 
1 0 -0.55000000000000016 0.53999999999999992 1 0 0 
1 0 0 0 0 0 1 
8 4.7123889803846897 6.2831853071795862
2 5 -0.75 0.56000000000000005 1 0 0 -0 0 1 0 -1 0 0.20000000000000001
8 1.5707963267948966 3.1415926535897931
2 5 -0.01000000000000012 0.53999999999999992 1 0 0 -0 0 1 0 -1 0 0.54000000000000004
1 5 0 0 -0 1 0 
1 5 -0.55000000000000004 0 0 1 0 
1 5 0 0 0 0 1 
8 1.5707963267948966 3.1415926535897931
2 5 0.01000000000000012 0.53999999999999992 -1 -0 -0 -0 0 1 0 1 -0 0.54000000000000004
1 5 0.55000000000000004 1.52 0 1 0 
1 5 0.55000000000000004 0 0 0 1 
1 5 0.45000000000000001 0 0 0 1 
8 4.7123889803846897 6.2831853071795862
2 5 0.75 0.56000000000000005 -1 -0 -0 -0 0 1 0 1 -0 0.20000000000000001
1 5 0 0 -0 1 0 
8 4.7123889803846897 6.2831853071795862
2 0 -0.75 0.56000000000000005 1 0 0 -0 0 1 0 -1 0 0.20000000000000001
1 0 -0.75 0.76000000000000001 1 0 0 
8 1.5707963267948966 3.1415926535897931
2 0 -0.01000000000000012 0.53999999999999992 1 0 0 -0 0 1 0 -1 0 0.54000000000000004
1 0 -0.010000000000000149 -1.1e-16 1 0 0 
1 0 0.55000000000000004 0 0 0 1 
8 4.7123889803846897 6.2831853071795862
2 0 0.75 0.56000000000000005 -1 -0 -0 -0 0 1 0 1 -0 0.20000000000000001
8 1.5707963267948966 3.1415926535897931
2 0 0.01000000000000012 0.53999999999999992 -1 -0 -0 -0 0 1 0 1 -0 0.54000000000000004
1 0 0 0 -0 1 0 
1 0 0 0 0 1 0 
1 0 0.45000000000000001 0 0 0 1 
1 0 0.55000000000000004 1.52 0 1 0 
1 0 0 0 0 0 1 
1 0 0 0 -0 1 0 
1 0 0 0 1 0 -0 
1 0 0.010000000000000149 -1.1e-16 1 0 0 
1 0 0 0.76000000000000001 1 0 -0 
1 0 0.55000000000000016 0.53999999999999992 1 0 0 
1 0 0.45000000000000001 0.76000000000000001 1 0 -0 
1 0 0.55000000000000004 0.56000000000000005 1 0 0 
1 0 0.45000000000000001 0 1 0 -0 
1 0 0.75 0.76000000000000001 1 0 0 
Polygon3D 0
PolygonOnTriangulations 0
Surfaces 14
1 0 0 0 -0 1 0 0 0 1 1 0 -0 
1 5 -1 0.76000000000000001 1 0 0 -0 0 1 0 -1 0 
2 0 -0.75 0.56000000000000005 1 0 0 -0 1 0 0 -0 1 0.20000000000000001
2 0 -0.01000000000000012 0.53999999999999992 1 0 0 0 -1 0 0 0 -1 0.54000000000000004
1 0 -1 0.76000000000000001 1 0 0 -0 0 1 0 -1 0 
1 0 0 0 0 0 1 1 0 -0 -0 1 0 
1 0 -0.55000000000000004 0 0 0 1 1 0 -0 -0 1 0 
1 0 0 0 -0 1 0 0 0 1 1 0 -0 
2 0 0.01000000000000012 0.53999999999999992 1 0 0 -0 1 0 -0 0 -1 0.54000000000000004
1 0 -1 1.52 0 0 1 1 0 -0 -0 1 0 
1 0 0.55000000000000004 0 -0 1 0 0 0 1 1 0 -0 
1 0 0.45000000000000001 0 -0 1 0 0 0 1 1 0 -0 
2 0 0.75 0.56000000000000005 1 0 0 0 -1 0 -0 -0 1 0.20000000000000001
1 0 0 0 0 0 1 1 0 -0 -0 1 0 
Triangulations 0

TShapes 91
Ve
1e-07
5 -0.55 0.56
0 0

0101101
*
Ve
1e-07
5 -0.55 0.54
0 0

0101101
*
Ed
 1e-07 1 1 0
1  1 0 0.54 0.56
2  1 1 0 0.54 0.56
2  2 2 8 0.54 0.56
0

0101000
-91 10 +90 10 *
Ve
1e-07
0 -0.55 0.56
0 0

0101101
*
Ed
 1e-07 1 1 0
1  2 0 0 5
2  3 1 7 0 5
2  4 3 0 0 5
4 G1 1 7 3 0
0

0101000
+88 11 -91 11 *
Ve
1e-07
0 -0.55 0.54
0 0

0101101
*
Ed
 1e-07 1 1 0
1  3 0 0 5
2  5 1 12 0 5
2  6 4 0 0 5
4 G1 1 12 4 0
0

0101000
+86 13 -90 13 *
Ed
 1e-07 1 1 0
1  4 0 0.54 0.56
2  7 1 0 0.54 0.56
2  8 5 8 0.54 0.56
0

0101000
-88 10 +86 10 *
Wi

0101100
-89 7 +87 0 -85 3 +84 7 *
Fa
0  1e-07 1 5

0111000
+83 6 *
Ve
1e-07
5 -0.75 0.76
0 0

0101101
*
Ed
 1e-07 1 1 0
1  5 0 4.71238898038469 6.28318530717959
2  9 2 4 4.71238898038469 6.28318530717959
2  10 3 0 4.71238898038469 6.28318530717959
0

0101000
+91 11 -81 11 *
Ve
1e-07
5 -0.01 -0
0 0

0101101
*
Ed
 1e-07 1 1 0
1  6 0 1.5707963267949 3.14159265358979
2  11 2 2 1.5707963267949 3.14159265358979
2  12 4 0 1.5707963267949 3.14159265358979
0

0101000
+90 13 -79 13 *
Ve
1e-07
5 -1 0.76
0 0

0101101
*
Ed
 1e-07 1 1 0
1  7 0 0 0.25
2  13 2 16 0 0.25
2  14 6 0 0 0.25
0

0101000
-81 17 +77 17 *
Ve
1e-07
5 0.01 -0
0 0

0101101
*
Ed
 1e-07 1 1 0
1  8 0 0.54 0.56
2  15 2 0 0.54 0.56
2  16 7 0 0.54 0.56
0

0101000
+79 18 -75 18 *
Ve
1e-07
5 -1 1.52
0 0

0101101
*
Ed
 1e-07 1 1 0
1  9 0 0 0.76
2  17 2 16 0 0.76
2  18 8 0 0 0.76
0

0101000
-73 17 +77 17 *
Ve
1e-07
5 0.55 0.54
0 0

0101101
*
Ed
 1e-07 1 1 0
1  10 0 1.5707963267949 3.14159265358979
2  19 2 2 1.5707963267949 3.14159265358979
2  20 9 0 1.5707963267949 3.14159265358979
0

0101000
+71 13 -75 13 *
Ve
1e-07
5 1 1.52
0 0

0101101
*
Ed
 1e-07 1 1 0
1  11 0 -1.55 0.45
2  21 2 0 -1.55 0.45
2  22 10 0 -1.55 0.45
0

0101000
+73 18 -69 18 *
Ve
1e-07
5 0.55 0.56
0 0

0101101
*
Ed
 1e-07 1 1 0
1  12 0 0.54 0.56
2  23 2 21 0.54 0.56
2  24 11 0 0.54 0.56
0

0101000
-67 22 +71 22 *
Ve
1e-07
5 1 0.76
0 0

0101101
*
Ed
 1e-07 1 1 0
1  13 0 0 0.76
2  25 2 25 0 0.76
2  26 12 0 0 0.76
0

0101000
-69 26 +65 26 *
Ve
1e-07
5 0.75 0.76
0 0

0101101
*
Ed
 1e-07 1 1 0
1  14 0 4.71238898038469 6.28318530717959
2  27 2 4 4.71238898038469 6.28318530717959
2  28 13 0 4.71238898038469 6.28318530717959
0

0101000
+67 11 -63 11 *
Ed
 1e-07 1 1 0
1  15 0 0.2 0.45
2  29 2 25 0.2 0.45
2  30 14 0 0.2 0.45
0

0101000
+63 26 -65 26 *
Wi

0101100
-89 7 -80 0 +78 3 +76 15 +74 4 -72 15 -70 3 -68 4 +66 20 +64 24 
+62 0 +61 24 *
Fa
0  1e-07 2 0

0111000
+60 6 *
Ve
1e-07
0 -0.75 0.76
0 0

0101101
*
Ed
 1e-07 1 1 0
1  16 0 4.71238898038469 6.28318530717959
2  31 3 0 4.71238898038469 6.28318530717959
2  32 5 4 4.71238898038469 6.28318530717959
0

0101000
+88 11 -58 11 *
Ed
 1e-07 1 1 0
1  17 0 0 5
2  33 3 0 0 5
2  34 6 15 0 5
4 G1 3 0 6 15
0

0101000
+58 11 -81 11 *
Wi

0101100
+57 0 -87 0 +56 0 -80 0 *
Fa
0  1e-07 3 0

0111000
+55 0 *
Ve
1e-07
0 -0.01 -0
0 0

0101101
*
Ed
 1e-07 1 1 0
1  18 0 1.5707963267949 3.14159265358979
2  35 4 0 1.5707963267949 3.14159265358979
2  36 5 2 1.5707963267949 3.14159265358979
0

0101000
+86 13 -53 13 *
Ed
 1e-07 1 1 0
1  19 0 -0 5
2  37 4 0 -0 5
2  38 7 2 -0 5
4 G1 4 0 7 2
0

0101000
+53 13 -79 13 *
Wi

0101100
+52 0 -85 0 +51 0 -78 0 *
Fa
0  1e-07 4 0

0111000
+50 0 *
Ve
1e-07
0 0.55 0.56
0 0

0101101
*
Ve
1e-07
0 0.55 0.54
0 0

0101101
*
Ed
 1e-07 1 1 0
1  20 0 0.54 0.56
2  39 5 21 0.54 0.56
2  40 11 0 0.54 0.56
0

0101000
-48 22 +47 22 *
Ve
1e-07
0 0.75 0.76
0 0

0101101
*
Ed
 1e-07 1 1 0
1  21 0 4.71238898038469 6.28318530717959
2  41 5 4 4.71238898038469 6.28318530717959
2  42 13 0 4.71238898038469 6.28318530717959
0

0101000
+48 11 -45 11 *
Ve
1e-07
0 0.01 -0
0 0

0101101
*
Ed
 1e-07 1 1 0
1  22 0 1.5707963267949 3.14159265358979
2  43 5 2 1.5707963267949 3.14159265358979
2  44 9 0 1.5707963267949 3.14159265358979
0

0101000
+47 13 -43 13 *
Ve
1e-07
0 1 0.76
0 0

0101101
*
Ed
 1e-07 1 1 0
1  23 0 0.2 0.45
2  45 5 25 0.2 0.45
2  46 14 0 0.2 0.45
0

0101000
+45 26 -41 26 *
Ed
 1e-07 1 1 0
1  24 0 -0.01 0.01
2  47 5 0 -0.01 0.01
2  48 7 0 -0.01 0.01
0

0101000
+53 18 -43 18 *
Ve
1e-07
0 1 1.52
0 0

0101101
*
Ed
 1e-07 1 1 0
1  25 0 0 0.76
2  49 5 25 0 0.76
2  50 12 0 0 0.76
0

0101000
-38 26 +41 26 *
Ve
1e-07
0 -1 1.52
0 0

0101101
*
Ed
 1e-07 1 1 0
1  26 0 -1.55 0.45
2  51 5 0 -1.55 0.45
2  52 10 0 -1.55 0.45
0

0101000
+36 18 -38 18 *
Ve
1e-07
0 -1 0.76
0 0

0101101
*
Ed
 1e-07 1 1 0
1  27 0 0 0.76
2  53 5 16 0 0.76
2  54 8 0 0 0.76
0

0101000
-36 17 +34 17 *
Ed
 1e-07 1 1 0
1  28 0 0 0.25
2  55 5 16 0 0.25
2  56 6 0 0 0.25
0

0101000
-58 17 +34 17 *
Wi

0101100
+46 20 +44 0 -42 3 +40 24 +39 4 +37 24 +52 3 -35 4 -84 7 -33 15 
-57 0 +32 15 *
Fa
0  1e-07 5 0

0111000
+31 6 *
Ed
 1e-07 1 1 0
1  29 0 0 5
2  57 6 0 0 5
2  58 8 0 0 5
0

0101000
-77 17 +34 17 *
Wi

0101100
-32 15 -56 0 +29 15 +76 15 *
Fa
0  1e-07 6 14

0111000
+28 6 *
Ed
 1e-07 1 1 0
1  30 0 0 5
2  59 7 2 0 5
2  60 9 0 0 5
4 G1 7 2 9 0
0

0101000
+43 13 -75 13 *
Wi

0101100
-39 2 +51 0 -26 0 +74 2 *
Fa
0  1e-07 7 0

0111000
+25 27 *
Ed
 1e-07 1 1 0
1  31 0 0 5
2  61 8 0 0 5
2  62 10 16 0 5
0

0101000
-73 17 +36 17 *
Wi

0101000
-29 0 -72 0 +23 0 +33 0 *
Fa
0  1e-07 8 0

0111000
+22 0 *
Ed
 1e-07 1 1 0
1  32 0 0 5
2  63 9 0 0 5
2  64 11 28 0 5
4 G1 9 0 11 28
0

0101000
+47 13 -71 13 *
Wi

0101100
+42 0 -20 0 +26 0 -70 0 *
Fa
0  1e-07 9 0

0111000
+19 0 *
Ed
 1e-07 1 1 0
1  33 0 0 5
2  65 10 25 0 5
2  66 12 0 0 5
0

0101000
-69 26 +38 26 *
Wi

0101000
+23 14 +68 0 -17 23 -35 0 *
Fa
0  1e-07 10 0

0111000
+16 0 *
Ed
 1e-07 1 1 0
1  34 0 0 5
2  67 11 20 0 5
2  68 13 0 0 5
4 G1 11 20 13 0
0

0101000
+48 11 -67 11 *
Wi

0101100
-66 20 +14 0 -20 3 +46 20 *
Fa
0  1e-07 11 19

0111000
+13 6 *
Ed
 1e-07 1 1 0
1  35 0 0 5
2  69 12 0 0 5
2  70 14 0 0 5
0

0101000
-65 26 +41 26 *
Wi

0101000
-11 0 -64 0 +17 0 +37 0 *
Fa
0  1e-07 12 0

0111000
+10 0 *
Ed
 1e-07 1 1 0
1  36 0 0 5
2  71 13 0 0 5
2  72 14 24 0 5
4 G1 13 0 14 24
0

0101000
+45 11 -63 11 *
Wi

0101100
+44 0 -14 0 +8 0 -62 0 *
Fa
0  1e-07 13 0

0111000
+7 0 *
Wi

0101100
-40 24 +8 0 -11 24 +61 24 *
Fa
0  1e-07 14 23

0111000
+5 6 *
Sh

0101100
-82 4 +59 4 -54 0 +49 3 -30 4 -27 4 -24 4 -21 15 -18 3 +15 4 
+12 4 +9 24 +6 0 -4 4 *
So

0100000
+3 0 *
Co

1100000
+2 0 *

+1 1 