DBRep_DrawableShape

CASCADE Topology V1, (c) Matra-Datavision
Locations 1
1
              1               0               0             250 
              0               1               0               0 
              0               0               1               0 
Curve2ds 56
1 6.2831853071795862 -0.14142135623730923 -1 0 
1 0 0 1 0 
7 0 0  1 2 2  -4.1389000000000002e-13 0  -4.1389000000000002e-13 -0.14142135623724611 
 0 2 0.141421356237 2
7 0 0  1 2 2  6.2831853071795862 0  6.2831853071795862 -0.14142135623724611 
 0 2 0.141421356237 2
1 0 0.90000000000000002 1 0 
1 6.2831853071795862 0 -1 0 
1 6.2831853071795862 -0.141421356237309 -1 0 
1 0 8.625 1 0 
1 6.2831853071795862 0 0 1 
1 4.1389000000000002e-13 0 0 1 
1 0 0.10000000000000001 1 0 
1 0 0 1 -0 
1 0 8.75 1 0 
1 0 8.75 1 0 
1 6.2831853071795862 0 0 1 
1 4.1389000000000002e-13 0 0 1 
1 0 0.90000000000000002 1 0 
1 6.2831853071795862 0 -1 0 
1 0 0.10000000000000001 1 0 
1 0 0 1 -0 
1 0 -0.14142135623724611 1 -0 
7 0 0  1 2 2  4.1389000000000002e-13 0  4.1389000000000002e-13 -0.14142135623724611 
 0 2 0.141421356237 2
7 0 0  1 2 2  6.2831853071795862 0  6.2831853071795862 -0.14142135623724611 
 0 2 0.141421356237 2
1 0 6.5 1 0 
1 0 8.625 1 0 
1 0 8.625 1 0 
1 6.2831853071795862 0 0 1 
1 4.1389000000000002e-13 0 0 1 
1 0 8.75 1 0 
1 0 -0.14142135623724611 1 -0 
1 0 0.125 1 0 
1 6.2831853071795862 0 0 1 
1 4.1389000000000002e-13 0 0 1 
7 0 0  1 2 2  -4.1389000000000002e-13 0  -4.1389000000000002e-13 -0.14142135623724611 
 0 2 0.141421356237 2
7 0 0  1 2 2  6.2831853071795862 0  6.2831853071795862 -0.14142135623724611 
 0 2 0.141421356237 2
1 0 8.75 1 0 
1 0 0.125 1 0 
1 0 0.125 1 0 
1 6.2831853071795862 0 0 1 
1 4.1389000000000002e-13 0 0 1 
1 0 0 1 0 
1 0 0 1 0 
1 6.2831853071800001 -0 0 1 
1 0 -0 0 1 
1 6.2831853071800001 -0 0 1 
1 0 -0 0 1 
1 0 0 1 0 
1 0 0 1 0 
1 6.2831853071795862 0 0 1 
1 4.1389000000000002e-13 0 0 1 
1 6.2831853071795862 0 0 1 
1 4.1389000000000002e-13 0 0 1 
7 0 0  1 2 2  4.1389000000000002e-13 0  4.1389000000000002e-13 -0.14142135623724611 
 0 2 0.141421356237 2
7 0 0  1 2 2  6.2831853071795862 0  6.2831853071795862 -0.14142135623724611 
 0 2 0.141421356237 2
1 6.2831853071795862 0 0 1 
1 4.1389000000000002e-13 0 0 1 
Curves 38
2 0 0 1 0 0 1 1 0 -0 -0 1 0 8.9000000000000004
2 0 0 1 0 0 1 1 0 -0 -0 1 0 6.125
1 9 0 8.4000000000000004 -0.70710678118654757 0 0.70710678118654757 
2 0 0 8.4000000000000004 0 0 1 1 0 -0 -0 1 0 9
2 0 0 8.5 0 0 1 1 0 -0 -0 1 0 8.9000000000000004
2 0 0 8.5 0 0 1 1 0 -0 -0 1 0 4.5
1 9 -2.1999999999999999e-15 7.5 0 0 1 
2 0 0 7.5999999999999996 0 0 1 1 0 -0 -0 1 0 9
2 0 0 8.625 0 0 1 1 0 -0 -0 1 0 4.5
2 0 0 8.625 0 0 1 1 0 -0 -0 1 0 4
1 9 -2.1999999999999999e-15 0 0 0 1 
2 0 0 0.90000000000000002 0 0 1 1 0 -0 -0 1 0 9
2 0 0 0.10000000000000001 0 0 1 1 0 -0 -0 1 0 9
2 0 0 7.5 0 0 1 1 0 -0 -0 1 0 8.9000000000000004
1 9 0 7.5999999999999996 -0.70710678118654757 -0 -0.70710678118654757 
2 0 0 7.5 0 0 1 1 0 -0 -0 1 0 6.125
2 0 0 8.5 0 0 1 1 0 -0 -0 1 0 4
2 0 0 8.5 0 0 1 1 0 -0 -0 1 0 3
1 3 -7.3000000000000003e-16 -0.125 0 0 1 
2 0 0 8.625 0 0 1 1 0 -0 -0 1 0 3
2 0 0 0 0 0 1 1 0 -0 -0 1 0 8.9000000000000004
2 0 0 0 0 0 1 1 0 -0 -0 1 0 4.5
1 4 -9.7999999999999995e-16 -0.125 0 0 1 
1 9 0 0.90000000000000002 -0.70710678118654757 0 0.70710678118654757 
2 0 0 8.625 0 0 1 1 0 -0 -0 1 0 2.5
2 0 0 0 0 0 1 1 0 -0 -0 1 0 4
2 0 0 0 0 0 1 1 0 -0 -0 1 0 3
1 2.5 -6.0999999999999995e-16 -0.125 0 0 1 
2 0 0 -0.125 0 0 1 1 0 -0 -0 1 0 2.5
2 0 0 -0.125 0 0 1 1 0 -0 -0 1 0 3
1 3 -7.3000000000000003e-16 -0.125 0 0 1 
1 4.5 -1.0999999999999999e-15 -0.125 0 0 1 
2 0 0 -0.125 0 0 1 1 0 -0 -0 1 0 4.5
2 0 0 -0.125 0 0 1 1 0 -0 -0 1 0 4
1 4 -9.7999999999999995e-16 -0.125 0 0 1 
1 6.125 -1.4999999999999999e-15 1 0 0 1 
1 9 0 0.10000000000000001 -0.70710678118654757 -0 -0.70710678118654757 
1 4.5 -1.0999999999999999e-15 -0.125 0 0 1 
Polygon3D 0
PolygonOnTriangulations 0
Surfaces 24
1 0 0 1 0 0 1 1 0 -0 -0 1 0 
3 0 0 0.90000000000000002 -0 -0 -1 1 0 0 0 -1 0 9
0.78539816339699997
2 0 0 1 0 0 1 1 0 -0 -0 1 0 6.125
3 0 0 8.4000000000000004 -0 -0 -1 1 0 0 0 -1 0 9
0.78539816339699997
2 0 0 7.5 0 0 1 1 0 -0 -0 1 0 9
1 0 0 8.5 0 0 1 1 0 -0 -0 1 0 
2 0 0 -0.125 0 0 1 1 0 -0 -0 1 0 4.5
3 0 0 7.5999999999999996 0 0 1 1 0 -0 -0 1 0 9
0.78539816339699997
1 0 0 8.625 0 0 1 1 0 -0 -0 1 0 
2 0 0 -0.125 0 0 1 1 0 -0 -0 1 0 4
2 0 0 0 0 0 1 1 0 -0 -0 1 0 9
3 0 0 0.10000000000000001 0 0 1 1 0 -0 -0 1 0 9
0.78539816339699997
1 0 0 7.5 0 0 1 1 0 -0 -0 1 0 
1 0 0 8.5 0 0 1 1 0 -0 -0 1 0 
2 0 0 -0.125 0 0 1 1 0 -0 -0 1 0 3
1 0 0 8.625 0 0 1 1 0 -0 -0 1 0 
1 0 0 0 0 0 1 1 0 -0 -0 1 0 
2 0 0 -0.125 0 0 1 1 0 -0 -0 1 0 4.5
2 0 0 -0.125 0 0 1 1 0 -0 -0 1 0 2.5
1 0 0 0 0 0 1 1 0 -0 -0 1 0 
2 0 0 -0.125 0 0 1 1 0 -0 -0 1 0 4
2 0 0 -0.125 0 0 1 1 0 -0 -0 1 0 3
1 0 0 -0.125 0 0 1 1 0 -0 -0 1 0 
1 0 0 -0.125 0 0 1 1 0 -0 -0 1 0 
Triangulations 0

TShapes 122
Ve
1e-07
8.9 0 1
0 0

0101101
*
Ed
 1e-07 1 1 0
1  1 0 0 6.28318530717959
2  1 2 0 0 6.28318530717959
4 C0 1 0 2 0
0

0101000
+122 0 -122 0 *
Wi

0101100
+121 0 *
Ve
1e-07
6.125 -2e-15 1
0 0

0101101
*
Ed
 1e-07 1 1 0
1  2 0 0 6.28318530717959
2  2 3 0 0 6.28318530717959
4 C0 1 0 3 0
0

0101000
+119 0 -119 0 *
Wi

0101100
-118 0 *
Fa
0  1e-07 1 0

0111000
+120 0 +117 0 *
Ve
1e-07
9 0 8.4
0 0

0101101
*
Ve
1e-07
8.9 0 8.5
0 0

0101101
*
Ed
 1e-07 1 1 0
1  3 0 0 0.141421356237309
3  3 4CN 4 0 0 0.141421356237309
0

0101000
+115 0 -114 0 *
Ed
 1e-07 1 1 0
1  4 0 0 6.28318530717959
2  5 5 0 0 6.28318530717959
2  6 4 0 0 6.28318530717959
4 C0 4 0 5 0
0

0101000
+115 0 -115 0 *
Ed
 1e-07 1 1 0
1  5 0 0 6.28318530717959
2  7 4 0 0 6.28318530717959
4 C0 4 0 6 0
0

0101000
+114 0 -114 0 *
Wi

0101100
-113 0 +112 0 +113 0 -111 0 *
Fa
0  1e-07 4 0

0111000
+110 0 *
Wi

0101100
+111 0 *
Ve
1e-07
4.5 -1e-15 8.5
0 0

0101101
*
Ed
 1e-07 1 1 0
1  6 0 0 6.28318530717959
2  8 7 0 0 6.28318530717959
4 C0 6 0 7 0
0

0101000
+107 0 -107 0 *
Wi

0101100
-106 0 *
Fa
0  1e-07 6 0

0111000
+108 0 +105 0 *
Ve
1e-07
9 0 7.6
0 0

0101101
*
Ed
 1e-07 1 1 0
1  7 0 0.1 0.9
3  9 10CN 5 0 0.1 0.9
0

0101000
+103 0 -115 0 *
Ed
 1e-07 1 1 0
1  8 0 0 6.28318530717959
2  11 5 0 0 6.28318530717959
2  12 8 0 0 6.28318530717959
4 C0 5 0 8 0
0

0101000
+103 0 -103 0 *
Wi

0101100
+102 0 -112 0 -102 0 +101 0 *
Fa
0  1e-07 5 0

0111000
+100 0 *
Ve
1e-07
4.5 -1e-15 8.625
0 0

0101101
*
Ed
 1e-07 1 1 0
1  9 0 0 6.28318530717959
2  13 7 0 0 6.28318530717959
4 C0 9 0 7 0
0

0101000
+98 0 -98 0 *
Wi

0101100
+97 0 *
Ve
1e-07
4 -1e-15 8.625
0 0

0101101
*
Ed
 1e-07 1 1 0
1  10 0 0 6.28318530717959
2  14 10 0 0 6.28318530717959
4 C0 9 0 10 0
0

0101000
+95 0 -95 0 *
Wi

0101100
-94 0 *
Fa
0  1e-07 9 0

0111000
+96 0 +93 0 *
Ve
1e-07
9 0 0.1
0 0

0101101
*
Ve
1e-07
9 0 0.9
0 0

0101101
*
Ed
 1e-07 1 1 0
1  11 0 0.1 0.9
3  15 16CN 11 0 0.1 0.9
0

0101000
+91 0 -90 0 *
Ed
 1e-07 1 1 0
1  12 0 0 6.28318530717959
2  17 11 0 0 6.28318530717959
2  18 2 0 0 6.28318530717959
4 C0 11 0 2 0
0

0101000
+90 0 -90 0 *
Ed
 1e-07 1 1 0
1  13 0 0 6.28318530717959
2  19 11 0 0 6.28318530717959
2  20 12 0 0 6.28318530717959
4 C0 11 0 12 0
0

0101000
+91 0 -91 0 *
Wi

0101100
+89 0 -88 0 -89 0 +87 0 *
Fa
0  1e-07 11 0

0111000
+86 0 *
Ve
1e-07
8.9 0 7.5
0 0

0101101
*
Ed
 1e-07 1 1 0
1  14 0 0 6.28318530717959
2  21 8 0 0 6.28318530717959
4 C0 8 0 13 0
0

0101000
+84 0 -84 0 *
Ed
 1e-07 1 1 0
1  15 0 -0 0.141421356237309
3  22 23CN 8 0 -0 0.141421356237309
0

0101000
+103 0 -84 0 *
Wi

0101100
+83 0 -82 0 -101 0 +82 0 *
Fa
0  1e-07 8 0

0111000
+81 0 *
Wi

0101100
+83 0 *
Ve
1e-07
6.125 -2e-15 7.5
0 0

0101101
*
Ed
 1e-07 1 1 0
1  16 0 0 6.28318530717959
2  24 3 0 0 6.28318530717959
4 C0 13 0 3 0
0

0101000
+78 0 -78 0 *
Wi

0101100
-77 0 *
Fa
0  1e-07 13 0

0111000
+79 0 +76 0 *
Ve
1e-07
4 -1e-15 8.5
0 0

0101101
*
Ed
 1e-07 1 1 0
1  17 0 0 6.28318530717959
2  25 10 0 0 6.28318530717959
4 C0 14 0 10 0
0

0101000
+74 0 -74 0 *
Wi

0101100
+73 0 *
Ve
1e-07
3 -1e-15 8.5
0 0

0101101
*
Ed
 1e-07 1 1 0
1  18 0 0 6.28318530717959
2  26 15 0 0 6.28318530717959
4 C0 14 0 15 0
0

0101000
+71 0 -71 0 *
Wi

0101100
-70 0 *
Fa
0  1e-07 14 0

0111000
+72 0 +69 0 *
Ve
1e-07
3 -1e-15 8.625
0 0

0101101
*
Ed
 1e-07 1 1 0
1  19 0 8.625 8.75
3  27 28CN 15 0 8.625 8.75
0

0101000
+71 0 -67 0 *
Ed
 1e-07 1 1 0
1  20 0 0 6.28318530717959
2  29 15 0 0 6.28318530717959
4 C0 15 0 16 0
0

0101000
+67 0 -67 0 *
Wi

0101100
+66 0 -65 0 -66 0 +70 0 *
Fa
0  1e-07 15 0

0111000
+64 0 *
Ve
1e-07
8.9 0 0
0 0

0101101
*
Ed
 1e-07 1 1 0
1  21 0 0 6.28318530717959
2  30 12 0 0 6.28318530717959
4 C0 17 0 12 0
0

0101000
+62 0 -62 0 *
Wi

0101100
+61 0 *
Ve
1e-07
4.5 -1e-15 0
0 0

0101101
*
Ed
 1e-07 1 1 0
1  22 0 0 6.28318530717959
2  31 18 0 0 6.28318530717959
4 C0 17 0 18 0
0

0101000
+59 0 -59 0 *
Wi

0101100
-58 0 *
Fa
0  1e-07 17 0

0111000
+60 0 +57 0 *
Ed
 1e-07 1 1 0
1  23 0 8.625 8.75
3  32 33CN 10 0 8.625 8.75
0

0101000
+74 0 -95 0 *
Wi

0101100
+73 0 +55 0 -94 0 -55 0 *
Fa
0  1e-07 10 0

0111000
+54 0 *
Ed
 1e-07 1 1 0
1  24 0 0 0.141421356237309
3  34 35CN 2 0 0 0.141421356237309
0

0101000
+90 0 -122 0 *
Wi

0101100
-52 0 +88 0 +52 0 -121 0 *
Fa
0  1e-07 2 0

0111000
+51 0 *
Wi

0101100
+65 0 *
Ve
1e-07
2.5 -1e-15 8.625
0 0

0101101
*
Ed
 1e-07 1 1 0
1  25 0 0 6.28318530717959
2  36 19 0 0 6.28318530717959
4 C0 16 0 19 0
0

0101000
+48 0 -48 0 *
Wi

0101100
-47 0 *
Fa
0  1e-07 16 0

0111000
+49 0 +46 0 *
Ve
1e-07
4 -1e-15 0
0 0

0101101
*
Ed
 1e-07 1 1 0
1  26 0 0 6.28318530717959
2  37 21 0 0 6.28318530717959
4 C0 20 0 21 0
0

0101000
+44 0 -44 0 *
Wi

0101100
+43 0 *
Ve
1e-07
3 -1e-15 0
0 0

0101101
*
Ed
 1e-07 1 1 0
1  27 0 0 6.28318530717959
2  38 22 0 0 6.28318530717959
4 C0 20 0 22 0
0

0101000
+41 0 -41 0 *
Wi

0101100
-40 0 *
Fa
0  1e-07 20 0

0111000
+42 0 +39 0 *
Ve
1e-07
2.5 -1e-15 -0.125
0 0

0101101
*
Ed
 1e-07 1 1 0
1  28 0 0 8.75
3  39 40CN 19 0 0 8.75
0

0101000
+37 0 -48 0 *
Ed
 1e-07 1 1 0
1  29 0 0 6.28318530717959
2  41 19 0 0 6.28318530717959
4 C0 19 0 23 0
0

0101000
+37 0 -37 0 *
Wi

0101100
+36 0 -47 0 -36 0 +35 0 *
Fa
0  1e-07 19 0

0111000
+34 0 *
Ve
1e-07
3 -1e-15 -0.125
0 0

0101101
*
Ed
 1e-07 1 1 0
1  30 0 0 6.28318530717959
2  42 22 0 0 6.28318530717959
4 C0 23 0 22 0
0

0101000
+32 0 -32 0 *
Wi

0101100
+31 0 *
Wi

0101100
-35 0 *
Fa
0  1e-07 23 0

0111000
+30 0 +29 0 *
Ed
 1e-07 1 1 0
1  31 0 0 0.125
3  43 44CN 22 0 0 0.125
0

0101000
+32 0 -41 0 *
Wi

0101100
-40 0 -27 0 +31 0 +27 0 *
Fa
0  1e-07 22 0

0111000
+26 0 *
Ve
1e-07
4.5 -1e-15 -0.125
0 0

0101101
*
Ed
 1e-07 1 1 0
1  32 0 0 0.125
3  45 46CN 18 0 0 0.125
0

0101000
+24 0 -59 0 *
Ed
 1e-07 1 1 0
1  33 0 0 6.28318530717959
2  47 18 0 0 6.28318530717959
4 C0 18 0 24 0
0

0101000
+24 0 -24 0 *
Wi

0101100
-58 0 -23 0 +22 0 +23 0 *
Fa
0  1e-07 18 0

0111000
+21 0 *
Ve
1e-07
4 -1e-15 -0.125
0 0

0101101
*
Ed
 1e-07 1 1 0
1  34 0 0 6.28318530717959
2  48 21 0 0 6.28318530717959
4 C0 21 0 24 0
0

0101000
+19 0 -19 0 *
Ed
 1e-07 1 1 0
1  35 0 0 0.125
3  49 50CN 21 0 0 0.125
0

0101000
+19 0 -44 0 *
Wi

0101100
+18 0 +17 0 -43 0 -17 0 *
Fa
0  1e-07 21 0

0111000
+16 0 *
Ed
 1e-07 1 1 0
1  36 0 0 6.5
3  51 52CN 3 0 0 6.5
0

0101000
+119 0 -78 0 *
Wi

0101100
+14 0 -77 0 -14 0 +118 0 *
Fa
0  1e-07 3 0

0111000
+13 0 *
Ed
 1e-07 1 1 0
1  37 0 -0 0.141421356237309
3  53 54CN 12 0 -0 0.141421356237309
0

0101000
+91 0 -62 0 *
Wi

0101100
+61 0 -11 0 -87 0 +11 0 *
Fa
0  1e-07 12 0

0111000
+10 0 *
Ed
 1e-07 1 1 0
1  38 0 8.625 8.75
3  55 56CN 7 0 8.625 8.75
0

0101000
+107 0 -98 0 *
Wi

0101100
+8 0 -97 0 -8 0 +106 0 *
Fa
0  1e-07 7 0

0111000
+7 0 *
Wi

0101100
+22 0 *
Wi

0101100
-18 0 *
Fa
0  1e-07 24 0

0111000
+5 0 +4 0 *
Sh

0101100
+116 0 +109 0 +104 0 +99 0 +92 0 +85 0 +80 0 -75 0 +68 0 +63 0 
-56 0 -53 0 +50 0 +45 0 -38 0 -33 0 -28 0 +25 0 +20 0 -15 0 
+12 0 +9 0 +6 0 -3 0 *
So

0100000
+2 0 *

+1 1 