DBRep_DrawableShape

CASCADE Topology V1, (c) Matra-Datavision
Locations 18
1
              1               0               0               0 
              0               1               0               0 
              0               0               1               0 
1
              1               0               0               0 
              0               1               0               0 
              0               0               1               0 
1
              1               0               0               0 
              0               1               0               0 
              0               0               1               0 
1
              1               0               0               0 
              0               1               0               0 
              0               0               1               0 
1
              1               0               0               0 
              0               1               0               0 
              0               0               1               0 
2  2 1 3 1 4 1 5 1 0
2  2 1 3 1 4 1 0
1
              1               0               0             293 
              0               1               0               7 
              0               0               1              -1 
1
              1               0               0             293 
              0               1               0             293 
              0               0               1              -1 
2  4 1 5 1 0
2  2 1 3 1 0
1
              1               0               0               7 
              0               1               0             293 
              0               0               1              -1 
2  3 1 4 1 5 1 0
1
              1               0               0               7 
              0               1               0               7 
              0               0               1              -1 
2  8 -1 0
2  9 -1 0
2  12 -1 0
2  14 -1 0
Curve2ds 48
1 0 0 1 0 
1 0 0 1 0 
1 3 0 0 -1 
1 0 0 0 1 
1 0 -300 1 0 
1 0 0 1 0 
1 0 0 0 -1 
1 0 0 0 1 
1 0 0 0 1 
1 0 0 1 0 
1 0 0 1 0 
1 0 300 1 0 
1 3 0 0 1 
1 0 0 1 0 
1 3 0 0 1 
1 0 300 1 0 
1 3 0 0 -1 
1 300 0 0 1 
2 293 7 1 0 -0 1 2
1 0 4 1 0 
2 293 293 1 0 -0 1 2
1 0 4 1 0 
2 7 293 1 0 -0 1 2
1 0 4 1 0 
2 7 7 1 0 -0 1 2
1 0 4 1 0 
1 0 0 0 1 
1 0 300 1 0 
1 0 -300 1 0 
1 0 300 1 0 
1 0 0 0 -1 
1 300 0 0 1 
2 293 7 1 0 -0 1 2
1 0 1 1 0 
2 293 293 1 0 -0 1 2
1 0 1 1 0 
2 7 293 1 0 -0 1 2
1 0 1 1 0 
2 7 7 1 0 -0 1 2
1 0 1 1 0 
1 6.2831853071795862 -0 0 1 
1 0 -0 0 1 
1 6.2831853071795862 -0 0 1 
1 0 -0 0 1 
1 6.2831853071795862 -0 0 1 
1 0 -0 0 1 
1 6.2831853071795862 -0 0 1 
1 0 -0 0 1 
Curves 24
1 0 0 0 0 0 1 
1 0 0 3 -0 1 0 
1 0 300 0 0 0 1 
1 0 0 0 -0 1 0 
1 0 0 0 1 0 -0 
1 300 0 0 0 0 1 
1 0 0 3 1 0 -0 
1 0 300 3 1 0 -0 
1 300 0 3 -0 1 0 
2 293 7 3 0 0 1 1 0 -0 -0 1 0 2
2 293 293 3 0 0 1 1 0 -0 -0 1 0 2
2 7 293 3 0 0 1 1 0 -0 -0 1 0 2
2 7 7 3 0 0 1 1 0 -0 -0 1 0 2
1 0 300 0 1 0 -0 
1 300 300 0 0 0 1 
1 300 0 0 -0 1 0 
2 293 7 0 0 0 1 1 0 -0 -0 1 0 2
2 293 293 0 0 0 1 1 0 -0 -0 1 0 2
2 7 293 0 0 0 1 1 0 -0 -0 1 0 2
2 7 7 0 0 0 1 1 0 -0 -0 1 0 2
1 2 -4.8999999999999997e-16 0 0 0 1 
1 2 -4.8999999999999997e-16 0 0 0 1 
1 2 -4.8999999999999997e-16 0 0 0 1 
1 2 -4.8999999999999997e-16 0 0 0 1 
Polygon3D 0
PolygonOnTriangulations 0
Surfaces 10
1 0 0 0 1 0 -0 0 0 1 0 -1 0 
1 0 0 0 -0 1 0 0 0 1 1 0 -0 
1 0 0 3 0 0 1 1 0 -0 -0 1 0 
1 0 300 0 -0 1 0 0 0 1 1 0 -0 
1 0 0 0 0 0 1 1 0 -0 -0 1 0 
1 300 0 0 1 0 -0 0 0 1 0 -1 0 
2 0 0 0 0 0 1 1 0 -0 -0 1 0 2
2 0 0 0 0 0 1 1 0 -0 -0 1 0 2
2 0 0 0 0 0 1 1 0 -0 -0 1 0 2
2 0 0 0 0 0 1 1 0 -0 -0 1 0 2
Triangulations 0

TShapes 71
Ve
1e-07
0 0 3
0 0

0101101
*
Ve
1e-07
0 0 0
0 0

0101101
*
Ed
 1e-07 1 1 0
1  1 0 0 3
2  1 1 0 0 3
2  2 2 0 0 3
0

0101000
-71 0 +70 0 *
Ve
1e-07
0 300 3
0 0

0101101
*
Ed
 1e-07 1 1 0
1  2 0 0 300
2  3 1 0 0 300
2  4 3 0 0 300
0

0101000
-68 0 +71 0 *
Ve
1e-07
0 300 0
0 0

0101101
*
Ed
 1e-07 1 1 0
1  3 0 0 3
2  5 1 0 0 3
2  6 4 0 0 3
0

0101000
-68 0 +66 0 *
Ed
 1e-07 1 1 0
1  4 0 0 300
2  7 1 0 0 300
2  8 5 0 0 300
0

0101000
-66 0 +70 0 *
Wi

0101100
-69 0 -67 0 +65 0 +64 0 *
Fa
0  1e-07 1 0

0111000
+63 0 *
Ve
1e-07
300 0 0
0 0

0101101
*
Ed
 1e-07 1 1 0
1  5 0 0 300
2  9 2 0 0 300
2  10 5 0 0 300
0

0101000
-61 0 +70 0 *
Ve
1e-07
300 0 3
0 0

0101101
*
Ed
 1e-07 1 1 0
1  6 0 0 3
2  11 6 0 0 3
2  12 2 0 0 3
0

0101000
-59 0 +61 0 *
Ed
 1e-07 1 1 0
1  7 0 0 300
2  13 2 0 0 300
2  14 3 0 0 300
0

0101000
-59 0 +71 0 *
Wi

0101100
-60 0 -58 0 +57 0 +69 0 *
Fa
0  1e-07 2 0

0111000
+56 0 *
Ve
1e-07
300 300 3
0 0

0101101
*
Ed
 1e-07 1 1 0
1  8 0 0 300
2  15 4 0 0 300
2  16 3 0 0 300
0

0101000
-54 0 +68 0 *
Ed
 1e-07 1 1 0
1  9 0 0 300
2  17 6 0 0 300
2  18 3 0 0 300
0

0101000
-54 0 +59 0 *
Wi

0101100
-67 6 -53 6 +57 6 +52 6 *
Ve
1.00000001e-07
295 7 3
0 0

0101101
*
Ed
 1e-07 1 1 0
1  10 0 0 6.28318530717959
2  19 3 7 0 6.28318530717959
2  20 7 8 0 6.28318530717959
0

0101000
+50 0 -50 0 *
Wi

0101100
-49 5 *
Ve
1e-07
295 293 3
0 0

0101101
*
Ed
 1e-07 1 1 0
1  11 0 0 6.28318530717959
2  21 3 6 0 6.28318530717959
2  22 8 9 0 6.28318530717959
0

0101000
+47 0 -47 0 *
Wi

0101100
-46 0 *
Ve
1e-07
9 293 3
0 0

0101101
*
Ed
 1e-07 1 1 0
1  12 0 0 6.28318530717959
2  23 3 11 0 6.28318530717959
2  24 9 12 0 6.28318530717959
0

0101000
+44 0 -44 0 *
Wi

0101100
-43 10 *
Ve
1.00000001e-07
9 7 3
0 0

0101101
*
Ed
 1e-07 1 1 0
1  13 0 0 6.28318530717959
2  25 3 2 0 6.28318530717959
2  26 10 14 0 6.28318530717959
0

0101000
+41 0 -41 0 *
Wi

0101100
-40 13 *
Fa
0  1e-07 3 6

0111000
+51 0 +48 0 +45 0 +42 0 +39 0 *
Ve
1e-07
300 300 0
0 0

0101101
*
Ed
 1e-07 1 1 0
1  14 0 0 300
2  27 4 0 0 300
2  28 5 0 0 300
0

0101000
-37 0 +66 0 *
Ed
 1e-07 1 1 0
1  15 0 0 3
2  29 6 0 0 3
2  30 4 0 0 3
0

0101000
-54 0 +37 0 *
Wi

0101100
-36 0 -35 0 +53 0 +65 0 *
Fa
0  1e-07 4 0

0111000
+34 0 *
Ed
 1e-07 1 1 0
1  16 0 0 300
2  31 6 0 0 300
2  32 5 0 0 300
0

0101000
-37 0 +61 0 *
Wi

0101100
-64 6 -36 6 +60 6 +32 6 *
Ve
1.00000001e-07
295 7 0
0 0

0101101
*
Ed
 1e-07 1 1 0
1  17 0 0 6.28318530717959
2  33 5 7 0 6.28318530717959
2  34 7 8 0 6.28318530717959
0

0101000
+30 0 -30 0 *
Wi

0101100
-29 5 *
Ve
1e-07
295 293 0
0 0

0101101
*
Ed
 1e-07 1 1 0
1  18 0 0 6.28318530717959
2  35 5 6 0 6.28318530717959
2  36 8 9 0 6.28318530717959
0

0101000
+27 0 -27 0 *
Wi

0101100
-26 0 *
Ve
1e-07
9 293 0
0 0

0101101
*
Ed
 1e-07 1 1 0
1  19 0 0 6.28318530717959
2  37 5 11 0 6.28318530717959
2  38 9 12 0 6.28318530717959
0

0101000
+24 0 -24 0 *
Wi

0101100
-23 10 *
Ve
1.00000001e-07
9 7 0
0 0

0101101
*
Ed
 1e-07 1 1 0
1  20 0 0 6.28318530717959
2  39 5 2 0 6.28318530717959
2  40 10 14 0 6.28318530717959
0

0101000
+21 0 -21 0 *
Wi

0101100
-20 13 *
Fa
0  1e-07 5 6

0111000
+31 0 +28 0 +25 0 +22 0 +19 0 *
Wi

0101100
-58 0 -52 0 +35 0 +32 0 *
Fa
0  1e-07 6 0

0111000
+17 0 *
Ed
 1e-07 1 1 0
1  21 0 1 4
3  41 42CN 7 0 1 4
0

0101000
+30 15 -50 15 *
Wi

0101100
-49 0 +15 8 +29 0 -15 8 *
Fa
0  1e-07 7 8

0111000
+14 0 *
Ed
 1e-07 1 1 0
1  22 0 1 4
3  43 44CN 8 0 1 4
0

0101000
+27 16 -47 16 *
Wi

0101100
-46 0 +12 9 +26 0 -12 9 *
Fa
0  1e-07 8 9

0111000
+11 0 *
Ed
 1e-07 1 1 0
1  23 0 1 4
3  45 46CN 9 0 1 4
0

0101000
+24 17 -44 17 *
Wi

0101100
-43 0 +9 12 +23 0 -9 12 *
Fa
0  1e-07 9 12

0111000
+8 0 *
Ed
 1e-07 1 1 0
1  24 0 1 4
3  47 48CN 10 0 1 4
0

0101000
+21 18 -41 18 *
Wi

0101100
-40 0 +6 14 +20 0 -6 14 *
Fa
0  1e-07 10 14

0111000
+5 0 *
Sh

0101100
-62 6 -55 6 +38 0 +33 6 -18 0 +16 6 -13 5 -10 0 -7 10 -4 13 
*
So

0100000
+3 0 *
Co

1100000
+2 0 *

+1 1 