DBRep_DrawableShape

CASCADE Topology V1, (c) Matra-Datavision
Locations 0
Curve2ds 116
1 0 -2.5 1 0 
1 0 -2.5 1 0 
1 0 -2.5 1 0 
1 0 -2.5 1 0 
7 0 0  1 2 2  2.1431335242915859 -30  2.5692554560925864 -30 
 2.1431335242920002 2 2.5692554560929999 2
7 0 0  1 2 2  3.7139298510865864 -30  4.1400517828875856 -30 
 3.7139298510869998 2 4.1400517828880004 2
7 0 0  1 2 2  5.2847261778815859 -30  5.710848109682586 -30 
 5.2847261778819998 2 5.7108481096829999 2
7 0 0  1 2 2  0.57233719749658629 -30  0.9984591292975864 -30 
 0.57233719749699996 2 0.99845912929799996 2
7 0 0  1 2 2  0.995968114716 -2.5  0.995968114716 0 
 -2.5 2 0 2
7 0 0  1 2 2  5.3792984318109998 -11.714999580380001  5.3792984318109998 0 
 -11.714999580380001 2 0 2
7 0 0  1 2 2  4.0454795289590004 -11.714999580380001  4.0454795289590004 0 
 -11.714999580380001 2 0 2
7 0 0  1 2 2  2.1456245388739998 -2.5  2.1456245388739998 0 
 -2.5 2 0 2
7 0 0  1 2 2  2.5667644415109998 -2.5  2.5667644415109998 0 
 -2.5 2 0 2
1 0 0 1 0 
7 0 0  1 2 2  3.8085021050160002 -11.714999580380001  3.8085021050160002 0 
 -11.714999580380001 2 0 2
7 0 0  1 2 2  2.474683202164 -11.714999580380001  2.474683202164 0 
 -11.714999580380001 2 0 2
7 0 0  1 2 2  3.7164208656679998 -2.5  3.7164208656679998 0 
 -2.5 2 0 2
7 0 0  1 2 2  4.1375607683059998 -2.5  4.1375607683059998 0 
 -2.5 2 0 2
1 0 0 1 0 
7 0 0  1 2 2  2.2377057782210001 -11.714999580380001  2.2377057782210001 0 
 -11.714999580380001 2 0 2
7 0 0  1 2 2  0.90388687536900003 -11.714999580380001  0.90388687536900003 0 
 -11.714999580380001 2 0 2
7 0 0  1 2 2  5.2872171924630003 -2.5  5.2872171924630003 0 
 -2.5 2 0 2
7 0 0  1 2 2  5.7083570951010003 -2.5  5.7083570951010003 0 
 -2.5 2 0 2
1 0 0 1 0 
7 0 0  1 2 2  0.666909451426 -11.714999580380001  0.666909451426 0 
 -11.714999580380001 2 0 2
7 0 0  1 2 2  5.616275855754 -11.714999580380001  5.616275855754 0 
 -11.714999580380001 2 0 2
7 0 0  1 2 2  0.57482821207900003 -2.5  0.57482821207900003 0 
 -2.5 2 0 2
1 0 0 1 0 
1 -1.570796326795 -10.64999961853 1 0 
1 0 0 1 0 
1 0 0 1 0 
1 0 0 1 0 
1 0 0 1 0 
1 0 0 1 0 
1 0 0 1 0 
1 0 0 1 0 
1 0 0 1 0 
1 0 0 1 0 
1 4.7123889803849996 -10.64999961853 1 0 
1 -1.570796326795 -10.64999961853 1 0 
1 -1.570796326795 -10.64999961853 1 0 
1 4.1389000000000002e-13 0 0 -1 
1 6.2831853071795862 0 0 -1 
1 0 -4.5 1 0 
1 4.1389000000000002e-13 0 0 -1 
1 6.2831853071795862 0 0 -1 
1 0 -4.5 1 0 
1 4.1389000000000002e-13 0 0 -1 
1 6.2831853071795862 0 0 -1 
1 0 -4.5 1 0 
1 4.1389000000000002e-13 0 0 -1 
1 6.2831853071795862 0 0 -1 
1 0 -4.5 1 0 
1 0 0 0 -1 
1 6.2831853071800001 0 0 -1 
1 0 -0.5 1 0 
1 6.2831853071795862 0 -1 0 
1 -4.1389000000000002e-13 0 -0 -1 
1 6.2831853071795862 0 -0 -1 
1 6.2831853071795862 -2.5 -1 0 
1 6.2831853071795862 0 -1 0 
1 4.7123889803845866 -1 1 -0 
1 0 0 -0 -1 
1 6.2831853071791723 0 -0 -1 
1 -1.5707963267944134 -1 1 -0 
7 0 0  1 2 2  0.64350110879358624 -22  0.64350110879358624 0 
 -22 2 0 2
1 6.2831853071795862 -22 -1 0 
7 0 0  1 2 2  5.6396841983865862 -22  5.6396841983865862 0 
 -22 2 -0 2
1 0.9984591292975864 0 -0 -1 
1 2.1431335242915859 -27.5 -0 -1 
7 0 0  1 2 2  5.2872171924630003 -2.75  5.2872171924630003 0 
 -2.75 2 0 2
1 0.90388812255558637 0 -0 -1 
1 2.237704531034586 0 -0 -1 
7 0 0  1 2 2  4.1375607683059998 -2.75  4.1375607683059998 0 
 -2.75 2 0 2
1 0 -2.75 1 0 
1 0 -2.75 1 0 
1 0 -2.75 1 0 
1 0 -2.75 1 0 
7 0 0  1 2 2  0.9984591292975864 0  0.57233719749658629 0 
 5.2847261778819998 2 5.7108481096829999 2
7 0 0  1 2 2  5.710848109682586 0  5.2847261778815859 0 
 0.57233719749699996 2 0.99845912929799996 2
7 0 0  1 2 2  4.1400517828875856 0  3.7139298510865864 0 
 2.1431335242920002 2 2.5692554560929999 2
7 0 0  1 2 2  2.5692554560925864 0  2.1431335242915859 0 
 3.7139298510869998 2 4.1400517828880004 2
1 0 0 1 0 
7 0 0  1 2 2  3.7164208656679998 -2.75  3.7164208656679998 0 
 -2.75 2 0 2
1 6.2831853071795862 -11.60000038147 -1 0 
1 6.2831853071795862 0 -1 0 
1 2.4746844493505864 0 -0 -1 
1 0 0 1 0 
1 6.2831853071795862 0 -1 0 
1 6.2831853071795862 0 -1 0 
1 6.2831853071795862 0 -1 0 
1 0.66690820423958641 0 -0 -1 
1 6.2831853071795862 -11.60000038147 -1 0 
1 0 0 1 0 
7 0 0  1 2 2  5.7083570951010003 -2.75  5.7083570951010003 0 
 -2.75 2 0 2
7 0 0  1 2 2  0.57482821207900003 -2.75  0.57482821207900003 0 
 -2.75 2 0 2
1 5.616277102940586 0 -0 -1 
7 0 0  1 2 2  0.995968114716 -2.75  0.995968114716 0 
 -2.75 2 0 2
1 0 0 1 0 
1 3.808500857829586 0 -0 -1 
7 0 0  1 2 2  2.5667644415109998 -2.75  2.5667644415109998 0 
 -2.75 2 0 2
7 0 0  1 2 2  2.1456245388739998 -2.75  2.1456245388739998 0 
 -2.75 2 0 2
1 4.0454807761455864 0 -0 -1 
1 5.379297184623586 0 -0 -1 
1 0 0 1 0 
1 4.1389000000000002e-13 0 0 -1 
1 6.2831853071795862 0 0 -1 
1 0 -3 1 0 
1 6.2831853071795862 -11.60000038147 -1 0 
1 6.2831853071795862 -11.60000038147 -1 0 
1 2.5692554560925864 0 -0 -1 
1 3.7139298510865864 -27.5 -0 -1 
1 4.1400517828875856 0 -0 -1 
1 5.2847261778815859 -27.5 -0 -1 
1 5.710848109682586 0 -0 -1 
1 0.57233719749658629 -27.5 -0 -1 
Curves 150
1 23.175000000000001 -21.149999999999999 38.850000381469997 -1 0 0 
2 0 0 38.850000381469997 0 0 -1 1 0 0 0 -1 0 25.199999999999999
1 21.149999999999999 10.574999999999999 38.850000381469997 0 -1 0 
2 0 0 38.850000381469997 0 0 -1 1 0 0 0 -1 0 25.199999999999999
1 2.0249999999999999 21.149999999999999 38.850000381469997 1 0 0 
2 0 0 38.850000381469997 0 0 -1 1 0 0 0 -1 0 25.199999999999999
1 -21.149999999999999 -10.574999999999999 38.850000381469997 0 1 0 
2 0 0 38.850000381469997 0 0 -1 1 0 0 0 -1 0 25.199999999999999
2 0 0 38.850000381469997 0 0 -1 1 0 0 0 -1 0 25.100000000000001
1 -21.100000000000001 13.594116374373 38.850000381469997 0 -1 0 
2 0 0 38.850000381469997 0 0 -1 1 0 0 0 -1 0 25.100000000000001
1 13.594116374373 21.100000000000001 38.850000381469997 -1 0 0 
2 0 0 38.850000381469997 0 0 -1 1 0 0 0 -1 0 25.100000000000001
1 21.100000000000001 -13.59411637437 38.850000381469997 0 1 0 
2 0 0 38.850000381469997 0 0 -1 1 0 0 0 -1 0 25.100000000000001
1 -13.59411637437 -21.100000000000001 38.850000381469997 1 0 0 
1 13.701003612874 -21.149999999999999 36.350000381469997 0 0 -1 
1 21.149999999999999 -21.149999999999999 36.350000381469997 -1 0 0 
1 16.650042725471 -21.149999999999999 47 0 0 1 
1 21.149999999999999 -21.149999999999999 47 -1 0 0 
1 -16.650042725470001 -21.149999999999999 47 0 0 1 
1 21.149999999999999 -21.149999999999999 36.350000381469997 -1 0 0 
1 -13.70100361287 -21.149999999999999 36.350000381469997 0 0 -1 
1 -21.149999999999999 -13.70100361287 36.350000381469997 0 0 -1 
2 0 0 36.350000381469997 0 0 -1 1 0 0 0 -1 0 25.199999999999999
1 -21.149999999999999 -21.149999999999999 36.350000381469997 0 1 0 
1 -21.149999999999999 -16.650042725470001 47 0 0 1 
1 -21.149999999999999 -21.149999999999999 47 0 1 0 
1 -21.149999999999999 16.650042725471 47 0 0 1 
1 -21.149999999999999 -21.149999999999999 36.350000381469997 0 1 0 
1 -21.149999999999999 13.701003612874 36.350000381469997 0 0 -1 
1 -13.70100361287 21.149999999999999 36.350000381469997 0 0 -1 
2 0 0 36.350000381469997 0 0 -1 1 0 0 0 -1 0 25.199999999999999
1 -21.149999999999999 21.149999999999999 36.350000381469997 1 0 0 
1 -16.650042725470001 21.149999999999999 47 0 0 1 
1 -21.149999999999999 21.149999999999999 47 1 0 0 
1 16.650042725471 21.149999999999999 47 0 0 1 
1 -21.149999999999999 21.149999999999999 36.350000381469997 1 0 0 
1 13.701003612874 21.149999999999999 36.350000381469997 0 0 -1 
1 21.149999999999999 13.701003612874 36.350000381469997 0 0 -1 
2 0 0 36.350000381469997 0 0 -1 1 0 0 0 -1 0 25.199999999999999
1 21.149999999999999 21.149999999999999 36.350000381469997 0 -1 0 
1 21.149999999999999 16.650042725471 47 0 0 1 
1 21.149999999999999 21.149999999999999 47 0 -1 0 
1 21.149999999999999 -16.650042725470001 47 0 0 1 
1 21.149999999999999 21.149999999999999 36.350000381469997 0 -1 0 
1 21.149999999999999 -13.70100361287 36.350000381469997 0 0 -1 
2 0 0 36.350000381469997 0 0 -1 1 0 0 0 -1 0 25.199999999999999
2 0 0 36.350000381469997 -0 0 1 0 -1 0 1 0 0 26.917400000000001
2 0 0 47 0 0 1 1 0 -0 -0 1 0 26.917400000000001
2 -15.5 15.5 47 0 0 1 -2.2e-16 -1 0 1 -2.2e-16 0 1.5
2 15.5 15.5 47 0 0 1 -1 1.2e-16 0 -1.2e-16 -1 0 1.5
2 15.5 -15.5 47 0 -0 1 1.1e-16 1 0 -1 1.1e-16 0 1.5
2 -15.5 -15.5 47 0 0 1 1 0 -0 -0 1 0 1.5
2 0 0 47 0 0 1 1 0 -0 -0 1 0 16.149999999999999
2 0 0 47 0 0 1 1 0 -0 -0 1 0 26.917400000000001
2 0 0 47 0 0 1 1 0 -0 -0 1 0 26.917400000000001
2 0 0 47 0 0 1 1 0 -0 -0 1 0 26.917400000000001
2 0 0 36.350000381469997 -0 0 1 0 -1 0 1 0 0 26.917400000000001
2 0 0 36.350000381469997 -0 0 1 0 -1 0 1 0 0 26.917400000000001
2 0 0 36.350000381469997 -0 0 1 0 -1 0 1 0 0 26.917400000000001
1 -15.5 14 47 0 0 -1 
2 -15.5 15.5 42.5 0 0 1 -2.2e-16 -1 0 1 -2.2e-16 0 1.5
1 14 15.5 47 0 0 -1 
2 15.5 15.5 42.5 0 0 1 -1 1.2e-16 0 -1.2e-16 -1 0 1.5
1 15.5 -14 47 0 -0 -1 
2 15.5 -15.5 42.5 0 -0 1 1.1e-16 1 0 -1 1.1e-16 0 1.5
1 -14 -15.5 47 -0 -0 -1 
2 -15.5 -15.5 42.5 0 0 1 1 0 -0 -0 1 0 1.5
1 16.149999999999999 0 47 -0 -0 -1 
2 0 0 46.5 0 0 1 1 0 -0 -0 1 0 16.149999999999999
2 0 0 46.5 0 0 1 1 0 -0 -0 1 0 11
1 11 0 46.5 0 0 1 
2 0 0 49 0 0 1 1 0 -0 -0 1 0 11
2 0 0 49 0 0 1 1 0 -0 -0 1 0 2.5
2 0 0 50 0 0 -1 0 1 0 1 -0 0 2.5
1 2.5 0 49 0 0 1 
2 0 0 50 0 0 -1 0 1 0 1 -0 0 2.5
1 2 -1.5 49 -0 -0 -1 
2 0 0 71 0 0 1 1 0 -0 -0 1 0 2.5
1 2 1.5 49 -0 -0 -1 
1 2 -2.5 71 0 1 0 
1 2 -2.5 50 0 1 0 
1 13.594116374373 -21.100000000000001 8.8500003814700001 0 0 1 
1 -13.59411637437 -21.100000000000001 36.350000381469997 0 0 1 
1 13.594116374373 -21.100000000000001 8.8500003814700001 -1 0 0 
1 4.2750000000000004 -21.149999999999999 8.8500003814700001 -1 0 0 
1 13.701003612874 -21.149999999999999 11.60000038147 0 0 1 
1 -16.649999999999999 -21.149999999999999 11.60000038147 1 0 0 
1 16.649999999999999 -21.149999999999999 0 0 0 1 
1 -16.649999999999999 -21.149999999999999 0 1 0 0 
1 -16.649999999999999 -21.149999999999999 0 0 0 1 
1 -16.649999999999999 -21.149999999999999 11.60000038147 1 0 0 
1 -13.70100361287 -21.149999999999999 11.60000038147 0 0 1 
2 0 0 8.8500003814700001 0 0 1 1 0 -0 -0 1 0 25.199999999999999
2 0 0 8.8500003814700001 0 0 1 1 0 -0 -0 1 0 25.199999999999999
1 -21.149999999999999 8.3249999999999993 8.8500003814700001 0 1 0 
2 0 0 8.8500003814700001 0 0 1 1 0 -0 -0 1 0 25.199999999999999
1 20.925000000000001 21.149999999999999 8.8500003814700001 1 0 0 
2 0 0 8.8500003814700001 0 0 1 1 0 -0 -0 1 0 25.199999999999999
1 21.149999999999999 -8.3249999999999993 8.8500003814700001 -0 -1 -0 
2 0 0 8.8500003814700001 0 0 1 1 0 -0 -0 1 0 25.100000000000001
1 21.100000000000001 13.594116374373 8.8500003814700001 0 -1 0 
2 0 0 8.8500003814700001 0 0 1 1 0 -0 -0 1 0 25.100000000000001
1 -13.59411637437 21.100000000000001 8.8500003814700001 1 0 0 
2 0 0 8.8500003814700001 0 0 1 1 0 -0 -0 1 0 25.100000000000001
1 -21.100000000000001 -13.59411637437 8.8500003814700001 0 1 0 
2 0 0 8.8500003814700001 0 0 1 1 0 -0 -0 1 0 25.100000000000001
2 0 0 11.60000038147 0 0 1 1 0 -0 -0 1 0 25.199999999999999
1 -21.149999999999999 -13.70100361287 11.60000038147 0 0 1 
2 -1.9099999999999999e-15 2.0299999999999999e-15 11.60000038147 0 0 1 1 0 -0 -0 1 0 26.917373571729001
1 -21.149999999999999 16.649999999999999 11.60000038147 0 -1 0 
2 -1.9099999999999999e-15 2.0299999999999999e-15 0 0 0 1 1 0 -0 -0 1 0 26.917373571729001
1 -21.149999999999999 -16.649999999999999 0 0 0 1 
2 0 0 0 0 0 -1 1 0 0 0 -1 0 3.3999999999999999
1 -21.149999999999999 16.649999999999999 0 0 -1 0 
2 -1.9099999999999999e-15 2.0299999999999999e-15 0 0 0 1 1 0 -0 -0 1 0 26.917373571729001
1 16.649999999999999 21.149999999999999 0 -1 0 0 
2 -1.9099999999999999e-15 2.0299999999999999e-15 0 0 0 1 1 0 -0 -0 1 0 26.917373571729001
1 21.149999999999999 -16.649999999999999 0 0 1 0 
2 -1.9099999999999999e-15 2.0299999999999999e-15 0 0 0 1 1 0 -0 -0 1 0 26.917373571729001
1 21.149999999999999 -16.649999999999999 0 0 0 1 
2 -1.9099999999999999e-15 2.0299999999999999e-15 11.60000038147 0 0 1 1 0 -0 -0 1 0 26.917373571729001
2 0 0 11.60000038147 0 0 1 1 0 -0 -0 1 0 25.199999999999999
1 21.149999999999999 -16.649999999999999 11.60000038147 0 1 0 
1 21.149999999999999 -13.70100361287 11.60000038147 0 0 1 
1 21.149999999999999 13.701003612874 11.60000038147 0 0 1 
1 21.149999999999999 -16.649999999999999 11.60000038147 0 1 0 
1 21.149999999999999 16.649999999999999 0 0 0 1 
1 13.701003612874 21.149999999999999 11.60000038147 0 0 1 
2 0 0 11.60000038147 0 0 1 1 0 -0 -0 1 0 25.199999999999999
1 -21.149999999999999 16.649999999999999 0 0 0 1 
1 -21.149999999999999 16.649999999999999 11.60000038147 0 -1 0 
1 -21.149999999999999 13.701003612874 11.60000038147 0 0 1 
1 -13.70100361287 21.149999999999999 11.60000038147 0 0 1 
1 16.649999999999999 21.149999999999999 11.60000038147 -1 0 0 
1 -16.649999999999999 21.149999999999999 0 0 0 1 
1 16.649999999999999 21.149999999999999 0 0 0 1 
1 16.649999999999999 21.149999999999999 11.60000038147 -1 0 0 
2 0 0 11.60000038147 0 0 1 1 0 -0 -0 1 0 25.199999999999999
1 3.3999999999999999 0 0 0 0 1 
2 0 0 3 0 0 -1 1 0 0 0 -1 0 3.3999999999999999
2 -1.9099999999999999e-15 2.0299999999999999e-15 11.60000038147 0 0 1 1 0 -0 -0 1 0 26.917373571729001
2 -1.9099999999999999e-15 2.0299999999999999e-15 11.60000038147 0 0 1 1 0 -0 -0 1 0 26.917373571729001
1 -21.100000000000001 -13.59411637437 8.8500003814700001 0 0 1 
1 -21.100000000000001 13.594116374373 36.350000381469997 0 0 1 
1 -13.59411637437 21.100000000000001 8.8500003814700001 0 0 1 
1 13.594116374373 21.100000000000001 36.350000381469997 0 0 1 
1 21.100000000000001 13.594116374373 8.8500003814700001 0 0 1 
1 21.100000000000001 -13.59411637437 36.350000381469997 0 0 1 
Polygon3D 0
PolygonOnTriangulations 0
Surfaces 62
1 25.199999999999999 0 38.850000381469997 0 0 1 1 0 -0 -0 1 0 
1 21.149999999999999 -21.149999999999999 36.350000381469997 0 -1 0 -1 0 0 -0 -0 -1 
2 0 0 36.350000381469997 0 0 -1 1 0 0 0 -1 0 25.199999999999999
1 21.149999999999999 21.149999999999999 36.350000381469997 1 0 0 0 -1 0 0 0 -1 
2 0 0 36.350000381469997 0 0 -1 1 0 0 0 -1 0 25.199999999999999
1 -21.149999999999999 21.149999999999999 36.350000381469997 0 1 0 1 0 0 0 0 -1 
2 0 0 36.350000381469997 0 0 -1 1 0 0 0 -1 0 25.199999999999999
1 -21.149999999999999 -21.149999999999999 36.350000381469997 -1 0 0 0 1 0 0 0 -1 
2 0 0 36.350000381469997 0 0 -1 1 0 0 0 -1 0 25.199999999999999
2 0 0 8.8500003814700001 -0 -0 -1 1 0 0 0 -1 0 25.100000000000001
1 -21.100000000000001 -13.59411637437 8.8500003814700001 1 0 0 0 0 1 0 -1 0 
2 0 0 8.8500003814700001 -0 -0 -1 1 0 0 0 -1 0 25.100000000000001
1 -13.59411637437 21.100000000000001 8.8500003814700001 0 -1 0 0 0 -1 1 0 0 
2 0 0 8.8500003814700001 -0 -0 -1 1 0 0 0 -1 0 25.100000000000001
1 21.100000000000001 13.594116374373 8.8500003814700001 -1 1.2999999999999999e-16 0 -1.2999999999999999e-16 -1 0 0 0 1 
2 0 0 8.8500003814700001 -0 -0 -1 1 0 0 0 -1 0 25.100000000000001
1 13.594116374373 -21.100000000000001 8.8500003814700001 1.2999999999999999e-16 1 0 1 -1.2999999999999999e-16 0 0 0 -1 
1 -21.149999999999999 21.149999999999999 36.350000381469997 0 0 1 1 0 -0 -0 1 0 
2 0 0 47 0 0 1 1 0 -0 -0 1 0 26.917400000000001
1 -21.149999999999999 21.149999999999999 47 0 0 1 1 0 -0 -0 1 0 
2 0 0 47 0 0 1 1 0 -0 -0 1 0 26.917400000000001
1 -21.149999999999999 21.149999999999999 36.350000381469997 0 0 1 1 0 -0 -0 1 0 
2 0 0 47 0 0 1 1 0 -0 -0 1 0 26.917400000000001
1 -21.149999999999999 21.149999999999999 36.350000381469997 0 0 1 1 0 -0 -0 1 0 
2 0 0 47 0 0 1 1 0 -0 -0 1 0 26.917400000000001
1 -21.149999999999999 21.149999999999999 36.350000381469997 0 0 1 1 0 -0 -0 1 0 
2 -15.5 15.5 47 0 0 1 -2.2e-16 -1 0 1 -2.2e-16 0 1.5
2 15.5 15.5 47 0 0 1 -1 1.2e-16 0 -1.2e-16 -1 0 1.5
2 15.5 -15.5 47 0 0 1 1.1e-16 1 -0 -1 1.1e-16 0 1.5
2 -15.5 -15.5 47 0 0 1 1 0 -0 -0 1 0 1.5
2 0 0 47 0 0 1 1 0 -0 -0 1 0 16.149999999999999
1 -15.5 14 42.5 0 0 -1 2.2e-16 1 0 1 -2.2e-16 0 
1 14 15.5 42.5 0 -0 -1 1 -1.2e-16 0 -1.2e-16 -1 0 
1 15.5 -14 42.5 -0 0 -1 -1.1e-16 -1 0 -1 1.1e-16 0 
1 -14 -15.5 42.5 0 0 -1 -1 0 0 0 1 0 
1 16.149999999999999 0 46.5 0 0 -1 -1 0 0 0 1 0 
2 0 0 46.5 -0 -0 -1 1 0 0 0 -1 0 11
1 11 0 49 0 0 -1 -1 0 0 0 1 0 
2 0 0 49 -0 -0 -1 1 0 0 0 -1 0 2.5
1 2 2.5 50 0 0 1 1 0 -0 -0 1 0 
1 2 -2.5 71 1 0 0 -0 1 0 0 -0 1 
1 2.5 0 71 0 0 -1 -1 0 0 0 1 0 
1 25.199999999999999 0 8.8500003814700001 0 0 -1 -1 0 0 0 1 0 
1 -16.649999999999999 -21.149999999999999 0 0 1 0 1 0 0 0 0 -1 
2 0 0 11.60000038147 0 0 1 1 0 -0 -0 1 0 25.199999999999999
1 -16.649999999999999 -21.149999999999999 11.60000038147 0 0 -1 -1 0 0 0 1 0 
2 -1.9099999999999999e-15 2.0299999999999999e-15 0 -0 -0 -1 1 0 0 0 -1 0 26.917373571729001
1 -16.649999999999999 -21.149999999999999 0 0 0 -1 -1 0 0 0 1 0 
2 -1.9099999999999999e-15 2.0299999999999999e-15 0 -0 -0 -1 1 0 0 0 -1 0 26.917373571729001
1 -16.649999999999999 -21.149999999999999 11.60000038147 0 0 -1 -1 0 0 0 1 0 
2 0 0 11.60000038147 0 0 1 1 0 -0 -0 1 0 25.199999999999999
1 -21.149999999999999 16.649999999999999 0 1 0 0 0 -1 0 0 0 -1 
2 0 0 11.60000038147 0 0 1 1 0 -0 -0 1 0 25.199999999999999
1 16.649999999999999 21.149999999999999 0 0 -1 0 -1 0 0 -0 -0 -1 
2 0 0 11.60000038147 0 0 1 1 0 -0 -0 1 0 25.199999999999999
1 21.149999999999999 -16.649999999999999 0 -1 0 0 0 1 0 0 0 -1 
2 0 0 0 0 0 -1 1 0 0 0 -1 0 3.3999999999999999
2 -1.9099999999999999e-15 2.0299999999999999e-15 0 -0 -0 -1 1 0 0 0 -1 0 26.917373571729001
2 -1.9099999999999999e-15 2.0299999999999999e-15 0 -0 -0 -1 1 0 0 0 -1 0 26.917373571729001
1 -16.649999999999999 -21.149999999999999 11.60000038147 0 0 -1 -1 0 0 0 1 0 
1 -16.649999999999999 -21.149999999999999 11.60000038147 0 0 -1 -1 0 0 0 1 0 
1 3.3999999999999999 0 3 0 0 1 1 0 -0 -0 1 0 
Triangulations 0

TShapes 386
Ve
1e-07
13.701003612874 -21.15 38.85000038147
0 0

0101101
*
Ve
1e-07
-13.70100361287 -21.15 38.85000038147
0 0

0101101
*
Ed
 1e-07 1 1 0
1  1 0 9.473996387126 36.87600361287
4 C0 1 0 2 0
0

0101000
+386 0 -385 0 *
Ve
1e-07
21.15 -13.70100361287 38.85000038147
0 0

0101101
*
Ed
 1e-07 1 1 0
1  2 0 0.574828212078482 0.995968114716281
2  1 3 0 0.574828212078482 0.995968114716281
4 C0 1 0 3 0
0

0101000
+383 0 -386 0 *
Ve
1e-07
21.15 13.701003612874 38.85000038147
0 0

0101101
*
Ed
 1e-07 1 1 0
1  3 0 -3.126003612874 24.27600361287
4 C0 1 0 4 0
0

0101000
+381 0 -383 0 *
Ve
1e-07
13.701003612874 21.15 38.85000038147
0 0

0101101
*
Ed
 1e-07 1 1 0
1  4 0 5.2872171924633 5.70835709510097
2  2 5 0 5.2872171924633 5.70835709510097
4 C0 1 0 5 0
0

0101000
+379 0 -381 0 *
Ve
1e-07
-13.70100361287 21.15 38.85000038147
0 0

0101101
*
Ed
 1e-07 1 1 0
1  5 0 -15.72600361287 11.676003612874
4 C0 1 0 6 0
0

0101000
+377 0 -379 0 *
Ve
1e-07
-21.15 13.701003612874 38.85000038147
0 0

0101101
*
Ed
 1e-07 1 1 0
1  6 0 3.71642086566841 4.13756076830621
2  3 7 0 3.71642086566841 4.13756076830621
4 C0 1 0 7 0
0

0101000
+375 0 -377 0 *
Ve
1e-07
-21.15 -13.70100361287 38.85000038147
0 0

0101101
*
Ed
 1e-07 1 1 0
1  7 0 -3.12600361287 24.276003612874
4 C0 1 0 8 0
0

0101000
+373 0 -375 0 *
Ed
 1e-07 1 1 0
1  8 0 2.14562453887338 2.56676444151131
2  4 9 0 2.14562453887338 2.56676444151131
4 C0 1 0 9 0
0

0101000
+385 0 -373 0 *
Wi

0101100
-384 0 -382 0 -380 0 -378 0 -376 0 -374 0 -372 0 -371 0 *
Ve
1e-07
-13.59411637437 -21.1 38.85000038147
0 0

0101101
*
Ve
1e-07
-21.1 -13.59411637437 38.85000038147
0 0

0101101
*
Ed
 1e-07 1 1 0
1  9 0 2.14313352429183 2.56925545609286
2  5 10 0 2.14313352429183 2.56925545609286
4 C0 1 0 10 0
0

0101000
+369 0 -368 0 *
Ve
1e-07
-21.1 13.594116374373 38.85000038147
0 0

0101101
*
Ed
 1e-07 1 1 0
1  10 0 0 27.188232748743
4 C0 1 0 11 0
0

0101000
+366 0 -368 0 *
Ve
1e-07
-13.59411637437 21.1 38.85000038147
0 0

0101101
*
Ed
 1e-07 1 1 0
1  11 0 3.71392985108683 4.14005178288776
2  6 12 0 3.71392985108683 4.14005178288776
4 C0 1 0 12 0
0

0101000
+366 0 -364 0 *
Ve
1e-07
13.594116374373 21.1 38.85000038147
0 0

0101101
*
Ed
 1e-07 1 1 0
1  12 0 0 27.188232748743
4 C0 1 0 13 0
0

0101000
+362 0 -364 0 *
Ve
1e-07
21.1 13.594116374373 38.85000038147
0 0

0101101
*
Ed
 1e-07 1 1 0
1  13 0 5.28472617788172 5.71084810968255
2  7 14 0 5.28472617788172 5.71084810968255
4 C0 1 0 14 0
0

0101000
+362 0 -360 0 *
Ve
1e-07
21.1 -13.59411637437 38.85000038147
0 0

0101101
*
Ed
 1e-07 1 1 0
1  14 0 0 27.188232748743
4 C0 1 0 15 0
0

0101000
+358 0 -360 0 *
Ve
1e-07
13.594116374373 -21.1 38.85000038147
0 0

0101101
*
Ed
 1e-07 1 1 0
1  15 0 0.572337197496932 0.998459129297864
2  8 16 0 0.572337197496932 0.998459129297864
4 C0 1 0 16 0
0

0101000
+358 0 -356 0 *
Ed
 1e-07 1 1 0
1  16 0 0 27.188232748743
4 C0 1 0 17 0
0

0101000
+369 0 -356 0 *
Wi

0101100
+367 0 -365 0 +363 0 -361 0 +359 0 -357 0 +355 0 -354 0 *
Fa
0  1e-07 1 0

0111000
+370 0 +353 0 *
Ve
1e-07
13.701003612875 -21.15 36.35000038147
0 0

0101101
*
Ed
 1e-07 1 1 0
1  17 0 -2.5 0
2  9 3 0 -2.5 0
4 C0 2 0 3 0
0

0101000
+386 0 -351 0 *
Ve
1e-07
16.650042725471 -21.15 36.35000038147
0 0

0101101
*
Ed
 1e-07 1 1 0
1  18 0 4.499957274529 7.448996387125
4 C0 2 0 18 0
0

0101000
+349 0 -351 0 *
Ve
1e-07
16.650042725471 -21.15 47
0 0

0101101
*
Ed
 1e-07 1 1 0
1  19 0 -10.64999961853 0
2  10 19 0 -10.64999961853 0
4 C0 2 0 19 0
0

0101000
+349 0 -347 0 *
Ve
1e-07
-16.65004272547 -21.15 47
0 0

0101101
*
Ed
 1e-07 1 1 0
1  20 0 4.499957274529 37.80004272547
4 C0 2 0 20 0
0

0101000
+347 0 -345 0 *
Ve
1e-07
-16.65004272547 -21.15 36.35000038147
0 0

0101101
*
Ed
 1e-07 1 1 0
1  21 0 -10.64999961853 0
2  11 21 0 -10.64999961853 0
4 C0 2 0 21 0
0

0101000
+343 0 -345 0 *
Ve
1e-07
-13.70100361287 -21.15 36.35000038147
0 0

0101101
*
Ed
 1e-07 1 1 0
1  22 0 34.85100361287 37.80004272547
4 C0 2 0 22 0
0

0101000
+341 0 -343 0 *
Ed
 1e-07 1 1 0
1  23 0 -2.5 0
2  12 9 0 -2.5 0
4 C0 2 0 9 0
0

0101000
+385 0 -341 0 *
Wi

0101100
-384 0 +350 0 -348 0 +346 0 +344 0 -342 0 -340 0 -339 0 *
Fa
0  1e-07 2 0

0111000
+338 0 *
Ve
1e-07
-21.15 -13.70100361287 36.35000038147
0 0

0101101
*
Ed
 1e-07 1 1 0
1  24 0 -2.5 0
2  13 9 0 -2.5 0
4 C0 9 0 8 0
0

0101000
+373 0 -336 0 *
Ed
 1e-07 1 1 0
1  25 0 2.14562453887338 2.56676444151131
2  14 9 0 2.14562453887338 2.56676444151131
4 C0 9 0 22 0
0

0101000
+341 0 -336 0 *
Wi

0101100
-339 0 +371 0 +335 0 -334 0 *
Fa
0  1e-07 9 0

0111000
+333 0 *
Ve
1e-07
-21.15 -16.65004272547 36.35000038147
0 0

0101101
*
Ed
 1e-07 1 1 0
1  26 0 4.49995727453 7.44899638713
4 C0 8 0 22 0
0

0101000
+331 0 -336 0 *
Ve
1e-07
-21.15 -16.65004272547 47
0 0

0101101
*
Ed
 1e-07 1 1 0
1  27 0 -10.64999961853 0
2  15 21 0 -10.64999961853 0
4 C0 8 0 21 0
0

0101000
+331 0 -329 0 *
Ve
1e-07
-21.15 16.65004272547 47
0 0

0101101
*
Ed
 1e-07 1 1 0
1  28 0 4.49995727453 37.80004272547
4 C0 8 0 20 0
0

0101000
+329 0 -327 0 *
Ve
1e-07
-21.15 16.650042725471 36.35000038147
0 0

0101101
*
Ed
 1e-07 1 1 0
1  29 0 -10.64999961853 0
2  16 23 0 -10.64999961853 0
4 C0 8 0 23 0
0

0101000
+325 0 -327 0 *
Ve
1e-07
-21.15 13.701003612875 36.35000038147
0 0

0101101
*
Ed
 1e-07 1 1 0
1  30 0 34.851003612875 37.800042725471
4 C0 8 0 24 0
0

0101000
+323 0 -325 0 *
Ed
 1e-07 1 1 0
1  31 0 -2.5 0
2  17 7 0 -2.5 0
4 C0 8 0 7 0
0

0101000
+375 0 -323 0 *
Wi

0101100
-372 0 +335 0 -330 0 +328 0 +326 0 -324 0 -322 0 -321 0 *
Fa
0  1e-07 8 0

0111000
+320 0 *
Ve
1e-07
-13.70100361287 21.15 36.35000038147
0 0

0101101
*
Ed
 1e-07 1 1 0
1  32 0 -2.5 0
2  18 7 0 -2.5 0
4 C0 7 0 6 0
0

0101000
+377 0 -318 0 *
Ed
 1e-07 1 1 0
1  33 0 3.71642086566844 4.13756076830621
2  19 7 0 3.71642086566844 4.13756076830621
4 C0 7 0 24 0
0

0101000
+323 0 -318 0 *
Wi

0101100
-321 0 +374 0 +317 0 -316 0 *
Fa
0  1e-07 7 0

0111000
+315 0 *
Ve
1e-07
-16.65004272547 21.15 36.35000038147
0 0

0101101
*
Ed
 1e-07 1 1 0
1  34 0 4.49995727453 7.44899638713
4 C0 6 0 24 0
0

0101000
+313 0 -318 0 *
Ve
1e-07
-16.65004272547 21.15 47
0 0

0101101
*
Ed
 1e-07 1 1 0
1  35 0 -10.64999961853 0
2  20 23 0 -10.64999961853 0
4 C0 6 0 23 0
0

0101000
+313 0 -311 0 *
Ve
1e-07
16.65004272547 21.15 47
0 0

0101101
*
Ed
 1e-07 1 1 0
1  36 0 4.49995727453 37.80004272547
4 C0 6 0 20 0
0

0101000
+311 0 -309 0 *
Ve
1e-07
16.650042725471 21.15 36.35000038147
0 0

0101101
*
Ed
 1e-07 1 1 0
1  37 0 -10.64999961853 0
2  21 25 0 -10.64999961853 0
4 C0 6 0 25 0
0

0101000
+307 0 -309 0 *
Ve
1e-07
13.701003612875 21.15 36.35000038147
0 0

0101101
*
Ed
 1e-07 1 1 0
1  38 0 34.851003612875 37.800042725471
4 C0 6 0 26 0
0

0101000
+305 0 -307 0 *
Ed
 1e-07 1 1 0
1  39 0 -2.5 0
2  22 5 0 -2.5 0
4 C0 6 0 5 0
0

0101000
+379 0 -305 0 *
Wi

0101100
-376 0 +317 0 -312 0 +310 0 +308 0 -306 0 -304 0 -303 0 *
Fa
0  1e-07 6 0

0111000
+302 0 *
Ve
1e-07
21.15 13.701003612875 36.35000038147
0 0

0101101
*
Ed
 1e-07 1 1 0
1  40 0 -2.5 0
2  23 5 0 -2.5 0
4 C0 5 0 4 0
0

0101000
+381 0 -300 0 *
Ed
 1e-07 1 1 0
1  41 0 5.28721719246334 5.70835709510094
2  24 5 0 5.28721719246334 5.70835709510094
4 C0 5 0 26 0
0

0101000
+305 0 -300 0 *
Wi

0101100
+378 0 +299 0 -298 0 -303 0 *
Fa
0  1e-07 5 0

0111000
+297 0 *
Ve
1e-07
21.15 16.650042725471 36.35000038147
0 0

0101101
*
Ed
 1e-07 1 1 0
1  42 0 4.499957274529 7.448996387125
4 C0 4 0 26 0
0

0101000
+295 0 -300 0 *
Ve
1e-07
21.15 16.650042725471 47
0 0

0101101
*
Ed
 1e-07 1 1 0
1  43 0 -10.64999961853 0
2  25 25 0 -10.64999961853 0
4 C0 4 0 25 0
0

0101000
+295 0 -293 0 *
Ve
1e-07
21.15 -16.65004272547 47
0 0

0101101
*
Ed
 1e-07 1 1 0
1  44 0 4.499957274529 37.80004272547
4 C0 4 0 20 0
0

0101000
+293 0 -291 0 *
Ve
1e-07
21.15 -16.65004272547 36.35000038147
0 0

0101101
*
Ed
 1e-07 1 1 0
1  45 0 -10.64999961853 0
2  26 19 0 -10.64999961853 0
4 C0 4 0 19 0
0

0101000
+289 0 -291 0 *
Ve
1e-07
21.15 -13.70100361287 36.35000038147
0 0

0101101
*
Ed
 1e-07 1 1 0
1  46 0 34.85100361287 37.80004272547
4 C0 4 0 18 0
0

0101000
+287 0 -289 0 *
Ed
 1e-07 1 1 0
1  47 0 -2.5 0
2  27 3 0 -2.5 0
4 C0 4 0 3 0
0

0101000
+383 0 -287 0 *
Wi

0101100
-380 0 +299 0 -294 0 +292 0 +290 0 -288 0 -286 0 -285 0 *
Fa
0  1e-07 4 0

0111000
+284 0 *
Ed
 1e-07 1 1 0
1  48 0 0.574828212078482 0.995968114716248
2  28 3 0 0.574828212078482 0.995968114716248
4 C0 3 0 18 0
0

0101000
+287 0 -351 0 *
Wi

0101100
+382 0 +350 0 -282 0 -285 0 *
Fa
0  1e-07 3 0

0111000
+281 0 *
Ed
 1e-07 1 1 0
1  49 0 5.37929843181058 5.61627585575369
2  29 21 0 5.37929843181058 5.61627585575369
4 C0 22 0 21 0
0

0101000
+331 0 -343 0 *
Wi

0101100
-340 0 +334 0 -330 0 +279 0 *
Fa
0  1e-07 22 0

0111000
+278 0 *
Ed
 1e-07 1 1 0
1  50 0 3.80850210501569 4.0454795289588
2  30 21 0 3.80850210501569 4.0454795289588
4 C0 21 0 20 0
0

0101000
+329 0 -345 0 *
Wi

0101100
+342 0 -276 0 -328 0 +279 0 *
Fa
0  1e-07 21 0

0111000
+275 0 *
Ve
1e-07
-15.5 14 47
0 0

0101101
*
Ed
 1e-07 1 1 0
1  51 0 0 6.28318530717959
2  31 27 0 0 6.28318530717959
4 C0 20 0 27 0
0

0101000
+273 0 -273 0 *
Wi

0101100
-272 0 *
Ve
1e-07
14 15.5 47
0 0

0101101
*
Ed
 1e-07 1 1 0
1  52 0 0 6.28318530717959
2  32 28 0 0 6.28318530717959
4 C0 20 0 28 0
0

0101000
+270 0 -270 0 *
Wi

0101100
-269 0 *
Ve
1e-07
15.5 -14 47
0 0

0101101
*
Ed
 1e-07 1 1 0
1  53 0 0 6.28318530717959
2  33 29 0 0 6.28318530717959
4 C0 20 0 29 0
0

0101000
+267 0 -267 0 *
Wi

0101100
-266 0 *
Ve
1e-07
-14 -15.5 47
0 0

0101101
*
Ed
 1e-07 1 1 0
1  54 0 0 6.28318530717959
2  34 30 0 0 6.28318530717959
4 C0 20 0 30 0
0

0101000
+264 0 -264 0 *
Wi

0101100
-263 0 *
Ve
1e-07
16.15 0 47
0 0

0101101
*
Ed
 1e-07 1 1 0
1  55 0 0 6.28318530717959
2  35 31 0 0 6.28318530717959
4 C0 20 0 31 0
0

0101000
+261 0 -261 0 *
Wi

0101100
-260 0 *
Ed
 1e-07 1 1 0
1  56 0 2.23770577822079 2.4746832021639
2  36 23 0 2.23770577822079 2.4746832021639
4 C0 20 0 23 0
0

0101000
+311 0 -327 0 *
Ed
 1e-07 1 1 0
1  57 0 5.37929843181061 5.61627585575369
2  37 19 0 5.37929843181061 5.61627585575369
4 C0 20 0 19 0
0

0101000
+347 0 -291 0 *
Ed
 1e-07 1 1 0
1  58 0 0.666909451425923 0.903886875369002
2  38 25 0 0.666909451425923 0.903886875369002
4 C0 20 0 25 0
0

0101000
+293 0 -309 0 *
Wi

0101100
-308 0 +258 0 -326 0 +276 0 -344 0 +257 0 -290 0 +256 0 *
Fa
0  1e-07 20 0

0111000
+271 0 +268 0 +265 0 +262 0 +259 0 +255 0 *
Ed
 1e-07 1 1 0
1  59 0 0.666909451425923 0.903886875369002
2  39 19 0 0.666909451425923 0.903886875369002
4 C0 19 0 18 0
0

0101000
+349 0 -289 0 *
Wi

0101100
-346 0 +253 0 +288 0 -257 0 *
Fa
0  1e-07 19 0

0111000
+252 0 *
Wi

0101100
-348 0 +253 0 -286 0 +282 0 *
Fa
0  1e-07 18 0

0111000
+250 0 *
Ed
 1e-07 1 1 0
1  60 0 3.80850210501569 4.04547952895877
2  40 23 0 3.80850210501569 4.04547952895877
4 C0 24 0 23 0
0

0101000
+313 0 -325 0 *
Wi

0101100
-322 0 +316 0 -312 0 +248 0 *
Fa
0  1e-07 24 0

0111000
+247 0 *
Wi

0101100
+324 0 -258 0 -310 0 +248 0 *
Fa
0  1e-07 23 0

0111000
+245 0 *
Ed
 1e-07 1 1 0
1  61 0 2.23770577822082 2.47468320216387
2  41 25 0 2.23770577822082 2.47468320216387
4 C0 26 0 25 0
0

0101000
+295 0 -307 0 *
Wi

0101100
+298 0 -294 0 +243 0 -304 0 *
Fa
0  1e-07 26 0

0111000
+242 0 *
Wi

0101100
-256 0 -292 0 +243 0 +306 0 *
Fa
0  1e-07 25 0

0111000
+240 0 *
Ve
1e-07
-15.5 14 42.5
0 0

0101101
*
Ed
 1e-07 1 1 0
1  62 0 0 4.5
3  42 43CN 27 0 0 4.5
0

0101000
+273 0 -238 0 *
Ed
 1e-07 1 1 0
1  63 0 0 6.28318530717959
2  44 27 0 0 6.28318530717959
4 C0 27 0 32 0
0

0101000
+238 0 -238 0 *
Wi

0101100
-272 0 +237 0 +236 0 -237 0 *
Fa
0  1e-07 27 0

0111000
+235 0 *
Ve
1e-07
14 15.5 42.5
0 0

0101101
*
Ed
 1e-07 1 1 0
1  64 0 0 4.5
3  45 46CN 28 0 0 4.5
0

0101000
+270 0 -233 0 *
Ed
 1e-07 1 1 0
1  65 0 0 6.28318530717959
2  47 28 0 0 6.28318530717959
4 C0 28 0 33 0
0

0101000
+233 0 -233 0 *
Wi

0101100
-269 0 +232 0 +231 0 -232 0 *
Fa
0  1e-07 28 0

0111000
+230 0 *
Ve
1e-07
15.5 -14 42.5
0 0

0101101
*
Ed
 1e-07 1 1 0
1  66 0 0 4.5
3  48 49CN 29 0 0 4.5
0

0101000
+267 0 -228 0 *
Ed
 1e-07 1 1 0
1  67 0 0 6.28318530717959
2  50 29 0 0 6.28318530717959
4 C0 29 0 34 0
0

0101000
+228 0 -228 0 *
Wi

0101100
-266 0 +227 0 +226 0 -227 0 *
Fa
0  1e-07 29 0

0111000
+225 0 *
Ve
1e-07
-14 -15.5 42.5
0 0

0101101
*
Ed
 1e-07 1 1 0
1  68 0 -0 4.5
3  51 52CN 30 0 -0 4.5
0

0101000
+264 0 -223 0 *
Ed
 1e-07 1 1 0
1  69 0 0 6.28318530717959
2  53 30 0 0 6.28318530717959
4 C0 30 0 35 0
0

0101000
+223 0 -223 0 *
Wi

0101100
-263 0 +222 0 +221 0 -222 0 *
Fa
0  1e-07 30 0

0111000
+220 0 *
Ve
1e-07
16.15 0 46.5
0 0

0101101
*
Ed
 1e-07 1 1 0
1  70 0 -0 0.5
3  54 55CN 31 0 -0 0.5
0

0101000
+261 0 -218 0 *
Ed
 1e-07 1 1 0
1  71 0 0 6.28318530717959
2  56 31 0 0 6.28318530717959
4 C0 31 0 36 0
0

0101000
+218 0 -218 0 *
Wi

0101100
-217 0 -260 0 +217 0 +216 0 *
Fa
0  1e-07 31 0

0111000
+215 0 *
Wi

0101100
+236 0 *
Fa
0  1e-07 32 0

0111000
-213 0 *
Wi

0101100
+231 0 *
Fa
0  1e-07 33 0

0111000
-211 0 *
Wi

0101100
+226 0 *
Fa
0  1e-07 34 0

0111000
-209 0 *
Wi

0101100
+221 0 *
Fa
0  1e-07 35 0

0111000
-207 0 *
Wi

0101100
-216 0 *
Ve
1e-07
11 0 46.5
0 0

0101101
*
Ed
 1e-07 1 1 0
1  72 0 0 6.28318530717959
2  57 37 0 0 6.28318530717959
4 C0 36 0 37 0
0

0101000
+204 0 -204 0 *
Wi

0101100
+203 0 *
Fa
0  1e-07 36 0

0111000
+205 0 +202 0 *
Ve
1e-07
11 0 49
0 0

0101101
*
Ed
 1e-07 1 1 0
1  73 0 0 2.5
3  58 59CN 37 0 0 2.5
0

0101000
+204 0 -200 0 *
Ed
 1e-07 1 1 0
1  74 0 0 6.28318530717959
2  60 37 0 0 6.28318530717959
4 C0 37 0 38 0
0

0101000
+200 0 -200 0 *
Wi

0101100
+199 0 -198 0 -199 0 +203 0 *
Fa
0  1e-07 37 0

0111000
+197 0 *
Wi

0101100
-198 0 *
Ve
1e-07
2.5 0 49
0 0

0101101
*
Ed
 1e-07 1 1 0
1  75 0 0 6.28318530717959
2  61 39 0 0 6.28318530717959
4 C0 38 0 39 0
0

0101000
+194 0 -194 0 *
Wi

0101100
+193 0 *
Fa
0  1e-07 38 0

0111000
+195 0 +192 0 *
Ve
1e-07
2 1.5 50
0 0

0101101
*
Ve
1e-07
2.5 0 50
0 0

0101101
*
Ed
 1e-07 1 1 0
1  76 0 0.927295218001612 1.5707963267949
2  62 39 0 0.927295218001612 1.5707963267949
4 C0 39 0 40 0
0

0101000
+190 0 -189 0 *
Ed
 1e-07 1 1 0
1  77 0 0 1
3  63 64CN 39 0 0 1
0

0101000
+194 0 -189 0 *
Ve
1e-07
2 -1.5 50
0 0

0101101
*
Ed
 1e-07 1 1 0
1  78 0 1.5707963267949 2.21429743558818
2  65 39 0 1.5707963267949 2.21429743558818
4 C0 39 0 40 0
0

0101000
+189 0 -186 0 *
Ve
1e-07
2 -1.5 71
0 0

0101101
*
Ed
 1e-07 1 1 0
1  79 0 -22 -1
2  66 39 0 -22 -1
4 C0 39 0 41 0
0

0101000
+184 0 -186 0 *
Ve
1e-07
2 1.5 71
0 0

0101101
*
Ed
 1e-07 1 1 0
1  80 0 0.643501108793284 5.6396841983863
2  67 39 0 0.643501108793284 5.6396841983863
4 C0 39 0 42 0
0

0101000
+182 0 -184 0 *
Ed
 1e-07 1 1 0
1  81 0 -22 -1
2  68 39 0 -22 -1
4 C0 39 0 41 0
0

0101000
+182 0 -190 0 *
Wi

0101100
+188 0 -187 0 +193 0 +187 0 +185 0 -183 0 -181 0 +180 0 *
Fa
0  1e-07 39 0

0111000
+179 0 *
Ed
 1e-07 1 1 0
1  82 0 1 4
4 C0 41 0 42 0
0

0101000
+184 0 -182 0 *
Ed
 1e-07 1 1 0
1  83 0 1 4
4 C0 41 0 40 0
0

0101000
+186 0 -190 0 *
Wi

0101100
-180 0 -177 0 +183 0 +176 0 *
Fa
0  1e-07 41 0

0111000
+175 0 *
Wi

0101100
-188 0 -176 0 -185 0 *
Fa
0  1e-07 40 0

0111000
+173 0 *
Wi

0101100
-181 0 -177 0 *
Fa
0  1e-07 42 0

0111000
+171 0 *
Ve
1e-07
13.594116374373 -21.1 8.85000038147
0 0

0101101
*
Ed
 1e-07 1 1 0
1  84 0 0 30
2  69 16 0 0 30
4 C0 17 0 16 0
0

0101000
+169 0 -356 0 *
Ve
1e-07
-13.59411637437 -21.1 8.85000038147
0 0

0101101
*
Ed
 1e-07 1 1 0
1  85 0 -27.5 2.5
2  70 10 0 -27.5 2.5
4 C0 17 0 10 0
0

0101000
+167 0 -369 0 *
Ed
 1e-07 1 1 0
1  86 0 0 27.188232748743
4 C0 17 0 43 0
0

0101000
+169 0 -167 0 *
Wi

0101100
+168 0 -354 0 -166 0 -165 0 *
Fa
0  1e-07 17 0

0111000
-164 0 *
Ve
1e-07
13.701003612874 -21.15 8.85000038147
0 0

0101101
*
Ve
1e-07
-13.70100361287 -21.15 8.85000038147
0 0

0101101
*
Ed
 1e-07 1 1 0
1  87 0 -9.426003612874 17.97600361287
4 C0 44 0 43 0
0

0101000
+162 0 -161 0 *
Ve
1e-07
13.701003612874 -21.15 11.60000038147
0 0

0101101
*
Ed
 1e-07 1 1 0
1  88 0 -2.75 0
2  71 45 0 -2.75 0
4 C0 44 0 45 0
0

0101000
+162 0 -159 0 *
Ve
1e-07
16.65 -21.15 11.60000038147
0 0

0101101
*
Ed
 1e-07 1 1 0
1  89 0 30.351003612874 33.3
4 C0 44 0 46 0
0

0101000
+159 0 -157 0 *
Ve
1e-07
16.65 -21.15 0
0 0

0101101
*
Ed
 1e-07 1 1 0
1  90 0 0 11.60000038147
2  72 47 0 0 11.60000038147
4 C0 44 0 47 0
0

0101000
+155 0 -157 0 *
Ve
1e-07
-16.65 -21.15 0
0 0

0101101
*
Ed
 1e-07 1 1 0
1  91 0 0 33.3
4 C0 44 0 48 0
0

0101000
+153 0 -155 0 *
Ve
1e-07
-16.65 -21.15 11.60000038147
0 0

0101101
*
Ed
 1e-07 1 1 0
1  92 0 0 11.60000038147
2  73 49 0 0 11.60000038147
4 C0 44 0 49 0
0

0101000
+153 0 -151 0 *
Ve
1e-07
-13.70100361287 -21.15 11.60000038147
0 0

0101101
*
Ed
 1e-07 1 1 0
1  93 0 0 2.94899638713
4 C0 44 0 50 0
0

0101000
+151 0 -149 0 *
Ed
 1e-07 1 1 0
1  94 0 -2.75 0
2  74 51 0 -2.75 0
4 C0 44 0 51 0
0

0101000
+161 0 -149 0 *
Wi

0101100
-160 0 +158 0 +156 0 -154 0 -152 0 +150 0 +148 0 -147 0 *
Fa
0  1e-07 44 0

0111000
+146 0 *
Ve
1e-07
21.15 -13.70100361287 8.85000038147
0 0

0101101
*
Ed
 1e-07 1 1 0
1  95 0 5.2872171924633 5.7083570951011
2  75 45 0 5.2872171924633 5.7083570951011
4 C0 43 0 45 0
0

0101000
+162 0 -144 0 *
Ve
1e-07
-21.15 -13.70100361287 8.85000038147
0 0

0101101
*
Ed
 1e-07 1 1 0
1  96 0 3.71642086566828 4.13756076830621
2  76 51 0 3.71642086566828 4.13756076830621
4 C0 43 0 51 0
0

0101000
+142 0 -161 0 *
Ve
1e-07
-21.15 13.701003612874 8.85000038147
0 0

0101101
*
Ed
 1e-07 1 1 0
1  97 0 -22.02600361287 5.376003612874
4 C0 43 0 52 0
0

0101000
+142 0 -140 0 *
Ve
1e-07
-13.70100361287 21.15 8.85000038147
0 0

0101101
*
Ed
 1e-07 1 1 0
1  98 0 2.14562453887338 2.56676444151118
2  77 53 0 2.14562453887338 2.56676444151118
4 C0 43 0 53 0
0

0101000
+138 0 -140 0 *
Ve
1e-07
13.701003612874 21.15 8.85000038147
0 0

0101101
*
Ed
 1e-07 1 1 0
1  99 0 -34.62600361287 -7.223996387126
4 C0 43 0 54 0
0

0101000
+138 0 -136 0 *
Ve
1e-07
21.15 13.701003612874 8.85000038147
0 0

0101101
*
Ed
 1e-07 1 1 0
1  100 0 0.574828212078615 0.995968114716281
2  78 55 0 0.574828212078615 0.995968114716281
4 C0 43 0 55 0
0

0101000
+134 0 -136 0 *
Ed
 1e-07 1 1 0
1  101 0 -22.026003612874 5.37600361287
4 C0 43 0 56 0
0

0101000
+134 0 -144 0 *
Wi

0101100
-143 0 +160 0 -141 0 +139 0 -137 0 +135 0 -133 0 +132 0 *
Ve
1e-07
21.1 -13.59411637437 8.85000038147
0 0

0101101
*
Ed
 1e-07 1 1 0
1  102 0 5.28472617788172 5.71084810968265
2  79 16 0 5.28472617788172 5.71084810968265
4 C0 43 0 16 0
0

0101000
+169 0 -130 0 *
Ve
1e-07
21.1 13.594116374373 8.85000038147
0 0

0101101
*
Ed
 1e-07 1 1 0
1  103 0 0 27.188232748743
4 C0 43 0 15 0
0

0101000
+128 0 -130 0 *
Ve
1e-07
13.594116374373 21.1 8.85000038147
0 0

0101101
*
Ed
 1e-07 1 1 0
1  104 0 0.572337197497033 0.998459129297864
2  80 14 0 0.572337197497033 0.998459129297864
4 C0 43 0 14 0
0

0101000
+128 0 -126 0 *
Ve
1e-07
-13.59411637437 21.1 8.85000038147
0 0

0101101
*
Ed
 1e-07 1 1 0
1  105 0 0 27.188232748743
4 C0 43 0 13 0
0

0101000
+124 0 -126 0 *
Ve
1e-07
-21.1 13.594116374373 8.85000038147
0 0

0101101
*
Ed
 1e-07 1 1 0
1  106 0 2.14313352429183 2.56925545609276
2  81 12 0 2.14313352429183 2.56925545609276
4 C0 43 0 12 0
0

0101000
+124 0 -122 0 *
Ve
1e-07
-21.1 -13.59411637437 8.85000038147
0 0

0101101
*
Ed
 1e-07 1 1 0
1  107 0 0 27.188232748743
4 C0 43 0 11 0
0

0101000
+120 0 -122 0 *
Ed
 1e-07 1 1 0
1  108 0 3.71392985108672 4.14005178288776
2  82 10 0 3.71392985108672 4.14005178288776
4 C0 43 0 10 0
0

0101000
+120 0 -167 0 *
Wi

0101100
-165 0 +129 0 -127 0 +125 0 -123 0 +121 0 -119 0 +118 0 *
Fa
0  1e-07 43 0

0111000
+131 0 +117 0 *
Ve
1e-07
-21.15 -13.70100361287 11.60000038147
0 0

0101101
*
Ed
 1e-07 1 1 0
1  109 0 3.71642086566828 4.13756076830621
2  83 51 0 3.71642086566828 4.13756076830621
4 C0 51 0 50 0
0

0101000
+115 0 -149 0 *
Ed
 1e-07 1 1 0
1  110 0 -2.75 0
2  84 51 0 -2.75 0
4 C0 51 0 52 0
0

0101000
+142 0 -115 0 *
Wi

0101100
+141 0 +147 0 -114 0 -113 0 *
Fa
0  1e-07 51 0

0111000
+112 0 *
Ve
1e-07
-21.15 -16.65 11.60000038147
0 0

0101101
*
Ed
 1e-07 1 1 0
1  111 0 3.8085008578291 4.04548077614538
2  85 49 0 3.8085008578291 4.04548077614538
4 C0 50 0 49 0
0

0101000
+110 0 -151 0 *
Ed
 1e-07 1 1 0
1  112 0 30.35100361287 33.3
4 C0 50 0 52 0
0

0101000
+115 0 -110 0 *
Wi

0101100
-148 0 -109 0 -108 0 +114 0 *
Fa
0  1e-07 50 0

0111000
+107 0 *
Ve
1e-07
-21.15 -16.65 0
0 0

0101101
*
Ed
 1e-07 1 1 0
1  113 0 3.8085008578291 4.04548077614538
2  86 49 0 3.8085008578291 4.04548077614538
4 C0 49 0 48 0
0

0101000
+105 0 -153 0 *
Ed
 1e-07 1 1 0
1  114 0 0 11.60000038147
2  87 49 0 0 11.60000038147
4 C0 49 0 52 0
0

0101000
+105 0 -110 0 *
Wi

0101100
+104 0 +150 0 -109 0 -103 0 *
Fa
0  1e-07 49 0

0111000
+102 0 *
Ve
1e-07
3.4 0 0
0 0

0101101
*
Ed
 1e-07 1 1 0
1  115 0 0 6.28318530717959
2  88 57 0 0 6.28318530717959
4 C0 48 0 57 0
0

0101000
+100 0 -100 0 *
Wi

0101100
-99 0 *
Ve
1e-07
-21.15 16.65 0
0 0

0101101
*
Ed
 1e-07 1 1 0
1  116 0 0 33.3
4 C0 48 0 52 0
0

0101000
+97 0 -105 0 *
Ve
1e-07
-16.65 21.15 0
0 0

0101101
*
Ed
 1e-07 1 1 0
1  117 0 2.23770453103421 2.47468444935048
2  89 58 0 2.23770453103421 2.47468444935048
4 C0 48 0 58 0
0

0101000
+95 0 -97 0 *
Ve
1e-07
16.65 21.15 0
0 0

0101101
*
Ed
 1e-07 1 1 0
1  118 0 0 33.3
4 C0 48 0 54 0
0

0101000
+93 0 -95 0 *
Ve
1e-07
21.15 16.65 0
0 0

0101101
*
Ed
 1e-07 1 1 0
1  119 0 0.66690820423931 0.903888122555586
2  90 59 0 0.66690820423931 0.903888122555586
4 C0 48 0 59 0
0

0101000
+91 0 -93 0 *
Ve
1e-07
21.15 -16.65 0
0 0

0101101
*
Ed
 1e-07 1 1 0
1  120 0 0 33.3
4 C0 48 0 56 0
0

0101000
+89 0 -91 0 *
Ed
 1e-07 1 1 0
1  121 0 5.379297184624 5.61627710294028
2  91 47 0 5.379297184624 5.61627710294028
4 C0 48 0 47 0
0

0101000
+155 0 -89 0 *
Wi

0101100
-152 0 -104 0 -96 0 -94 0 -92 0 -90 0 -88 0 -87 0 *
Fa
0  1e-07 48 0

0111000
+98 0 +86 0 *
Ve
1e-07
21.15 -16.65 11.60000038147
0 0

0101101
*
Ed
 1e-07 1 1 0
1  122 0 0 11.60000038147
2  92 47 0 0 11.60000038147
4 C0 47 0 56 0
0

0101000
+89 0 -84 0 *
Ed
 1e-07 1 1 0
1  123 0 5.379297184624 5.61627710294028
2  93 47 0 5.379297184624 5.61627710294028
4 C0 47 0 46 0
0

0101000
+157 0 -84 0 *
Wi

0101100
+87 0 +83 0 -82 0 -154 0 *
Fa
0  1e-07 47 0

0111000
+81 0 *
Ve
1e-07
21.15 -13.70100361287 11.60000038147
0 0

0101101
*
Ed
 1e-07 1 1 0
1  124 0 5.2872171924633 5.7083570951011
2  94 45 0 5.2872171924633 5.7083570951011
4 C0 46 0 45 0
0

0101000
+159 0 -79 0 *
Ed
 1e-07 1 1 0
1  125 0 0 2.94899638713
4 C0 46 0 56 0
0

0101000
+84 0 -79 0 *
Wi

0101100
-156 0 +78 0 -77 0 -82 0 *
Fa
0  1e-07 46 0

0111000
+76 0 *
Ed
 1e-07 1 1 0
1  126 0 -2.75 0
2  95 45 0 -2.75 0
4 C0 45 0 56 0
0

0101000
+144 0 -79 0 *
Wi

0101100
-158 0 +143 0 +74 0 -78 0 *
Fa
0  1e-07 45 0

0111000
+73 0 *
Ve
1e-07
21.15 13.701003612874 11.60000038147
0 0

0101101
*
Ed
 1e-07 1 1 0
1  127 0 -2.75 0
2  96 55 0 -2.75 0
4 C0 56 0 55 0
0

0101000
+134 0 -71 0 *
Ve
1e-07
21.15 16.65 11.60000038147
0 0

0101101
*
Ed
 1e-07 1 1 0
1  128 0 30.351003612874 33.3
4 C0 56 0 60 0
0

0101000
+71 0 -69 0 *
Ed
 1e-07 1 1 0
1  129 0 0 11.60000038147
2  97 59 0 0 11.60000038147
4 C0 56 0 59 0
0

0101000
+91 0 -69 0 *
Wi

0101100
-132 0 +70 0 +68 0 -67 0 -88 0 +83 0 +77 0 -74 0 *
Fa
0  1e-07 56 0

0111000
+66 0 *
Ve
1e-07
13.701003612874 21.15 11.60000038147
0 0

0101101
*
Ed
 1e-07 1 1 0
1  130 0 -2.75 0
2  98 55 0 -2.75 0
4 C0 55 0 54 0
0

0101000
+136 0 -64 0 *
Ed
 1e-07 1 1 0
1  131 0 0.574828212078615 0.995968114716281
2  99 55 0 0.574828212078615 0.995968114716281
4 C0 55 0 60 0
0

0101000
+71 0 -64 0 *
Wi

0101100
-70 0 +133 0 +63 0 -62 0 *
Fa
0  1e-07 55 0

0111000
+61 0 *
Ve
1e-07
-21.15 16.65 11.60000038147
0 0

0101101
*
Ed
 1e-07 1 1 0
1  132 0 0 11.60000038147
2  100 58 0 0 11.60000038147
4 C0 52 0 58 0
0

0101000
+97 0 -59 0 *
Ve
1e-07
-21.15 13.701003612874 11.60000038147
0 0

0101101
*
Ed
 1e-07 1 1 0
1  133 0 0 2.948996387126
4 C0 52 0 61 0
0

0101000
+59 0 -57 0 *
Ed
 1e-07 1 1 0
1  134 0 -2.75 0
2  101 53 0 -2.75 0
4 C0 52 0 53 0
0

0101000
+140 0 -57 0 *
Wi

0101100
-139 0 +113 0 +108 0 -103 0 -96 0 +58 0 +56 0 -55 0 *
Fa
0  1e-07 52 0

0111000
+54 0 *
Ve
1e-07
-13.70100361287 21.15 11.60000038147
0 0

0101101
*
Ed
 1e-07 1 1 0
1  135 0 -2.75 0
2  102 53 0 -2.75 0
4 C0 54 0 53 0
0

0101000
+138 0 -52 0 *
Ve
1e-07
-16.65 21.15 11.60000038147
0 0

0101101
*
Ed
 1e-07 1 1 0
1  136 0 30.35100361287 33.3
4 C0 54 0 61 0
0

0101000
+52 0 -50 0 *
Ed
 1e-07 1 1 0
1  137 0 0 11.60000038147
2  103 58 0 0 11.60000038147
4 C0 54 0 58 0
0

0101000
+95 0 -50 0 *
Ve
1e-07
16.65 21.15 11.60000038147
0 0

0101101
*
Ed
 1e-07 1 1 0
1  138 0 0 11.60000038147
2  104 59 0 0 11.60000038147
4 C0 54 0 59 0
0

0101000
+93 0 -47 0 *
Ed
 1e-07 1 1 0
1  139 0 0 2.948996387126
4 C0 54 0 60 0
0

0101000
+47 0 -64 0 *
Wi

0101100
-135 0 +51 0 +49 0 -48 0 -92 0 +46 0 +45 0 -63 0 *
Fa
0  1e-07 54 0

0111000
+44 0 *
Ed
 1e-07 1 1 0
1  140 0 2.14562453887338 2.56676444151118
2  105 53 0 2.14562453887338 2.56676444151118
4 C0 53 0 61 0
0

0101000
+52 0 -57 0 *
Wi

0101100
+137 0 +55 0 -42 0 -51 0 *
Fa
0  1e-07 53 0

0111000
+41 0 *
Ve
1e-07
3.4 0 3
0 0

0101101
*
Ed
 1e-07 1 1 0
1  141 0 0 3
3  106 107CN 57 0 0 3
0

0101000
+100 0 -39 0 *
Ed
 1e-07 1 1 0
1  142 0 0 6.28318530717959
2  108 57 0 0 6.28318530717959
4 C0 57 0 62 0
0

0101000
+39 0 -39 0 *
Wi

0101100
-99 0 +38 0 +37 0 -38 0 *
Fa
0  1e-07 57 0

0111000
+36 0 *
Ed
 1e-07 1 1 0
1  143 0 2.23770453103421 2.47468444935048
2  109 58 0 2.23770453103421 2.47468444935048
4 C0 58 0 61 0
0

0101000
+50 0 -59 0 *
Wi

0101100
+94 0 +58 0 -34 0 -48 0 *
Fa
0  1e-07 58 0

0111000
+33 0 *
Ed
 1e-07 1 1 0
1  144 0 0.66690820423931 0.903888122555586
2  110 59 0 0.66690820423931 0.903888122555586
4 C0 59 0 60 0
0

0101000
+69 0 -47 0 *
Wi

0101100
+90 0 +46 0 -31 0 -67 0 *
Fa
0  1e-07 59 0

0111000
+30 0 *
Wi

0101100
-68 0 +62 0 -45 0 -31 0 *
Fa
0  1e-07 60 0

0111000
+28 0 *
Wi

0101100
+42 0 -56 0 -34 0 -49 0 *
Fa
0  1e-07 61 0

0111000
+26 0 *
Wi

0101100
+37 0 *
Fa
0  1e-07 62 0

0111000
-24 0 *
Ed
 1e-07 1 1 0
1  145 0 0 30
2  111 10 0 0 30
4 C0 11 0 10 0
0

0101000
+120 0 -368 0 *
Ed
 1e-07 1 1 0
1  146 0 -27.5 2.5
2  112 12 0 -27.5 2.5
4 C0 11 0 12 0
0

0101000
+122 0 -366 0 *
Wi

0101100
+22 0 -365 0 -21 0 -119 0 *
Fa
0  1e-07 11 0

0111000
-20 0 *
Ed
 1e-07 1 1 0
1  147 0 0 30
2  113 12 0 0 30
4 C0 13 0 12 0
0

0101000
+124 0 -364 0 *
Ed
 1e-07 1 1 0
1  148 0 -27.5 2.5
2  114 14 0 -27.5 2.5
4 C0 13 0 14 0
0

0101000
+126 0 -362 0 *
Wi

0101100
+18 0 -361 0 -17 0 -123 0 *
Fa
0  1e-07 13 0

0111000
-16 0 *
Ed
 1e-07 1 1 0
1  149 0 0 30
2  115 14 0 0 30
4 C0 15 0 14 0
0

0101000
+128 0 -360 0 *
Ed
 1e-07 1 1 0
1  150 0 -27.5 2.5
2  116 16 0 -27.5 2.5
4 C0 15 0 16 0
0

0101000
+130 0 -358 0 *
Wi

0101100
+14 0 -357 0 -13 0 -127 0 *
Fa
0  1e-07 15 0

0111000
-12 0 *
Wi

0101100
-22 0 +118 0 +166 0 +367 0 *
Fa
0  1e-07 10 0

0111000
+10 0 *
Wi

0101100
-18 0 +121 0 +21 0 +363 0 *
Fa
0  1e-07 12 0

0111000
+8 0 *
Wi

0101100
-14 0 +125 0 +17 0 +359 0 *
Fa
0  1e-07 14 0

0111000
+6 0 *
Wi

0101100
-168 0 +129 0 +13 0 +355 0 *
Fa
0  1e-07 16 0

0111000
+4 0 *
Sh

0101100
-352 0 +337 0 -332 0 +319 0 -314 0 +301 0 -296 0 +283 0 -280 0 -277 0 
+274 0 +254 0 +251 0 -249 0 -246 0 +244 0 -241 0 +239 0 -234 0 -229 0 
-224 0 -219 0 -214 0 -212 0 -210 0 -208 0 -206 0 -201 0 +196 0 -191 0 
+178 0 +174 0 +172 0 -170 0 -163 0 -145 0 -116 0 -111 0 -106 0 +101 0 
+85 0 +80 0 -75 0 -72 0 -65 0 -60 0 -53 0 -43 0 -40 0 -35 0 
+32 0 +29 0 -27 0 -25 0 -23 0 -19 0 -15 0 -11 0 +9 0 +7 0 
+5 0 +3 0 *
So

0100000
+2 0 *

+1 0 