
CASCADE Topology V1, (c) Matra-Datavision
Locations 79
1
1.000000000000000 0.000000000000000 0.000000000000000 0.000000000000000 
0.000000000000000 1.000000000000000 0.000000000000000 0.000000000000000 
0.000000000000000 0.000000000000000 1.000000000000000 0.000000000000000 
1
1.000000000000000 0.000000000000000 0.000000000000000 0.000000000000000 
0.000000000000000 1.000000000000000 0.000000000000000 0.000000000000000 
0.000000000000000 0.000000000000000 1.000000000000000 0.000000000000000 
1
1.000000000000000 0.000000000000000 0.000000000000000 0.000000000000000 
0.000000000000000 1.000000000000000 0.000000000000000 0.000000000000000 
0.000000000000000 0.000000000000000 1.000000000000000 0.000000000000000 
1
1.000000000000000 0.000000000000000 0.000000000000000 0.000000000000000 
0.000000000000000 1.000000000000000 0.000000000000000 0.000000000000000 
0.000000000000000 0.000000000000000 1.000000000000000 0.000000000000000 
1
1.000000000000000 0.000000000000000 0.000000000000000 0.000000000000000 
0.000000000000000 1.000000000000000 0.000000000000000 0.000000000000000 
0.000000000000000 0.000000000000000 1.000000000000000 0.000000000000000 
1
1.000000000000000 0.000000000000000 0.000000000000000 0.000000000000000 
0.000000000000000 1.000000000000000 0.000000000000000 0.000000000000000 
0.000000000000000 0.000000000000000 1.000000000000000 0.000000000000000 
2  2 1 3 1 4 -1 5 1 6 -1 0
1
1.000000000000000 0.000000000000000 0.000000000000000 0.000000000000000 
0.000000000000000 1.000000000000000 0.000000000000000 0.000000000000000 
0.000000000000000 0.000000000000000 1.000000000000000 0.000000000000000 
1
1.000000000000000 0.000000000000000 0.000000000000000 0.000000000000000 
0.000000000000000 1.000000000000000 0.000000000000000 0.000000000000000 
0.000000000000000 0.000000000000000 1.000000000000000 0.000000000000000 
2  8 1 9 -1 0
2  2 -1 0
1
1.000000000000000 0.000000000000000 0.000000000000000 0.000000000000000 
0.000000000000000 1.000000000000000 0.000000000000000 0.000000000000000 
0.000000000000000 0.000000000000000 1.000000000000000 3.000000000000000 
1
1.000000000000000 0.000000000000000 0.000000000000000 0.000000000000000 
0.000000000000000 1.000000000000000 0.000000000000000 0.000000000000000 
0.000000000000000 0.000000000000000 1.000000000000000 0.000000000000000 
1
1.000000000000000 0.000000000000000 0.000000000000000 0.000000000000000 
0.000000000000000 1.000000000000000 0.000000000000000 0.000000000000000 
0.000000000000000 0.000000000000000 1.000000000000000 8.000000000000000 
2  12 1 13 -1 14 1 8 1 9 -1 2 1 0
1
1.000000000000000 0.000000000000000 0.000000000000000 0.000000000000000 
0.000000000000000 1.000000000000000 0.000000000000000 0.000000000000000 
0.000000000000000 0.000000000000000 1.000000000000000 0.000000000000000 
2  16 -1 6 1 5 -1 4 1 3 -1 2 -1 9 1 8 -1 14 -1 13 1 12 -1 0
2  16 -1 6 1 5 -1 4 1 3 -1 0
2  16 -1 6 1 5 -1 4 1 3 -1 2 -1 0
2  8 1 9 -1 2 1 0
2  16 -1 6 1 5 -1 4 1 3 -1 2 -1 9 1 8 -1 0
2  12 1 13 -1 8 1 9 -1 2 1 0
2  16 -1 6 1 5 -1 4 1 3 -1 2 -1 9 1 8 -1 13 1 12 -1 0
2  5 1 6 -1 0
2  13 -1 14 1 8 1 9 -1 2 1 3 1 4 -1 0
2  12 1 13 -1 14 1 8 1 9 -1 2 1 3 1 4 -1 0
2  2 1 3 1 4 -1 0
1
1.000000000000000 0.000000000000000 0.000000000000000 0.000000000000000 
0.000000000000000 1.000000000000000 0.000000000000000 0.000000000000000 
0.000000000000000 0.000000000000000 1.000000000000000 11.000000000000000 
2  28 1 4 -1 0
2  4 1 28 -1 0
2  16 -1 6 1 5 -1 4 1 28 -1 0
2  3 1 4 -1 0
2  3 1 4 -1 5 1 6 -1 0
1
1.000000000000000 0.000000000000000 0.000000000000000 0.000000000000000 
0.000000000000000 0.000000000000000 -1.000000000000000 -3.100000000000000 
0.000000000000000 1.000000000000000 0.000000000000000 0.000000000000000 
2  34 1 9 -1 2 1 3 1 4 -1 0
2  16 -1 6 1 5 -1 4 1 3 -1 2 -1 9 1 34 -1 0
2  16 -1 6 1 5 -1 0
2  8 1 9 -1 2 1 3 1 4 -1 5 1 6 -1 0
2  2 -1 9 1 8 -1 0
1
1.000000000000000 0.000000000000000 0.000000000000000 0.000000000000000 
0.000000000000000 1.000000000000000 0.000000000000000 0.000000000000000 
0.000000000000000 0.000000000000000 1.000000000000000 0.000000000000000 
2  40 1 13 -1 8 1 9 -1 0
2  16 -1 6 1 5 -1 4 1 3 -1 2 -1 9 1 8 -1 13 1 40 -1 0
1
1.000000000000000 0.000000000000000 0.000000000000000 0.000000000000000 
0.000000000000000 1.000000000000000 0.000000000000000 0.000000000000000 
0.000000000000000 0.000000000000000 1.000000000000000 0.000000000000000 
1
1.000000000000000 0.000000000000000 0.000000000000000 0.000000000000000 
0.000000000000000 1.000000000000000 0.000000000000000 0.000000000000000 
0.000000000000000 0.000000000000000 1.000000000000000 0.000000000000000 
2  43 1 44 -1 40 1 13 -1 8 1 9 -1 0
2  16 -1 6 1 5 -1 4 1 3 -1 2 -1 9 1 8 -1 13 1 40 -1 44 1 43 -1 0
1
1.000000000000000 0.000000000000000 0.000000000000000 0.000000000000000 
0.000000000000000 1.000000000000000 0.000000000000000 0.000000000000000 
0.000000000000000 0.000000000000000 1.000000000000000 3.000000000000000 
2  43 1 44 -1 47 1 40 1 13 -1 8 1 9 -1 0
2  16 -1 6 1 5 -1 4 1 3 -1 2 -1 9 1 8 -1 13 1 40 -1 47 -1 44 1 43 -1 0
2  12 1 13 -1 8 1 9 -1 0
2  34 1 9 -1 2 1 0
1
1.000000000000000 0.000000000000000 0.000000000000000 -0.000000000000000 
0.000000000000000 1.000000000000000 0.000000000000000 -0.000000000000000 
0.000000000000000 0.000000000000000 1.000000000000000 -5.000000000000000 
2  28 1 4 -1 52 1 0
2  52 -1 4 1 28 -1 0
2  16 -1 6 1 5 -1 52 -1 4 1 28 -1 0
2  4 -1 52 1 0
2  34 1 9 -1 0
2  44 -1 47 1 40 1 13 -1 0
2  43 1 44 -1 47 1 40 1 13 -1 0
2  12 1 13 -1 0
2  47 -1 44 1 43 -1 0
2  40 1 13 -1 8 1 9 -1 2 1 3 1 4 -1 5 1 6 -1 0
2  43 1 44 -1 0
2  44 1 43 -1 0
2  43 1 44 -1 47 1 0
2  44 -1 40 1 13 -1 8 1 9 -1 2 1 3 1 4 -1 5 1 6 -1 0
2  43 1 44 -1 40 1 13 -1 8 1 9 -1 2 1 3 1 4 -1 5 1 6 -1 0
1
1.000000000000000 0.000000000000000 0.000000000000000 0.000000000000000 
0.000000000000000 -1.000000000000000 0.000000000000000 0.000000000000000 
0.000000000000000 0.000000000000000 -1.000000000000000 0.000000000000000 
2  68 1 6 -1 0
2  6 1 68 -1 0
2  16 -1 6 1 68 -1 0
2  12 1 13 -1 14 1 8 1 9 -1 0
2  16 -1 0
1
1.000000000000000 0.000000000000000 0.000000000000000 0.000000000000000 
0.000000000000000 1.000000000000000 0.000000000000000 0.000000000000000 
0.000000000000000 0.000000000000000 1.000000000000000 -7.000000000000000 
2  68 1 6 -1 74 1 0
2  74 -1 6 1 68 -1 0
2  16 -1 74 -1 6 1 68 -1 0
2  12 1 13 -1 14 1 0
2  6 -1 74 1 0
Curve2ds 42
1 0.00000000000000000 0.00000000000000000 1.00000000000000000 0.00000000000000000 
1 4.71238898038468967 0.00000000000000000 0.00000000000000000 1.00000000000000000 
1 1.57079632679489656 0.00000000000000000 0.00000000000000000 1.00000000000000000 
1 1.57079632679489656 0.00000000000000000 0.00000000000000000 -1.00000000000000000 
1 7.85398163397448279 0.00000000000000000 0.00000000000000000 -1.00000000000000000 
1 0.00000000000000000 -5.00000000000000000 1.00000000000000000 0.00000000000000000 
1 0.00000000000000000 -3.00000000000000000 1.00000000000000000 0.00000000000000000 
1 0.00000000000000000 -3.00000000000000000 1.00000000000000000 0.00000000000000000 
1 4.71238898038468967 0.00000000000000000 0.00000000000000000 -1.00000000000000000 
1 0.00000000000000000 0.00000000000000000 1.00000000000000000 0.00000000000000000 
1 4.71238898038468967 0.00000000000000000 0.00000000000000000 -1.00000000000000000 
1 0.00000000000000000 0.00000000000000000 1.00000000000000000 0.00000000000000000 
1 0.00000000000000000 -3.00000000000000000 1.00000000000000000 0.00000000000000000 
1 0.00000000000000000 0.00000000000000000 1.00000000000000000 0.00000000000000000 
1 0.00000000000000000 0.00000000000000000 1.00000000000000000 0.00000000000000000 
1 0.00000000000000000 0.00000000000000000 1.00000000000000000 0.00000000000000000 
1 0.00000000000000000 0.00000000000000000 1.00000000000000000 0.00000000000000000 
1 0.00000000000000000 0.00000000000000000 1.00000000000000000 0.00000000000000000 
1 0.00000000000000000 0.00000000000000000 1.00000000000000000 0.00000000000000000 
1 0.00000000000000000 -3.00000000000000000 1.00000000000000000 0.00000000000000000 
1 1.57079632679492387 0.00000000000000000 0.00000000000000000 1.00000000000000000 
1 4.71238898038466214 0.00000000000000000 0.00000000000000000 1.00000000000000000 
1 0.00000000000000000 0.00000000000000000 0.00000000000000000 -1.00000000000000000 
1 6.28318530717958623 0.00000000000000000 0.00000000000000000 -1.00000000000000000 
1 0.00000000000000000 0.00000000000000000 0.00000000000000000 -1.00000000000000000 
1 6.28318530717958623 0.00000000000000000 0.00000000000000000 -1.00000000000000000 
1 0.00000000000000000 -7.00000000000000000 1.00000000000000000 0.00000000000000000 
1 0.00000000000000000 0.00000000000000000 0.00000000000000000 -1.00000000000000000 
1 6.28318530717958623 0.00000000000000000 0.00000000000000000 -1.00000000000000000 
1 0.00000000000000000 -7.00000000000000000 1.00000000000000000 0.00000000000000000 
1 0.00000000000000000 0.00000000000000000 0.00000000000000000 -1.00000000000000000 
1 6.28318530717958623 0.00000000000000000 0.00000000000000000 -1.00000000000000000 
1 0.00000000000000000 -7.00000000000000000 1.00000000000000000 0.00000000000000000 
1 0.00000000000000000 0.00000000000000000 0.00000000000000000 -1.00000000000000000 
1 6.28318530717958623 0.00000000000000000 0.00000000000000000 -1.00000000000000000 
1 0.00000000000000000 -7.00000000000000000 1.00000000000000000 0.00000000000000000 
1 0.00000000000000000 0.00000000000000000 0.00000000000000000 -1.00000000000000000 
1 6.28318530717958623 0.00000000000000000 0.00000000000000000 -1.00000000000000000 
1 0.00000000000000000 0.00000000000000000 1.00000000000000000 0.00000000000000000 
1 0.00000000000000000 -5.00000000000000000 1.00000000000000000 0.00000000000000000 
1 0.00000000000000000 0.00000000000000000 0.00000000000000000 -1.00000000000000000 
1 6.28318530717958623 0.00000000000000000 0.00000000000000000 -1.00000000000000000 
Curves 76
1 -5.90000000000000036 3.10000000000000009 0.00000000000000000 1.00000000000000000 0.00000000000000000 0.00000000000000000 
8 2.12132034355964194 3.53553390593273686
1 -7.39999999999999947 3.09999999999999920 8.50000000000000000 0.70710678118654757 0.00000000000000000 0.70710678118654757 
1 -1.54999999999999982 3.09999999999999964 3.00000000000000000 0.00000000000000000 0.00000000000000000 -1.00000000000000000 
1 -5.90000000000000036 3.10000000000000009 3.00000000000000000 0.00000000000000000 0.00000000000000000 1.00000000000000000 
1 -5.90000000000000036 3.10000000000000009 0.00000000000000000 1.00000000000000000 0.00000000000000000 0.00000000000000000 
1 5.90000000000000036 -3.10000000000000009 0.00000000000000000 -1.00000000000000000 0.00000000000000000 0.00000000000000000 
1 -1.55000000000000004 -3.09999999999999787 11.00000000000000000 0.00000000000000000 1.00000000000000000 -0.00000000000000022 
2 -1.55000000000000004 0.00000000000000000 0.00000000000000000 0.00000000000000000 0.00000000000000000 1.00000000000000000 1.00000000000000000 0.00000000000000000 0.00000000000000000 0.00000000000000000 1.00000000000000000 0.00000000000000000 0.30000000000000004
1 -1.55000000000000004 -3.09999999999999787 11.00000000000000000 0.00000000000000000 1.00000000000000000 -0.00000000000000022 
1 -4.90000000000000036 -3.10000000000000009 11.00000000000000000 0.00000000000000000 1.00000000000000000 0.00000000000000000 
8 -2.05060966544098822 -0.63639610306789307
1 -4.44999999999999929 -3.10000000000000009 11.44999999999999929 0.70710678118654757 0.00000000000000000 0.70710678118654757 
1 -5.90000000000000036 -3.10000000000000009 10.00000000000000000 0.00000000000000000 1.00000000000000000 0.00000000000000000 
1 -1.55000000000000004 3.00000000000000000 0.00000000000000000 0.00000000000000000 1.00000000000000000 0.00000000000000000 
1 -1.55000000000000004 -0.30000000000000004 11.00000000000000000 0.00000000000000000 0.00000000000000000 1.00000000000000000 
1 -1.55000000000000004 -1.54999999999999982 6.00000000000000000 0.00000000000000000 -1.00000000000000000 0.00000000000000000 
1 -1.55000000000000004 0.30000000000000004 11.00000000000000000 0.00000000000000000 0.00000000000000000 1.00000000000000000 
1 -1.55000000000000004 -3.09999999999999964 3.00000000000000000 0.00000000000000000 1.00000000000000000 -0.00000000000000022 
1 -5.90000000000000036 -3.10000000000000009 3.00000000000000000 0.00000000000000000 0.00000000000000000 1.00000000000000000 
1 -5.90000000000000036 -3.10000000000000009 0.00000000000000000 0.00000000000000000 1.00000000000000000 0.00000000000000000 
1 -9.50000000000000000 3.10000000000000009 0.00000000000000000 0.00000000000000000 0.00000000000000000 1.00000000000000000 
1 9.50000000000000178 3.10000000000000009 0.00000000000000000 0.00000000000000000 0.00000000000000000 1.00000000000000000 
1 -9.50000000000000000 3.10000000000000009 0.00000000000000000 1.00000000000000000 0.00000000000000000 0.00000000000000000 
1 -9.50000000000000000 3.10000000000000009 0.00000000000000000 1.00000000000000000 0.00000000000000000 0.00000000000000000 
1 -5.90000000000000036 3.10000000000000009 0.00000000000000000 1.00000000000000000 0.00000000000000000 0.00000000000000000 
1 -5.90000000000000036 3.10000000000000009 0.00000000000000000 1.00000000000000000 0.00000000000000000 0.00000000000000000 
1 -9.50000000000000000 3.10000000000000009 0.00000000000000000 1.00000000000000000 0.00000000000000000 0.00000000000000000 
1 5.90000000000000036 -3.10000000000000009 0.00000000000000000 -1.00000000000000000 0.00000000000000000 0.00000000000000000 
2 -1.55000000000000004 0.00000000000000000 0.00000000000000000 0.00000000000000000 0.00000000000000000 1.00000000000000000 1.00000000000000000 0.00000000000000000 0.00000000000000000 0.00000000000000000 1.00000000000000000 0.00000000000000000 0.30000000000000004
1 1.55000000000000004 3.00000000000000000 0.00000000000000000 -1.00000000000000000 0.00000000000000000 0.00000000000000000 
1 1.55000000000000004 -3.09999999999999964 3.00000000000000000 0.00000000000000000 1.00000000000000000 -0.00000000000000022 
1 -9.50000000000000000 -3.10000000000000009 0.00000000000000000 1.00000000000000000 0.00000000000000000 0.00000000000000000 
2 -9.50000000000000000 0.00000000000000000 0.00000000000000000 0.00000000000000000 0.00000000000000000 1.00000000000000000 1.00000000000000000 0.00000000000000000 0.00000000000000000 0.00000000000000000 1.00000000000000000 0.00000000000000000 3.10000000000000009
2 -9.50000000000000000 0.00000000000000000 0.00000000000000000 0.00000000000000000 0.00000000000000000 1.00000000000000000 1.00000000000000000 0.00000000000000000 0.00000000000000000 0.00000000000000000 1.00000000000000000 0.00000000000000000 1.80000000000000004
1 -9.50000000000000000 -3.10000000000000009 0.00000000000000000 0.00000000000000000 0.00000000000000000 1.00000000000000000 
2 -9.50000000000000000 0.00000000000000000 0.00000000000000000 0.00000000000000000 0.00000000000000000 1.00000000000000000 1.00000000000000000 0.00000000000000000 0.00000000000000000 0.00000000000000000 1.00000000000000000 0.00000000000000000 3.10000000000000009
1 9.50000000000000000 -3.10000000000000009 0.00000000000000000 0.00000000000000000 0.00000000000000000 1.00000000000000000 
2 9.50000000000000178 0.00000000000000000 0.00000000000000000 0.00000000000000000 0.00000000000000000 1.00000000000000000 1.00000000000000000 0.00000000000000000 0.00000000000000000 0.00000000000000000 1.00000000000000000 0.00000000000000000 3.10000000000000009
2 9.50000000000000178 0.00000000000000000 0.00000000000000000 0.00000000000000000 0.00000000000000000 1.00000000000000000 1.00000000000000000 0.00000000000000000 0.00000000000000000 0.00000000000000000 1.00000000000000000 0.00000000000000000 3.10000000000000009
1 -9.50000000000000000 -3.10000000000000009 0.00000000000000000 1.00000000000000000 0.00000000000000000 0.00000000000000000 
2 4.00000000000000000 -1.27000000000000024 0.00000000000000000 0.00000000000000000 0.00000000000000000 1.00000000000000000 1.00000000000000000 0.00000000000000000 0.00000000000000000 0.00000000000000000 1.00000000000000000 0.00000000000000000 0.29999999999999999
2 4.00000000000000000 1.27000000000000002 0.00000000000000000 0.00000000000000000 0.00000000000000000 1.00000000000000000 1.00000000000000000 0.00000000000000000 0.00000000000000000 0.00000000000000000 1.00000000000000000 0.00000000000000000 0.29999999999999999
2 -4.00000000000000000 1.27000000000000002 0.00000000000000000 0.00000000000000000 0.00000000000000000 1.00000000000000000 1.00000000000000000 0.00000000000000000 0.00000000000000000 0.00000000000000000 1.00000000000000000 0.00000000000000000 0.29999999999999999
2 -4.00000000000000000 -1.27000000000000024 0.00000000000000000 0.00000000000000000 0.00000000000000000 1.00000000000000000 1.00000000000000000 0.00000000000000000 0.00000000000000000 0.00000000000000000 1.00000000000000000 0.00000000000000000 0.29999999999999999
2 9.50000000000000178 0.00000000000000000 0.00000000000000000 0.00000000000000000 0.00000000000000000 1.00000000000000000 1.00000000000000000 0.00000000000000000 0.00000000000000000 0.00000000000000000 1.00000000000000000 0.00000000000000000 1.80000000000000004
2 -9.50000000000000000 0.00000000000000000 0.00000000000000000 0.00000000000000000 0.00000000000000000 1.00000000000000000 1.00000000000000000 0.00000000000000000 0.00000000000000000 0.00000000000000000 1.00000000000000000 0.00000000000000000 1.80000000000000004
1 5.90000000000000036 3.10000000000000009 3.00000000000000000 0.00000000000000000 0.00000000000000000 1.00000000000000000 
1 -5.90000000000000036 3.10000000000000009 0.00000000000000000 1.00000000000000000 0.00000000000000000 0.00000000000000000 
1 1.54999999999999982 3.09999999999999964 7.00000000000000000 0.00000000000000000 0.00000000000000000 1.00000000000000000 
1 -9.50000000000000000 -3.10000000000000009 0.00000000000000000 1.00000000000000000 0.00000000000000000 0.00000000000000000 
1 5.90000000000000036 3.10000000000000009 0.00000000000000000 0.00000000000000000 -1.00000000000000000 0.00000000000000000 
2 9.50000000000000178 0.00000000000000000 0.00000000000000000 0.00000000000000000 0.00000000000000000 1.00000000000000000 1.00000000000000000 0.00000000000000000 0.00000000000000000 0.00000000000000000 1.00000000000000000 0.00000000000000000 1.80000000000000004
1 5.90000000000000036 -3.10000000000000009 0.00000000000000000 -1.00000000000000000 0.00000000000000000 0.00000000000000000 
1 1.55000000000000004 11.00000000000000000 0.00000000000000000 0.00000000000000000 -1.00000000000000000 0.00000000000000000 
1 1.55000000000000004 -3.09999999999999787 11.00000000000000000 0.00000000000000000 1.00000000000000000 -0.00000000000000022 
1 1.55000000000000004 0.30000000000000965 11.00000000000000000 0.00000000000000000 0.00000000000000000 1.00000000000000000 
1 1.55000000000000004 -1.54999999999999405 6.00000000000000178 0.00000000000000000 1.00000000000000000 0.00000000000000000 
1 1.55000000000000004 -0.29999999999999044 11.00000000000000000 0.00000000000000000 0.00000000000000000 1.00000000000000000 
1 1.55000000000000004 -3.09999999999999787 11.00000000000000000 0.00000000000000000 1.00000000000000000 -0.00000000000000022 
1 -7.70000000000000018 0.00000000000000000 0.00000000000000000 0.00000000000000000 0.00000000000000000 1.00000000000000000 
1 4.29999999999999982 1.27000000000000024 0.00000000000000000 0.00000000000000000 0.00000000000000000 -1.00000000000000000 
2 4.00000000000000000 -1.27000000000000024 0.00000000000000000 0.00000000000000000 0.00000000000000000 1.00000000000000000 1.00000000000000000 0.00000000000000000 0.00000000000000000 0.00000000000000000 1.00000000000000000 0.00000000000000000 0.29999999999999999
1 4.29999999999999982 -1.27000000000000002 0.00000000000000000 0.00000000000000000 0.00000000000000000 -1.00000000000000000 
2 4.00000000000000000 1.27000000000000002 0.00000000000000000 0.00000000000000000 0.00000000000000000 1.00000000000000000 1.00000000000000000 0.00000000000000000 0.00000000000000000 0.00000000000000000 1.00000000000000000 0.00000000000000000 0.29999999999999999
1 -3.70000000000000018 -1.27000000000000002 0.00000000000000000 0.00000000000000000 0.00000000000000000 -1.00000000000000000 
2 -4.00000000000000000 1.27000000000000002 0.00000000000000000 0.00000000000000000 0.00000000000000000 1.00000000000000000 1.00000000000000000 0.00000000000000000 0.00000000000000000 0.00000000000000000 1.00000000000000000 0.00000000000000000 0.29999999999999999
1 -3.70000000000000018 1.27000000000000024 0.00000000000000000 0.00000000000000000 0.00000000000000000 -1.00000000000000000 
2 -4.00000000000000000 -1.27000000000000024 0.00000000000000000 0.00000000000000000 0.00000000000000000 1.00000000000000000 1.00000000000000000 0.00000000000000000 0.00000000000000000 0.00000000000000000 1.00000000000000000 0.00000000000000000 0.29999999999999999
1 11.30000000000000249 0.00000000000000000 0.00000000000000000 0.00000000000000000 0.00000000000000000 1.00000000000000000 
1 5.90000000000000036 -3.10000000000000009 3.00000000000000000 0.00000000000000000 0.00000000000000000 1.00000000000000000 
1 5.90000000000000036 3.10000000000000009 0.00000000000000000 0.00000000000000000 -1.00000000000000000 0.00000000000000000 
1 5.90000000000000036 -3.10000000000000009 0.00000000000000000 -1.00000000000000000 0.00000000000000000 0.00000000000000000 
2 1.55000000000000826 0.00000000000000958 0.00000000000000000 0.00000000000000000 0.00000000000000000 1.00000000000000000 1.00000000000000000 0.00000000000000000 0.00000000000000000 0.00000000000000000 1.00000000000000000 0.00000000000000000 0.30000000000000004
2 1.55000000000000826 0.00000000000000958 0.00000000000000000 0.00000000000000000 0.00000000000000000 1.00000000000000000 1.00000000000000000 0.00000000000000000 0.00000000000000000 0.00000000000000000 1.00000000000000000 0.00000000000000000 0.30000000000000004
2 1.55000000000000826 0.00000000000000958 0.00000000000000000 0.00000000000000000 0.00000000000000000 1.00000000000000000 1.00000000000000000 0.00000000000000000 0.00000000000000000 0.00000000000000000 1.00000000000000000 0.00000000000000000 0.30000000000000004
1 1.85000000000000830 0.00000000000000958 11.00000000000000000 -0.00000000000000000 -0.00000000000000000 -1.00000000000000000 
2 1.55000000000000826 0.00000000000000958 0.00000000000000000 0.00000000000000000 0.00000000000000000 1.00000000000000000 1.00000000000000000 0.00000000000000000 0.00000000000000000 0.00000000000000000 1.00000000000000000 0.00000000000000000 0.30000000000000004
Polygon3D 0
PolygonOnTriangulations 0
Surfaces 34
1 -5.90000000000000036 3.10000000000000009 3.00000000000000000 0.00000000000000000 1.00000000000000000 0.00000000000000000 1.00000000000000000 0.00000000000000000 0.00000000000000000 0.00000000000000000 0.00000000000000000 -1.00000000000000000 
1 0.00000000000000020 0.00000000000000000 3.00000000000000000 -0.00000000000000000 -0.00000000000000000 -1.00000000000000000 -1.00000000000000000 0.00000000000000000 0.00000000000000000 0.00000000000000000 1.00000000000000000 0.00000000000000000 
2 -1.55000000000000004 0.00000000000000000 11.00000000000000000 0.00000000000000000 0.00000000000000000 1.00000000000000000 1.00000000000000000 0.00000000000000000 0.00000000000000000 0.00000000000000000 1.00000000000000000 0.00000000000000000 0.30000000000000004
1 -5.40000000000000036 -3.10000000000000009 10.50000000000000000 0.70710678118654757 0.00000000000000000 -0.70710678118654757 0.00000000000000000 1.00000000000000000 0.00000000000000000 0.70710678118654757 0.00000000000000000 0.70710678118654757 
1 -1.55000000000000004 -3.09999999999999964 3.00000000000000000 1.00000000000000000 0.00000000000000000 0.00000000000000000 0.00000000000000000 0.00000000000000022 1.00000000000000000 0.00000000000000000 -1.00000000000000000 0.00000000000000022 
1 -5.90000000000000036 -3.10000000000000009 3.00000000000000000 -1.00000000000000000 0.00000000000000000 0.00000000000000000 0.00000000000000000 1.00000000000000000 0.00000000000000000 0.00000000000000000 0.00000000000000000 -1.00000000000000000 
1 -9.50000000000000000 3.10000000000000009 0.00000000000000000 0.00000000000000000 1.00000000000000000 0.00000000000000000 1.00000000000000000 0.00000000000000000 0.00000000000000000 0.00000000000000000 0.00000000000000000 -1.00000000000000000 
2 -9.50000000000000000 0.00000000000000000 0.00000000000000000 -0.00000000000000000 -0.00000000000000000 -1.00000000000000000 1.00000000000000000 0.00000000000000000 0.00000000000000000 0.00000000000000000 1.00000000000000000 0.00000000000000000 3.10000000000000009
2 9.50000000000000178 0.00000000000000000 0.00000000000000000 -0.00000000000000000 -0.00000000000000000 -1.00000000000000000 1.00000000000000000 0.00000000000000000 0.00000000000000000 0.00000000000000000 1.00000000000000000 0.00000000000000000 3.10000000000000009
1 5.90000000000000036 -3.10000000000000009 3.00000000000000000 0.00000000000000000 -1.00000000000000000 0.00000000000000000 -1.00000000000000000 0.00000000000000000 0.00000000000000000 -0.00000000000000000 -0.00000000000000000 -1.00000000000000000 
1 -1.54999999999999982 0.00000000000000002 11.00000000000000000 0.00000000000000000 0.00000000000000000 1.00000000000000000 1.00000000000000000 0.00000000000000000 0.00000000000000000 0.00000000000000000 1.00000000000000000 0.00000000000000000 
1 1.55000000000000004 -3.09999999999999964 3.00000000000000000 0.00000000000000000 0.00000000000000022 1.00000000000000000 -1.00000000000000000 0.00000000000000000 0.00000000000000000 0.00000000000000000 -1.00000000000000000 0.00000000000000022 
1 0.00000000000000050 0.00000000000000000 0.00000000000000000 0.00000000000000000 0.00000000000000000 1.00000000000000000 1.00000000000000000 0.00000000000000000 0.00000000000000000 0.00000000000000000 1.00000000000000000 0.00000000000000000 
2 -9.50000000000000000 0.00000000000000000 0.00000000000000000 -0.00000000000000000 -0.00000000000000000 -1.00000000000000000 1.00000000000000000 0.00000000000000000 0.00000000000000000 0.00000000000000000 1.00000000000000000 0.00000000000000000 1.80000000000000004
1 -9.50000000000000000 -3.10000000000000009 0.00000000000000000 0.00000000000000000 1.00000000000000000 0.00000000000000000 1.00000000000000000 0.00000000000000000 0.00000000000000000 0.00000000000000000 0.00000000000000000 -1.00000000000000000 
1 0.00000000000000050 0.00000000000000000 0.00000000000000000 0.00000000000000000 0.00000000000000000 1.00000000000000000 1.00000000000000000 0.00000000000000000 0.00000000000000000 0.00000000000000000 1.00000000000000000 0.00000000000000000 
2 4.00000000000000000 1.27000000000000024 0.00000000000000000 0.00000000000000000 0.00000000000000000 1.00000000000000000 1.00000000000000000 0.00000000000000000 0.00000000000000000 0.00000000000000000 -1.00000000000000000 0.00000000000000000 0.29999999999999999
2 4.00000000000000000 -1.27000000000000002 0.00000000000000000 0.00000000000000000 0.00000000000000000 1.00000000000000000 1.00000000000000000 0.00000000000000000 0.00000000000000000 0.00000000000000000 -1.00000000000000000 0.00000000000000000 0.29999999999999999
2 -4.00000000000000000 -1.27000000000000002 0.00000000000000000 0.00000000000000000 0.00000000000000000 1.00000000000000000 1.00000000000000000 0.00000000000000000 0.00000000000000000 0.00000000000000000 -1.00000000000000000 0.00000000000000000 0.29999999999999999
2 -4.00000000000000000 1.27000000000000024 0.00000000000000000 0.00000000000000000 0.00000000000000000 1.00000000000000000 1.00000000000000000 0.00000000000000000 0.00000000000000000 0.00000000000000000 -1.00000000000000000 0.00000000000000000 0.29999999999999999
2 9.50000000000000178 0.00000000000000000 0.00000000000000000 -0.00000000000000000 -0.00000000000000000 -1.00000000000000000 1.00000000000000000 0.00000000000000000 0.00000000000000000 0.00000000000000000 1.00000000000000000 0.00000000000000000 1.80000000000000004
1 -5.90000000000000036 3.10000000000000009 3.00000000000000000 0.00000000000000000 1.00000000000000000 0.00000000000000000 1.00000000000000000 0.00000000000000000 0.00000000000000000 0.00000000000000000 0.00000000000000000 -1.00000000000000000 
1 0.00000000000000050 0.00000000000000000 0.00000000000000000 0.00000000000000000 0.00000000000000000 1.00000000000000000 1.00000000000000000 0.00000000000000000 0.00000000000000000 0.00000000000000000 1.00000000000000000 0.00000000000000000 
1 1.55000000000000004 -3.09999999999999787 11.00000000000000000 -1.00000000000000000 0.00000000000000000 0.00000000000000000 0.00000000000000000 -0.00000000000000022 -1.00000000000000000 0.00000000000000000 -1.00000000000000000 0.00000000000000022 
2 1.55000000000000826 0.00000000000000958 11.00000000000000000 0.00000000000000000 0.00000000000000000 1.00000000000000000 1.00000000000000000 0.00000000000000000 0.00000000000000000 0.00000000000000000 1.00000000000000000 0.00000000000000000 0.30000000000000004
2 1.55000000000000826 0.00000000000000958 11.00000000000000000 0.00000000000000000 0.00000000000000000 1.00000000000000000 1.00000000000000000 0.00000000000000000 0.00000000000000000 0.00000000000000000 1.00000000000000000 0.00000000000000000 0.30000000000000004
1 5.90000000000000036 3.10000000000000009 3.00000000000000000 1.00000000000000000 0.00000000000000000 0.00000000000000000 0.00000000000000000 -1.00000000000000000 0.00000000000000000 0.00000000000000000 0.00000000000000000 -1.00000000000000000 
1 0.00000000000000020 0.00000000000000000 3.00000000000000000 -0.00000000000000000 -0.00000000000000000 -1.00000000000000000 -1.00000000000000000 0.00000000000000000 0.00000000000000000 0.00000000000000000 1.00000000000000000 0.00000000000000000 
1 5.90000000000000036 -3.10000000000000009 3.00000000000000000 0.00000000000000000 -1.00000000000000000 0.00000000000000000 -1.00000000000000000 0.00000000000000000 0.00000000000000000 -0.00000000000000000 -0.00000000000000000 -1.00000000000000000 
1 1.55000000000000826 0.00000000000000963 11.00000000000000178 0.00000000000000000 -0.00000000000000000 1.00000000000000000 0.00000000000000000 1.00000000000000000 0.00000000000000000 -1.00000000000000000 -0.00000000000000000 0.00000000000000000 
1 3.99999999999999956 1.27000000000000002 0.00000000000000000 -0.00000000000000000 -0.00000000000000000 -1.00000000000000000 -1.00000000000000000 0.00000000000000000 0.00000000000000000 0.00000000000000000 1.00000000000000000 0.00000000000000000 
1 3.99999999999999956 -1.26999999999999980 0.00000000000000000 -0.00000000000000000 -0.00000000000000000 -1.00000000000000000 -1.00000000000000000 0.00000000000000000 0.00000000000000000 0.00000000000000000 1.00000000000000000 0.00000000000000000 
1 -4.00000000000000089 -1.26999999999999980 0.00000000000000000 -0.00000000000000000 -0.00000000000000000 -1.00000000000000000 -1.00000000000000000 0.00000000000000000 0.00000000000000000 0.00000000000000000 1.00000000000000000 0.00000000000000000 
1 -4.00000000000000000 1.27000000000000002 0.00000000000000000 -0.00000000000000000 -0.00000000000000000 -1.00000000000000000 -1.00000000000000000 0.00000000000000000 0.00000000000000000 0.00000000000000000 1.00000000000000000 0.00000000000000000 
Triangulations 0

TShapes 202
Ve
0.000100000000000
-4.900000000000000 3.100000000000000 11.000000000000000
0 0

0101101
*
Ve
0.000000150000000
-1.550000000000000 3.100000000000000 11.000000000000000
0 0

0101101
*
Ed
 0.000000100000001 1 1 0
1  1 0 1.000000000000000 4.350000000000001
0

0101000
+202 17 -201 17 *
Ve
0.000100000000000
-5.900000000000000 3.100000000000000 10.000000000000000
0 0

0101101
*
Ed
 0.000000100000000 1 1 0
1  2 0 2.121320343559642 3.535533905932737
0

0101000
+199 18 -202 18 *
Ve
0.000000150000000
-1.550000000000000 3.100000000000000 2.999999999999999
0 0

0101101
*
Ed
 0.000000150000000 1 1 0
1  3 0 -8.000000000000000 0.000000000000001
0

0101000
+201 19 -197 19 *
Ve
0.000000212133034
-5.900000000000000 3.100000000000000 3.000000000000000
0 0

0101101
*
Ed
 0.000000100000000 1 1 0
1  4 0 0.000000000000000 7.000000000000000
0

0101000
-199 21 +195 21 *
Ed
 0.000000100000001 1 1 0
1  5 0 0.000000000000000 4.350000000000001
0

0101000
+195 23 -197 23 *
Wi

0101100
+200 15 +198 0 +196 2 +194 20 -193 22 *
Fa
0  0.000000100000000 1 10

0101000
+192 11 *
Ve
0.000100000000000
-4.900000000000000 -3.100000000000000 11.000000000000000
0 0

0101101
*
Ve
0.000000212133034
-1.550000000000000 -3.099999999999998 11.000000000000000
0 0

0101101
*
Ed
 0.000000100000001 1 1 0
1  6 0 7.450000000000000 10.800000000000001
0

0101000
-190 17 +189 17 *
Ve
0.000000100000002
-1.549999999999998 -0.300000000000000 11.000000000000000
0 0

0101101
*
Ed
 0.000000100000002 1 1 0
1  7 0 0.000000000000000 2.799999999999998
0

0101000
+189 19 -187 19 *
Ve
0.000000100000002
-1.549999999999998 0.300000000000000 11.000000000000000
0 0

0101101
*
Ed
 0.000000100000000 1 1 0
1  8 0 1.570796326794890 4.712388980384697
2  1 3 30 1.570796326794890 4.712388980384697
0

0101000
+185 31 -187 31 *
Ed
 0.000000100000002 1 1 0
1  9 0 3.399999999999998 6.199999999999998
0

0101000
+185 19 -201 19 *
Ed
 0.000000100000000 1 1 0
1  10 0 0.000000000000000 6.200000000000000
0

0101000
+190 18 -202 18 *
Wi

0101100
+188 26 -186 27 +184 29 -183 27 +200 26 +182 32 *
Fa
0  0.000000100000000 2 25

0101000
+181 0 *
Ve
0.000100000000000
-5.900000000000000 -3.100000000000000 10.000000000000000
0 0

0101101
*
Ed
 0.000000100000000 1 1 0
1  11 0 -2.050609665440988 -0.636396103067893
0

0101000
+179 18 -190 18 *
Ed
 0.000000100000000 1 1 0
1  12 0 0.000000000000000 6.200000000000000
0

0101000
+179 18 -199 18 *
Wi

0101100
-178 0 +177 0 -182 0 +198 0 *
Fa
0  0.000000100000000 4 0

0101000
+176 0 *
Ve
0.000000212133034
-1.550000000000000 -3.100000000000000 3.000000000000000
0 0

0101101
*
Ed
 0.000000100000002 1 1 0
1  13 0 0.000000000000000 8.000000000000000
0

0101000
+174 36 -189 36 *
Ve
0.000000150000000
-1.550000000000000 -0.300000000000000 6.000000000000000
0 0

0101101
*
Ed
 0.000000100000000 1 1 0
1  14 0 -5.000000000000000 0.000000000000000
2  2 3 0 -5.000000000000000 0.000000000000000
0

0101000
+172 37 -187 37 *
Ve
0.000000150000000
-1.550000000000000 0.300000000000000 6.000000000000000
0 0

0101101
*
Ed
 0.000000150000000 1 1 0
1  15 0 -1.850000000000000 -1.250000000000000
0

0101000
+170 37 -172 37 *
Ed
 0.000000100000000 1 1 0
1  16 0 -5.000000000000000 0.000000000000000
2  3 3 0 -5.000000000000000 0.000000000000000
0

0101000
+170 37 -185 37 *
Ed
 0.000000100000000 1 1 0
1  17 0 0.000000000000000 6.199999999999999
0

0101000
+174 19 -197 19 *
Wi

0101100
-173 35 -186 27 +171 0 +169 0 -168 0 -183 27 -196 27 +167 27 *
Fa
0  0.000000100000000 5 27

0101000
+166 0 *
Ve
0.000000212133034
-5.900000000000000 -3.100000000000000 3.000000000000000
0 0

0101101
*
Ed
 0.000000100000000 1 1 0
1  18 0 0.000000000000000 7.000000000000000
0

0101000
-179 21 +164 21 *
Ed
 0.000000100000000 1 1 0
1  19 0 0.000000000000000 6.200000000000000
0

0101000
+164 23 -195 23 *
Wi

0101100
+163 20 +177 0 -162 22 -194 20 *
Fa
0  0.000000100000000 6 0

0101000
+161 39 *
Ve
0.000000100000000
-9.500000000000000 3.100000000000000 0.000000000000000
0 0

0101101
*
Ve
0.000000100000000
-9.500000000000000 3.100000000000000 3.000000000000000
0 0

0101101
*
Ed
 0.000000100000000 1 1 0
1  20 0 0.000000000000000 3.000000000000000
2  4 8 0 0.000000000000000 3.000000000000000
4 G1 7 0 8 0
0

0101000
+159 42 -158 42 *
Ve
0.000000100000002
9.500000000000002 3.100000000000000 0.000000000000000
0 0

0101101
*
Ve
0.000000100000002
9.500000000000002 3.100000000000000 3.000000000000000
0 0

0101101
*
Ed
 0.000000100000002 1 1 0
1  21 0 0.000000000000000 3.000000000000000
2  5 9 0 0.000000000000000 3.000000000000000
4 G1 7 0 9 0
0

0101000
+156 42 -155 42 *
Ed
 0.000000100000000 1 1 0
1  22 0 0.000000000000000 19.000000000000000
0

0101000
+159 46 -156 46 *
Ed
 0.000000100000000 1 1 0
1  23 0 0.000000000000000 3.600000000000000
0

0101000
+158 49 -195 49 *
Ve
0.000000150000000
1.550000000000000 3.100000000000000 2.999999999999999
0 0

0101101
*
Ed
 0.000000100000001 1 1 0
1  24 0 4.350000000000001 7.450000000000000
0

0101000
+197 23 -151 23 *
Ve
0.000000212133034
5.900000000000000 3.100000000000000 3.000000000000000
0 0

0101101
*
Ed
 0.000000100000001 1 1 0
1  25 0 7.450000000000000 11.800000000000001
0

0101000
+151 23 -149 23 *
Ed
 0.000000100000000 1 1 0
1  26 0 15.400000000000000 19.000000000000000
0

0101000
+149 49 -155 49 *
Wi

0101100
+157 41 -154 41 -153 45 +152 48 +193 50 +150 50 +148 50 +147 48 *
Fa
0  0.000000100000000 7 41

0101000
+146 0 *
Ed
 0.000000100000001 1 1 0
1  27 0 7.450000000000000 11.800000000000001
0

0101000
+174 23 -164 23 *
Wi

0101100
-163 20 -178 0 -144 22 +188 15 +173 51 *
Fa
0  0.000000100000000 10 10

0101000
+143 11 *
Ed
 0.000000100000000 1 1 0
1  28 0 1.570796326794897 4.712388980384690
2  6 3 54 1.570796326794897 4.712388980384690
0

0101000
+170 55 -172 55 *
Wi

0101100
-184 29 +171 0 +141 53 -168 0 *
Fa
0  0.000000100000000 3 0

0101000
+140 0 *
Wi

0101100
-169 0 +141 53 *
Fa
0  0.000000100000000 11 56

0101000
+138 0 *
Ve
0.000000212133034
1.550000000000000 -3.100000000000000 3.000000000000000
0 0

0101101
*
Ed
 0.000000100000002 1 1 0
1  29 0 0.000000000000000 3.100000000000000
0

0101000
+136 36 -174 36 *
Ed
 0.000000100000000 1 1 0
1  30 0 0.000000000000000 6.199999999999999
0

0101000
+136 19 -151 19 *
Wi

0101100
-135 57 -167 0 -150 50 +134 0 *
Fa
0  0.000000100000000 12 0

0101000
+133 0 *
Ve
0.000000100000000
-9.500000000000000 -3.100000000000000 3.000000000000000
0 0

0101101
*
Ed
 0.000000100000000 1 1 0
1  31 0 0.000000000000000 3.600000000000000
0

0101000
+131 49 -164 49 *
Ed
 0.000000100000000 1 1 0
1  32 0 1.570796326794897 4.712388980384690
2  7 8 61 1.570796326794897 4.712388980384690
0

0101000
+158 49 -131 49 *
Wi

0101100
-152 59 +162 60 +130 59 +129 59 *
Ve
0.000000100000000
-7.700000000000000 0.000000000000000 3.000000000000000
0 0

0101101
*
Ed
 0.000000100000000 1 1 0
1  33 0 0.000000000000000 6.283185307179586
2  8 14 61 0.000000000000000 6.283185307179586
0

0101000
+127 49 -127 49 *
Wi

0101100
-126 59 *
Fa
0  0.000000100000000 13 58

0101000
+128 0 +125 0 *
Ve
0.000000100000000
-9.500000000000000 -3.100000000000000 0.000000000000000
0 0

0101101
*
Ed
 0.000000100000000 1 1 0
1  34 0 0.000000000000000 3.000000000000000
2  9 8 0 0.000000000000000 3.000000000000000
4 G1 8 0 15 0
0

0101000
+123 42 -131 42 *
Ed
 0.000000100000000 1 1 0
1  35 0 1.570796326794897 4.712388980384690
2  10 8 64 1.570796326794897 4.712388980384690
0

0101000
+159 46 -123 46 *
Wi

0101100
+157 0 -122 0 -121 63 +129 65 *
Fa
0  0.000000100000000 8 0

0101000
+120 0 *
Ve
0.000000100000001
9.500000000000000 -3.100000000000000 0.000000000000000
0 0

0101101
*
Ve
0.000000100000001
9.500000000000000 -3.100000000000000 3.000000000000000
0 0

0101101
*
Ed
 0.000000100000001 1 1 0
1  36 0 0.000000000000000 3.000000000000000
2  11 9 0 0.000000000000000 3.000000000000000
4 G1 9 0 15 0
0

0101000
+118 42 -117 42 *
Ed
 0.000000100000000 1 1 0
1  37 0 4.712388980384690 7.853981633974483
2  12 9 64 4.712388980384690 7.853981633974483
0

0101000
+118 46 -156 46 *
Ed
 0.000000100000000 1 1 0
1  38 0 4.712388980384690 7.853981633974483
2  13 9 61 4.712388980384690 7.853981633974483
0

0101000
+117 49 -155 49 *
Wi

0101100
+116 0 -154 0 -115 63 +114 65 *
Fa
0  0.000000100000000 9 0

0101000
+113 0 *
Ed
 0.000000100000000 1 1 0
1  39 0 0.000000000000000 19.000000000000000
0

0101000
+123 46 -118 46 *
Wi

0101100
+121 67 -153 67 +111 67 +115 67 *
Ve
0.000000150001000
4.300000000000000 1.270000000000000 0.000000000000000
0 0

0101101
*
Ed
 0.000000100000000 1 1 0
1  40 0 0.000000000000000 6.283185307179586
2  14 17 70 0.000000000000000 6.283185307179586
0

0101000
+109 71 -109 71 *
Wi

0101100
+108 69 *
Ve
0.000000150001000
4.300000000000000 -1.270000000000000 0.000000000000000
0 0

0101101
*
Ed
 0.000000100000000 1 1 0
1  41 0 0.000000000000000 6.283185307179586
2  15 18 70 0.000000000000000 6.283185307179586
0

0101000
+106 71 -106 71 *
Wi

0101100
+105 69 *
Ve
0.000000150001000
-3.700000000000000 -1.270000000000000 0.000000000000000
0 0

0101101
*
Ed
 0.000000100000000 1 1 0
1  42 0 0.000000000000000 6.283185307179586
2  16 19 70 0.000000000000000 6.283185307179586
0

0101000
+103 71 -103 71 *
Wi

0101100
+102 69 *
Ve
0.000000150001000
-3.700000000000000 1.270000000000000 0.000000000000000
0 0

0101101
*
Ed
 0.000000100000000 1 1 0
1  43 0 0.000000000000000 6.283185307179586
2  17 20 70 0.000000000000000 6.283185307179586
0

0101000
+100 71 -100 71 *
Wi

0101100
+99 69 *
Ve
0.000000100000000
11.300000000000002 0.000000000000000 0.000000000000000
0 0

0101101
*
Ed
 0.000000100000000 1 1 0
1  44 0 0.000000000000000 6.283185307179586
2  18 21 64 0.000000000000000 6.283185307179586
0

0101000
+97 46 -97 46 *
Wi

0101100
-96 67 *
Ve
0.000000100000000
-7.700000000000000 0.000000000000000 0.000000000000000
0 0

0101101
*
Ed
 0.000000100000000 1 1 0
1  45 0 0.000000000000000 6.283185307179586
2  19 14 64 0.000000000000000 6.283185307179586
0

0101000
+94 46 -94 46 *
Wi

0101100
-93 67 *
Fa
0  0.000000100000000 16 66

0101000
+110 0 +107 0 +104 0 +101 0 +98 0 +95 0 +92 0 *
Ve
0.000000212133034
5.900000000000000 3.100000000000000 11.000000000000000
0 0

0101101
*
Ed
 0.000000100000000 1 1 0
1  46 0 0.000000000000000 8.000000000000000
0

0101000
+149 21 -90 21 *
Ve
0.000000150000000
1.550000000000000 3.100000000000000 11.000000000000000
0 0

0101101
*
Ed
 0.000000100000001 1 1 0
1  47 0 7.450000000000000 11.800000000000001
0

0101000
+88 17 -90 17 *
Ed
 0.000000150000000 1 1 0
1  48 0 -4.000000000000001 4.000000000000000
0

0101000
+151 19 -88 19 *
Wi

0101100
-148 50 -89 10 +87 72 +86 0 *
Fa
0  0.000000100000000 22 10

0101000
+85 0 *
Ve
0.000000212133034
5.900000000000000 -3.100000000000000 3.000000000000000
0 0

0101101
*
Ed
 0.000000100000000 1 1 0
1  49 0 15.400000000000000 19.000000000000000
0

0101000
+83 49 -117 49 *
Ed
 0.000000100000000 1 1 0
1  50 0 0.000000000000000 6.200000000000000
0

0101000
+149 23 -83 23 *
Wi

0101100
-147 59 +114 59 +82 59 +81 60 *
Ve
0.000000100000000
11.300000000000002 0.000000000000000 3.000000000000000
0 0

0101101
*
Ed
 0.000000100000000 1 1 0
1  51 0 0.000000000000000 6.283185307179586
2  20 21 61 0.000000000000000 6.283185307179586
0

0101000
+79 49 -79 49 *
Wi

0101100
-78 59 *
Fa
0  0.000000100000000 23 58

0101000
+80 0 +77 0 *
Ed
 0.000000100000001 1 1 0
1  52 0 0.000000000000000 4.350000000000001
0

0101000
+83 23 -136 23 *
Wi

0101100
+122 41 -116 41 -111 45 +130 48 -75 50 -135 57 -144 50 +82 48 *
Fa
0  0.000000100000000 15 41

0101000
+74 0 *
Ve
0.000000212133034
1.550000000000000 -3.099999999999998 11.000000000000000
0 0

0101101
*
Ed
 0.000000100000002 1 1 0
1  53 0 0.000000000000000 8.000000000000000
0

0101000
+72 36 -136 36 *
Ve
0.000000100000002
1.550000000000002 0.300000000000010 11.000000000000000
0 0

0101101
*
Ed
 0.000000100000002 1 1 0
1  54 0 3.400000000000007 6.199999999999998
0

0101000
+70 19 -88 19 *
Ve
0.000000150000002
1.550000000000000 0.300000000000010 6.000000000000000
0 0

0101101
*
Ed
 0.000000100000000 1 1 0
1  55 0 -5.000000000000000 0.000000000000000
2  21 25 0 -5.000000000000000 0.000000000000000
0

0101000
+68 37 -70 37 *
Ve
0.000000150000002
1.550000000000000 -0.299999999999990 6.000000000000000
0 0

0101101
*
Ed
 0.000000150000000 1 1 0
1  56 0 1.250000000000004 1.850000000000004
0

0101000
+66 37 -68 37 *
Ve
0.000000100000002
1.550000000000002 -0.299999999999990 11.000000000000000
0 0

0101101
*
Ed
 0.000000100000000 1 1 0
1  57 0 -5.000000000000000 0.000000000000000
2  22 26 0 -5.000000000000000 0.000000000000000
0

0101000
+66 37 -64 37 *
Ed
 0.000000100000002 1 1 0
1  58 0 0.000000000000000 2.800000000000007
0

0101000
+72 19 -64 19 *
Wi

0101100
-71 35 -134 27 -86 27 +69 27 +67 0 +65 0 -63 0 +62 27 *
Fa
0  0.000000100000000 24 27

0101000
+61 0 *
Ed
 0.000000100000000 1 1 0
1  59 0 0.000000000000000 3.000000000000000
3  23 24CN 14 0 0.000000000000000 3.000000000000000
0

0101000
+94 42 -127 42 *
Wi

0101100
+59 0 -59 0 -93 63 +126 65 *
Fa
0  0.000000100000000 14 0

0101000
+58 0 *
Ve
0.000000150001000
4.300000000000000 1.270000000000000 -7.000000000000000
0 0

0101101
*
Ed
 0.000000100000000 1 1 0
1  60 0 0.000000000000000 7.000000000000000
3  25 26CN 17 0 0.000000000000000 7.000000000000000
0

0101000
+109 73 -56 73 *
Ed
 0.000000100000000 1 1 0
1  61 0 0.000000000000000 6.283185307179586
2  27 17 76 0.000000000000000 6.283185307179586
0

0101000
+56 77 -56 77 *
Wi

0101100
+55 0 -55 0 -108 69 +54 75 *
Fa
0  0.000000100000000 17 0

0101000
+53 0 *
Ve
0.000000150001000
4.300000000000000 -1.270000000000000 -7.000000000000000
0 0

0101101
*
Ed
 0.000000100000000 1 1 0
1  62 0 0.000000000000000 7.000000000000000
3  28 29CN 18 0 0.000000000000000 7.000000000000000
0

0101000
+106 73 -51 73 *
Ed
 0.000000100000000 1 1 0
1  63 0 0.000000000000000 6.283185307179586
2  30 18 76 0.000000000000000 6.283185307179586
0

0101000
+51 77 -51 77 *
Wi

0101100
+50 0 -50 0 -105 69 +49 75 *
Fa
0  0.000000100000000 18 0

0101000
+48 0 *
Ve
0.000000150001000
-3.700000000000000 -1.270000000000000 -7.000000000000000
0 0

0101101
*
Ed
 0.000000100000000 1 1 0
1  64 0 0.000000000000000 7.000000000000000
3  31 32CN 19 0 0.000000000000000 7.000000000000000
0

0101000
+103 73 -46 73 *
Ed
 0.000000100000000 1 1 0
1  65 0 0.000000000000000 6.283185307179586
2  33 19 76 0.000000000000000 6.283185307179586
0

0101000
+46 77 -46 77 *
Wi

0101100
+45 0 -45 0 -102 69 +44 75 *
Fa
0  0.000000100000000 19 0

0101000
+43 0 *
Ve
0.000000150001000
-3.700000000000000 1.270000000000000 -7.000000000000000
0 0

0101101
*
Ed
 0.000000100000000 1 1 0
1  66 0 0.000000000000000 7.000000000000000
3  34 35CN 20 0 0.000000000000000 7.000000000000000
0

0101000
+100 73 -41 73 *
Ed
 0.000000100000000 1 1 0
1  67 0 0.000000000000000 6.283185307179586
2  36 20 76 0.000000000000000 6.283185307179586
0

0101000
+41 77 -41 77 *
Wi

0101100
+40 0 -40 0 -99 69 +39 75 *
Fa
0  0.000000100000000 20 0

0101000
+38 0 *
Ed
 0.000000100000000 1 1 0
1  68 0 0.000000000000000 3.000000000000000
3  37 38CN 21 0 0.000000000000000 3.000000000000000
0

0101000
+97 42 -79 42 *
Wi

0101100
+36 0 -36 0 -96 63 +78 65 *
Fa
0  0.000000100000000 21 0

0101000
+35 0 *
Ve
0.000000212133034
5.900000000000000 -3.100000000000000 11.000000000000000
0 0

0101101
*
Ed
 0.000000100000000 1 1 0
1  69 0 0.000000000000000 8.000000000000000
0

0101000
+83 21 -33 21 *
Ed
 0.000000100000000 1 1 0
1  70 0 0.000000000000000 6.200000000000000
0

0101000
+90 17 -33 17 *
Wi

0101100
+89 0 -32 0 -81 60 +31 78 *
Fa
0  0.000000100000000 27 0

0101000
+30 0 *
Ed
 0.000000100000001 1 1 0
1  71 0 0.000000000000000 4.350000000000001
0

0101000
+33 17 -72 17 *
Ve
0.000000150001000
1.850000000000008 0.000000000000010 11.000000000000000
0 0

0101101
*
Ed
 0.000000100000000 1 1 0
1  72 0 0.000000000000000 1.570796326794917
2  39 25 30 0.000000000000000 1.570796326794917
0

0101000
+27 31 -70 31 *
Ed
 0.000000100000000 1 1 0
1  73 0 4.712388980384669 6.283185307179586
2  39 26 30 4.712388980384669 6.283185307179586
0

0101000
+64 31 -27 31 *
Wi

0101100
+28 26 +31 26 +87 26 +69 27 +26 29 +25 29 +62 27 *
Fa
0  0.000000100000000 28 25

0101000
+24 0 *
Wi

0101100
-75 50 +71 57 +28 72 +32 10 *
Fa
0  0.000000100000000 29 10

0101000
+22 0 *
Ve
0.000000150001000
1.850000000000008 0.000000000000010 6.000000000000000
0 0

0101101
*
Ed
 0.000000100000000 1 1 0
1  74 0 0.000000000000000 1.570796326794924
2  40 25 54 0.000000000000000 1.570796326794924
0

0101000
+20 55 -68 55 *
Ed
 0.000000100000000 1 1 0
1  75 0 0.000000000000000 5.000000000000000
2  41 25 0 0.000000000000000 5.000000000000000
2  42 26 0 0.000000000000000 5.000000000000000
4 CN 25 0 26 0
0

0101000
+27 37 -20 37 *
Wi

0101100
-26 29 +67 0 +19 53 +18 0 *
Fa
0  0.000000100000000 25 0

0101000
+17 0 *
Ed
 0.000000100000000 1 1 0
1  76 0 4.712388980384663 6.283185307179586
2  40 26 54 4.712388980384663 6.283185307179586
0

0101000
+66 55 -20 55 *
Wi

0101100
+15 53 -65 0 +19 53 *
Fa
0  0.000000100000000 30 56

0101000
+14 0 *
Wi

0101100
-18 0 +15 53 -63 0 -25 29 *
Fa
0  0.000000100000000 26 0

0101000
+12 0 *
Wi

0101100
+54 0 *
Fa
0  0.000000100000000 31 0

0101000
+10 68 *
Wi

0101100
+49 0 *
Fa
0  0.000000100000000 32 0

0101000
+8 68 *
Wi

0101100
+44 0 *
Fa
0  0.000000100000000 33 0

0101000
+6 68 *
Wi

0101100
+39 0 *
Fa
0  0.000000100000000 34 0

0101000
+4 68 *
Sh

0101100
+191 7 -180 24 -175 33 +165 24 +160 38 +145 7 +142 7 -139 24 +137 24 +132 7 
+124 38 -119 62 -112 62 -91 0 +84 7 +76 38 -73 7 +60 24 +57 62 -52 0 
-47 0 -42 0 -37 0 +34 62 +29 38 -23 24 +21 7 -16 24 +13 24 -11 24 
+9 79 +7 79 +5 79 +3 79 *
So

1100000
+2 0 *

+1 1 