DBRep_DrawableShape

CASCADE Topology V1, (c) Matra-Datavision
Locations 3
1
              1               0               0               0 
              0               1               0               0 
              0               0               1               0 
1
              1               0               0               0 
              0               1               0               0 
              0               0               1             500 
2  2 -1 0
Curve2ds 24
1 0 0 0 -1 
1 1.5707963267948966 0 0 -1 
1 0 0 1 0 
1 0 -500 1 0 
1 0 0 1 0 
1 0 -500 1 0 
1 0 0 1 0 
1 0 -500 1 0 
1 0 0 1 0 
1 0 -500 1 0 
1 0 0 1 0 
1 0 -500 1 0 
1 0 0 1 0 
1 0 -500 1 0 
1 0 0 0 -1 
1 1.5707963267949012 0 0 -1 
1 0 0 0 -1 
1 1.5707963267949012 0 0 -1 
1 0 0 0 -1 
1 1.5707963267948966 0 0 -1 
1 0 0 0 -1 
1 6.2831853071795862 0 0 -1 
1 0 0 0 -1 
1 6.2831853071795862 0 0 -1 
Curves 200
1 3.9006601717798208 2.8399999999999999 0 0 0 1 
1 6.5599999999999996 5.4993398282201786 0 0 0 1 
1 3.9006601717798208 2.8399999999999999 0 0.70710678118654757 0.70710678118654757 0 
1 8.1999999999999993 5.4993398282201786 0 0 0 1 
1 6.5599999999999996 5.4993398282201786 0 1 0 0 
1 8.1999999999999993 2.8399999999999999 0 0 0 1 
1 8.1999999999999993 5.4993398282201786 0 0 -1 0 
1 10 4.6399999999999997 0 0 0 1 
1 8.1999999999999993 2.8399999999999999 0 0.70710678118654768 0.70710678118654735 0 
1 10 8.5 0 0 0 1 
1 10 4.6399999999999997 0 0 1 0 
1 8.5 10 0 0 0 1 
2 8.5 8.5 0 0 0 1 1 0 -0 -0 1 0 1.5
1 4.6399999999999997 10 0 0 0 1 
1 8.5 10 0 -1 0 0 
1 2.8399999999999999 8.1999999999999993 0 0 0 1 
1 4.6399999999999997 10 0 -0.70710678118654735 -0.70710678118654768 0 
1 5.4993398282201786 8.1999999999999993 0 0 0 1 
1 2.8399999999999999 8.1999999999999993 0 1 0 0 
1 5.4993398282201786 6.5599999999999996 0 0 0 1 
1 5.4993398282201786 8.1999999999999993 0 0 -1 0 
1 2.8399999999999999 3.9006601717798208 0 0 0 1 
1 5.4993398282201786 6.5599999999999996 0 -0.70710678118654757 -0.70710678118654757 0 
1 3.9006601717798208 0 0 0 1 0 
1 0 3.9006601717798208 0 -1 0 0 
1 -2.8399999999999999 3.9006601717798208 0 -0.70710678118654757 0.70710678118654757 0 
1 -5.4993398282201786 6.5599999999999996 0 0 1 0 
1 -5.4993398282201786 8.1999999999999993 0 1 0 0 
1 -2.8399999999999999 8.1999999999999993 0 -0.70710678118654735 0.70710678118654768 0 
1 -10 10 0 -1 0 0 
1 -15.359999999999999 10 0 -0.70710678118654757 -0.70710678118654757 0 
1 -17.16 8.1999999999999993 0 1 0 0 
1 -14.50066017177982 8.1999999999999993 0 0 -1 0 
1 -14.50066017177982 6.5599999999999996 0 -0.70710678118654768 -0.70710678118654746 0 
1 -20 3.9006601717798208 0 -1 0 0 
1 -22.84 3.9006601717798208 0 -0.70710678118654768 0.70710678118654746 0 
1 -25.49933982822018 6.5599999999999996 0 0 1 0 
1 -25.49933982822018 8.1999999999999993 0 1 0 0 
1 -22.84 8.1999999999999993 0 -0.70710678118654757 0.70710678118654757 0 
1 -24.640000000000001 10 0 -1 0 0 
2 -28.500000000000004 8.5000000000000036 0 0 0 1 2.3699999999999999e-15 1 -0 -1 2.3699999999999999e-15 0 1.4999999999999962
1 -30 8.5 0 0 -1 0 
1 -30 4.6399999999999997 0 0.70710678118654768 -0.70710678118654735 0 
1 -28.199999999999999 2.8399999999999999 0 0 1 0 
1 -28.199999999999999 5.4993398282201786 0 1 0 0 
1 -26.559999999999999 5.4993398282201786 0 0.70710678118654768 -0.70710678118654746 0 
1 -23.900660171779819 0 0 0 -1 0 
1 -23.900660171779819 -2.8399999999999999 0 -0.70710678118654768 -0.70710678118654746 0 
1 -26.559999999999999 -5.4993398282201786 0 -1 0 0 
1 -28.199999999999999 -5.4993398282201786 0 0 1 0 
1 -28.199999999999999 -2.8399999999999999 0 -0.70710678118654768 -0.70710678118654735 0 
1 -30 -4.6399999999999997 0 0 -1 0 
2 -28.500000000000004 -8.5000000000000036 0 0 0 1 -1 2.3699999999999999e-15 0 -2.3699999999999999e-15 -1 0 1.4999999999999962
1 -28.5 -10 0 1 0 0 
1 -24.640000000000001 -10 0 0.70710678118654757 0.70710678118654757 0 
1 -22.84 -8.1999999999999993 0 -1 0 0 
1 -25.49933982822018 -8.1999999999999993 0 0 1 0 
1 -25.49933982822018 -6.5599999999999996 0 0.70710678118654768 0.70710678118654746 0 
1 -20 -3.9006601717798208 0 1 0 0 
1 -17.16 -3.9006601717798208 0 0.70710678118654768 -0.70710678118654746 0 
1 -14.50066017177982 -6.5599999999999996 0 0 -1 0 
1 -14.50066017177982 -8.1999999999999993 0 -1 0 0 
1 -17.16 -8.1999999999999993 0 0.70710678118654757 -0.70710678118654757 0 
1 -10 -10 0 1 0 0 
1 -4.6399999999999997 -10 0 0.70710678118654735 0.70710678118654768 0 
1 -2.8399999999999999 -8.1999999999999993 0 -1 0 0 
1 -5.4993398282201786 -8.1999999999999993 0 0 1 0 
1 -5.4993398282201786 -6.5599999999999996 0 0.70710678118654757 0.70710678118654757 0 
1 0 -3.9006601717798208 0 1 0 0 
1 2.8399999999999999 -3.9006601717798208 0 0.70710678118654757 -0.70710678118654757 0 
1 5.4993398282201786 -6.5599999999999996 0 0 -1 0 
1 5.4993398282201786 -8.1999999999999993 0 -1 0 0 
1 2.8399999999999999 -8.1999999999999993 0 0.70710678118654735 -0.70710678118654768 0 
1 4.6399999999999997 -10 0 1 0 0 
2 8.5 -8.5 0 0 0 1 0 -1 0 1 0 -0 1.5
1 10 -8.5 0 0 1 0 
1 10 -4.6399999999999997 0 -0.70710678118654768 0.70710678118654735 0 
1 8.1999999999999993 -2.8399999999999999 0 0 -1 0 
1 8.1999999999999993 -5.4993398282201786 0 -1 0 0 
1 6.5599999999999996 -5.4993398282201786 0 -0.70710678118654757 0.70710678118654757 0 
1 8.1999999999999993 6.5693398282201789 0 0 1 0 
1 8.1999999999999993 8.1999999999999993 0 -1 0 0 
1 6.5693398282201789 8.1999999999999993 0 0.70710678118654757 -0.70710678118654757 0 
1 -28.199999999999999 6.5693398282201789 0 0 1 0 
1 -28.199999999999999 8.1999999999999993 0 1 0 0 
1 -26.56933982822018 8.1999999999999993 0 -0.70710678118654735 -0.70710678118654768 0 
1 -28.199999999999999 -6.5693398282201789 0 0 -1 0 
1 -28.199999999999999 -8.1999999999999993 0 1 0 0 
1 -26.56933982822018 -8.1999999999999993 0 -0.70710678118654735 0.70710678118654768 0 
1 8.1999999999999993 -6.5693398282201789 0 0 -1 0 
1 8.1999999999999993 -8.1999999999999993 0 -1 0 0 
1 6.5693398282201789 -8.1999999999999993 0 0.70710678118654757 0.70710678118654757 0 
2 0 0 0 0 0 1 1 0 -0 -0 1 0 2.1000000000000001
2 -20 0 0 0 0 1 1 0 -0 -0 1 0 2.1000000000000001
1 -3.9006601717798208 2.8399999999999999 0 -0.70703812237347774 0.70717543333361566 0 
1 -7.2999999999999998 6.2399999999999993 0 0 1 0 
1 -7.2999999999999998 8.1999999999999993 0 -1 0 0 
1 -12.699999999999999 8.1999999999999993 0 0 -1 0 
1 -12.699999999999999 6.2399999999999993 0 -0.70703812237347807 -0.70717543333361543 0 
1 -16.099339828220181 2.8399999999999999 0 0 -1 0 
1 -16.099339828220181 -2.8399999999999999 0 0.70703812237347807 -0.70717543333361543 0 
1 -12.699999999999999 -6.2399999999999993 0 0 -1 0 
1 -12.699999999999999 -8.1999999999999993 0 1 0 0 
1 -7.2999999999999998 -8.1999999999999993 0 0 1 0 
1 -7.2999999999999998 -6.2399999999999993 0 0.70703812237347774 0.70717543333361566 0 
1 -3.9006601717798208 -2.8399999999999999 0 0 1 0 
1 -2.8399999999999999 3.9006601717798208 0 0 0 1 
1 -5.4993398282201786 6.5599999999999996 0 0 0 1 
1 -5.4993398282201786 8.1999999999999993 0 0 0 1 
1 -2.8399999999999999 8.1999999999999993 0 0 0 1 
1 -4.6399999999999997 10 0 0 0 1 
1 -15.359999999999999 10 0 0 0 1 
1 -17.16 8.1999999999999993 0 0 0 1 
1 -14.50066017177982 8.1999999999999993 0 0 0 1 
1 -14.50066017177982 6.5599999999999996 0 0 0 1 
1 -17.16 3.9006601717798208 0 0 0 1 
1 -22.84 3.9006601717798208 0 0 0 1 
1 -25.49933982822018 6.5599999999999996 0 0 0 1 
1 -25.49933982822018 8.1999999999999993 0 0 0 1 
1 -22.84 8.1999999999999993 0 0 0 1 
1 -24.640000000000001 10 0 0 0 1 
1 -28.5 10 0 0 0 1 
1 -30 8.5 0 0 0 1 
1 -30 4.6399999999999997 0 0 0 1 
1 -28.199999999999999 2.8399999999999999 0 0 0 1 
1 -28.199999999999999 5.4993398282201786 0 0 0 1 
1 -26.559999999999999 5.4993398282201786 0 0 0 1 
1 -23.900660171779819 2.8399999999999999 0 0 0 1 
1 -23.900660171779819 -2.8399999999999999 0 0 0 1 
1 -26.559999999999999 -5.4993398282201786 0 0 0 1 
1 -28.199999999999999 -5.4993398282201786 0 0 0 1 
1 -28.199999999999999 -2.8399999999999999 0 0 0 1 
1 -30 -4.6399999999999997 0 0 0 1 
1 -30 -8.5 0 0 0 1 
1 -28.5 -10 0 0 0 1 
1 -24.640000000000001 -10 0 0 0 1 
1 -22.84 -8.1999999999999993 0 0 0 1 
1 -25.49933982822018 -8.1999999999999993 0 0 0 1 
1 -25.49933982822018 -6.5599999999999996 0 0 0 1 
1 -22.84 -3.9006601717798208 0 0 0 1 
1 -17.16 -3.9006601717798208 0 0 0 1 
1 -14.50066017177982 -6.5599999999999996 0 0 0 1 
1 -14.50066017177982 -8.1999999999999993 0 0 0 1 
1 -17.16 -8.1999999999999993 0 0 0 1 
1 -15.359999999999999 -10 0 0 0 1 
1 -4.6399999999999997 -10 0 0 0 1 
1 -2.8399999999999999 -8.1999999999999993 0 0 0 1 
1 -5.4993398282201786 -8.1999999999999993 0 0 0 1 
1 -5.4993398282201786 -6.5599999999999996 0 0 0 1 
1 -2.8399999999999999 -3.9006601717798208 0 0 0 1 
1 2.8399999999999999 -3.9006601717798208 0 0 0 1 
1 5.4993398282201786 -6.5599999999999996 0 0 0 1 
1 5.4993398282201786 -8.1999999999999993 0 0 0 1 
1 2.8399999999999999 -8.1999999999999993 0 0 0 1 
1 4.6399999999999997 -10 0 0 0 1 
1 8.5 -10 0 0 0 1 
1 10 -8.5 0 0 0 1 
1 10 -4.6399999999999997 0 0 0 1 
1 8.1999999999999993 -2.8399999999999999 0 0 0 1 
1 8.1999999999999993 -5.4993398282201786 0 0 0 1 
1 6.5599999999999996 -5.4993398282201786 0 0 0 1 
1 3.9006601717798208 -2.8399999999999999 0 0 0 1 
1 8.1999999999999993 6.5693398282201789 0 0 0 1 
1 8.1999999999999993 8.1999999999999993 0 0 0 1 
1 6.5693398282201789 8.1999999999999993 0 0 0 1 
1 -28.199999999999999 6.5693398282201789 0 0 0 1 
1 -28.199999999999999 8.1999999999999993 0 0 0 1 
1 -26.56933982822018 8.1999999999999993 0 0 0 1 
1 -28.199999999999999 -6.5693398282201789 0 0 0 1 
1 -28.199999999999999 -8.1999999999999993 0 0 0 1 
1 -26.56933982822018 -8.1999999999999993 0 0 0 1 
1 8.1999999999999993 -6.5693398282201789 0 0 0 1 
1 8.1999999999999993 -8.1999999999999993 0 0 0 1 
1 6.5693398282201789 -8.1999999999999993 0 0 0 1 
1 2.1000000000000001 0 0 0 0 1 
1 -17.899999999999999 0 0 0 0 1 
1 -3.9006601717798208 2.8399999999999999 0 0 0 1 
1 -7.2999999999999998 6.2399999999999993 0 0 0 1 
1 -7.2999999999999998 8.1999999999999993 0 0 0 1 
1 -12.699999999999999 8.1999999999999993 0 0 0 1 
1 -12.699999999999999 6.2399999999999993 0 0 0 1 
1 -16.099339828220181 2.8399999999999999 0 0 0 1 
1 -16.099339828220181 -2.8399999999999999 0 0 0 1 
1 -12.699999999999999 -6.2399999999999993 0 0 0 1 
1 -12.699999999999999 -8.1999999999999993 0 0 0 1 
1 -7.2999999999999998 -8.1999999999999993 0 0 0 1 
1 -7.2999999999999998 -6.2399999999999993 0 0 0 1 
1 -3.9006601717798208 -2.8399999999999999 0 0 0 1 
1 2.8399999999999999 3.9006601717798208 500 -1 0 0 
1 -4.6399999999999997 10 500 -1 0 0 
1 -17.16 3.9006601717798208 500 -1 0 0 
1 -23.900660171779819 2.8399999999999999 500 0 -1 0 
1 -22.84 -3.9006601717798208 500 1 0 0 
1 -15.359999999999999 -10 500 1 0 0 
1 -2.8399999999999999 -3.9006601717798208 500 1 0 0 
1 3.9006601717798208 -2.8399999999999999 500 0 1 0 
1 -3.9006601717798208 0 500 0 1 0 
1 -10 8.1999999999999993 500 -1 0 0 
1 -16.099339828220181 0 500 0 -1 0 
1 -10 -8.1999999999999993 500 1 0 0 
Polygon3D 0
PolygonOnTriangulations 0
Surfaces 95
1 3.9006601717798208 2.8399999999999999 0 -0.70710678118654757 0.70710678118654757 0 0.70710678118654757 0.70710678118654757 0 0 0 -1 
1 6.5599999999999996 5.4993398282201786 0 0 1 0 1 0 0 0 0 -1 
1 8.1999999999999993 5.4993398282201786 0 1 0 -0 0 -1 0 0 -0 -1 
1 8.1999999999999993 2.8399999999999999 0 -0.70710678118654735 0.70710678118654768 0 0.70710678118654768 0.70710678118654735 0 0 0 -1 
1 10 4.6399999999999997 0 -1 0 0 0 1 0 0 0 -1 
2 8.5 8.5 0 -0 -0 -1 1 0 -0 -0 1 -0 1.5
1 8.5 10 0 0 -1 0 -1 0 0 -0 -0 -1 
1 4.6399999999999997 10 0 0.70710678118654768 -0.70710678118654735 0 -0.70710678118654735 -0.70710678118654768 0 0 -0 -1 
1 2.8399999999999999 8.1999999999999993 0 0 1 0 1 0 0 0 0 -1 
1 5.4993398282201786 8.1999999999999993 0 1 0 -0 0 -1 0 0 -0 -1 
1 5.4993398282201786 6.5599999999999996 0 0.70710678118654757 -0.70710678118654757 0 -0.70710678118654757 -0.70710678118654757 0 0 -0 -1 
1 -10 4.1000000000000001e-16 0 0 0 1 1 0 -0 -0 1 0 
2 -28.500000000000004 8.5000000000000036 0 -0 -0 -1 2.3699999999999999e-15 1 -0 -1 2.3699999999999999e-15 -0 1.4999999999999962
2 -28.500000000000004 -8.5000000000000036 0 -0 -0 -1 -1 2.3699999999999999e-15 0 -2.3699999999999999e-15 -1 0 1.4999999999999962
2 8.5 -8.5 0 -0 -0 -1 0 -1 0 1 -0 -0 1.5
2 0 0 0 -0 -0 -1 1 0 -0 -0 1 -0 2.1000000000000001
2 -20 0 0 -0 -0 -1 1 0 -0 -0 1 -0 2.1000000000000001
1 -2.8399999999999999 3.9006601717798208 0 -0.70710678118654757 -0.70710678118654757 0 -0.70710678118654757 0.70710678118654757 0 -0 0 -1 
1 -5.4993398282201786 6.5599999999999996 0 -1 0 0 0 1 0 0 0 -1 
1 -5.4993398282201786 8.1999999999999993 0 0 1 0 1 0 0 0 0 -1 
1 -2.8399999999999999 8.1999999999999993 0 -0.70710678118654768 -0.70710678118654735 0 -0.70710678118654735 0.70710678118654768 0 -0 0 -1 
1 -15.359999999999999 10 0 0.70710678118654757 -0.70710678118654757 0 -0.70710678118654757 -0.70710678118654757 0 0 -0 -1 
1 -17.16 8.1999999999999993 0 0 1 0 1 0 0 0 0 -1 
1 -14.50066017177982 8.1999999999999993 0 1 0 -0 0 -1 0 0 -0 -1 
1 -14.50066017177982 6.5599999999999996 0 0.70710678118654746 -0.70710678118654768 0 -0.70710678118654768 -0.70710678118654746 0 0 -0 -1 
1 -22.84 3.9006601717798208 0 -0.70710678118654746 -0.70710678118654768 0 -0.70710678118654768 0.70710678118654746 0 -0 0 -1 
1 -25.49933982822018 6.5599999999999996 0 -1 0 0 0 1 0 0 0 -1 
1 -25.49933982822018 8.1999999999999993 0 0 1 0 1 0 0 0 0 -1 
1 -22.84 8.1999999999999993 0 -0.70710678118654757 -0.70710678118654757 0 -0.70710678118654757 0.70710678118654757 0 -0 0 -1 
1 -24.640000000000001 10 0 0 -1 0 -1 0 0 -0 -0 -1 
1 -30 8.5 0 1 0 -0 0 -1 0 0 -0 -1 
1 -30 4.6399999999999997 0 0.70710678118654735 0.70710678118654768 -0 0.70710678118654768 -0.70710678118654735 0 0 -0 -1 
1 -28.199999999999999 2.8399999999999999 0 -1 0 0 0 1 0 0 0 -1 
1 -28.199999999999999 5.4993398282201786 0 0 1 0 1 0 0 0 0 -1 
1 -26.559999999999999 5.4993398282201786 0 0.70710678118654746 0.70710678118654768 -0 0.70710678118654768 -0.70710678118654746 0 0 -0 -1 
1 -23.900660171779819 -2.8399999999999999 0 0.70710678118654746 -0.70710678118654768 0 -0.70710678118654768 -0.70710678118654746 0 0 -0 -1 
1 -26.559999999999999 -5.4993398282201786 0 0 -1 0 -1 0 0 -0 -0 -1 
1 -28.199999999999999 -5.4993398282201786 0 -1 0 0 0 1 0 0 0 -1 
1 -28.199999999999999 -2.8399999999999999 0 0.70710678118654735 -0.70710678118654768 0 -0.70710678118654768 -0.70710678118654735 0 0 -0 -1 
1 -30 -4.6399999999999997 0 1 0 -0 0 -1 0 0 -0 -1 
1 -28.5 -10 0 0 1 0 1 0 0 0 0 -1 
1 -24.640000000000001 -10 0 -0.70710678118654757 0.70710678118654757 0 0.70710678118654757 0.70710678118654757 0 0 0 -1 
1 -22.84 -8.1999999999999993 0 0 -1 0 -1 0 0 -0 -0 -1 
1 -25.49933982822018 -8.1999999999999993 0 -1 0 0 0 1 0 0 0 -1 
1 -25.49933982822018 -6.5599999999999996 0 -0.70710678118654746 0.70710678118654768 0 0.70710678118654768 0.70710678118654746 0 0 0 -1 
1 -17.16 -3.9006601717798208 0 0.70710678118654746 0.70710678118654768 -0 0.70710678118654768 -0.70710678118654746 0 0 -0 -1 
1 -14.50066017177982 -6.5599999999999996 0 1 0 -0 0 -1 0 0 -0 -1 
1 -14.50066017177982 -8.1999999999999993 0 0 -1 0 -1 0 0 -0 -0 -1 
1 -17.16 -8.1999999999999993 0 0.70710678118654757 0.70710678118654757 -0 0.70710678118654757 -0.70710678118654757 0 0 -0 -1 
1 -4.6399999999999997 -10 0 -0.70710678118654768 0.70710678118654735 0 0.70710678118654735 0.70710678118654768 0 0 0 -1 
1 -2.8399999999999999 -8.1999999999999993 0 0 -1 0 -1 0 0 -0 -0 -1 
1 -5.4993398282201786 -8.1999999999999993 0 -1 0 0 0 1 0 0 0 -1 
1 -5.4993398282201786 -6.5599999999999996 0 -0.70710678118654757 0.70710678118654757 0 0.70710678118654757 0.70710678118654757 0 0 0 -1 
1 2.8399999999999999 -3.9006601717798208 0 0.70710678118654757 0.70710678118654757 -0 0.70710678118654757 -0.70710678118654757 0 0 -0 -1 
1 5.4993398282201786 -6.5599999999999996 0 1 0 -0 0 -1 0 0 -0 -1 
1 5.4993398282201786 -8.1999999999999993 0 0 -1 0 -1 0 0 -0 -0 -1 
1 2.8399999999999999 -8.1999999999999993 0 0.70710678118654768 0.70710678118654735 -0 0.70710678118654735 -0.70710678118654768 0 0 -0 -1 
1 4.6399999999999997 -10 0 0 1 0 1 0 0 0 0 -1 
1 10 -8.5 0 -1 0 0 0 1 0 0 0 -1 
1 10 -4.6399999999999997 0 -0.70710678118654735 -0.70710678118654768 0 -0.70710678118654768 0.70710678118654735 0 -0 0 -1 
1 8.1999999999999993 -2.8399999999999999 0 1 0 -0 0 -1 0 0 -0 -1 
1 8.1999999999999993 -5.4993398282201786 0 0 -1 0 -1 0 0 -0 -0 -1 
1 6.5599999999999996 -5.4993398282201786 0 -0.70710678118654757 -0.70710678118654757 0 -0.70710678118654757 0.70710678118654757 0 -0 0 -1 
1 8.1999999999999993 6.5693398282201789 0 -1 0 0 0 1 0 0 0 -1 
1 8.1999999999999993 8.1999999999999993 0 0 -1 0 -1 0 0 -0 -0 -1 
1 6.5693398282201789 8.1999999999999993 0 0.70710678118654757 0.70710678118654757 -0 0.70710678118654757 -0.70710678118654757 0 0 -0 -1 
1 -28.199999999999999 6.5693398282201789 0 -1 0 0 0 1 0 0 0 -1 
1 -28.199999999999999 8.1999999999999993 0 0 1 0 1 0 0 0 0 -1 
1 -26.56933982822018 8.1999999999999993 0 0.70710678118654768 -0.70710678118654735 0 -0.70710678118654735 -0.70710678118654768 0 0 -0 -1 
1 -28.199999999999999 -6.5693398282201789 0 1 0 -0 0 -1 0 0 -0 -1 
1 -28.199999999999999 -8.1999999999999993 0 0 1 0 1 0 0 0 0 -1 
1 -26.56933982822018 -8.1999999999999993 0 -0.70710678118654768 -0.70710678118654735 0 -0.70710678118654735 0.70710678118654768 0 -0 0 -1 
1 8.1999999999999993 -6.5693398282201789 0 1 0 -0 0 -1 0 0 -0 -1 
1 8.1999999999999993 -8.1999999999999993 0 0 -1 0 -1 0 0 -0 -0 -1 
1 6.5693398282201789 -8.1999999999999993 0 -0.70710678118654757 0.70710678118654757 0 0.70710678118654757 0.70710678118654757 0 0 0 -1 
1 -3.9006601717798208 2.8399999999999999 0 -0.70717543333361566 -0.70703812237347774 0 -0.70703812237347774 0.70717543333361566 0 -0 0 -1 
1 -7.2999999999999998 6.2399999999999993 0 -1 0 0 0 1 0 0 0 -1 
1 -12.699999999999999 8.1999999999999993 0 1 0 -0 0 -1 0 0 -0 -1 
1 -12.699999999999999 6.2399999999999993 0 0.70717543333361543 -0.70703812237347807 0 -0.70703812237347807 -0.70717543333361543 0 0 -0 -1 
1 -16.099339828220181 -2.8399999999999999 0 0.70717543333361543 0.70703812237347807 -0 0.70703812237347807 -0.70717543333361543 0 0 -0 -1 
1 -12.699999999999999 -6.2399999999999993 0 1 0 -0 0 -1 0 0 -0 -1 
1 -7.2999999999999998 -8.1999999999999993 0 -1 0 0 0 1 0 0 0 -1 
1 -7.2999999999999998 -6.2399999999999993 0 -0.70717543333361566 0.70703812237347774 0 0.70703812237347774 0.70717543333361566 0 0 0 -1 
1 3.9006601717798213 0 250.00000000000003 1 0 -0 0 0 1 0 -1 0 
1 -10.000000000000002 10 250.00000000000003 0 1 0 0 -0 1 1 0 -0 
1 -9.9999999999999982 8.1999999999999957 249.99999999999994 -0 -1 0 -1 0 0 -0 0 -1 
1 0 3.9006601717798213 250.00000000000003 0 1 -0 0 0 1 1 -0 0 
1 -20.000000000000004 3.9006601717798213 250.00000000000003 0 1 -0 1 -0 0 0 -0 -1 
1 -23.900660171779819 0 250.00000000000003 -1 -0 -0 0 0 -1 0 -1 0 
1 -10.000000000000002 -10 250.00000000000003 -0 -1 -0 0 0 -1 1 -0 0 
1 -9.9999999999999982 -8.1999999999999957 249.99999999999994 -0 1 0 1 0 0 0 0 -1 
1 -20.000000000000004 -3.9006601717798213 250.00000000000003 0 -1 -0 -1 -0 0 -0 0 -1 
1 0 -3.9006601717798213 250.00000000000003 -0 -1 -0 0 0 -1 1 -0 0 
1 -3.9006601717798213 0 250.00000000000003 -1 -0 -0 0 0 -1 0 -1 0 
1 -16.099339828220181 0 250.00000000000003 1 0 0 -0 0 1 0 -1 0 
Triangulations 0

TShapes 496
Ve
1e-07
3.90066017177982 2.84 0
0 0

0101101
*
Ed
 1e-07 1 1 0
1  1 0 0 500
0

0101000
+496 0 -496 2 *
Ve
1e-07
6.56 5.49933982822018 0
0 0

0101101
*
Ed
 1e-07 1 1 0
1  2 0 0 500
0

0101000
+494 0 -494 2 *
Ed
 1e-07 1 1 0
1  3 0 0 3.76087445202791
0

0101000
+496 0 -494 0 *
Wi

0101100
+495 0 -493 0 -492 0 +492 2 *
Fa
0  1e-07 1 0

0111000
+491 0 *
Ve
1e-07
8.2 5.49933982822018 0
0 0

0101101
*
Ed
 1e-07 1 1 0
1  4 0 0 500
0

0101000
+489 0 -489 2 *
Ed
 1e-07 1 1 0
1  5 0 0 1.64
0

0101000
+494 0 -489 0 *
Wi

0101100
+493 0 -488 0 -487 0 +487 2 *
Fa
0  1e-07 2 0

0111000
+486 0 *
Ve
1e-07
8.2 2.84 0
0 0

0101101
*
Ed
 1e-07 1 1 0
1  6 0 0 500
0

0101000
+484 0 -484 2 *
Ed
 1e-07 1 1 0
1  7 0 0 2.65933982822018
0

0101000
+489 0 -484 0 *
Wi

0101100
+488 0 -483 0 -482 0 +482 2 *
Fa
0  1e-07 3 0

0111000
+481 0 *
Ve
1e-07
10 4.64 0
0 0

0101101
*
Ed
 1e-07 1 1 0
1  8 0 0 500
0

0101000
+479 0 -479 2 *
Ed
 1e-07 1 1 0
1  9 0 0 2.54558441227157
0

0101000
+484 0 -479 0 *
Wi

0101100
+483 0 -478 0 -477 0 +477 2 *
Fa
0  1e-07 4 0

0111000
+476 0 *
Ve
1e-07
10 8.5 0
0 0

0101101
*
Ed
 1e-07 1 1 0
1  10 0 0 500
2  1 6 0 0 500
4 G1 5 0 6 0
0

0101000
+474 0 -474 2 *
Ed
 1e-07 1 1 0
1  11 0 0 3.86
0

0101000
+479 0 -474 0 *
Wi

0101100
+478 0 -473 0 -472 0 +472 2 *
Fa
0  1e-07 5 0

0111000
+471 0 *
Ve
1e-07
8.5 10 0
0 0

0101101
*
Ed
 1e-07 1 1 0
1  12 0 0 500
2  2 6 0 0 500
4 G1 6 0 7 0
0

0101000
+469 0 -469 2 *
Ed
 1e-07 1 1 0
1  13 0 0 1.5707963267949
2  3 6 0 0 1.5707963267949
2  4 6 3 0 1.5707963267949
0

0101000
+474 0 -469 0 *
Wi

0101100
+473 0 -468 0 -467 0 +467 2 *
Fa
0  1e-07 6 0

0111000
+466 0 *
Ve
1e-07
4.64 10 0
0 0

0101101
*
Ed
 1e-07 1 1 0
1  14 0 0 500
0

0101000
+464 0 -464 2 *
Ed
 1e-07 1 1 0
1  15 0 0 3.86
0

0101000
+469 0 -464 0 *
Wi

0101100
+468 0 -463 0 -462 0 +462 2 *
Fa
0  1e-07 7 0

0111000
+461 0 *
Ve
1e-07
2.84 8.2 0
0 0

0101101
*
Ed
 1e-07 1 1 0
1  16 0 0 500
0

0101000
+459 0 -459 2 *
Ed
 1e-07 1 1 0
1  17 0 0 2.54558441227157
0

0101000
+464 0 -459 0 *
Wi

0101100
+463 0 -458 0 -457 0 +457 2 *
Fa
0  1e-07 8 0

0111000
+456 0 *
Ve
1e-07
5.49933982822018 8.2 0
0 0

0101101
*
Ed
 1e-07 1 1 0
1  18 0 0 500
0

0101000
+454 0 -454 2 *
Ed
 1e-07 1 1 0
1  19 0 0 2.65933982822018
0

0101000
+459 0 -454 0 *
Wi

0101100
+458 0 -453 0 -452 0 +452 2 *
Fa
0  1e-07 9 0

0111000
+451 0 *
Ve
1e-07
5.49933982822018 6.56 0
0 0

0101101
*
Ed
 1e-07 1 1 0
1  20 0 0 500
0

0101000
+449 0 -449 2 *
Ed
 1e-07 1 1 0
1  21 0 0 1.64
0

0101000
+454 0 -449 0 *
Wi

0101100
+453 0 -448 0 -447 0 +447 2 *
Fa
0  1e-07 10 0

0111000
+446 0 *
Ve
1e-07
2.84 3.90066017177982 0
0 0

0101101
*
Ed
 1e-07 1 1 0
1  22 0 0 500
0

0101000
+444 0 -444 2 *
Ed
 1e-07 1 1 0
1  23 0 0 3.76087445202791
0

0101000
+449 0 -444 0 *
Wi

0101100
+448 0 -443 0 -442 0 +442 2 *
Fa
0  1e-07 11 0

0111000
+441 0 *
Ve
1e-07
3.90066017177982 -2.84 0
0 0

0101101
*
Ed
 1e-07 1 1 0
1  24 0 -2.84 2.84
0

0101000
+439 0 -496 0 *
Ve
1e-07
-2.84 3.90066017177982 0
0 0

0101101
*
Ed
 1e-07 1 1 0
1  25 0 -2.84 2.84
0

0101000
+444 0 -437 0 *
Ve
1e-07
-5.49933982822018 6.56 0
0 0

0101101
*
Ed
 1e-07 1 1 0
1  26 0 0 3.76087445202791
0

0101000
+437 0 -435 0 *
Ve
1e-07
-5.49933982822018 8.2 0
0 0

0101101
*
Ed
 1e-07 1 1 0
1  27 0 0 1.64
0

0101000
+435 0 -433 0 *
Ve
1e-07
-2.84 8.2 0
0 0

0101101
*
Ed
 1e-07 1 1 0
1  28 0 0 2.65933982822018
0

0101000
+433 0 -431 0 *
Ve
1e-07
-4.64 10 0
0 0

0101101
*
Ed
 1e-07 1 1 0
1  29 0 0 2.54558441227157
0

0101000
+431 0 -429 0 *
Ve
1e-07
-15.36 10 0
0 0

0101101
*
Ed
 1e-07 1 1 0
1  30 0 -5.36 5.36
0

0101000
+429 0 -427 0 *
Ve
1e-07
-17.16 8.2 0
0 0

0101101
*
Ed
 1e-07 1 1 0
1  31 0 0 2.54558441227157
0

0101000
+427 0 -425 0 *
Ve
1e-07
-14.5006601717798 8.2 0
0 0

0101101
*
Ed
 1e-07 1 1 0
1  32 0 0 2.65933982822018
0

0101000
+425 0 -423 0 *
Ve
1e-07
-14.5006601717798 6.56 0
0 0

0101101
*
Ed
 1e-07 1 1 0
1  33 0 0 1.64
0

0101000
+423 0 -421 0 *
Ve
1e-07
-17.16 3.90066017177982 0
0 0

0101101
*
Ed
 1e-07 1 1 0
1  34 0 0 3.76087445202791
0

0101000
+421 0 -419 0 *
Ve
1e-07
-22.84 3.90066017177982 0
0 0

0101101
*
Ed
 1e-07 1 1 0
1  35 0 -2.84 2.84
0

0101000
+419 0 -417 0 *
Ve
1e-07
-25.4993398282202 6.56 0
0 0

0101101
*
Ed
 1e-07 1 1 0
1  36 0 0 3.76087445202791
0

0101000
+417 0 -415 0 *
Ve
1e-07
-25.4993398282202 8.2 0
0 0

0101101
*
Ed
 1e-07 1 1 0
1  37 0 0 1.64
0

0101000
+415 0 -413 0 *
Ve
1e-07
-22.84 8.2 0
0 0

0101101
*
Ed
 1e-07 1 1 0
1  38 0 0 2.65933982822018
0

0101000
+413 0 -411 0 *
Ve
1e-07
-24.64 10 0
0 0

0101101
*
Ed
 1e-07 1 1 0
1  39 0 0 2.54558441227157
0

0101000
+411 0 -409 0 *
Ve
1e-07
-28.5 10 0
0 0

0101101
*
Ed
 1e-07 1 1 0
1  40 0 0 3.86
0

0101000
+409 0 -407 0 *
Ve
1e-07
-30 8.5 0
0 0

0101101
*
Ed
 1e-07 1 1 0
1  41 0 0 1.5707963267949
2  5 13 0 0 1.5707963267949
2  6 13 3 0 1.5707963267949
0

0101000
+407 0 -405 0 *
Ve
1e-07
-30 4.64 0
0 0

0101101
*
Ed
 1e-07 1 1 0
1  42 0 0 3.86
0

0101000
+405 0 -403 0 *
Ve
1e-07
-28.2 2.84 0
0 0

0101101
*
Ed
 1e-07 1 1 0
1  43 0 0 2.54558441227157
0

0101000
+403 0 -401 0 *
Ve
1e-07
-28.2 5.49933982822018 0
0 0

0101101
*
Ed
 1e-07 1 1 0
1  44 0 0 2.65933982822018
0

0101000
+401 0 -399 0 *
Ve
1e-07
-26.56 5.49933982822018 0
0 0

0101101
*
Ed
 1e-07 1 1 0
1  45 0 0 1.64
0

0101000
+399 0 -397 0 *
Ve
1e-07
-23.9006601717798 2.84 0
0 0

0101101
*
Ed
 1e-07 1 1 0
1  46 0 0 3.76087445202791
0

0101000
+397 0 -395 0 *
Ve
1e-07
-23.9006601717798 -2.84 0
0 0

0101101
*
Ed
 1e-07 1 1 0
1  47 0 -2.84 2.84
0

0101000
+395 0 -393 0 *
Ve
1e-07
-26.56 -5.49933982822018 0
0 0

0101101
*
Ed
 1e-07 1 1 0
1  48 0 0 3.76087445202791
0

0101000
+393 0 -391 0 *
Ve
1e-07
-28.2 -5.49933982822018 0
0 0

0101101
*
Ed
 1e-07 1 1 0
1  49 0 0 1.64
0

0101000
+391 0 -389 0 *
Ve
1e-07
-28.2 -2.84 0
0 0

0101101
*
Ed
 1e-07 1 1 0
1  50 0 0 2.65933982822018
0

0101000
+389 0 -387 0 *
Ve
1e-07
-30 -4.64 0
0 0

0101101
*
Ed
 1e-07 1 1 0
1  51 0 0 2.54558441227157
0

0101000
+387 0 -385 0 *
Ve
1e-07
-30 -8.5 0
0 0

0101101
*
Ed
 1e-07 1 1 0
1  52 0 0 3.86
0

0101000
+385 0 -383 0 *
Ve
1e-07
-28.5 -10 0
0 0

0101101
*
Ed
 1e-07 1 1 0
1  53 0 0 1.5707963267949
2  7 14 0 0 1.5707963267949
2  8 14 3 0 1.5707963267949
0

0101000
+383 0 -381 0 *
Ve
1e-07
-24.64 -10 0
0 0

0101101
*
Ed
 1e-07 1 1 0
1  54 0 0 3.86
0

0101000
+381 0 -379 0 *
Ve
1e-07
-22.84 -8.2 0
0 0

0101101
*
Ed
 1e-07 1 1 0
1  55 0 0 2.54558441227157
0

0101000
+379 0 -377 0 *
Ve
1e-07
-25.4993398282202 -8.2 0
0 0

0101101
*
Ed
 1e-07 1 1 0
1  56 0 0 2.65933982822018
0

0101000
+377 0 -375 0 *
Ve
1e-07
-25.4993398282202 -6.56 0
0 0

0101101
*
Ed
 1e-07 1 1 0
1  57 0 0 1.64
0

0101000
+375 0 -373 0 *
Ve
1e-07
-22.84 -3.90066017177982 0
0 0

0101101
*
Ed
 1e-07 1 1 0
1  58 0 0 3.76087445202791
0

0101000
+373 0 -371 0 *
Ve
1e-07
-17.16 -3.90066017177982 0
0 0

0101101
*
Ed
 1e-07 1 1 0
1  59 0 -2.84 2.84
0

0101000
+371 0 -369 0 *
Ve
1e-07
-14.5006601717798 -6.56 0
0 0

0101101
*
Ed
 1e-07 1 1 0
1  60 0 0 3.76087445202791
0

0101000
+369 0 -367 0 *
Ve
1e-07
-14.5006601717798 -8.2 0
0 0

0101101
*
Ed
 1e-07 1 1 0
1  61 0 0 1.64
0

0101000
+367 0 -365 0 *
Ve
1e-07
-17.16 -8.2 0
0 0

0101101
*
Ed
 1e-07 1 1 0
1  62 0 0 2.65933982822018
0

0101000
+365 0 -363 0 *
Ve
1e-07
-15.36 -10 0
0 0

0101101
*
Ed
 1e-07 1 1 0
1  63 0 0 2.54558441227157
0

0101000
+363 0 -361 0 *
Ve
1e-07
-4.64 -10 0
0 0

0101101
*
Ed
 1e-07 1 1 0
1  64 0 -5.36 5.36
0

0101000
+361 0 -359 0 *
Ve
1e-07
-2.84 -8.2 0
0 0

0101101
*
Ed
 1e-07 1 1 0
1  65 0 0 2.54558441227157
0

0101000
+359 0 -357 0 *
Ve
1e-07
-5.49933982822018 -8.2 0
0 0

0101101
*
Ed
 1e-07 1 1 0
1  66 0 0 2.65933982822018
0

0101000
+357 0 -355 0 *
Ve
1e-07
-5.49933982822018 -6.56 0
0 0

0101101
*
Ed
 1e-07 1 1 0
1  67 0 0 1.64
0

0101000
+355 0 -353 0 *
Ve
1e-07
-2.84 -3.90066017177982 0
0 0

0101101
*
Ed
 1e-07 1 1 0
1  68 0 0 3.76087445202791
0

0101000
+353 0 -351 0 *
Ve
1e-07
2.84 -3.90066017177982 0
0 0

0101101
*
Ed
 1e-07 1 1 0
1  69 0 -2.84 2.84
0

0101000
+351 0 -349 0 *
Ve
1e-07
5.49933982822018 -6.56 0
0 0

0101101
*
Ed
 1e-07 1 1 0
1  70 0 0 3.76087445202791
0

0101000
+349 0 -347 0 *
Ve
1e-07
5.49933982822018 -8.2 0
0 0

0101101
*
Ed
 1e-07 1 1 0
1  71 0 0 1.64
0

0101000
+347 0 -345 0 *
Ve
1e-07
2.84 -8.2 0
0 0

0101101
*
Ed
 1e-07 1 1 0
1  72 0 0 2.65933982822018
0

0101000
+345 0 -343 0 *
Ve
1e-07
4.64 -10 0
0 0

0101101
*
Ed
 1e-07 1 1 0
1  73 0 0 2.54558441227157
0

0101000
+343 0 -341 0 *
Ve
1e-07
8.5 -10 0
0 0

0101101
*
Ed
 1e-07 1 1 0
1  74 0 0 3.86
0

0101000
+341 0 -339 0 *
Ve
1e-07
10 -8.5 0
0 0

0101101
*
Ed
 1e-07 1 1 0
1  75 0 0 1.5707963267949
2  9 15 0 0 1.5707963267949
2  10 15 3 0 1.5707963267949
0

0101000
+339 0 -337 0 *
Ve
1e-07
10 -4.64 0
0 0

0101101
*
Ed
 1e-07 1 1 0
1  76 0 0 3.86
0

0101000
+337 0 -335 0 *
Ve
1e-07
8.2 -2.84 0
0 0

0101101
*
Ed
 1e-07 1 1 0
1  77 0 0 2.54558441227157
0

0101000
+335 0 -333 0 *
Ve
1e-07
8.2 -5.49933982822018 0
0 0

0101101
*
Ed
 1e-07 1 1 0
1  78 0 0 2.65933982822018
0

0101000
+333 0 -331 0 *
Ve
1e-07
6.56 -5.49933982822018 0
0 0

0101101
*
Ed
 1e-07 1 1 0
1  79 0 0 1.64
0

0101000
+331 0 -329 0 *
Ed
 1e-07 1 1 0
1  80 0 0 3.76087445202791
0

0101000
+329 0 -439 0 *
Wi

0101000
+438 0 +492 0 +487 0 +482 0 +477 0 +472 0 +467 0 +462 0 +457 0 +452 0 
+447 0 +442 0 +436 0 +434 0 +432 0 +430 0 +428 0 +426 0 +424 0 +422 0 
+420 0 +418 0 +416 0 +414 0 +412 0 +410 0 +408 0 +406 0 +404 0 +402 0 
+400 0 +398 0 +396 0 +394 0 +392 0 +390 0 +388 0 +386 0 +384 0 +382 0 
+380 0 +378 0 +376 0 +374 0 +372 0 +370 0 +368 0 +366 0 +364 0 +362 0 
+360 0 +358 0 +356 0 +354 0 +352 0 +350 0 +348 0 +346 0 +344 0 +342 0 
+340 0 +338 0 +336 0 +334 0 +332 0 +330 0 +328 0 +327 0 *
Ve
1e-07
8.2 6.56933982822018 0
0 0

0101101
*
Ve
1e-07
8.2 8.2 0
0 0

0101101
*
Ed
 1e-07 1 1 0
1  81 0 0 1.63066017177982
0

0101000
+325 0 -324 0 *
Ve
1e-07
6.56933982822018 8.2 0
0 0

0101101
*
Ed
 1e-07 1 1 0
1  82 0 0 1.63066017177982
0

0101000
+324 0 -322 0 *
Ed
 1e-07 1 1 0
1  83 0 0 2.30610173055266
0

0101000
+322 0 -325 0 *
Wi

0101100
+323 0 +321 0 +320 0 *
Ve
1e-07
-28.2 6.56933982822018 0
0 0

0101101
*
Ve
1e-07
-28.2 8.2 0
0 0

0101101
*
Ed
 1e-07 1 1 0
1  84 0 0 1.63066017177982
0

0101000
+318 0 -317 0 *
Ve
1e-07
-26.5693398282202 8.2 0
0 0

0101101
*
Ed
 1e-07 1 1 0
1  85 0 0 1.63066017177982
0

0101000
+317 0 -315 0 *
Ed
 1e-07 1 1 0
1  86 0 0 2.30610173055266
0

0101000
+315 0 -318 0 *
Wi

0101100
+316 0 +314 0 +313 0 *
Ve
1e-07
-28.2 -6.56933982822018 0
0 0

0101101
*
Ve
1e-07
-28.2 -8.2 0
0 0

0101101
*
Ed
 1e-07 1 1 0
1  87 0 0 1.63066017177982
0

0101000
+311 0 -310 0 *
Ve
1e-07
-26.5693398282202 -8.2 0
0 0

0101101
*
Ed
 1e-07 1 1 0
1  88 0 0 1.63066017177982
0

0101000
+310 0 -308 0 *
Ed
 1e-07 1 1 0
1  89 0 0 2.30610173055266
0

0101000
+308 0 -311 0 *
Wi

0101100
+309 0 +307 0 +306 0 *
Ve
1e-07
8.2 -6.56933982822018 0
0 0

0101101
*
Ve
1e-07
8.2 -8.2 0
0 0

0101101
*
Ed
 1e-07 1 1 0
1  90 0 0 1.63066017177982
0

0101000
+304 0 -303 0 *
Ve
1e-07
6.56933982822018 -8.2 0
0 0

0101101
*
Ed
 1e-07 1 1 0
1  91 0 0 1.63066017177982
0

0101000
+303 0 -301 0 *
Ed
 1e-07 1 1 0
1  92 0 0 2.30610173055266
0

0101000
+301 0 -304 0 *
Wi

0101100
+302 0 +300 0 +299 0 *
Ve
1e-07
2.1 0 0
0 0

0101101
*
Ed
 1e-07 1 1 0
1  93 0 0 6.28318530717959
2  11 16 0 0 6.28318530717959
2  12 16 3 0 6.28318530717959
0

0101000
+297 0 -297 0 *
Wi

0101100
+296 0 *
Ve
1e-07
-17.9 0 0
0 0

0101101
*
Ed
 1e-07 1 1 0
1  94 0 0 6.28318530717959
2  13 17 0 0 6.28318530717959
2  14 17 3 0 6.28318530717959
0

0101000
+294 0 -294 0 *
Wi

0101100
+293 0 *
Ve
1e-07
-3.90066017177982 2.84 0
0 0

0101101
*
Ve
1e-07
-7.3 6.24 0
0 0

0101101
*
Ed
 1e-07 1 1 0
1  95 0 0 4.80785932278847
0

0101000
+291 0 -290 0 *
Ve
1e-07
-7.3 8.2 0
0 0

0101101
*
Ed
 1e-07 1 1 0
1  96 0 0 1.96
0

0101000
+290 0 -288 0 *
Ve
1e-07
-12.7 8.2 0
0 0

0101101
*
Ed
 1e-07 1 1 0
1  97 0 0 5.4
0

0101000
+288 0 -286 0 *
Ve
1e-07
-12.7 6.24 0
0 0

0101101
*
Ed
 1e-07 1 1 0
1  98 0 0 1.96
0

0101000
+286 0 -284 0 *
Ve
1e-07
-16.0993398282202 2.84 0
0 0

0101101
*
Ed
 1e-07 1 1 0
1  99 0 0 4.80785932278847
0

0101000
+284 0 -282 0 *
Ve
1e-07
-16.0993398282202 -2.84 0
0 0

0101101
*
Ed
 1e-07 1 1 0
1  100 0 0 5.68
0

0101000
+282 0 -280 0 *
Ve
1e-07
-12.7 -6.24 0
0 0

0101101
*
Ed
 1e-07 1 1 0
1  101 0 0 4.80785932278847
0

0101000
+280 0 -278 0 *
Ve
1e-07
-12.7 -8.2 0
0 0

0101101
*
Ed
 1e-07 1 1 0
1  102 0 0 1.96
0

0101000
+278 0 -276 0 *
Ve
1e-07
-7.3 -8.2 0
0 0

0101101
*
Ed
 1e-07 1 1 0
1  103 0 0 5.4
0

0101000
+276 0 -274 0 *
Ve
1e-07
-7.3 -6.24 0
0 0

0101101
*
Ed
 1e-07 1 1 0
1  104 0 0 1.96
0

0101000
+274 0 -272 0 *
Ve
1e-07
-3.90066017177982 -2.84 0
0 0

0101101
*
Ed
 1e-07 1 1 0
1  105 0 0 4.80785932278847
0

0101000
+272 0 -270 0 *
Ed
 1e-07 1 1 0
1  106 0 0 5.68
0

0101000
+270 0 -291 0 *
Wi

0101000
+289 0 +287 0 +285 0 +283 0 +281 0 +279 0 +277 0 +275 0 +273 0 +271 0 
+269 0 +268 0 *
Fa
0  1e-07 12 0

0111000
+326 0 -319 0 +312 0 -305 0 +298 0 -295 0 -292 0 -267 0 *
Ed
 1e-07 1 1 0
1  107 0 0 500
0

0101000
+437 0 -437 2 *
Ed
 1e-07 1 1 0
1  108 0 0 500
0

0101000
+435 0 -435 2 *
Wi

0101100
+265 0 -264 0 -434 0 +434 2 *
Fa
0  1e-07 18 0

0111000
+263 0 *
Ed
 1e-07 1 1 0
1  109 0 0 500
0

0101000
+433 0 -433 2 *
Wi

0101100
+264 0 -261 0 -432 0 +432 2 *
Fa
0  1e-07 19 0

0111000
+260 0 *
Ed
 1e-07 1 1 0
1  110 0 0 500
0

0101000
+431 0 -431 2 *
Wi

0101100
+261 0 -258 0 -430 0 +430 2 *
Fa
0  1e-07 20 0

0111000
+257 0 *
Ed
 1e-07 1 1 0
1  111 0 0 500
0

0101000
+429 0 -429 2 *
Wi

0101100
+258 0 -255 0 -428 0 +428 2 *
Fa
0  1e-07 21 0

0111000
+254 0 *
Ed
 1e-07 1 1 0
1  112 0 0 500
0

0101000
+427 0 -427 2 *
Ed
 1e-07 1 1 0
1  113 0 0 500
0

0101000
+425 0 -425 2 *
Wi

0101100
+252 0 -251 0 -424 0 +424 2 *
Fa
0  1e-07 22 0

0111000
+250 0 *
Ed
 1e-07 1 1 0
1  114 0 0 500
0

0101000
+423 0 -423 2 *
Wi

0101100
+251 0 -248 0 -422 0 +422 2 *
Fa
0  1e-07 23 0

0111000
+247 0 *
Ed
 1e-07 1 1 0
1  115 0 0 500
0

0101000
+421 0 -421 2 *
Wi

0101100
+248 0 -245 0 -420 0 +420 2 *
Fa
0  1e-07 24 0

0111000
+244 0 *
Ed
 1e-07 1 1 0
1  116 0 0 500
0

0101000
+419 0 -419 2 *
Wi

0101100
+245 0 -242 0 -418 0 +418 2 *
Fa
0  1e-07 25 0

0111000
+241 0 *
Ed
 1e-07 1 1 0
1  117 0 0 500
0

0101000
+417 0 -417 2 *
Ed
 1e-07 1 1 0
1  118 0 0 500
0

0101000
+415 0 -415 2 *
Wi

0101100
+239 0 -238 0 -414 0 +414 2 *
Fa
0  1e-07 26 0

0111000
+237 0 *
Ed
 1e-07 1 1 0
1  119 0 0 500
0

0101000
+413 0 -413 2 *
Wi

0101100
+238 0 -235 0 -412 0 +412 2 *
Fa
0  1e-07 27 0

0111000
+234 0 *
Ed
 1e-07 1 1 0
1  120 0 0 500
0

0101000
+411 0 -411 2 *
Wi

0101100
+235 0 -232 0 -410 0 +410 2 *
Fa
0  1e-07 28 0

0111000
+231 0 *
Ed
 1e-07 1 1 0
1  121 0 0 500
0

0101000
+409 0 -409 2 *
Wi

0101100
+232 0 -229 0 -408 0 +408 2 *
Fa
0  1e-07 29 0

0111000
+228 0 *
Ed
 1e-07 1 1 0
1  122 0 0 500
2  15 13 0 0 500
4 G1 30 0 13 0
0

0101000
+407 0 -407 2 *
Wi

0101100
+229 0 -226 0 -406 0 +406 2 *
Fa
0  1e-07 30 0

0111000
+225 0 *
Ed
 1e-07 1 1 0
1  123 0 0 500
2  16 13 0 0 500
4 G1 13 0 31 0
0

0101000
+405 0 -405 2 *
Wi

0101100
+226 0 -223 0 -404 0 +404 2 *
Fa
0  1e-07 13 0

0111000
+222 0 *
Ed
 1e-07 1 1 0
1  124 0 0 500
0

0101000
+403 0 -403 2 *
Wi

0101100
+223 0 -220 0 -402 0 +402 2 *
Fa
0  1e-07 31 0

0111000
+219 0 *
Ed
 1e-07 1 1 0
1  125 0 0 500
0

0101000
+401 0 -401 2 *
Wi

0101100
+220 0 -217 0 -400 0 +400 2 *
Fa
0  1e-07 32 0

0111000
+216 0 *
Ed
 1e-07 1 1 0
1  126 0 0 500
0

0101000
+399 0 -399 2 *
Wi

0101100
+217 0 -214 0 -398 0 +398 2 *
Fa
0  1e-07 33 0

0111000
+213 0 *
Ed
 1e-07 1 1 0
1  127 0 0 500
0

0101000
+397 0 -397 2 *
Wi

0101100
+214 0 -211 0 -396 0 +396 2 *
Fa
0  1e-07 34 0

0111000
+210 0 *
Ed
 1e-07 1 1 0
1  128 0 0 500
0

0101000
+395 0 -395 2 *
Wi

0101100
+211 0 -208 0 -394 0 +394 2 *
Fa
0  1e-07 35 0

0111000
+207 0 *
Ed
 1e-07 1 1 0
1  129 0 0 500
0

0101000
+393 0 -393 2 *
Ed
 1e-07 1 1 0
1  130 0 0 500
0

0101000
+391 0 -391 2 *
Wi

0101100
+205 0 -204 0 -390 0 +390 2 *
Fa
0  1e-07 36 0

0111000
+203 0 *
Ed
 1e-07 1 1 0
1  131 0 0 500
0

0101000
+389 0 -389 2 *
Wi

0101100
+204 0 -201 0 -388 0 +388 2 *
Fa
0  1e-07 37 0

0111000
+200 0 *
Ed
 1e-07 1 1 0
1  132 0 0 500
0

0101000
+387 0 -387 2 *
Wi

0101100
+201 0 -198 0 -386 0 +386 2 *
Fa
0  1e-07 38 0

0111000
+197 0 *
Ed
 1e-07 1 1 0
1  133 0 0 500
0

0101000
+385 0 -385 2 *
Wi

0101100
+198 0 -195 0 -384 0 +384 2 *
Fa
0  1e-07 39 0

0111000
+194 0 *
Ed
 1e-07 1 1 0
1  134 0 0 500
2  17 14 0 0 500
4 G1 40 0 14 0
0

0101000
+383 0 -383 2 *
Wi

0101100
+195 0 -192 0 -382 0 +382 2 *
Fa
0  1e-07 40 0

0111000
+191 0 *
Ed
 1e-07 1 1 0
1  135 0 0 500
2  18 14 0 0 500
4 G1 14 0 41 0
0

0101000
+381 0 -381 2 *
Wi

0101100
+192 0 -189 0 -380 0 +380 2 *
Fa
0  1e-07 14 0

0111000
+188 0 *
Ed
 1e-07 1 1 0
1  136 0 0 500
0

0101000
+379 0 -379 2 *
Wi

0101100
+189 0 -186 0 -378 0 +378 2 *
Fa
0  1e-07 41 0

0111000
+185 0 *
Ed
 1e-07 1 1 0
1  137 0 0 500
0

0101000
+377 0 -377 2 *
Wi

0101100
+186 0 -183 0 -376 0 +376 2 *
Fa
0  1e-07 42 0

0111000
+182 0 *
Ed
 1e-07 1 1 0
1  138 0 0 500
0

0101000
+375 0 -375 2 *
Wi

0101100
+183 0 -180 0 -374 0 +374 2 *
Fa
0  1e-07 43 0

0111000
+179 0 *
Ed
 1e-07 1 1 0
1  139 0 0 500
0

0101000
+373 0 -373 2 *
Wi

0101100
+180 0 -177 0 -372 0 +372 2 *
Fa
0  1e-07 44 0

0111000
+176 0 *
Ed
 1e-07 1 1 0
1  140 0 0 500
0

0101000
+371 0 -371 2 *
Wi

0101100
+177 0 -174 0 -370 0 +370 2 *
Fa
0  1e-07 45 0

0111000
+173 0 *
Ed
 1e-07 1 1 0
1  141 0 0 500
0

0101000
+369 0 -369 2 *
Ed
 1e-07 1 1 0
1  142 0 0 500
0

0101000
+367 0 -367 2 *
Wi

0101100
+171 0 -170 0 -366 0 +366 2 *
Fa
0  1e-07 46 0

0111000
+169 0 *
Ed
 1e-07 1 1 0
1  143 0 0 500
0

0101000
+365 0 -365 2 *
Wi

0101100
+170 0 -167 0 -364 0 +364 2 *
Fa
0  1e-07 47 0

0111000
+166 0 *
Ed
 1e-07 1 1 0
1  144 0 0 500
0

0101000
+363 0 -363 2 *
Wi

0101100
+167 0 -164 0 -362 0 +362 2 *
Fa
0  1e-07 48 0

0111000
+163 0 *
Ed
 1e-07 1 1 0
1  145 0 0 500
0

0101000
+361 0 -361 2 *
Wi

0101100
+164 0 -161 0 -360 0 +360 2 *
Fa
0  1e-07 49 0

0111000
+160 0 *
Ed
 1e-07 1 1 0
1  146 0 0 500
0

0101000
+359 0 -359 2 *
Ed
 1e-07 1 1 0
1  147 0 0 500
0

0101000
+357 0 -357 2 *
Wi

0101100
+158 0 -157 0 -356 0 +356 2 *
Fa
0  1e-07 50 0

0111000
+156 0 *
Ed
 1e-07 1 1 0
1  148 0 0 500
0

0101000
+355 0 -355 2 *
Wi

0101100
+157 0 -154 0 -354 0 +354 2 *
Fa
0  1e-07 51 0

0111000
+153 0 *
Ed
 1e-07 1 1 0
1  149 0 0 500
0

0101000
+353 0 -353 2 *
Wi

0101100
+154 0 -151 0 -352 0 +352 2 *
Fa
0  1e-07 52 0

0111000
+150 0 *
Ed
 1e-07 1 1 0
1  150 0 0 500
0

0101000
+351 0 -351 2 *
Wi

0101100
+151 0 -148 0 -350 0 +350 2 *
Fa
0  1e-07 53 0

0111000
+147 0 *
Ed
 1e-07 1 1 0
1  151 0 0 500
0

0101000
+349 0 -349 2 *
Ed
 1e-07 1 1 0
1  152 0 0 500
0

0101000
+347 0 -347 2 *
Wi

0101100
+145 0 -144 0 -346 0 +346 2 *
Fa
0  1e-07 54 0

0111000
+143 0 *
Ed
 1e-07 1 1 0
1  153 0 0 500
0

0101000
+345 0 -345 2 *
Wi

0101100
+144 0 -141 0 -344 0 +344 2 *
Fa
0  1e-07 55 0

0111000
+140 0 *
Ed
 1e-07 1 1 0
1  154 0 0 500
0

0101000
+343 0 -343 2 *
Wi

0101100
+141 0 -138 0 -342 0 +342 2 *
Fa
0  1e-07 56 0

0111000
+137 0 *
Ed
 1e-07 1 1 0
1  155 0 0 500
0

0101000
+341 0 -341 2 *
Wi

0101100
+138 0 -135 0 -340 0 +340 2 *
Fa
0  1e-07 57 0

0111000
+134 0 *
Ed
 1e-07 1 1 0
1  156 0 0 500
2  19 15 0 0 500
4 G1 58 0 15 0
0

0101000
+339 0 -339 2 *
Wi

0101100
+135 0 -132 0 -338 0 +338 2 *
Fa
0  1e-07 58 0

0111000
+131 0 *
Ed
 1e-07 1 1 0
1  157 0 0 500
2  20 15 0 0 500
4 G1 15 0 59 0
0

0101000
+337 0 -337 2 *
Wi

0101100
+132 0 -129 0 -336 0 +336 2 *
Fa
0  1e-07 15 0

0111000
+128 0 *
Ed
 1e-07 1 1 0
1  158 0 0 500
0

0101000
+335 0 -335 2 *
Wi

0101100
+129 0 -126 0 -334 0 +334 2 *
Fa
0  1e-07 59 0

0111000
+125 0 *
Ed
 1e-07 1 1 0
1  159 0 0 500
0

0101000
+333 0 -333 2 *
Wi

0101100
+126 0 -123 0 -332 0 +332 2 *
Fa
0  1e-07 60 0

0111000
+122 0 *
Ed
 1e-07 1 1 0
1  160 0 0 500
0

0101000
+331 0 -331 2 *
Wi

0101100
+123 0 -120 0 -330 0 +330 2 *
Fa
0  1e-07 61 0

0111000
+119 0 *
Ed
 1e-07 1 1 0
1  161 0 0 500
0

0101000
+329 0 -329 2 *
Wi

0101100
+120 0 -117 0 -328 0 +328 2 *
Fa
0  1e-07 62 0

0111000
+116 0 *
Ed
 1e-07 1 1 0
1  162 0 0 500
0

0101000
+439 0 -439 2 *
Wi

0101100
+117 0 -114 0 -327 0 +327 2 *
Fa
0  1e-07 63 0

0111000
+113 0 *
Ed
 1e-07 1 1 0
1  163 0 0 500
0

0101000
+325 0 -325 2 *
Ed
 1e-07 1 1 0
1  164 0 0 500
0

0101000
+324 0 -324 2 *
Wi

0101100
+111 0 -110 0 -323 0 +323 2 *
Fa
0  1e-07 64 0

0111000
+109 0 *
Ed
 1e-07 1 1 0
1  165 0 0 500
0

0101000
+322 0 -322 2 *
Wi

0101100
+110 0 -107 0 -321 0 +321 2 *
Fa
0  1e-07 65 0

0111000
+106 0 *
Wi

0101100
+107 0 -111 0 -320 0 +320 2 *
Fa
0  1e-07 66 0

0111000
+104 0 *
Ed
 1e-07 1 1 0
1  166 0 0 500
0

0101000
+318 0 -318 2 *
Ed
 1e-07 1 1 0
1  167 0 0 500
0

0101000
+317 0 -317 2 *
Wi

0101100
+102 0 -101 0 -316 0 +316 2 *
Fa
0  1e-07 67 0

0111000
+100 0 *
Ed
 1e-07 1 1 0
1  168 0 0 500
0

0101000
+315 0 -315 2 *
Wi

0101100
+101 0 -98 0 -314 0 +314 2 *
Fa
0  1e-07 68 0

0111000
+97 0 *
Wi

0101100
+98 0 -102 0 -313 0 +313 2 *
Fa
0  1e-07 69 0

0111000
+95 0 *
Ed
 1e-07 1 1 0
1  169 0 0 500
0

0101000
+311 0 -311 2 *
Ed
 1e-07 1 1 0
1  170 0 0 500
0

0101000
+310 0 -310 2 *
Wi

0101100
+93 0 -92 0 -309 0 +309 2 *
Fa
0  1e-07 70 0

0111000
+91 0 *
Ed
 1e-07 1 1 0
1  171 0 0 500
0

0101000
+308 0 -308 2 *
Wi

0101100
+92 0 -89 0 -307 0 +307 2 *
Fa
0  1e-07 71 0

0111000
+88 0 *
Wi

0101100
+89 0 -93 0 -306 0 +306 2 *
Fa
0  1e-07 72 0

0111000
+86 0 *
Ed
 1e-07 1 1 0
1  172 0 0 500
0

0101000
+304 0 -304 2 *
Ed
 1e-07 1 1 0
1  173 0 0 500
0

0101000
+303 0 -303 2 *
Wi

0101100
+84 0 -83 0 -302 0 +302 2 *
Fa
0  1e-07 73 0

0111000
+82 0 *
Ed
 1e-07 1 1 0
1  174 0 0 500
0

0101000
+301 0 -301 2 *
Wi

0101100
+83 0 -80 0 -300 0 +300 2 *
Fa
0  1e-07 74 0

0111000
+79 0 *
Wi

0101100
+80 0 -84 0 -299 0 +299 2 *
Fa
0  1e-07 75 0

0111000
+77 0 *
Ed
 1e-07 1 1 0
1  175 0 0 500
3  21 22CN 16 0 0 500
0

0101000
+297 0 -297 2 *
Wi

0101100
+75 0 -75 0 -296 0 +296 2 *
Fa
0  1e-07 16 0

0111000
+74 0 *
Ed
 1e-07 1 1 0
1  176 0 0 500
3  23 24CN 17 0 0 500
0

0101000
+294 0 -294 2 *
Wi

0101100
+72 0 -72 0 -293 0 +293 2 *
Fa
0  1e-07 17 0

0111000
+71 0 *
Ed
 1e-07 1 1 0
1  177 0 0 500
0

0101000
+291 0 -291 2 *
Ed
 1e-07 1 1 0
1  178 0 0 500
0

0101000
+290 0 -290 2 *
Wi

0101100
+69 0 -68 0 -289 0 +289 2 *
Fa
0  1e-07 76 0

0111000
+67 0 *
Ed
 1e-07 1 1 0
1  179 0 0 500
0

0101000
+288 0 -288 2 *
Wi

0101100
+68 0 -65 0 -287 0 +287 2 *
Fa
0  1e-07 77 0

0111000
+64 0 *
Ed
 1e-07 1 1 0
1  180 0 0 500
0

0101000
+286 0 -286 2 *
Ed
 1e-07 1 1 0
1  181 0 0 500
0

0101000
+284 0 -284 2 *
Wi

0101100
+62 0 -61 0 -283 0 +283 2 *
Fa
0  1e-07 78 0

0111000
+60 0 *
Ed
 1e-07 1 1 0
1  182 0 0 500
0

0101000
+282 0 -282 2 *
Wi

0101100
+61 0 -58 0 -281 0 +281 2 *
Fa
0  1e-07 79 0

0111000
+57 0 *
Ed
 1e-07 1 1 0
1  183 0 0 500
0

0101000
+280 0 -280 2 *
Ed
 1e-07 1 1 0
1  184 0 0 500
0

0101000
+278 0 -278 2 *
Wi

0101100
+55 0 -54 0 -277 0 +277 2 *
Fa
0  1e-07 80 0

0111000
+53 0 *
Ed
 1e-07 1 1 0
1  185 0 0 500
0

0101000
+276 0 -276 2 *
Wi

0101100
+54 0 -51 0 -275 0 +275 2 *
Fa
0  1e-07 81 0

0111000
+50 0 *
Ed
 1e-07 1 1 0
1  186 0 0 500
0

0101000
+274 0 -274 2 *
Ed
 1e-07 1 1 0
1  187 0 0 500
0

0101000
+272 0 -272 2 *
Wi

0101100
+48 0 -47 0 -271 0 +271 2 *
Fa
0  1e-07 82 0

0111000
+46 0 *
Ed
 1e-07 1 1 0
1  188 0 0 500
0

0101000
+270 0 -270 2 *
Wi

0101100
+47 0 -44 0 -269 0 +269 2 *
Fa
0  1e-07 83 0

0111000
+43 0 *
Ed
 1e-07 1 1 0
1  189 0 0 5.68
0

0101000
+444 2 -437 2 *
Ed
 1e-07 1 1 0
1  190 0 0 10.72
0

0101000
+429 2 -427 2 *
Ed
 1e-07 1 1 0
1  191 0 0 5.68
0

0101000
+419 2 -417 2 *
Ed
 1e-07 1 1 0
1  192 0 0 5.68
0

0101000
+395 2 -393 2 *
Ed
 1e-07 1 1 0
1  193 0 0 5.68
0

0101000
+371 2 -369 2 *
Ed
 1e-07 1 1 0
1  194 0 0 10.72
0

0101000
+361 2 -359 2 *
Ed
 1e-07 1 1 0
1  195 0 0 5.68
0

0101000
+351 2 -349 2 *
Ed
 1e-07 1 1 0
1  196 0 0 5.68
0

0101000
+439 2 -496 2 *
Wi

0101000
+492 0 +487 0 +482 0 +477 0 +472 0 +467 0 +462 0 +457 0 +452 0 +447 0 
+442 0 +41 3 +434 0 +432 0 +430 0 +428 0 +40 3 +424 0 +422 0 +420 0 
+418 0 +39 3 +414 0 +412 0 +410 0 +408 0 +406 0 +404 0 +402 0 +400 0 
+398 0 +396 0 +394 0 +38 3 +390 0 +388 0 +386 0 +384 0 +382 0 +380 0 
+378 0 +376 0 +374 0 +372 0 +370 0 +37 3 +366 0 +364 0 +362 0 +360 0 
+36 3 +356 0 +354 0 +352 0 +350 0 +35 3 +346 0 +344 0 +342 0 +340 0 
+338 0 +336 0 +334 0 +332 0 +330 0 +328 0 +327 0 +34 3 *
Ed
 1e-07 1 1 0
1  197 0 -2.84 2.84
0

0101000
+270 2 -291 2 *
Ed
 1e-07 1 1 0
1  198 0 -2.7 2.7
0

0101000
+288 2 -286 2 *
Ed
 1e-07 1 1 0
1  199 0 -2.84 2.84
0

0101000
+282 2 -280 2 *
Ed
 1e-07 1 1 0
1  200 0 -2.7 2.7
0

0101000
+276 2 -274 2 *
Wi

0101000
+32 3 +289 0 +287 0 +31 3 +283 0 +281 0 +30 3 +277 0 +275 0 +29 3 
+271 0 +269 0 *
Fa
0  1e-07 12 0

0111000
+33 0 -319 0 +312 0 -305 0 +298 0 -295 0 -292 0 -28 0 *
Wi

0101000
+495 0 -34 0 -114 0 +438 0 *
Fa
0  1e-07 84 0

0111000
+26 0 *
Wi

0101000
-255 0 +426 0 +252 0 -40 0 *
Fa
0  1e-07 85 0

0111000
+24 0 *
Wi

0101000
+65 0 +31 0 -62 0 -285 0 *
Fa
0  1e-07 86 0

0111000
+22 0 *
Wi

0101000
-443 0 +436 0 +265 0 -41 0 *
Fa
0  1e-07 87 0

0111000
+20 0 *
Wi

0101000
-242 0 +416 0 +239 0 -39 0 *
Fa
0  1e-07 88 0

0111000
+18 0 *
Wi

0101000
-208 0 +392 0 +205 0 -38 0 *
Fa
0  1e-07 89 0

0111000
+16 0 *
Wi

0101000
-161 0 +358 0 +158 0 -36 0 *
Fa
0  1e-07 90 0

0111000
+14 0 *
Wi

0101000
+51 0 +29 0 -48 0 -273 0 *
Fa
0  1e-07 91 0

0111000
+12 0 *
Wi

0101000
-174 0 +368 0 +171 0 -37 0 *
Fa
0  1e-07 92 0

0111000
+10 0 *
Wi

0101000
-148 0 +348 0 +145 0 -35 0 *
Fa
0  1e-07 93 0

0111000
+8 0 *
Wi

0101000
-69 0 -268 0 +44 0 +32 0 *
Fa
0  1e-07 94 0

0111000
+6 0 *
Wi

0101000
+58 0 +30 0 -55 0 -279 0 *
Fa
0  1e-07 95 0

0111000
+4 0 *
Sh

0101000
-490 0 -485 0 -480 0 -475 0 -470 0 -465 0 -460 0 -455 0 -450 0 -445 0 
-440 0 -266 0 -262 0 -259 0 -256 0 -253 0 -249 0 -246 0 -243 0 -240 0 
-236 0 -233 0 -230 0 -227 0 -224 0 -221 0 -218 0 -215 0 -212 0 -209 0 
-206 0 -202 0 -199 0 -196 0 -193 0 -190 0 -187 0 -184 0 -181 0 -178 0 
-175 0 -172 0 -168 0 -165 0 -162 0 -159 0 -155 0 -152 0 -149 0 -146 0 
-142 0 -139 0 -136 0 -133 0 -130 0 -127 0 -124 0 -121 0 -118 0 -115 0 
-112 0 +108 0 +105 0 +103 0 -99 0 -96 0 -94 0 +90 0 +87 0 +85 0 
-81 0 -78 0 -76 0 +73 0 +70 0 +66 0 +63 0 +59 0 +56 0 +52 0 
+49 0 +45 0 +42 0 +27 2 +25 0 +23 0 +21 0 +19 0 +17 0 +15 0 
+13 0 +11 0 +9 0 +7 0 +5 0 +3 0 *
So

1100000
+2 0 *

+1 1 