DBRep_DrawableShape

CASCADE Topology V1, (c) Matra-Datavision
Locations 3
1
              1               0               0               0 
              0               1               0               0 
              0               0               1               0 
1
              1               0               0               0 
              0               1               0               0 
              0               0               1            1000 
2  2 -1 0
Curve2ds 20
1 0 0 0 -1 
1 1.5707963267948966 0 0 -1 
1 0 0 1 0 
1 0 -1000 1 0 
1 0 0 1 0 
1 0 -1000 1 0 
1 0 0 1 0 
1 0 -1000 1 0 
1 0 0 1 0 
1 0 -1000 1 0 
1 0 0 1 0 
1 0 -1000 1 0 
1 0 0 0 -1 
1 1.5707963267948966 0 0 -1 
1 0 0 0 -1 
1 1.5707963267948966 0 0 -1 
1 0 0 0 -1 
1 1.5707963267948966 0 0 -1 
1 0 0 0 -1 
1 6.2831853071795862 0 0 -1 
Curves 126
1 3.9006601717798208 2.8399999999999999 0 0 0 1 
1 6.5599999999999996 5.4993398282201786 0 0 0 1 
1 3.9006601717798208 2.8399999999999999 0 0.70710678118654757 0.70710678118654757 0 
1 8.1999999999999993 5.4993398282201786 0 0 0 1 
1 6.5599999999999996 5.4993398282201786 0 1 0 0 
1 8.1999999999999993 2.8399999999999999 0 0 0 1 
1 8.1999999999999993 5.4993398282201786 0 0 -1 0 
1 10 4.6399999999999997 0 0 0 1 
1 8.1999999999999993 2.8399999999999999 0 0.70710678118654768 0.70710678118654735 0 
1 10 8.5 0 0 0 1 
1 10 4.6399999999999997 0 0 1 0 
1 8.5 10 0 0 0 1 
2 8.5 8.5 0 0 0 1 1 0 -0 -0 1 0 1.5
1 4.6399999999999997 10 0 0 0 1 
1 8.5 10 0 -1 0 0 
1 2.8399999999999999 8.1999999999999993 0 0 0 1 
1 4.6399999999999997 10 0 -0.70710678118654735 -0.70710678118654768 0 
1 5.4993398282201786 8.1999999999999993 0 0 0 1 
1 2.8399999999999999 8.1999999999999993 0 1 0 0 
1 5.4993398282201786 6.5599999999999996 0 0 0 1 
1 5.4993398282201786 8.1999999999999993 0 0 -1 0 
1 2.8399999999999999 3.9006601717798208 0 0 0 1 
1 5.4993398282201786 6.5599999999999996 0 -0.70710678118654757 -0.70710678118654757 0 
1 3.9006601717798208 0 0 0 1 0 
1 0 3.9006601717798208 0 -1 0 0 
1 -2.8399999999999999 3.9006601717798208 0 -0.70710678118654757 0.70710678118654757 0 
1 -5.4993398282201786 6.5599999999999996 0 0 1 0 
1 -5.4993398282201786 8.1999999999999993 0 1 0 0 
1 -2.8399999999999999 8.1999999999999993 0 -0.70710678118654735 0.70710678118654768 0 
1 -4.6399999999999997 10 0 -1 0 0 
2 -8.5 8.5 0 0 0 1 0 1 0 -1 0 0 1.5
1 -10 8.5 0 0 -1 0 
1 -10 4.6399999999999997 0 0.70710678118654768 -0.70710678118654735 0 
1 -8.1999999999999993 2.8399999999999999 0 0 1 0 
1 -8.1999999999999993 5.4993398282201786 0 1 0 0 
1 -6.5599999999999996 5.4993398282201786 0 0.70710678118654757 -0.70710678118654757 0 
1 -3.9006601717798208 0 0 0 -1 0 
1 -3.9006601717798208 -2.8399999999999999 0 -0.70710678118654757 -0.70710678118654757 0 
1 -6.5599999999999996 -5.4993398282201786 0 -1 0 0 
1 -8.1999999999999993 -5.4993398282201786 0 0 1 0 
1 -8.1999999999999993 -2.8399999999999999 0 -0.70710678118654768 -0.70710678118654735 0 
1 -10 -4.6399999999999997 0 0 -1 0 
2 -8.5 -8.5 0 0 0 1 -1 0 0 0 -1 0 1.5
1 -8.5 -10 0 1 0 0 
1 -4.6399999999999997 -10 0 0.70710678118654735 0.70710678118654768 0 
1 -2.8399999999999999 -8.1999999999999993 0 -1 0 0 
1 -5.4993398282201786 -8.1999999999999993 0 0 1 0 
1 -5.4993398282201786 -6.5599999999999996 0 0.70710678118654757 0.70710678118654757 0 
1 0 -3.9006601717798208 0 1 0 0 
1 2.8399999999999999 -3.9006601717798208 0 0.70710678118654757 -0.70710678118654757 0 
1 5.4993398282201786 -6.5599999999999996 0 0 -1 0 
1 5.4993398282201786 -8.1999999999999993 0 -1 0 0 
1 2.8399999999999999 -8.1999999999999993 0 0.70710678118654735 -0.70710678118654768 0 
1 4.6399999999999997 -10 0 1 0 0 
2 8.5 -8.5 0 0 0 1 0 -1 0 1 0 -0 1.5
1 10 -8.5 0 0 1 0 
1 10 -4.6399999999999997 0 -0.70710678118654768 0.70710678118654735 0 
1 8.1999999999999993 -2.8399999999999999 0 0 -1 0 
1 8.1999999999999993 -5.4993398282201786 0 -1 0 0 
1 6.5599999999999996 -5.4993398282201786 0 -0.70710678118654757 0.70710678118654757 0 
1 8.1999999999999993 6.5693398282201789 0 0 1 0 
1 8.1999999999999993 8.1999999999999993 0 -1 0 0 
1 6.5693398282201789 8.1999999999999993 0 0.70710678118654757 -0.70710678118654757 0 
1 -8.1999999999999993 6.5693398282201789 0 0 1 0 
1 -8.1999999999999993 8.1999999999999993 0 1 0 0 
1 -6.5693398282201789 8.1999999999999993 0 -0.70710678118654757 -0.70710678118654757 0 
1 -8.1999999999999993 -6.5693398282201789 0 0 -1 0 
1 -8.1999999999999993 -8.1999999999999993 0 1 0 0 
1 -6.5693398282201789 -8.1999999999999993 0 -0.70710678118654757 0.70710678118654757 0 
1 8.1999999999999993 -6.5693398282201789 0 0 -1 0 
1 8.1999999999999993 -8.1999999999999993 0 -1 0 0 
1 6.5693398282201789 -8.1999999999999993 0 0.70710678118654757 0.70710678118654757 0 
2 0 0 0 0 0 1 1 0 -0 -0 1 0 2.1000000000000001
1 -2.8399999999999999 3.9006601717798208 0 0 0 1 
1 -5.4993398282201786 6.5599999999999996 0 0 0 1 
1 -5.4993398282201786 8.1999999999999993 0 0 0 1 
1 -2.8399999999999999 8.1999999999999993 0 0 0 1 
1 -4.6399999999999997 10 0 0 0 1 
1 -8.5 10 0 0 0 1 
1 -10 8.5 0 0 0 1 
1 -10 4.6399999999999997 0 0 0 1 
1 -8.1999999999999993 2.8399999999999999 0 0 0 1 
1 -8.1999999999999993 5.4993398282201786 0 0 0 1 
1 -6.5599999999999996 5.4993398282201786 0 0 0 1 
1 -3.9006601717798208 2.8399999999999999 0 0 0 1 
1 -3.9006601717798208 -2.8399999999999999 0 0 0 1 
1 -6.5599999999999996 -5.4993398282201786 0 0 0 1 
1 -8.1999999999999993 -5.4993398282201786 0 0 0 1 
1 -8.1999999999999993 -2.8399999999999999 0 0 0 1 
1 -10 -4.6399999999999997 0 0 0 1 
1 -10 -8.5 0 0 0 1 
1 -8.5 -10 0 0 0 1 
1 -4.6399999999999997 -10 0 0 0 1 
1 -2.8399999999999999 -8.1999999999999993 0 0 0 1 
1 -5.4993398282201786 -8.1999999999999993 0 0 0 1 
1 -5.4993398282201786 -6.5599999999999996 0 0 0 1 
1 -2.8399999999999999 -3.9006601717798208 0 0 0 1 
1 2.8399999999999999 -3.9006601717798208 0 0 0 1 
1 5.4993398282201786 -6.5599999999999996 0 0 0 1 
1 5.4993398282201786 -8.1999999999999993 0 0 0 1 
1 2.8399999999999999 -8.1999999999999993 0 0 0 1 
1 4.6399999999999997 -10 0 0 0 1 
1 8.5 -10 0 0 0 1 
1 10 -8.5 0 0 0 1 
1 10 -4.6399999999999997 0 0 0 1 
1 8.1999999999999993 -2.8399999999999999 0 0 0 1 
1 8.1999999999999993 -5.4993398282201786 0 0 0 1 
1 6.5599999999999996 -5.4993398282201786 0 0 0 1 
1 3.9006601717798208 -2.8399999999999999 0 0 0 1 
1 8.1999999999999993 6.5693398282201789 0 0 0 1 
1 8.1999999999999993 8.1999999999999993 0 0 0 1 
1 6.5693398282201789 8.1999999999999993 0 0 0 1 
1 -8.1999999999999993 6.5693398282201789 0 0 0 1 
1 -8.1999999999999993 8.1999999999999993 0 0 0 1 
1 -6.5693398282201789 8.1999999999999993 0 0 0 1 
1 -8.1999999999999993 -6.5693398282201789 0 0 0 1 
1 -8.1999999999999993 -8.1999999999999993 0 0 0 1 
1 -6.5693398282201789 -8.1999999999999993 0 0 0 1 
1 8.1999999999999993 -6.5693398282201789 0 0 0 1 
1 8.1999999999999993 -8.1999999999999993 0 0 0 1 
1 6.5693398282201789 -8.1999999999999993 0 0 0 1 
1 2.1000000000000001 0 0 0 0 1 
1 2.8399999999999999 3.9006601717798208 1000 -1 0 0 
1 -3.9006601717798208 2.8399999999999999 1000 0 -1 0 
1 -2.8399999999999999 -3.9006601717798208 1000 1 0 0 
1 3.9006601717798208 -2.8399999999999999 1000 0 1 0 
Polygon3D 0
PolygonOnTriangulations 0
Surfaces 62
1 3.9006601717798208 2.8399999999999999 0 -0.70710678118654757 0.70710678118654757 0 0.70710678118654757 0.70710678118654757 0 0 0 -1 
1 6.5599999999999996 5.4993398282201786 0 0 1 0 1 0 0 0 0 -1 
1 8.1999999999999993 5.4993398282201786 0 1 0 -0 0 -1 0 0 -0 -1 
1 8.1999999999999993 2.8399999999999999 0 -0.70710678118654735 0.70710678118654768 0 0.70710678118654768 0.70710678118654735 0 0 0 -1 
1 10 4.6399999999999997 0 -1 0 0 0 1 0 0 0 -1 
2 8.5 8.5 0 -0 -0 -1 1 0 -0 -0 1 -0 1.5
1 8.5 10 0 0 -1 0 -1 0 0 -0 -0 -1 
1 4.6399999999999997 10 0 0.70710678118654768 -0.70710678118654735 0 -0.70710678118654735 -0.70710678118654768 0 0 -0 -1 
1 2.8399999999999999 8.1999999999999993 0 0 1 0 1 0 0 0 0 -1 
1 5.4993398282201786 8.1999999999999993 0 1 0 -0 0 -1 0 0 -0 -1 
1 5.4993398282201786 6.5599999999999996 0 0.70710678118654757 -0.70710678118654757 0 -0.70710678118654757 -0.70710678118654757 0 0 -0 -1 
1 4.9999999999999999e-17 2.2999999999999999e-16 0 0 0 1 1 0 -0 -0 1 0 
2 -8.5 8.5 0 -0 0 -1 0 1 0 -1 -0 0 1.5
2 -8.5 -8.5 0 -0 -0 -1 -1 0 0 -0 -1 0 1.5
2 8.5 -8.5 0 -0 -0 -1 0 -1 0 1 -0 -0 1.5
2 0 0 0 -0 -0 -1 1 0 -0 -0 1 -0 2.1000000000000001
1 -2.8399999999999999 3.9006601717798208 0 -0.70710678118654757 -0.70710678118654757 0 -0.70710678118654757 0.70710678118654757 0 -0 0 -1 
1 -5.4993398282201786 6.5599999999999996 0 -1 0 0 0 1 0 0 0 -1 
1 -5.4993398282201786 8.1999999999999993 0 0 1 0 1 0 0 0 0 -1 
1 -2.8399999999999999 8.1999999999999993 0 -0.70710678118654768 -0.70710678118654735 0 -0.70710678118654735 0.70710678118654768 0 -0 0 -1 
1 -4.6399999999999997 10 0 0 -1 0 -1 0 0 -0 -0 -1 
1 -10 8.5 0 1 0 -0 0 -1 0 0 -0 -1 
1 -10 4.6399999999999997 0 0.70710678118654735 0.70710678118654768 -0 0.70710678118654768 -0.70710678118654735 0 0 -0 -1 
1 -8.1999999999999993 2.8399999999999999 0 -1 0 0 0 1 0 0 0 -1 
1 -8.1999999999999993 5.4993398282201786 0 0 1 0 1 0 0 0 0 -1 
1 -6.5599999999999996 5.4993398282201786 0 0.70710678118654757 0.70710678118654757 -0 0.70710678118654757 -0.70710678118654757 0 0 -0 -1 
1 -3.9006601717798208 -2.8399999999999999 0 0.70710678118654757 -0.70710678118654757 0 -0.70710678118654757 -0.70710678118654757 0 0 -0 -1 
1 -6.5599999999999996 -5.4993398282201786 0 0 -1 0 -1 0 0 -0 -0 -1 
1 -8.1999999999999993 -5.4993398282201786 0 -1 0 0 0 1 0 0 0 -1 
1 -8.1999999999999993 -2.8399999999999999 0 0.70710678118654735 -0.70710678118654768 0 -0.70710678118654768 -0.70710678118654735 0 0 -0 -1 
1 -10 -4.6399999999999997 0 1 0 -0 0 -1 0 0 -0 -1 
1 -8.5 -10 0 0 1 0 1 0 0 0 0 -1 
1 -4.6399999999999997 -10 0 -0.70710678118654768 0.70710678118654735 0 0.70710678118654735 0.70710678118654768 0 0 0 -1 
1 -2.8399999999999999 -8.1999999999999993 0 0 -1 0 -1 0 0 -0 -0 -1 
1 -5.4993398282201786 -8.1999999999999993 0 -1 0 0 0 1 0 0 0 -1 
1 -5.4993398282201786 -6.5599999999999996 0 -0.70710678118654757 0.70710678118654757 0 0.70710678118654757 0.70710678118654757 0 0 0 -1 
1 2.8399999999999999 -3.9006601717798208 0 0.70710678118654757 0.70710678118654757 -0 0.70710678118654757 -0.70710678118654757 0 0 -0 -1 
1 5.4993398282201786 -6.5599999999999996 0 1 0 -0 0 -1 0 0 -0 -1 
1 5.4993398282201786 -8.1999999999999993 0 0 -1 0 -1 0 0 -0 -0 -1 
1 2.8399999999999999 -8.1999999999999993 0 0.70710678118654768 0.70710678118654735 -0 0.70710678118654735 -0.70710678118654768 0 0 -0 -1 
1 4.6399999999999997 -10 0 0 1 0 1 0 0 0 0 -1 
1 10 -8.5 0 -1 0 0 0 1 0 0 0 -1 
1 10 -4.6399999999999997 0 -0.70710678118654735 -0.70710678118654768 0 -0.70710678118654768 0.70710678118654735 0 -0 0 -1 
1 8.1999999999999993 -2.8399999999999999 0 1 0 -0 0 -1 0 0 -0 -1 
1 8.1999999999999993 -5.4993398282201786 0 0 -1 0 -1 0 0 -0 -0 -1 
1 6.5599999999999996 -5.4993398282201786 0 -0.70710678118654757 -0.70710678118654757 0 -0.70710678118654757 0.70710678118654757 0 -0 0 -1 
1 8.1999999999999993 6.5693398282201789 0 -1 0 0 0 1 0 0 0 -1 
1 8.1999999999999993 8.1999999999999993 0 0 -1 0 -1 0 0 -0 -0 -1 
1 6.5693398282201789 8.1999999999999993 0 0.70710678118654757 0.70710678118654757 -0 0.70710678118654757 -0.70710678118654757 0 0 -0 -1 
1 -8.1999999999999993 6.5693398282201789 0 -1 0 0 0 1 0 0 0 -1 
1 -8.1999999999999993 8.1999999999999993 0 0 1 0 1 0 0 0 0 -1 
1 -6.5693398282201789 8.1999999999999993 0 0.70710678118654757 -0.70710678118654757 0 -0.70710678118654757 -0.70710678118654757 0 0 -0 -1 
1 -8.1999999999999993 -6.5693398282201789 0 1 0 -0 0 -1 0 0 -0 -1 
1 -8.1999999999999993 -8.1999999999999993 0 0 1 0 1 0 0 0 0 -1 
1 -6.5693398282201789 -8.1999999999999993 0 -0.70710678118654757 -0.70710678118654757 0 -0.70710678118654757 0.70710678118654757 0 -0 0 -1 
1 8.1999999999999993 -6.5693398282201789 0 1 0 -0 0 -1 0 0 -0 -1 
1 8.1999999999999993 -8.1999999999999993 0 0 -1 0 -1 0 0 -0 -0 -1 
1 6.5693398282201789 -8.1999999999999993 0 -0.70710678118654757 0.70710678118654757 0 0.70710678118654757 0.70710678118654757 0 0 0 -1 
1 3.9006601717798204 0 499.99999999999994 1 0 -0 0 0 1 0 -1 0 
1 0 3.9006601717798204 499.99999999999994 0 1 -0 0 0 1 1 -0 0 
1 -3.9006601717798204 0 499.99999999999994 -1 -0 -0 0 0 -1 0 -1 0 
1 0 -3.9006601717798204 499.99999999999994 -0 -1 -0 0 0 -1 1 -0 0 
Triangulations 0

TShapes 320
Ve
1e-07
3.90066017177982 2.84 0
0 0

0101101
*
Ed
 1e-07 1 1 0
1  1 0 0 1000
0

0101000
+320 0 -320 2 *
Ve
1e-07
6.56 5.49933982822018 0
0 0

0101101
*
Ed
 1e-07 1 1 0
1  2 0 0 1000
0

0101000
+318 0 -318 2 *
Ed
 1e-07 1 1 0
1  3 0 0 3.76087445202791
0

0101000
+320 0 -318 0 *
Wi

0101100
+319 0 -317 0 -316 0 +316 2 *
Fa
0  1e-07 1 0

0111000
+315 0 *
Ve
1e-07
8.2 5.49933982822018 0
0 0

0101101
*
Ed
 1e-07 1 1 0
1  4 0 0 1000
0

0101000
+313 0 -313 2 *
Ed
 1e-07 1 1 0
1  5 0 0 1.64
0

0101000
+318 0 -313 0 *
Wi

0101100
+317 0 -312 0 -311 0 +311 2 *
Fa
0  1e-07 2 0

0111000
+310 0 *
Ve
1e-07
8.2 2.84 0
0 0

0101101
*
Ed
 1e-07 1 1 0
1  6 0 0 1000
0

0101000
+308 0 -308 2 *
Ed
 1e-07 1 1 0
1  7 0 0 2.65933982822018
0

0101000
+313 0 -308 0 *
Wi

0101100
+312 0 -307 0 -306 0 +306 2 *
Fa
0  1e-07 3 0

0111000
+305 0 *
Ve
1e-07
10 4.64 0
0 0

0101101
*
Ed
 1e-07 1 1 0
1  8 0 0 1000
0

0101000
+303 0 -303 2 *
Ed
 1e-07 1 1 0
1  9 0 0 2.54558441227157
0

0101000
+308 0 -303 0 *
Wi

0101100
+307 0 -302 0 -301 0 +301 2 *
Fa
0  1e-07 4 0

0111000
+300 0 *
Ve
1e-07
10 8.5 0
0 0

0101101
*
Ed
 1e-07 1 1 0
1  10 0 0 1000
2  1 6 0 0 1000
4 G1 5 0 6 0
0

0101000
+298 0 -298 2 *
Ed
 1e-07 1 1 0
1  11 0 0 3.86
0

0101000
+303 0 -298 0 *
Wi

0101100
+302 0 -297 0 -296 0 +296 2 *
Fa
0  1e-07 5 0

0111000
+295 0 *
Ve
1e-07
8.5 10 0
0 0

0101101
*
Ed
 1e-07 1 1 0
1  12 0 0 1000
2  2 6 0 0 1000
4 G1 6 0 7 0
0

0101000
+293 0 -293 2 *
Ed
 1e-07 1 1 0
1  13 0 0 1.5707963267949
2  3 6 0 0 1.5707963267949
2  4 6 3 0 1.5707963267949
0

0101000
+298 0 -293 0 *
Wi

0101100
+297 0 -292 0 -291 0 +291 2 *
Fa
0  1e-07 6 0

0111000
+290 0 *
Ve
1e-07
4.64 10 0
0 0

0101101
*
Ed
 1e-07 1 1 0
1  14 0 0 1000
0

0101000
+288 0 -288 2 *
Ed
 1e-07 1 1 0
1  15 0 0 3.86
0

0101000
+293 0 -288 0 *
Wi

0101100
+292 0 -287 0 -286 0 +286 2 *
Fa
0  1e-07 7 0

0111000
+285 0 *
Ve
1e-07
2.84 8.2 0
0 0

0101101
*
Ed
 1e-07 1 1 0
1  16 0 0 1000
0

0101000
+283 0 -283 2 *
Ed
 1e-07 1 1 0
1  17 0 0 2.54558441227157
0

0101000
+288 0 -283 0 *
Wi

0101100
+287 0 -282 0 -281 0 +281 2 *
Fa
0  1e-07 8 0

0111000
+280 0 *
Ve
1e-07
5.49933982822018 8.2 0
0 0

0101101
*
Ed
 1e-07 1 1 0
1  18 0 0 1000
0

0101000
+278 0 -278 2 *
Ed
 1e-07 1 1 0
1  19 0 0 2.65933982822018
0

0101000
+283 0 -278 0 *
Wi

0101100
+282 0 -277 0 -276 0 +276 2 *
Fa
0  1e-07 9 0

0111000
+275 0 *
Ve
1e-07
5.49933982822018 6.56 0
0 0

0101101
*
Ed
 1e-07 1 1 0
1  20 0 0 1000
0

0101000
+273 0 -273 2 *
Ed
 1e-07 1 1 0
1  21 0 0 1.64
0

0101000
+278 0 -273 0 *
Wi

0101100
+277 0 -272 0 -271 0 +271 2 *
Fa
0  1e-07 10 0

0111000
+270 0 *
Ve
1e-07
2.84 3.90066017177982 0
0 0

0101101
*
Ed
 1e-07 1 1 0
1  22 0 0 1000
0

0101000
+268 0 -268 2 *
Ed
 1e-07 1 1 0
1  23 0 0 3.76087445202791
0

0101000
+273 0 -268 0 *
Wi

0101100
+272 0 -267 0 -266 0 +266 2 *
Fa
0  1e-07 11 0

0111000
+265 0 *
Ve
1e-07
3.90066017177982 -2.84 0
0 0

0101101
*
Ed
 1e-07 1 1 0
1  24 0 -2.84 2.84
0

0101000
+263 0 -320 0 *
Ve
1e-07
-2.84 3.90066017177982 0
0 0

0101101
*
Ed
 1e-07 1 1 0
1  25 0 -2.84 2.84
0

0101000
+268 0 -261 0 *
Ve
1e-07
-5.49933982822018 6.56 0
0 0

0101101
*
Ed
 1e-07 1 1 0
1  26 0 0 3.76087445202791
0

0101000
+261 0 -259 0 *
Ve
1e-07
-5.49933982822018 8.2 0
0 0

0101101
*
Ed
 1e-07 1 1 0
1  27 0 0 1.64
0

0101000
+259 0 -257 0 *
Ve
1e-07
-2.84 8.2 0
0 0

0101101
*
Ed
 1e-07 1 1 0
1  28 0 0 2.65933982822018
0

0101000
+257 0 -255 0 *
Ve
1e-07
-4.64 10 0
0 0

0101101
*
Ed
 1e-07 1 1 0
1  29 0 0 2.54558441227157
0

0101000
+255 0 -253 0 *
Ve
1e-07
-8.5 10 0
0 0

0101101
*
Ed
 1e-07 1 1 0
1  30 0 0 3.86
0

0101000
+253 0 -251 0 *
Ve
1e-07
-10 8.5 0
0 0

0101101
*
Ed
 1e-07 1 1 0
1  31 0 0 1.5707963267949
2  5 13 0 0 1.5707963267949
2  6 13 3 0 1.5707963267949
0

0101000
+251 0 -249 0 *
Ve
1e-07
-10 4.64 0
0 0

0101101
*
Ed
 1e-07 1 1 0
1  32 0 0 3.86
0

0101000
+249 0 -247 0 *
Ve
1e-07
-8.2 2.84 0
0 0

0101101
*
Ed
 1e-07 1 1 0
1  33 0 0 2.54558441227157
0

0101000
+247 0 -245 0 *
Ve
1e-07
-8.2 5.49933982822018 0
0 0

0101101
*
Ed
 1e-07 1 1 0
1  34 0 0 2.65933982822018
0

0101000
+245 0 -243 0 *
Ve
1e-07
-6.56 5.49933982822018 0
0 0

0101101
*
Ed
 1e-07 1 1 0
1  35 0 0 1.64
0

0101000
+243 0 -241 0 *
Ve
1e-07
-3.90066017177982 2.84 0
0 0

0101101
*
Ed
 1e-07 1 1 0
1  36 0 0 3.76087445202791
0

0101000
+241 0 -239 0 *
Ve
1e-07
-3.90066017177982 -2.84 0
0 0

0101101
*
Ed
 1e-07 1 1 0
1  37 0 -2.84 2.84
0

0101000
+239 0 -237 0 *
Ve
1e-07
-6.56 -5.49933982822018 0
0 0

0101101
*
Ed
 1e-07 1 1 0
1  38 0 0 3.76087445202791
0

0101000
+237 0 -235 0 *
Ve
1e-07
-8.2 -5.49933982822018 0
0 0

0101101
*
Ed
 1e-07 1 1 0
1  39 0 0 1.64
0

0101000
+235 0 -233 0 *
Ve
1e-07
-8.2 -2.84 0
0 0

0101101
*
Ed
 1e-07 1 1 0
1  40 0 0 2.65933982822018
0

0101000
+233 0 -231 0 *
Ve
1e-07
-10 -4.64 0
0 0

0101101
*
Ed
 1e-07 1 1 0
1  41 0 0 2.54558441227157
0

0101000
+231 0 -229 0 *
Ve
1e-07
-10 -8.5 0
0 0

0101101
*
Ed
 1e-07 1 1 0
1  42 0 0 3.86
0

0101000
+229 0 -227 0 *
Ve
1e-07
-8.5 -10 0
0 0

0101101
*
Ed
 1e-07 1 1 0
1  43 0 0 1.5707963267949
2  7 14 0 0 1.5707963267949
2  8 14 3 0 1.5707963267949
0

0101000
+227 0 -225 0 *
Ve
1e-07
-4.64 -10 0
0 0

0101101
*
Ed
 1e-07 1 1 0
1  44 0 0 3.86
0

0101000
+225 0 -223 0 *
Ve
1e-07
-2.84 -8.2 0
0 0

0101101
*
Ed
 1e-07 1 1 0
1  45 0 0 2.54558441227157
0

0101000
+223 0 -221 0 *
Ve
1e-07
-5.49933982822018 -8.2 0
0 0

0101101
*
Ed
 1e-07 1 1 0
1  46 0 0 2.65933982822018
0

0101000
+221 0 -219 0 *
Ve
1e-07
-5.49933982822018 -6.56 0
0 0

0101101
*
Ed
 1e-07 1 1 0
1  47 0 0 1.64
0

0101000
+219 0 -217 0 *
Ve
1e-07
-2.84 -3.90066017177982 0
0 0

0101101
*
Ed
 1e-07 1 1 0
1  48 0 0 3.76087445202791
0

0101000
+217 0 -215 0 *
Ve
1e-07
2.84 -3.90066017177982 0
0 0

0101101
*
Ed
 1e-07 1 1 0
1  49 0 -2.84 2.84
0

0101000
+215 0 -213 0 *
Ve
1e-07
5.49933982822018 -6.56 0
0 0

0101101
*
Ed
 1e-07 1 1 0
1  50 0 0 3.76087445202791
0

0101000
+213 0 -211 0 *
Ve
1e-07
5.49933982822018 -8.2 0
0 0

0101101
*
Ed
 1e-07 1 1 0
1  51 0 0 1.64
0

0101000
+211 0 -209 0 *
Ve
1e-07
2.84 -8.2 0
0 0

0101101
*
Ed
 1e-07 1 1 0
1  52 0 0 2.65933982822018
0

0101000
+209 0 -207 0 *
Ve
1e-07
4.64 -10 0
0 0

0101101
*
Ed
 1e-07 1 1 0
1  53 0 0 2.54558441227157
0

0101000
+207 0 -205 0 *
Ve
1e-07
8.5 -10 0
0 0

0101101
*
Ed
 1e-07 1 1 0
1  54 0 0 3.86
0

0101000
+205 0 -203 0 *
Ve
1e-07
10 -8.5 0
0 0

0101101
*
Ed
 1e-07 1 1 0
1  55 0 0 1.5707963267949
2  9 15 0 0 1.5707963267949
2  10 15 3 0 1.5707963267949
0

0101000
+203 0 -201 0 *
Ve
1e-07
10 -4.64 0
0 0

0101101
*
Ed
 1e-07 1 1 0
1  56 0 0 3.86
0

0101000
+201 0 -199 0 *
Ve
1e-07
8.2 -2.84 0
0 0

0101101
*
Ed
 1e-07 1 1 0
1  57 0 0 2.54558441227157
0

0101000
+199 0 -197 0 *
Ve
1e-07
8.2 -5.49933982822018 0
0 0

0101101
*
Ed
 1e-07 1 1 0
1  58 0 0 2.65933982822018
0

0101000
+197 0 -195 0 *
Ve
1e-07
6.56 -5.49933982822018 0
0 0

0101101
*
Ed
 1e-07 1 1 0
1  59 0 0 1.64
0

0101000
+195 0 -193 0 *
Ed
 1e-07 1 1 0
1  60 0 0 3.76087445202791
0

0101000
+193 0 -263 0 *
Wi

0101000
+262 0 +316 0 +311 0 +306 0 +301 0 +296 0 +291 0 +286 0 +281 0 +276 0 
+271 0 +266 0 +260 0 +258 0 +256 0 +254 0 +252 0 +250 0 +248 0 +246 0 
+244 0 +242 0 +240 0 +238 0 +236 0 +234 0 +232 0 +230 0 +228 0 +226 0 
+224 0 +222 0 +220 0 +218 0 +216 0 +214 0 +212 0 +210 0 +208 0 +206 0 
+204 0 +202 0 +200 0 +198 0 +196 0 +194 0 +192 0 +191 0 *
Ve
1e-07
8.2 6.56933982822018 0
0 0

0101101
*
Ve
1e-07
8.2 8.2 0
0 0

0101101
*
Ed
 1e-07 1 1 0
1  61 0 0 1.63066017177982
0

0101000
+189 0 -188 0 *
Ve
1e-07
6.56933982822018 8.2 0
0 0

0101101
*
Ed
 1e-07 1 1 0
1  62 0 0 1.63066017177982
0

0101000
+188 0 -186 0 *
Ed
 1e-07 1 1 0
1  63 0 0 2.30610173055266
0

0101000
+186 0 -189 0 *
Wi

0101100
+187 0 +185 0 +184 0 *
Ve
1e-07
-8.2 6.56933982822018 0
0 0

0101101
*
Ve
1e-07
-8.2 8.2 0
0 0

0101101
*
Ed
 1e-07 1 1 0
1  64 0 0 1.63066017177982
0

0101000
+182 0 -181 0 *
Ve
1e-07
-6.56933982822018 8.2 0
0 0

0101101
*
Ed
 1e-07 1 1 0
1  65 0 0 1.63066017177982
0

0101000
+181 0 -179 0 *
Ed
 1e-07 1 1 0
1  66 0 0 2.30610173055266
0

0101000
+179 0 -182 0 *
Wi

0101100
+180 0 +178 0 +177 0 *
Ve
1e-07
-8.2 -6.56933982822018 0
0 0

0101101
*
Ve
1e-07
-8.2 -8.2 0
0 0

0101101
*
Ed
 1e-07 1 1 0
1  67 0 0 1.63066017177982
0

0101000
+175 0 -174 0 *
Ve
1e-07
-6.56933982822018 -8.2 0
0 0

0101101
*
Ed
 1e-07 1 1 0
1  68 0 0 1.63066017177982
0

0101000
+174 0 -172 0 *
Ed
 1e-07 1 1 0
1  69 0 0 2.30610173055266
0

0101000
+172 0 -175 0 *
Wi

0101100
+173 0 +171 0 +170 0 *
Ve
1e-07
8.2 -6.56933982822018 0
0 0

0101101
*
Ve
1e-07
8.2 -8.2 0
0 0

0101101
*
Ed
 1e-07 1 1 0
1  70 0 0 1.63066017177982
0

0101000
+168 0 -167 0 *
Ve
1e-07
6.56933982822018 -8.2 0
0 0

0101101
*
Ed
 1e-07 1 1 0
1  71 0 0 1.63066017177982
0

0101000
+167 0 -165 0 *
Ed
 1e-07 1 1 0
1  72 0 0 2.30610173055266
0

0101000
+165 0 -168 0 *
Wi

0101100
+166 0 +164 0 +163 0 *
Ve
1e-07
2.1 0 0
0 0

0101101
*
Ed
 1e-07 1 1 0
1  73 0 0 6.28318530717959
2  11 16 0 0 6.28318530717959
2  12 16 3 0 6.28318530717959
0

0101000
+161 0 -161 0 *
Wi

0101100
+160 0 *
Fa
0  1e-07 12 0

0111000
+190 0 -183 0 +176 0 -169 0 +162 0 -159 0 *
Ed
 1e-07 1 1 0
1  74 0 0 1000
0

0101000
+261 0 -261 2 *
Ed
 1e-07 1 1 0
1  75 0 0 1000
0

0101000
+259 0 -259 2 *
Wi

0101100
+157 0 -156 0 -258 0 +258 2 *
Fa
0  1e-07 17 0

0111000
+155 0 *
Ed
 1e-07 1 1 0
1  76 0 0 1000
0

0101000
+257 0 -257 2 *
Wi

0101100
+156 0 -153 0 -256 0 +256 2 *
Fa
0  1e-07 18 0

0111000
+152 0 *
Ed
 1e-07 1 1 0
1  77 0 0 1000
0

0101000
+255 0 -255 2 *
Wi

0101100
+153 0 -150 0 -254 0 +254 2 *
Fa
0  1e-07 19 0

0111000
+149 0 *
Ed
 1e-07 1 1 0
1  78 0 0 1000
0

0101000
+253 0 -253 2 *
Wi

0101100
+150 0 -147 0 -252 0 +252 2 *
Fa
0  1e-07 20 0

0111000
+146 0 *
Ed
 1e-07 1 1 0
1  79 0 0 1000
2  13 13 0 0 1000
4 G1 21 0 13 0
0

0101000
+251 0 -251 2 *
Wi

0101100
+147 0 -144 0 -250 0 +250 2 *
Fa
0  1e-07 21 0

0111000
+143 0 *
Ed
 1e-07 1 1 0
1  80 0 0 1000
2  14 13 0 0 1000
4 G1 13 0 22 0
0

0101000
+249 0 -249 2 *
Wi

0101100
+144 0 -141 0 -248 0 +248 2 *
Fa
0  1e-07 13 0

0111000
+140 0 *
Ed
 1e-07 1 1 0
1  81 0 0 1000
0

0101000
+247 0 -247 2 *
Wi

0101100
+141 0 -138 0 -246 0 +246 2 *
Fa
0  1e-07 22 0

0111000
+137 0 *
Ed
 1e-07 1 1 0
1  82 0 0 1000
0

0101000
+245 0 -245 2 *
Wi

0101100
+138 0 -135 0 -244 0 +244 2 *
Fa
0  1e-07 23 0

0111000
+134 0 *
Ed
 1e-07 1 1 0
1  83 0 0 1000
0

0101000
+243 0 -243 2 *
Wi

0101100
+135 0 -132 0 -242 0 +242 2 *
Fa
0  1e-07 24 0

0111000
+131 0 *
Ed
 1e-07 1 1 0
1  84 0 0 1000
0

0101000
+241 0 -241 2 *
Wi

0101100
+132 0 -129 0 -240 0 +240 2 *
Fa
0  1e-07 25 0

0111000
+128 0 *
Ed
 1e-07 1 1 0
1  85 0 0 1000
0

0101000
+239 0 -239 2 *
Wi

0101100
+129 0 -126 0 -238 0 +238 2 *
Fa
0  1e-07 26 0

0111000
+125 0 *
Ed
 1e-07 1 1 0
1  86 0 0 1000
0

0101000
+237 0 -237 2 *
Ed
 1e-07 1 1 0
1  87 0 0 1000
0

0101000
+235 0 -235 2 *
Wi

0101100
+123 0 -122 0 -234 0 +234 2 *
Fa
0  1e-07 27 0

0111000
+121 0 *
Ed
 1e-07 1 1 0
1  88 0 0 1000
0

0101000
+233 0 -233 2 *
Wi

0101100
+122 0 -119 0 -232 0 +232 2 *
Fa
0  1e-07 28 0

0111000
+118 0 *
Ed
 1e-07 1 1 0
1  89 0 0 1000
0

0101000
+231 0 -231 2 *
Wi

0101100
+119 0 -116 0 -230 0 +230 2 *
Fa
0  1e-07 29 0

0111000
+115 0 *
Ed
 1e-07 1 1 0
1  90 0 0 1000
0

0101000
+229 0 -229 2 *
Wi

0101100
+116 0 -113 0 -228 0 +228 2 *
Fa
0  1e-07 30 0

0111000
+112 0 *
Ed
 1e-07 1 1 0
1  91 0 0 1000
2  15 14 0 0 1000
4 G1 31 0 14 0
0

0101000
+227 0 -227 2 *
Wi

0101100
+113 0 -110 0 -226 0 +226 2 *
Fa
0  1e-07 31 0

0111000
+109 0 *
Ed
 1e-07 1 1 0
1  92 0 0 1000
2  16 14 0 0 1000
4 G1 14 0 32 0
0

0101000
+225 0 -225 2 *
Wi

0101100
+110 0 -107 0 -224 0 +224 2 *
Fa
0  1e-07 14 0

0111000
+106 0 *
Ed
 1e-07 1 1 0
1  93 0 0 1000
0

0101000
+223 0 -223 2 *
Wi

0101100
+107 0 -104 0 -222 0 +222 2 *
Fa
0  1e-07 32 0

0111000
+103 0 *
Ed
 1e-07 1 1 0
1  94 0 0 1000
0

0101000
+221 0 -221 2 *
Wi

0101100
+104 0 -101 0 -220 0 +220 2 *
Fa
0  1e-07 33 0

0111000
+100 0 *
Ed
 1e-07 1 1 0
1  95 0 0 1000
0

0101000
+219 0 -219 2 *
Wi

0101100
+101 0 -98 0 -218 0 +218 2 *
Fa
0  1e-07 34 0

0111000
+97 0 *
Ed
 1e-07 1 1 0
1  96 0 0 1000
0

0101000
+217 0 -217 2 *
Wi

0101100
+98 0 -95 0 -216 0 +216 2 *
Fa
0  1e-07 35 0

0111000
+94 0 *
Ed
 1e-07 1 1 0
1  97 0 0 1000
0

0101000
+215 0 -215 2 *
Wi

0101100
+95 0 -92 0 -214 0 +214 2 *
Fa
0  1e-07 36 0

0111000
+91 0 *
Ed
 1e-07 1 1 0
1  98 0 0 1000
0

0101000
+213 0 -213 2 *
Ed
 1e-07 1 1 0
1  99 0 0 1000
0

0101000
+211 0 -211 2 *
Wi

0101100
+89 0 -88 0 -210 0 +210 2 *
Fa
0  1e-07 37 0

0111000
+87 0 *
Ed
 1e-07 1 1 0
1  100 0 0 1000
0

0101000
+209 0 -209 2 *
Wi

0101100
+88 0 -85 0 -208 0 +208 2 *
Fa
0  1e-07 38 0

0111000
+84 0 *
Ed
 1e-07 1 1 0
1  101 0 0 1000
0

0101000
+207 0 -207 2 *
Wi

0101100
+85 0 -82 0 -206 0 +206 2 *
Fa
0  1e-07 39 0

0111000
+81 0 *
Ed
 1e-07 1 1 0
1  102 0 0 1000
0

0101000
+205 0 -205 2 *
Wi

0101100
+82 0 -79 0 -204 0 +204 2 *
Fa
0  1e-07 40 0

0111000
+78 0 *
Ed
 1e-07 1 1 0
1  103 0 0 1000
2  17 15 0 0 1000
4 G1 41 0 15 0
0

0101000
+203 0 -203 2 *
Wi

0101100
+79 0 -76 0 -202 0 +202 2 *
Fa
0  1e-07 41 0

0111000
+75 0 *
Ed
 1e-07 1 1 0
1  104 0 0 1000
2  18 15 0 0 1000
4 G1 15 0 42 0
0

0101000
+201 0 -201 2 *
Wi

0101100
+76 0 -73 0 -200 0 +200 2 *
Fa
0  1e-07 15 0

0111000
+72 0 *
Ed
 1e-07 1 1 0
1  105 0 0 1000
0

0101000
+199 0 -199 2 *
Wi

0101100
+73 0 -70 0 -198 0 +198 2 *
Fa
0  1e-07 42 0

0111000
+69 0 *
Ed
 1e-07 1 1 0
1  106 0 0 1000
0

0101000
+197 0 -197 2 *
Wi

0101100
+70 0 -67 0 -196 0 +196 2 *
Fa
0  1e-07 43 0

0111000
+66 0 *
Ed
 1e-07 1 1 0
1  107 0 0 1000
0

0101000
+195 0 -195 2 *
Wi

0101100
+67 0 -64 0 -194 0 +194 2 *
Fa
0  1e-07 44 0

0111000
+63 0 *
Ed
 1e-07 1 1 0
1  108 0 0 1000
0

0101000
+193 0 -193 2 *
Wi

0101100
+64 0 -61 0 -192 0 +192 2 *
Fa
0  1e-07 45 0

0111000
+60 0 *
Ed
 1e-07 1 1 0
1  109 0 0 1000
0

0101000
+263 0 -263 2 *
Wi

0101100
+61 0 -58 0 -191 0 +191 2 *
Fa
0  1e-07 46 0

0111000
+57 0 *
Ed
 1e-07 1 1 0
1  110 0 0 1000
0

0101000
+189 0 -189 2 *
Ed
 1e-07 1 1 0
1  111 0 0 1000
0

0101000
+188 0 -188 2 *
Wi

0101100
+55 0 -54 0 -187 0 +187 2 *
Fa
0  1e-07 47 0

0111000
+53 0 *
Ed
 1e-07 1 1 0
1  112 0 0 1000
0

0101000
+186 0 -186 2 *
Wi

0101100
+54 0 -51 0 -185 0 +185 2 *
Fa
0  1e-07 48 0

0111000
+50 0 *
Wi

0101100
+51 0 -55 0 -184 0 +184 2 *
Fa
0  1e-07 49 0

0111000
+48 0 *
Ed
 1e-07 1 1 0
1  113 0 0 1000
0

0101000
+182 0 -182 2 *
Ed
 1e-07 1 1 0
1  114 0 0 1000
0

0101000
+181 0 -181 2 *
Wi

0101100
+46 0 -45 0 -180 0 +180 2 *
Fa
0  1e-07 50 0

0111000
+44 0 *
Ed
 1e-07 1 1 0
1  115 0 0 1000
0

0101000
+179 0 -179 2 *
Wi

0101100
+45 0 -42 0 -178 0 +178 2 *
Fa
0  1e-07 51 0

0111000
+41 0 *
Wi

0101100
+42 0 -46 0 -177 0 +177 2 *
Fa
0  1e-07 52 0

0111000
+39 0 *
Ed
 1e-07 1 1 0
1  116 0 0 1000
0

0101000
+175 0 -175 2 *
Ed
 1e-07 1 1 0
1  117 0 0 1000
0

0101000
+174 0 -174 2 *
Wi

0101100
+37 0 -36 0 -173 0 +173 2 *
Fa
0  1e-07 53 0

0111000
+35 0 *
Ed
 1e-07 1 1 0
1  118 0 0 1000
0

0101000
+172 0 -172 2 *
Wi

0101100
+36 0 -33 0 -171 0 +171 2 *
Fa
0  1e-07 54 0

0111000
+32 0 *
Wi

0101100
+33 0 -37 0 -170 0 +170 2 *
Fa
0  1e-07 55 0

0111000
+30 0 *
Ed
 1e-07 1 1 0
1  119 0 0 1000
0

0101000
+168 0 -168 2 *
Ed
 1e-07 1 1 0
1  120 0 0 1000
0

0101000
+167 0 -167 2 *
Wi

0101100
+28 0 -27 0 -166 0 +166 2 *
Fa
0  1e-07 56 0

0111000
+26 0 *
Ed
 1e-07 1 1 0
1  121 0 0 1000
0

0101000
+165 0 -165 2 *
Wi

0101100
+27 0 -24 0 -164 0 +164 2 *
Fa
0  1e-07 57 0

0111000
+23 0 *
Wi

0101100
+24 0 -28 0 -163 0 +163 2 *
Fa
0  1e-07 58 0

0111000
+21 0 *
Ed
 1e-07 1 1 0
1  122 0 0 1000
3  19 20CN 16 0 0 1000
0

0101000
+161 0 -161 2 *
Wi

0101100
+19 0 -19 0 -160 0 +160 2 *
Fa
0  1e-07 16 0

0111000
+18 0 *
Ed
 1e-07 1 1 0
1  123 0 0 5.68
0

0101000
+268 2 -261 2 *
Ed
 1e-07 1 1 0
1  124 0 0 5.68
0

0101000
+239 2 -237 2 *
Ed
 1e-07 1 1 0
1  125 0 0 5.68
0

0101000
+215 2 -213 2 *
Ed
 1e-07 1 1 0
1  126 0 0 5.68
0

0101000
+263 2 -320 2 *
Wi

0101000
+316 0 +311 0 +306 0 +301 0 +296 0 +291 0 +286 0 +281 0 +276 0 +271 0 
+266 0 +16 3 +258 0 +256 0 +254 0 +252 0 +250 0 +248 0 +246 0 +244 0 
+242 0 +240 0 +238 0 +15 3 +234 0 +232 0 +230 0 +228 0 +226 0 +224 0 
+222 0 +220 0 +218 0 +216 0 +214 0 +14 3 +210 0 +208 0 +206 0 +204 0 
+202 0 +200 0 +198 0 +196 0 +194 0 +192 0 +191 0 +13 3 *
Fa
0  1e-07 12 0

0111000
+12 0 -183 0 +176 0 -169 0 +162 0 -159 0 *
Wi

0101000
+319 0 -13 0 -58 0 +262 0 *
Fa
0  1e-07 59 0

0111000
+10 0 *
Wi

0101000
-267 0 +260 0 +157 0 -16 0 *
Fa
0  1e-07 60 0

0111000
+8 0 *
Wi

0101000
-126 0 +236 0 +123 0 -15 0 *
Fa
0  1e-07 61 0

0111000
+6 0 *
Wi

0101000
-92 0 +212 0 +89 0 -14 0 *
Fa
0  1e-07 62 0

0111000
+4 0 *
Sh

0101000
-314 0 -309 0 -304 0 -299 0 -294 0 -289 0 -284 0 -279 0 -274 0 -269 0 
-264 0 -158 0 -154 0 -151 0 -148 0 -145 0 -142 0 -139 0 -136 0 -133 0 
-130 0 -127 0 -124 0 -120 0 -117 0 -114 0 -111 0 -108 0 -105 0 -102 0 
-99 0 -96 0 -93 0 -90 0 -86 0 -83 0 -80 0 -77 0 -74 0 -71 0 
-68 0 -65 0 -62 0 -59 0 -56 0 +52 0 +49 0 +47 0 -43 0 -40 0 
-38 0 +34 0 +31 0 +29 0 -25 0 -22 0 -20 0 +17 0 +11 2 +9 0 
+7 0 +5 0 +3 0 *
So

1100000
+2 0 *

+1 1 