G04 #@! TF.GenerationSoftware,KiCad,Pcbnew,(5.0.1-3-g963ef8bb5)*
G04 #@! TF.CreationDate,2019-10-11T12:22:28+03:00*
G04 #@! TF.ProjectId,thermocontrol,746865726D6F636F6E74726F6C2E6B69,rev?*
G04 #@! TF.SameCoordinates,Original*
G04 #@! TF.FileFunction,Legend,Bot*
G04 #@! TF.FilePolarity,Positive*
%FSLAX46Y46*%
G04 Gerber Fmt 4.6, Leading zero omitted, Abs format (unit mm)*
G04 Created by KiCad (PCBNEW (5.0.1-3-g963ef8bb5)) date 2019 October 11, Friday 12:22:28*
%MOMM*%
%LPD*%
G01*
G04 APERTURE LIST*
%ADD10C,0.120000*%
%ADD11C,0.150000*%
G04 APERTURE END LIST*
D10*
G04 #@! TO.C,R6*
X183256422Y-57860000D02*
X183773578Y-57860000D01*
X183256422Y-56440000D02*
X183773578Y-56440000D01*
G04 #@! TO.C,D_E3*
X203470000Y-24440000D02*
X206155000Y-24440000D01*
X206155000Y-24440000D02*
X206155000Y-26360000D01*
X206155000Y-26360000D02*
X203470000Y-26360000D01*
G04 #@! TO.C,D_E2*
X190915000Y-26360000D02*
X188230000Y-26360000D01*
X190915000Y-24440000D02*
X190915000Y-26360000D01*
X188230000Y-24440000D02*
X190915000Y-24440000D01*
G04 #@! TO.C,D_E1*
X173322000Y-24440000D02*
X176007000Y-24440000D01*
X176007000Y-24440000D02*
X176007000Y-26360000D01*
X176007000Y-26360000D02*
X173322000Y-26360000D01*
G04 #@! TO.C,R7*
X169589422Y-26110000D02*
X170106578Y-26110000D01*
X169589422Y-24690000D02*
X170106578Y-24690000D01*
G04 #@! TO.C,R8*
X184829422Y-24690000D02*
X185346578Y-24690000D01*
X184829422Y-26110000D02*
X185346578Y-26110000D01*
G04 #@! TO.C,R9*
X199766422Y-26110000D02*
X200283578Y-26110000D01*
X199766422Y-24690000D02*
X200283578Y-24690000D01*
G04 #@! TO.C,C1*
X209475000Y-68321422D02*
X209475000Y-68838578D01*
X210895000Y-68321422D02*
X210895000Y-68838578D01*
G04 #@! TO.C,C2*
X195020000Y-68653922D02*
X195020000Y-69171078D01*
X193600000Y-68653922D02*
X193600000Y-69171078D01*
G04 #@! TO.C,C3*
X189155000Y-68653922D02*
X189155000Y-69171078D01*
X190575000Y-68653922D02*
X190575000Y-69171078D01*
G04 #@! TO.C,D1*
X223155000Y-24440000D02*
X225840000Y-24440000D01*
X225840000Y-24440000D02*
X225840000Y-26360000D01*
X225840000Y-26360000D02*
X223155000Y-26360000D01*
G04 #@! TO.C,D_5V1*
X228235000Y-24440000D02*
X230920000Y-24440000D01*
X230920000Y-24440000D02*
X230920000Y-26360000D01*
X230920000Y-26360000D02*
X228235000Y-26360000D01*
D11*
G04 #@! TO.C,U1*
X199990000Y-65235000D02*
X200040000Y-65235000D01*
X199990000Y-69385000D02*
X200135000Y-69385000D01*
X205140000Y-69385000D02*
X204995000Y-69385000D01*
X205140000Y-65235000D02*
X204995000Y-65235000D01*
X199990000Y-65235000D02*
X199990000Y-69385000D01*
X205140000Y-65235000D02*
X205140000Y-69385000D01*
X200040000Y-65235000D02*
X200040000Y-63835000D01*
D10*
G04 #@! TO.C,R1*
X210895000Y-64208922D02*
X210895000Y-64726078D01*
X209475000Y-64208922D02*
X209475000Y-64726078D01*
G04 #@! TO.C,R2*
X193600000Y-64511422D02*
X193600000Y-65028578D01*
X195020000Y-64511422D02*
X195020000Y-65028578D01*
G04 #@! TO.C,R3*
X190575000Y-64511422D02*
X190575000Y-65028578D01*
X189155000Y-64511422D02*
X189155000Y-65028578D01*
G04 #@! TO.C,R4*
X229310000Y-30103578D02*
X229310000Y-29586422D01*
X227890000Y-30103578D02*
X227890000Y-29586422D01*
G04 #@! TO.C,R5*
X222810000Y-30103578D02*
X222810000Y-29586422D01*
X224230000Y-30103578D02*
X224230000Y-29586422D01*
G04 #@! TO.C,R6*
D11*
X183681666Y-56078380D02*
X184015000Y-55602190D01*
X184253095Y-56078380D02*
X184253095Y-55078380D01*
X183872142Y-55078380D01*
X183776904Y-55126000D01*
X183729285Y-55173619D01*
X183681666Y-55268857D01*
X183681666Y-55411714D01*
X183729285Y-55506952D01*
X183776904Y-55554571D01*
X183872142Y-55602190D01*
X184253095Y-55602190D01*
X182824523Y-55078380D02*
X183015000Y-55078380D01*
X183110238Y-55126000D01*
X183157857Y-55173619D01*
X183253095Y-55316476D01*
X183300714Y-55506952D01*
X183300714Y-55887904D01*
X183253095Y-55983142D01*
X183205476Y-56030761D01*
X183110238Y-56078380D01*
X182919761Y-56078380D01*
X182824523Y-56030761D01*
X182776904Y-55983142D01*
X182729285Y-55887904D01*
X182729285Y-55649809D01*
X182776904Y-55554571D01*
X182824523Y-55506952D01*
X182919761Y-55459333D01*
X183110238Y-55459333D01*
X183205476Y-55506952D01*
X183253095Y-55554571D01*
X183300714Y-55649809D01*
G04 #@! TO.C,D_E3*
X206041428Y-24202380D02*
X206041428Y-23202380D01*
X205803333Y-23202380D01*
X205660476Y-23250000D01*
X205565238Y-23345238D01*
X205517619Y-23440476D01*
X205470000Y-23630952D01*
X205470000Y-23773809D01*
X205517619Y-23964285D01*
X205565238Y-24059523D01*
X205660476Y-24154761D01*
X205803333Y-24202380D01*
X206041428Y-24202380D01*
X205279523Y-24297619D02*
X204517619Y-24297619D01*
X204279523Y-23678571D02*
X203946190Y-23678571D01*
X203803333Y-24202380D02*
X204279523Y-24202380D01*
X204279523Y-23202380D01*
X203803333Y-23202380D01*
X203470000Y-23202380D02*
X202850952Y-23202380D01*
X203184285Y-23583333D01*
X203041428Y-23583333D01*
X202946190Y-23630952D01*
X202898571Y-23678571D01*
X202850952Y-23773809D01*
X202850952Y-24011904D01*
X202898571Y-24107142D01*
X202946190Y-24154761D01*
X203041428Y-24202380D01*
X203327142Y-24202380D01*
X203422380Y-24154761D01*
X203470000Y-24107142D01*
G04 #@! TO.C,D_E2*
X190801428Y-24202380D02*
X190801428Y-23202380D01*
X190563333Y-23202380D01*
X190420476Y-23250000D01*
X190325238Y-23345238D01*
X190277619Y-23440476D01*
X190230000Y-23630952D01*
X190230000Y-23773809D01*
X190277619Y-23964285D01*
X190325238Y-24059523D01*
X190420476Y-24154761D01*
X190563333Y-24202380D01*
X190801428Y-24202380D01*
X190039523Y-24297619D02*
X189277619Y-24297619D01*
X189039523Y-23678571D02*
X188706190Y-23678571D01*
X188563333Y-24202380D02*
X189039523Y-24202380D01*
X189039523Y-23202380D01*
X188563333Y-23202380D01*
X188182380Y-23297619D02*
X188134761Y-23250000D01*
X188039523Y-23202380D01*
X187801428Y-23202380D01*
X187706190Y-23250000D01*
X187658571Y-23297619D01*
X187610952Y-23392857D01*
X187610952Y-23488095D01*
X187658571Y-23630952D01*
X188230000Y-24202380D01*
X187610952Y-24202380D01*
G04 #@! TO.C,D_E1*
X175893428Y-24202380D02*
X175893428Y-23202380D01*
X175655333Y-23202380D01*
X175512476Y-23250000D01*
X175417238Y-23345238D01*
X175369619Y-23440476D01*
X175322000Y-23630952D01*
X175322000Y-23773809D01*
X175369619Y-23964285D01*
X175417238Y-24059523D01*
X175512476Y-24154761D01*
X175655333Y-24202380D01*
X175893428Y-24202380D01*
X175131523Y-24297619D02*
X174369619Y-24297619D01*
X174131523Y-23678571D02*
X173798190Y-23678571D01*
X173655333Y-24202380D02*
X174131523Y-24202380D01*
X174131523Y-23202380D01*
X173655333Y-23202380D01*
X172702952Y-24202380D02*
X173274380Y-24202380D01*
X172988666Y-24202380D02*
X172988666Y-23202380D01*
X173083904Y-23345238D01*
X173179142Y-23440476D01*
X173274380Y-23488095D01*
G04 #@! TO.C,R7*
X169838666Y-24328380D02*
X170172000Y-23852190D01*
X170410095Y-24328380D02*
X170410095Y-23328380D01*
X170029142Y-23328380D01*
X169933904Y-23376000D01*
X169886285Y-23423619D01*
X169838666Y-23518857D01*
X169838666Y-23661714D01*
X169886285Y-23756952D01*
X169933904Y-23804571D01*
X170029142Y-23852190D01*
X170410095Y-23852190D01*
X169505333Y-23328380D02*
X168838666Y-23328380D01*
X169267238Y-24328380D01*
G04 #@! TO.C,R8*
X185254666Y-24328380D02*
X185588000Y-23852190D01*
X185826095Y-24328380D02*
X185826095Y-23328380D01*
X185445142Y-23328380D01*
X185349904Y-23376000D01*
X185302285Y-23423619D01*
X185254666Y-23518857D01*
X185254666Y-23661714D01*
X185302285Y-23756952D01*
X185349904Y-23804571D01*
X185445142Y-23852190D01*
X185826095Y-23852190D01*
X184683238Y-23756952D02*
X184778476Y-23709333D01*
X184826095Y-23661714D01*
X184873714Y-23566476D01*
X184873714Y-23518857D01*
X184826095Y-23423619D01*
X184778476Y-23376000D01*
X184683238Y-23328380D01*
X184492761Y-23328380D01*
X184397523Y-23376000D01*
X184349904Y-23423619D01*
X184302285Y-23518857D01*
X184302285Y-23566476D01*
X184349904Y-23661714D01*
X184397523Y-23709333D01*
X184492761Y-23756952D01*
X184683238Y-23756952D01*
X184778476Y-23804571D01*
X184826095Y-23852190D01*
X184873714Y-23947428D01*
X184873714Y-24137904D01*
X184826095Y-24233142D01*
X184778476Y-24280761D01*
X184683238Y-24328380D01*
X184492761Y-24328380D01*
X184397523Y-24280761D01*
X184349904Y-24233142D01*
X184302285Y-24137904D01*
X184302285Y-23947428D01*
X184349904Y-23852190D01*
X184397523Y-23804571D01*
X184492761Y-23756952D01*
G04 #@! TO.C,R9*
X200191666Y-24074380D02*
X200525000Y-23598190D01*
X200763095Y-24074380D02*
X200763095Y-23074380D01*
X200382142Y-23074380D01*
X200286904Y-23122000D01*
X200239285Y-23169619D01*
X200191666Y-23264857D01*
X200191666Y-23407714D01*
X200239285Y-23502952D01*
X200286904Y-23550571D01*
X200382142Y-23598190D01*
X200763095Y-23598190D01*
X199715476Y-24074380D02*
X199525000Y-24074380D01*
X199429761Y-24026761D01*
X199382142Y-23979142D01*
X199286904Y-23836285D01*
X199239285Y-23645809D01*
X199239285Y-23264857D01*
X199286904Y-23169619D01*
X199334523Y-23122000D01*
X199429761Y-23074380D01*
X199620238Y-23074380D01*
X199715476Y-23122000D01*
X199763095Y-23169619D01*
X199810714Y-23264857D01*
X199810714Y-23502952D01*
X199763095Y-23598190D01*
X199715476Y-23645809D01*
X199620238Y-23693428D01*
X199429761Y-23693428D01*
X199334523Y-23645809D01*
X199286904Y-23598190D01*
X199239285Y-23502952D01*
G04 #@! TO.C,C1*
X208892142Y-68413333D02*
X208939761Y-68365714D01*
X208987380Y-68222857D01*
X208987380Y-68127619D01*
X208939761Y-67984761D01*
X208844523Y-67889523D01*
X208749285Y-67841904D01*
X208558809Y-67794285D01*
X208415952Y-67794285D01*
X208225476Y-67841904D01*
X208130238Y-67889523D01*
X208035000Y-67984761D01*
X207987380Y-68127619D01*
X207987380Y-68222857D01*
X208035000Y-68365714D01*
X208082619Y-68413333D01*
X208987380Y-69365714D02*
X208987380Y-68794285D01*
X208987380Y-69080000D02*
X207987380Y-69080000D01*
X208130238Y-68984761D01*
X208225476Y-68889523D01*
X208273095Y-68794285D01*
G04 #@! TO.C,C2*
X193017142Y-68745833D02*
X193064761Y-68698214D01*
X193112380Y-68555357D01*
X193112380Y-68460119D01*
X193064761Y-68317261D01*
X192969523Y-68222023D01*
X192874285Y-68174404D01*
X192683809Y-68126785D01*
X192540952Y-68126785D01*
X192350476Y-68174404D01*
X192255238Y-68222023D01*
X192160000Y-68317261D01*
X192112380Y-68460119D01*
X192112380Y-68555357D01*
X192160000Y-68698214D01*
X192207619Y-68745833D01*
X192207619Y-69126785D02*
X192160000Y-69174404D01*
X192112380Y-69269642D01*
X192112380Y-69507738D01*
X192160000Y-69602976D01*
X192207619Y-69650595D01*
X192302857Y-69698214D01*
X192398095Y-69698214D01*
X192540952Y-69650595D01*
X193112380Y-69079166D01*
X193112380Y-69698214D01*
G04 #@! TO.C,C3*
X188572142Y-68745833D02*
X188619761Y-68698214D01*
X188667380Y-68555357D01*
X188667380Y-68460119D01*
X188619761Y-68317261D01*
X188524523Y-68222023D01*
X188429285Y-68174404D01*
X188238809Y-68126785D01*
X188095952Y-68126785D01*
X187905476Y-68174404D01*
X187810238Y-68222023D01*
X187715000Y-68317261D01*
X187667380Y-68460119D01*
X187667380Y-68555357D01*
X187715000Y-68698214D01*
X187762619Y-68745833D01*
X187667380Y-69079166D02*
X187667380Y-69698214D01*
X188048333Y-69364880D01*
X188048333Y-69507738D01*
X188095952Y-69602976D01*
X188143571Y-69650595D01*
X188238809Y-69698214D01*
X188476904Y-69698214D01*
X188572142Y-69650595D01*
X188619761Y-69602976D01*
X188667380Y-69507738D01*
X188667380Y-69222023D01*
X188619761Y-69126785D01*
X188572142Y-69079166D01*
G04 #@! TO.C,D1*
X224893095Y-24202380D02*
X224893095Y-23202380D01*
X224655000Y-23202380D01*
X224512142Y-23250000D01*
X224416904Y-23345238D01*
X224369285Y-23440476D01*
X224321666Y-23630952D01*
X224321666Y-23773809D01*
X224369285Y-23964285D01*
X224416904Y-24059523D01*
X224512142Y-24154761D01*
X224655000Y-24202380D01*
X224893095Y-24202380D01*
X223369285Y-24202380D02*
X223940714Y-24202380D01*
X223655000Y-24202380D02*
X223655000Y-23202380D01*
X223750238Y-23345238D01*
X223845476Y-23440476D01*
X223940714Y-23488095D01*
G04 #@! TO.C,D_5V1*
X231258809Y-24202380D02*
X231258809Y-23202380D01*
X231020714Y-23202380D01*
X230877857Y-23250000D01*
X230782619Y-23345238D01*
X230735000Y-23440476D01*
X230687380Y-23630952D01*
X230687380Y-23773809D01*
X230735000Y-23964285D01*
X230782619Y-24059523D01*
X230877857Y-24154761D01*
X231020714Y-24202380D01*
X231258809Y-24202380D01*
X230496904Y-24297619D02*
X229735000Y-24297619D01*
X229020714Y-23202380D02*
X229496904Y-23202380D01*
X229544523Y-23678571D01*
X229496904Y-23630952D01*
X229401666Y-23583333D01*
X229163571Y-23583333D01*
X229068333Y-23630952D01*
X229020714Y-23678571D01*
X228973095Y-23773809D01*
X228973095Y-24011904D01*
X229020714Y-24107142D01*
X229068333Y-24154761D01*
X229163571Y-24202380D01*
X229401666Y-24202380D01*
X229496904Y-24154761D01*
X229544523Y-24107142D01*
X228687380Y-23202380D02*
X228354047Y-24202380D01*
X228020714Y-23202380D01*
X227163571Y-24202380D02*
X227735000Y-24202380D01*
X227449285Y-24202380D02*
X227449285Y-23202380D01*
X227544523Y-23345238D01*
X227639761Y-23440476D01*
X227735000Y-23488095D01*
G04 #@! TO.C,U1*
X198517380Y-66548095D02*
X199326904Y-66548095D01*
X199422142Y-66595714D01*
X199469761Y-66643333D01*
X199517380Y-66738571D01*
X199517380Y-66929047D01*
X199469761Y-67024285D01*
X199422142Y-67071904D01*
X199326904Y-67119523D01*
X198517380Y-67119523D01*
X199517380Y-68119523D02*
X199517380Y-67548095D01*
X199517380Y-67833809D02*
X198517380Y-67833809D01*
X198660238Y-67738571D01*
X198755476Y-67643333D01*
X198803095Y-67548095D01*
G04 #@! TO.C,R1*
X208987380Y-64300833D02*
X208511190Y-63967500D01*
X208987380Y-63729404D02*
X207987380Y-63729404D01*
X207987380Y-64110357D01*
X208035000Y-64205595D01*
X208082619Y-64253214D01*
X208177857Y-64300833D01*
X208320714Y-64300833D01*
X208415952Y-64253214D01*
X208463571Y-64205595D01*
X208511190Y-64110357D01*
X208511190Y-63729404D01*
X208987380Y-65253214D02*
X208987380Y-64681785D01*
X208987380Y-64967500D02*
X207987380Y-64967500D01*
X208130238Y-64872261D01*
X208225476Y-64777023D01*
X208273095Y-64681785D01*
G04 #@! TO.C,R2*
X193112380Y-64603333D02*
X192636190Y-64270000D01*
X193112380Y-64031904D02*
X192112380Y-64031904D01*
X192112380Y-64412857D01*
X192160000Y-64508095D01*
X192207619Y-64555714D01*
X192302857Y-64603333D01*
X192445714Y-64603333D01*
X192540952Y-64555714D01*
X192588571Y-64508095D01*
X192636190Y-64412857D01*
X192636190Y-64031904D01*
X192207619Y-64984285D02*
X192160000Y-65031904D01*
X192112380Y-65127142D01*
X192112380Y-65365238D01*
X192160000Y-65460476D01*
X192207619Y-65508095D01*
X192302857Y-65555714D01*
X192398095Y-65555714D01*
X192540952Y-65508095D01*
X193112380Y-64936666D01*
X193112380Y-65555714D01*
G04 #@! TO.C,R3*
X188667380Y-64603333D02*
X188191190Y-64270000D01*
X188667380Y-64031904D02*
X187667380Y-64031904D01*
X187667380Y-64412857D01*
X187715000Y-64508095D01*
X187762619Y-64555714D01*
X187857857Y-64603333D01*
X188000714Y-64603333D01*
X188095952Y-64555714D01*
X188143571Y-64508095D01*
X188191190Y-64412857D01*
X188191190Y-64031904D01*
X187667380Y-64936666D02*
X187667380Y-65555714D01*
X188048333Y-65222380D01*
X188048333Y-65365238D01*
X188095952Y-65460476D01*
X188143571Y-65508095D01*
X188238809Y-65555714D01*
X188476904Y-65555714D01*
X188572142Y-65508095D01*
X188619761Y-65460476D01*
X188667380Y-65365238D01*
X188667380Y-65079523D01*
X188619761Y-64984285D01*
X188572142Y-64936666D01*
G04 #@! TO.C,R4*
X230702380Y-29678333D02*
X230226190Y-29345000D01*
X230702380Y-29106904D02*
X229702380Y-29106904D01*
X229702380Y-29487857D01*
X229750000Y-29583095D01*
X229797619Y-29630714D01*
X229892857Y-29678333D01*
X230035714Y-29678333D01*
X230130952Y-29630714D01*
X230178571Y-29583095D01*
X230226190Y-29487857D01*
X230226190Y-29106904D01*
X230035714Y-30535476D02*
X230702380Y-30535476D01*
X229654761Y-30297380D02*
X230369047Y-30059285D01*
X230369047Y-30678333D01*
G04 #@! TO.C,R5*
X225622380Y-29678333D02*
X225146190Y-29345000D01*
X225622380Y-29106904D02*
X224622380Y-29106904D01*
X224622380Y-29487857D01*
X224670000Y-29583095D01*
X224717619Y-29630714D01*
X224812857Y-29678333D01*
X224955714Y-29678333D01*
X225050952Y-29630714D01*
X225098571Y-29583095D01*
X225146190Y-29487857D01*
X225146190Y-29106904D01*
X224622380Y-30583095D02*
X224622380Y-30106904D01*
X225098571Y-30059285D01*
X225050952Y-30106904D01*
X225003333Y-30202142D01*
X225003333Y-30440238D01*
X225050952Y-30535476D01*
X225098571Y-30583095D01*
X225193809Y-30630714D01*
X225431904Y-30630714D01*
X225527142Y-30583095D01*
X225574761Y-30535476D01*
X225622380Y-30440238D01*
X225622380Y-30202142D01*
X225574761Y-30106904D01*
X225527142Y-30059285D01*
G04 #@! TD*
M02*
