G04 #@! TF.GenerationSoftware,KiCad,Pcbnew,(5.0.1-3-g963ef8bb5)*
G04 #@! TF.CreationDate,2019-10-11T12:22:28+03:00*
G04 #@! TF.ProjectId,thermocontrol,746865726D6F636F6E74726F6C2E6B69,rev?*
G04 #@! TF.SameCoordinates,Original*
G04 #@! TF.FileFunction,Soldermask,Top*
G04 #@! TF.FilePolarity,Negative*
%FSLAX46Y46*%
G04 Gerber Fmt 4.6, Leading zero omitted, Abs format (unit mm)*
G04 Created by KiCad (PCBNEW (5.0.1-3-g963ef8bb5)) date 2019 October 11, Friday 12:22:28*
%MOMM*%
%LPD*%
G01*
G04 APERTURE LIST*
%ADD10C,0.100000*%
G04 APERTURE END LIST*
D10*
G36*
X235506202Y-72768781D02*
X235781606Y-72823562D01*
X236300455Y-73038476D01*
X236544624Y-73201625D01*
X236767410Y-73350486D01*
X237164514Y-73747590D01*
X237164516Y-73747593D01*
X237476524Y-74214545D01*
X237691438Y-74733394D01*
X237801000Y-75284201D01*
X237801000Y-75845799D01*
X237691438Y-76396606D01*
X237476524Y-76915455D01*
X237166620Y-77379259D01*
X237164514Y-77382410D01*
X236767410Y-77779514D01*
X236767407Y-77779516D01*
X236300455Y-78091524D01*
X235781606Y-78306438D01*
X235506202Y-78361219D01*
X235230800Y-78416000D01*
X234669200Y-78416000D01*
X234393798Y-78361219D01*
X234118394Y-78306438D01*
X233599545Y-78091524D01*
X233132593Y-77779516D01*
X233132590Y-77779514D01*
X232735486Y-77382410D01*
X232733380Y-77379259D01*
X232423476Y-76915455D01*
X232208562Y-76396606D01*
X232099000Y-75845799D01*
X232099000Y-75284201D01*
X232208562Y-74733394D01*
X232423476Y-74214545D01*
X232735484Y-73747593D01*
X232735486Y-73747590D01*
X233132590Y-73350486D01*
X233355376Y-73201625D01*
X233599545Y-73038476D01*
X234118394Y-72823562D01*
X234393798Y-72768781D01*
X234669200Y-72714000D01*
X235230800Y-72714000D01*
X235506202Y-72768781D01*
X235506202Y-72768781D01*
G37*
G36*
X163116202Y-72768781D02*
X163391606Y-72823562D01*
X163910455Y-73038476D01*
X164154624Y-73201625D01*
X164377410Y-73350486D01*
X164774514Y-73747590D01*
X164774516Y-73747593D01*
X165086524Y-74214545D01*
X165301438Y-74733394D01*
X165411000Y-75284201D01*
X165411000Y-75845799D01*
X165301438Y-76396606D01*
X165086524Y-76915455D01*
X164776620Y-77379259D01*
X164774514Y-77382410D01*
X164377410Y-77779514D01*
X164377407Y-77779516D01*
X163910455Y-78091524D01*
X163391606Y-78306438D01*
X163116202Y-78361219D01*
X162840800Y-78416000D01*
X162279200Y-78416000D01*
X162003798Y-78361219D01*
X161728394Y-78306438D01*
X161209545Y-78091524D01*
X160742593Y-77779516D01*
X160742590Y-77779514D01*
X160345486Y-77382410D01*
X160343380Y-77379259D01*
X160033476Y-76915455D01*
X159818562Y-76396606D01*
X159709000Y-75845799D01*
X159709000Y-75284201D01*
X159818562Y-74733394D01*
X160033476Y-74214545D01*
X160345484Y-73747593D01*
X160345486Y-73747590D01*
X160742590Y-73350486D01*
X160965376Y-73201625D01*
X161209545Y-73038476D01*
X161728394Y-72823562D01*
X162003798Y-72768781D01*
X162279200Y-72714000D01*
X162840800Y-72714000D01*
X163116202Y-72768781D01*
X163116202Y-72768781D01*
G37*
G36*
X223630442Y-74670518D02*
X223696627Y-74677037D01*
X223809853Y-74711384D01*
X223866467Y-74728557D01*
X223968774Y-74783242D01*
X224022991Y-74812222D01*
X224058729Y-74841552D01*
X224160186Y-74924814D01*
X224243448Y-75026271D01*
X224272778Y-75062009D01*
X224272779Y-75062011D01*
X224356443Y-75218533D01*
X224356443Y-75218534D01*
X224407963Y-75388373D01*
X224425359Y-75565000D01*
X224407963Y-75741627D01*
X224373616Y-75854853D01*
X224356443Y-75911467D01*
X224282348Y-76050087D01*
X224272778Y-76067991D01*
X224243448Y-76103729D01*
X224160186Y-76205186D01*
X224062358Y-76285470D01*
X224022991Y-76317778D01*
X224022989Y-76317779D01*
X223866467Y-76401443D01*
X223809853Y-76418616D01*
X223696627Y-76452963D01*
X223630443Y-76459481D01*
X223564260Y-76466000D01*
X223475740Y-76466000D01*
X223409557Y-76459481D01*
X223343373Y-76452963D01*
X223230147Y-76418616D01*
X223173533Y-76401443D01*
X223017011Y-76317779D01*
X223017009Y-76317778D01*
X222977642Y-76285470D01*
X222879814Y-76205186D01*
X222796552Y-76103729D01*
X222767222Y-76067991D01*
X222757652Y-76050087D01*
X222683557Y-75911467D01*
X222666384Y-75854853D01*
X222632037Y-75741627D01*
X222614641Y-75565000D01*
X222632037Y-75388373D01*
X222683557Y-75218534D01*
X222683557Y-75218533D01*
X222767221Y-75062011D01*
X222767222Y-75062009D01*
X222796552Y-75026271D01*
X222879814Y-74924814D01*
X222981271Y-74841552D01*
X223017009Y-74812222D01*
X223071226Y-74783242D01*
X223173533Y-74728557D01*
X223230147Y-74711384D01*
X223343373Y-74677037D01*
X223409558Y-74670518D01*
X223475740Y-74664000D01*
X223564260Y-74664000D01*
X223630442Y-74670518D01*
X223630442Y-74670518D01*
G37*
G36*
X226170442Y-74670518D02*
X226236627Y-74677037D01*
X226349853Y-74711384D01*
X226406467Y-74728557D01*
X226508774Y-74783242D01*
X226562991Y-74812222D01*
X226598729Y-74841552D01*
X226700186Y-74924814D01*
X226783448Y-75026271D01*
X226812778Y-75062009D01*
X226812779Y-75062011D01*
X226896443Y-75218533D01*
X226896443Y-75218534D01*
X226947963Y-75388373D01*
X226965359Y-75565000D01*
X226947963Y-75741627D01*
X226913616Y-75854853D01*
X226896443Y-75911467D01*
X226822348Y-76050087D01*
X226812778Y-76067991D01*
X226783448Y-76103729D01*
X226700186Y-76205186D01*
X226602358Y-76285470D01*
X226562991Y-76317778D01*
X226562989Y-76317779D01*
X226406467Y-76401443D01*
X226349853Y-76418616D01*
X226236627Y-76452963D01*
X226170443Y-76459481D01*
X226104260Y-76466000D01*
X226015740Y-76466000D01*
X225949557Y-76459481D01*
X225883373Y-76452963D01*
X225770147Y-76418616D01*
X225713533Y-76401443D01*
X225557011Y-76317779D01*
X225557009Y-76317778D01*
X225517642Y-76285470D01*
X225419814Y-76205186D01*
X225336552Y-76103729D01*
X225307222Y-76067991D01*
X225297652Y-76050087D01*
X225223557Y-75911467D01*
X225206384Y-75854853D01*
X225172037Y-75741627D01*
X225154641Y-75565000D01*
X225172037Y-75388373D01*
X225223557Y-75218534D01*
X225223557Y-75218533D01*
X225307221Y-75062011D01*
X225307222Y-75062009D01*
X225336552Y-75026271D01*
X225419814Y-74924814D01*
X225521271Y-74841552D01*
X225557009Y-74812222D01*
X225611226Y-74783242D01*
X225713533Y-74728557D01*
X225770147Y-74711384D01*
X225883373Y-74677037D01*
X225949558Y-74670518D01*
X226015740Y-74664000D01*
X226104260Y-74664000D01*
X226170442Y-74670518D01*
X226170442Y-74670518D01*
G37*
G36*
X207882142Y-74783242D02*
X208030102Y-74844530D01*
X208097130Y-74889317D01*
X208163257Y-74933501D01*
X208276499Y-75046743D01*
X208320683Y-75112870D01*
X208365470Y-75179898D01*
X208426758Y-75327858D01*
X208458000Y-75484925D01*
X208458000Y-75645075D01*
X208426758Y-75802142D01*
X208408674Y-75845799D01*
X208365471Y-75950100D01*
X208276499Y-76083257D01*
X208163257Y-76196499D01*
X208097130Y-76240683D01*
X208030102Y-76285470D01*
X207882142Y-76346758D01*
X207725075Y-76378000D01*
X207564925Y-76378000D01*
X207407858Y-76346758D01*
X207259898Y-76285470D01*
X207192870Y-76240683D01*
X207126743Y-76196499D01*
X207013501Y-76083257D01*
X206924529Y-75950100D01*
X206881326Y-75845799D01*
X206863242Y-75802142D01*
X206832000Y-75645075D01*
X206832000Y-75484925D01*
X206863242Y-75327858D01*
X206924530Y-75179898D01*
X206969317Y-75112870D01*
X207013501Y-75046743D01*
X207126743Y-74933501D01*
X207192870Y-74889317D01*
X207259898Y-74844530D01*
X207407858Y-74783242D01*
X207564925Y-74752000D01*
X207725075Y-74752000D01*
X207882142Y-74783242D01*
X207882142Y-74783242D01*
G37*
G36*
X205342142Y-74783242D02*
X205490102Y-74844530D01*
X205557130Y-74889317D01*
X205623257Y-74933501D01*
X205736499Y-75046743D01*
X205780683Y-75112870D01*
X205825470Y-75179898D01*
X205886758Y-75327858D01*
X205918000Y-75484925D01*
X205918000Y-75645075D01*
X205886758Y-75802142D01*
X205868674Y-75845799D01*
X205825471Y-75950100D01*
X205736499Y-76083257D01*
X205623257Y-76196499D01*
X205557130Y-76240683D01*
X205490102Y-76285470D01*
X205342142Y-76346758D01*
X205185075Y-76378000D01*
X205024925Y-76378000D01*
X204867858Y-76346758D01*
X204719898Y-76285470D01*
X204652870Y-76240683D01*
X204586743Y-76196499D01*
X204473501Y-76083257D01*
X204384529Y-75950100D01*
X204341326Y-75845799D01*
X204323242Y-75802142D01*
X204292000Y-75645075D01*
X204292000Y-75484925D01*
X204323242Y-75327858D01*
X204384530Y-75179898D01*
X204429317Y-75112870D01*
X204473501Y-75046743D01*
X204586743Y-74933501D01*
X204652870Y-74889317D01*
X204719898Y-74844530D01*
X204867858Y-74783242D01*
X205024925Y-74752000D01*
X205185075Y-74752000D01*
X205342142Y-74783242D01*
X205342142Y-74783242D01*
G37*
G36*
X202802142Y-74783242D02*
X202950102Y-74844530D01*
X203017130Y-74889317D01*
X203083257Y-74933501D01*
X203196499Y-75046743D01*
X203240683Y-75112870D01*
X203285470Y-75179898D01*
X203346758Y-75327858D01*
X203378000Y-75484925D01*
X203378000Y-75645075D01*
X203346758Y-75802142D01*
X203328674Y-75845799D01*
X203285471Y-75950100D01*
X203196499Y-76083257D01*
X203083257Y-76196499D01*
X203017130Y-76240683D01*
X202950102Y-76285470D01*
X202802142Y-76346758D01*
X202645075Y-76378000D01*
X202484925Y-76378000D01*
X202327858Y-76346758D01*
X202179898Y-76285470D01*
X202112870Y-76240683D01*
X202046743Y-76196499D01*
X201933501Y-76083257D01*
X201844529Y-75950100D01*
X201801326Y-75845799D01*
X201783242Y-75802142D01*
X201752000Y-75645075D01*
X201752000Y-75484925D01*
X201783242Y-75327858D01*
X201844530Y-75179898D01*
X201889317Y-75112870D01*
X201933501Y-75046743D01*
X202046743Y-74933501D01*
X202112870Y-74889317D01*
X202179898Y-74844530D01*
X202327858Y-74783242D01*
X202484925Y-74752000D01*
X202645075Y-74752000D01*
X202802142Y-74783242D01*
X202802142Y-74783242D01*
G37*
G36*
X200262142Y-74783242D02*
X200410102Y-74844530D01*
X200477130Y-74889317D01*
X200543257Y-74933501D01*
X200656499Y-75046743D01*
X200700683Y-75112870D01*
X200745470Y-75179898D01*
X200806758Y-75327858D01*
X200838000Y-75484925D01*
X200838000Y-75645075D01*
X200806758Y-75802142D01*
X200788674Y-75845799D01*
X200745471Y-75950100D01*
X200656499Y-76083257D01*
X200543257Y-76196499D01*
X200477130Y-76240683D01*
X200410102Y-76285470D01*
X200262142Y-76346758D01*
X200105075Y-76378000D01*
X199944925Y-76378000D01*
X199787858Y-76346758D01*
X199639898Y-76285470D01*
X199572870Y-76240683D01*
X199506743Y-76196499D01*
X199393501Y-76083257D01*
X199304529Y-75950100D01*
X199261326Y-75845799D01*
X199243242Y-75802142D01*
X199212000Y-75645075D01*
X199212000Y-75484925D01*
X199243242Y-75327858D01*
X199304530Y-75179898D01*
X199349317Y-75112870D01*
X199393501Y-75046743D01*
X199506743Y-74933501D01*
X199572870Y-74889317D01*
X199639898Y-74844530D01*
X199787858Y-74783242D01*
X199944925Y-74752000D01*
X200105075Y-74752000D01*
X200262142Y-74783242D01*
X200262142Y-74783242D01*
G37*
G36*
X197722142Y-74783242D02*
X197870102Y-74844530D01*
X197937130Y-74889317D01*
X198003257Y-74933501D01*
X198116499Y-75046743D01*
X198160683Y-75112870D01*
X198205470Y-75179898D01*
X198266758Y-75327858D01*
X198298000Y-75484925D01*
X198298000Y-75645075D01*
X198266758Y-75802142D01*
X198248674Y-75845799D01*
X198205471Y-75950100D01*
X198116499Y-76083257D01*
X198003257Y-76196499D01*
X197937130Y-76240683D01*
X197870102Y-76285470D01*
X197722142Y-76346758D01*
X197565075Y-76378000D01*
X197404925Y-76378000D01*
X197247858Y-76346758D01*
X197099898Y-76285470D01*
X197032870Y-76240683D01*
X196966743Y-76196499D01*
X196853501Y-76083257D01*
X196764529Y-75950100D01*
X196721326Y-75845799D01*
X196703242Y-75802142D01*
X196672000Y-75645075D01*
X196672000Y-75484925D01*
X196703242Y-75327858D01*
X196764530Y-75179898D01*
X196809317Y-75112870D01*
X196853501Y-75046743D01*
X196966743Y-74933501D01*
X197032870Y-74889317D01*
X197099898Y-74844530D01*
X197247858Y-74783242D01*
X197404925Y-74752000D01*
X197565075Y-74752000D01*
X197722142Y-74783242D01*
X197722142Y-74783242D01*
G37*
G36*
X195182142Y-74783242D02*
X195330102Y-74844530D01*
X195397130Y-74889317D01*
X195463257Y-74933501D01*
X195576499Y-75046743D01*
X195620683Y-75112870D01*
X195665470Y-75179898D01*
X195726758Y-75327858D01*
X195758000Y-75484925D01*
X195758000Y-75645075D01*
X195726758Y-75802142D01*
X195708674Y-75845799D01*
X195665471Y-75950100D01*
X195576499Y-76083257D01*
X195463257Y-76196499D01*
X195397130Y-76240683D01*
X195330102Y-76285470D01*
X195182142Y-76346758D01*
X195025075Y-76378000D01*
X194864925Y-76378000D01*
X194707858Y-76346758D01*
X194559898Y-76285470D01*
X194492870Y-76240683D01*
X194426743Y-76196499D01*
X194313501Y-76083257D01*
X194224529Y-75950100D01*
X194181326Y-75845799D01*
X194163242Y-75802142D01*
X194132000Y-75645075D01*
X194132000Y-75484925D01*
X194163242Y-75327858D01*
X194224530Y-75179898D01*
X194269317Y-75112870D01*
X194313501Y-75046743D01*
X194426743Y-74933501D01*
X194492870Y-74889317D01*
X194559898Y-74844530D01*
X194707858Y-74783242D01*
X194864925Y-74752000D01*
X195025075Y-74752000D01*
X195182142Y-74783242D01*
X195182142Y-74783242D01*
G37*
G36*
X192642142Y-74783242D02*
X192790102Y-74844530D01*
X192857130Y-74889317D01*
X192923257Y-74933501D01*
X193036499Y-75046743D01*
X193080683Y-75112870D01*
X193125470Y-75179898D01*
X193186758Y-75327858D01*
X193218000Y-75484925D01*
X193218000Y-75645075D01*
X193186758Y-75802142D01*
X193168674Y-75845799D01*
X193125471Y-75950100D01*
X193036499Y-76083257D01*
X192923257Y-76196499D01*
X192857130Y-76240683D01*
X192790102Y-76285470D01*
X192642142Y-76346758D01*
X192485075Y-76378000D01*
X192324925Y-76378000D01*
X192167858Y-76346758D01*
X192019898Y-76285470D01*
X191952870Y-76240683D01*
X191886743Y-76196499D01*
X191773501Y-76083257D01*
X191684529Y-75950100D01*
X191641326Y-75845799D01*
X191623242Y-75802142D01*
X191592000Y-75645075D01*
X191592000Y-75484925D01*
X191623242Y-75327858D01*
X191684530Y-75179898D01*
X191729317Y-75112870D01*
X191773501Y-75046743D01*
X191886743Y-74933501D01*
X191952870Y-74889317D01*
X192019898Y-74844530D01*
X192167858Y-74783242D01*
X192324925Y-74752000D01*
X192485075Y-74752000D01*
X192642142Y-74783242D01*
X192642142Y-74783242D01*
G37*
G36*
X190102142Y-74783242D02*
X190250102Y-74844530D01*
X190317130Y-74889317D01*
X190383257Y-74933501D01*
X190496499Y-75046743D01*
X190540683Y-75112870D01*
X190585470Y-75179898D01*
X190646758Y-75327858D01*
X190678000Y-75484925D01*
X190678000Y-75645075D01*
X190646758Y-75802142D01*
X190628674Y-75845799D01*
X190585471Y-75950100D01*
X190496499Y-76083257D01*
X190383257Y-76196499D01*
X190317130Y-76240683D01*
X190250102Y-76285470D01*
X190102142Y-76346758D01*
X189945075Y-76378000D01*
X189784925Y-76378000D01*
X189627858Y-76346758D01*
X189479898Y-76285470D01*
X189412870Y-76240683D01*
X189346743Y-76196499D01*
X189233501Y-76083257D01*
X189144529Y-75950100D01*
X189101326Y-75845799D01*
X189083242Y-75802142D01*
X189052000Y-75645075D01*
X189052000Y-75484925D01*
X189083242Y-75327858D01*
X189144530Y-75179898D01*
X189189317Y-75112870D01*
X189233501Y-75046743D01*
X189346743Y-74933501D01*
X189412870Y-74889317D01*
X189479898Y-74844530D01*
X189627858Y-74783242D01*
X189784925Y-74752000D01*
X189945075Y-74752000D01*
X190102142Y-74783242D01*
X190102142Y-74783242D01*
G37*
G36*
X187562142Y-74783242D02*
X187710102Y-74844530D01*
X187777130Y-74889317D01*
X187843257Y-74933501D01*
X187956499Y-75046743D01*
X188000683Y-75112870D01*
X188045470Y-75179898D01*
X188106758Y-75327858D01*
X188138000Y-75484925D01*
X188138000Y-75645075D01*
X188106758Y-75802142D01*
X188088674Y-75845799D01*
X188045471Y-75950100D01*
X187956499Y-76083257D01*
X187843257Y-76196499D01*
X187777130Y-76240683D01*
X187710102Y-76285470D01*
X187562142Y-76346758D01*
X187405075Y-76378000D01*
X187244925Y-76378000D01*
X187087858Y-76346758D01*
X186939898Y-76285470D01*
X186872870Y-76240683D01*
X186806743Y-76196499D01*
X186693501Y-76083257D01*
X186604529Y-75950100D01*
X186561326Y-75845799D01*
X186543242Y-75802142D01*
X186512000Y-75645075D01*
X186512000Y-75484925D01*
X186543242Y-75327858D01*
X186604530Y-75179898D01*
X186649317Y-75112870D01*
X186693501Y-75046743D01*
X186806743Y-74933501D01*
X186872870Y-74889317D01*
X186939898Y-74844530D01*
X187087858Y-74783242D01*
X187244925Y-74752000D01*
X187405075Y-74752000D01*
X187562142Y-74783242D01*
X187562142Y-74783242D01*
G37*
G36*
X185022142Y-74783242D02*
X185170102Y-74844530D01*
X185237130Y-74889317D01*
X185303257Y-74933501D01*
X185416499Y-75046743D01*
X185460683Y-75112870D01*
X185505470Y-75179898D01*
X185566758Y-75327858D01*
X185598000Y-75484925D01*
X185598000Y-75645075D01*
X185566758Y-75802142D01*
X185548674Y-75845799D01*
X185505471Y-75950100D01*
X185416499Y-76083257D01*
X185303257Y-76196499D01*
X185237130Y-76240683D01*
X185170102Y-76285470D01*
X185022142Y-76346758D01*
X184865075Y-76378000D01*
X184704925Y-76378000D01*
X184547858Y-76346758D01*
X184399898Y-76285470D01*
X184332870Y-76240683D01*
X184266743Y-76196499D01*
X184153501Y-76083257D01*
X184064529Y-75950100D01*
X184021326Y-75845799D01*
X184003242Y-75802142D01*
X183972000Y-75645075D01*
X183972000Y-75484925D01*
X184003242Y-75327858D01*
X184064530Y-75179898D01*
X184109317Y-75112870D01*
X184153501Y-75046743D01*
X184266743Y-74933501D01*
X184332870Y-74889317D01*
X184399898Y-74844530D01*
X184547858Y-74783242D01*
X184704925Y-74752000D01*
X184865075Y-74752000D01*
X185022142Y-74783242D01*
X185022142Y-74783242D01*
G37*
G36*
X182482142Y-74783242D02*
X182630102Y-74844530D01*
X182697130Y-74889317D01*
X182763257Y-74933501D01*
X182876499Y-75046743D01*
X182920683Y-75112870D01*
X182965470Y-75179898D01*
X183026758Y-75327858D01*
X183058000Y-75484925D01*
X183058000Y-75645075D01*
X183026758Y-75802142D01*
X183008674Y-75845799D01*
X182965471Y-75950100D01*
X182876499Y-76083257D01*
X182763257Y-76196499D01*
X182697130Y-76240683D01*
X182630102Y-76285470D01*
X182482142Y-76346758D01*
X182325075Y-76378000D01*
X182164925Y-76378000D01*
X182007858Y-76346758D01*
X181859898Y-76285470D01*
X181792870Y-76240683D01*
X181726743Y-76196499D01*
X181613501Y-76083257D01*
X181524529Y-75950100D01*
X181481326Y-75845799D01*
X181463242Y-75802142D01*
X181432000Y-75645075D01*
X181432000Y-75484925D01*
X181463242Y-75327858D01*
X181524530Y-75179898D01*
X181569317Y-75112870D01*
X181613501Y-75046743D01*
X181726743Y-74933501D01*
X181792870Y-74889317D01*
X181859898Y-74844530D01*
X182007858Y-74783242D01*
X182164925Y-74752000D01*
X182325075Y-74752000D01*
X182482142Y-74783242D01*
X182482142Y-74783242D01*
G37*
G36*
X179942142Y-74783242D02*
X180090102Y-74844530D01*
X180157130Y-74889317D01*
X180223257Y-74933501D01*
X180336499Y-75046743D01*
X180380683Y-75112870D01*
X180425470Y-75179898D01*
X180486758Y-75327858D01*
X180518000Y-75484925D01*
X180518000Y-75645075D01*
X180486758Y-75802142D01*
X180468674Y-75845799D01*
X180425471Y-75950100D01*
X180336499Y-76083257D01*
X180223257Y-76196499D01*
X180157130Y-76240683D01*
X180090102Y-76285470D01*
X179942142Y-76346758D01*
X179785075Y-76378000D01*
X179624925Y-76378000D01*
X179467858Y-76346758D01*
X179319898Y-76285470D01*
X179252870Y-76240683D01*
X179186743Y-76196499D01*
X179073501Y-76083257D01*
X178984529Y-75950100D01*
X178941326Y-75845799D01*
X178923242Y-75802142D01*
X178892000Y-75645075D01*
X178892000Y-75484925D01*
X178923242Y-75327858D01*
X178984530Y-75179898D01*
X179029317Y-75112870D01*
X179073501Y-75046743D01*
X179186743Y-74933501D01*
X179252870Y-74889317D01*
X179319898Y-74844530D01*
X179467858Y-74783242D01*
X179624925Y-74752000D01*
X179785075Y-74752000D01*
X179942142Y-74783242D01*
X179942142Y-74783242D01*
G37*
G36*
X177402142Y-74783242D02*
X177550102Y-74844530D01*
X177617130Y-74889317D01*
X177683257Y-74933501D01*
X177796499Y-75046743D01*
X177840683Y-75112870D01*
X177885470Y-75179898D01*
X177946758Y-75327858D01*
X177978000Y-75484925D01*
X177978000Y-75645075D01*
X177946758Y-75802142D01*
X177928674Y-75845799D01*
X177885471Y-75950100D01*
X177796499Y-76083257D01*
X177683257Y-76196499D01*
X177617130Y-76240683D01*
X177550102Y-76285470D01*
X177402142Y-76346758D01*
X177245075Y-76378000D01*
X177084925Y-76378000D01*
X176927858Y-76346758D01*
X176779898Y-76285470D01*
X176712870Y-76240683D01*
X176646743Y-76196499D01*
X176533501Y-76083257D01*
X176444529Y-75950100D01*
X176401326Y-75845799D01*
X176383242Y-75802142D01*
X176352000Y-75645075D01*
X176352000Y-75484925D01*
X176383242Y-75327858D01*
X176444530Y-75179898D01*
X176489317Y-75112870D01*
X176533501Y-75046743D01*
X176646743Y-74933501D01*
X176712870Y-74889317D01*
X176779898Y-74844530D01*
X176927858Y-74783242D01*
X177084925Y-74752000D01*
X177245075Y-74752000D01*
X177402142Y-74783242D01*
X177402142Y-74783242D01*
G37*
G36*
X174862142Y-74783242D02*
X175010102Y-74844530D01*
X175077130Y-74889317D01*
X175143257Y-74933501D01*
X175256499Y-75046743D01*
X175300683Y-75112870D01*
X175345470Y-75179898D01*
X175406758Y-75327858D01*
X175438000Y-75484925D01*
X175438000Y-75645075D01*
X175406758Y-75802142D01*
X175388674Y-75845799D01*
X175345471Y-75950100D01*
X175256499Y-76083257D01*
X175143257Y-76196499D01*
X175077130Y-76240683D01*
X175010102Y-76285470D01*
X174862142Y-76346758D01*
X174705075Y-76378000D01*
X174544925Y-76378000D01*
X174387858Y-76346758D01*
X174239898Y-76285470D01*
X174172870Y-76240683D01*
X174106743Y-76196499D01*
X173993501Y-76083257D01*
X173904529Y-75950100D01*
X173861326Y-75845799D01*
X173843242Y-75802142D01*
X173812000Y-75645075D01*
X173812000Y-75484925D01*
X173843242Y-75327858D01*
X173904530Y-75179898D01*
X173949317Y-75112870D01*
X173993501Y-75046743D01*
X174106743Y-74933501D01*
X174172870Y-74889317D01*
X174239898Y-74844530D01*
X174387858Y-74783242D01*
X174544925Y-74752000D01*
X174705075Y-74752000D01*
X174862142Y-74783242D01*
X174862142Y-74783242D01*
G37*
G36*
X172322142Y-74783242D02*
X172470102Y-74844530D01*
X172537130Y-74889317D01*
X172603257Y-74933501D01*
X172716499Y-75046743D01*
X172760683Y-75112870D01*
X172805470Y-75179898D01*
X172866758Y-75327858D01*
X172898000Y-75484925D01*
X172898000Y-75645075D01*
X172866758Y-75802142D01*
X172848674Y-75845799D01*
X172805471Y-75950100D01*
X172716499Y-76083257D01*
X172603257Y-76196499D01*
X172537130Y-76240683D01*
X172470102Y-76285470D01*
X172322142Y-76346758D01*
X172165075Y-76378000D01*
X172004925Y-76378000D01*
X171847858Y-76346758D01*
X171699898Y-76285470D01*
X171632870Y-76240683D01*
X171566743Y-76196499D01*
X171453501Y-76083257D01*
X171364529Y-75950100D01*
X171321326Y-75845799D01*
X171303242Y-75802142D01*
X171272000Y-75645075D01*
X171272000Y-75484925D01*
X171303242Y-75327858D01*
X171364530Y-75179898D01*
X171409317Y-75112870D01*
X171453501Y-75046743D01*
X171566743Y-74933501D01*
X171632870Y-74889317D01*
X171699898Y-74844530D01*
X171847858Y-74783242D01*
X172004925Y-74752000D01*
X172165075Y-74752000D01*
X172322142Y-74783242D01*
X172322142Y-74783242D01*
G37*
G36*
X169782142Y-74783242D02*
X169930102Y-74844530D01*
X169997130Y-74889317D01*
X170063257Y-74933501D01*
X170176499Y-75046743D01*
X170220683Y-75112870D01*
X170265470Y-75179898D01*
X170326758Y-75327858D01*
X170358000Y-75484925D01*
X170358000Y-75645075D01*
X170326758Y-75802142D01*
X170308674Y-75845799D01*
X170265471Y-75950100D01*
X170176499Y-76083257D01*
X170063257Y-76196499D01*
X169997130Y-76240683D01*
X169930102Y-76285470D01*
X169782142Y-76346758D01*
X169625075Y-76378000D01*
X169464925Y-76378000D01*
X169307858Y-76346758D01*
X169159898Y-76285470D01*
X169092870Y-76240683D01*
X169026743Y-76196499D01*
X168913501Y-76083257D01*
X168824529Y-75950100D01*
X168781326Y-75845799D01*
X168763242Y-75802142D01*
X168732000Y-75645075D01*
X168732000Y-75484925D01*
X168763242Y-75327858D01*
X168824530Y-75179898D01*
X168869317Y-75112870D01*
X168913501Y-75046743D01*
X169026743Y-74933501D01*
X169092870Y-74889317D01*
X169159898Y-74844530D01*
X169307858Y-74783242D01*
X169464925Y-74752000D01*
X169625075Y-74752000D01*
X169782142Y-74783242D01*
X169782142Y-74783242D01*
G37*
G36*
X212962142Y-74783242D02*
X213110102Y-74844530D01*
X213177130Y-74889317D01*
X213243257Y-74933501D01*
X213356499Y-75046743D01*
X213400683Y-75112870D01*
X213445470Y-75179898D01*
X213506758Y-75327858D01*
X213538000Y-75484925D01*
X213538000Y-75645075D01*
X213506758Y-75802142D01*
X213488674Y-75845799D01*
X213445471Y-75950100D01*
X213356499Y-76083257D01*
X213243257Y-76196499D01*
X213177130Y-76240683D01*
X213110102Y-76285470D01*
X212962142Y-76346758D01*
X212805075Y-76378000D01*
X212644925Y-76378000D01*
X212487858Y-76346758D01*
X212339898Y-76285470D01*
X212272870Y-76240683D01*
X212206743Y-76196499D01*
X212093501Y-76083257D01*
X212004529Y-75950100D01*
X211961326Y-75845799D01*
X211943242Y-75802142D01*
X211912000Y-75645075D01*
X211912000Y-75484925D01*
X211943242Y-75327858D01*
X212004530Y-75179898D01*
X212049317Y-75112870D01*
X212093501Y-75046743D01*
X212206743Y-74933501D01*
X212272870Y-74889317D01*
X212339898Y-74844530D01*
X212487858Y-74783242D01*
X212644925Y-74752000D01*
X212805075Y-74752000D01*
X212962142Y-74783242D01*
X212962142Y-74783242D01*
G37*
G36*
X218042142Y-74783242D02*
X218190102Y-74844530D01*
X218257130Y-74889317D01*
X218323257Y-74933501D01*
X218436499Y-75046743D01*
X218480683Y-75112870D01*
X218525470Y-75179898D01*
X218586758Y-75327858D01*
X218618000Y-75484925D01*
X218618000Y-75645075D01*
X218586758Y-75802142D01*
X218568674Y-75845799D01*
X218525471Y-75950100D01*
X218436499Y-76083257D01*
X218323257Y-76196499D01*
X218257130Y-76240683D01*
X218190102Y-76285470D01*
X218042142Y-76346758D01*
X217885075Y-76378000D01*
X217724925Y-76378000D01*
X217567858Y-76346758D01*
X217419898Y-76285470D01*
X217352870Y-76240683D01*
X217286743Y-76196499D01*
X217173501Y-76083257D01*
X217084529Y-75950100D01*
X217041326Y-75845799D01*
X217023242Y-75802142D01*
X216992000Y-75645075D01*
X216992000Y-75484925D01*
X217023242Y-75327858D01*
X217084530Y-75179898D01*
X217129317Y-75112870D01*
X217173501Y-75046743D01*
X217286743Y-74933501D01*
X217352870Y-74889317D01*
X217419898Y-74844530D01*
X217567858Y-74783242D01*
X217724925Y-74752000D01*
X217885075Y-74752000D01*
X218042142Y-74783242D01*
X218042142Y-74783242D01*
G37*
G36*
X215502142Y-74783242D02*
X215650102Y-74844530D01*
X215717130Y-74889317D01*
X215783257Y-74933501D01*
X215896499Y-75046743D01*
X215940683Y-75112870D01*
X215985470Y-75179898D01*
X216046758Y-75327858D01*
X216078000Y-75484925D01*
X216078000Y-75645075D01*
X216046758Y-75802142D01*
X216028674Y-75845799D01*
X215985471Y-75950100D01*
X215896499Y-76083257D01*
X215783257Y-76196499D01*
X215717130Y-76240683D01*
X215650102Y-76285470D01*
X215502142Y-76346758D01*
X215345075Y-76378000D01*
X215184925Y-76378000D01*
X215027858Y-76346758D01*
X214879898Y-76285470D01*
X214812870Y-76240683D01*
X214746743Y-76196499D01*
X214633501Y-76083257D01*
X214544529Y-75950100D01*
X214501326Y-75845799D01*
X214483242Y-75802142D01*
X214452000Y-75645075D01*
X214452000Y-75484925D01*
X214483242Y-75327858D01*
X214544530Y-75179898D01*
X214589317Y-75112870D01*
X214633501Y-75046743D01*
X214746743Y-74933501D01*
X214812870Y-74889317D01*
X214879898Y-74844530D01*
X215027858Y-74783242D01*
X215184925Y-74752000D01*
X215345075Y-74752000D01*
X215502142Y-74783242D01*
X215502142Y-74783242D01*
G37*
G36*
X210422142Y-74783242D02*
X210570102Y-74844530D01*
X210637130Y-74889317D01*
X210703257Y-74933501D01*
X210816499Y-75046743D01*
X210860683Y-75112870D01*
X210905470Y-75179898D01*
X210966758Y-75327858D01*
X210998000Y-75484925D01*
X210998000Y-75645075D01*
X210966758Y-75802142D01*
X210948674Y-75845799D01*
X210905471Y-75950100D01*
X210816499Y-76083257D01*
X210703257Y-76196499D01*
X210637130Y-76240683D01*
X210570102Y-76285470D01*
X210422142Y-76346758D01*
X210265075Y-76378000D01*
X210104925Y-76378000D01*
X209947858Y-76346758D01*
X209799898Y-76285470D01*
X209732870Y-76240683D01*
X209666743Y-76196499D01*
X209553501Y-76083257D01*
X209464529Y-75950100D01*
X209421326Y-75845799D01*
X209403242Y-75802142D01*
X209372000Y-75645075D01*
X209372000Y-75484925D01*
X209403242Y-75327858D01*
X209464530Y-75179898D01*
X209509317Y-75112870D01*
X209553501Y-75046743D01*
X209666743Y-74933501D01*
X209732870Y-74889317D01*
X209799898Y-74844530D01*
X209947858Y-74783242D01*
X210104925Y-74752000D01*
X210265075Y-74752000D01*
X210422142Y-74783242D01*
X210422142Y-74783242D01*
G37*
G36*
X224421000Y-73926000D02*
X222619000Y-73926000D01*
X222619000Y-72124000D01*
X224421000Y-72124000D01*
X224421000Y-73926000D01*
X224421000Y-73926000D01*
G37*
G36*
X226170443Y-72130519D02*
X226236627Y-72137037D01*
X226349853Y-72171384D01*
X226406467Y-72188557D01*
X226545087Y-72262652D01*
X226562991Y-72272222D01*
X226598729Y-72301552D01*
X226700186Y-72384814D01*
X226783448Y-72486271D01*
X226812778Y-72522009D01*
X226812779Y-72522011D01*
X226896443Y-72678533D01*
X226913616Y-72735147D01*
X226947963Y-72848373D01*
X226965359Y-73025000D01*
X226947963Y-73201627D01*
X226913616Y-73314853D01*
X226896443Y-73371467D01*
X226822348Y-73510087D01*
X226812778Y-73527991D01*
X226783448Y-73563729D01*
X226700186Y-73665186D01*
X226599775Y-73747590D01*
X226562991Y-73777778D01*
X226562989Y-73777779D01*
X226406467Y-73861443D01*
X226349853Y-73878616D01*
X226236627Y-73912963D01*
X226170443Y-73919481D01*
X226104260Y-73926000D01*
X226015740Y-73926000D01*
X225949557Y-73919481D01*
X225883373Y-73912963D01*
X225770147Y-73878616D01*
X225713533Y-73861443D01*
X225557011Y-73777779D01*
X225557009Y-73777778D01*
X225520225Y-73747590D01*
X225419814Y-73665186D01*
X225336552Y-73563729D01*
X225307222Y-73527991D01*
X225297652Y-73510087D01*
X225223557Y-73371467D01*
X225206384Y-73314853D01*
X225172037Y-73201627D01*
X225154641Y-73025000D01*
X225172037Y-72848373D01*
X225206384Y-72735147D01*
X225223557Y-72678533D01*
X225307221Y-72522011D01*
X225307222Y-72522009D01*
X225336552Y-72486271D01*
X225419814Y-72384814D01*
X225521271Y-72301552D01*
X225557009Y-72272222D01*
X225574913Y-72262652D01*
X225713533Y-72188557D01*
X225770147Y-72171384D01*
X225883373Y-72137037D01*
X225949557Y-72130519D01*
X226015740Y-72124000D01*
X226104260Y-72124000D01*
X226170443Y-72130519D01*
X226170443Y-72130519D01*
G37*
G36*
X233155442Y-64510518D02*
X233221627Y-64517037D01*
X233334853Y-64551384D01*
X233391467Y-64568557D01*
X233530087Y-64642652D01*
X233547991Y-64652222D01*
X233583729Y-64681552D01*
X233685186Y-64764814D01*
X233768448Y-64866271D01*
X233797778Y-64902009D01*
X233797779Y-64902011D01*
X233881443Y-65058533D01*
X233881443Y-65058534D01*
X233932963Y-65228373D01*
X233950359Y-65405000D01*
X233932963Y-65581627D01*
X233898616Y-65694853D01*
X233881443Y-65751467D01*
X233807348Y-65890087D01*
X233797778Y-65907991D01*
X233768448Y-65943729D01*
X233685186Y-66045186D01*
X233583729Y-66128448D01*
X233547991Y-66157778D01*
X233547989Y-66157779D01*
X233391467Y-66241443D01*
X233334853Y-66258616D01*
X233221627Y-66292963D01*
X233155443Y-66299481D01*
X233089260Y-66306000D01*
X233000740Y-66306000D01*
X232934557Y-66299481D01*
X232868373Y-66292963D01*
X232755147Y-66258616D01*
X232698533Y-66241443D01*
X232542011Y-66157779D01*
X232542009Y-66157778D01*
X232506271Y-66128448D01*
X232404814Y-66045186D01*
X232321552Y-65943729D01*
X232292222Y-65907991D01*
X232282652Y-65890087D01*
X232208557Y-65751467D01*
X232191384Y-65694853D01*
X232157037Y-65581627D01*
X232139641Y-65405000D01*
X232157037Y-65228373D01*
X232208557Y-65058534D01*
X232208557Y-65058533D01*
X232292221Y-64902011D01*
X232292222Y-64902009D01*
X232321552Y-64866271D01*
X232404814Y-64764814D01*
X232506271Y-64681552D01*
X232542009Y-64652222D01*
X232559913Y-64642652D01*
X232698533Y-64568557D01*
X232755147Y-64551384D01*
X232868373Y-64517037D01*
X232934558Y-64510518D01*
X233000740Y-64504000D01*
X233089260Y-64504000D01*
X233155442Y-64510518D01*
X233155442Y-64510518D01*
G37*
G36*
X235695442Y-64510518D02*
X235761627Y-64517037D01*
X235874853Y-64551384D01*
X235931467Y-64568557D01*
X236070087Y-64642652D01*
X236087991Y-64652222D01*
X236123729Y-64681552D01*
X236225186Y-64764814D01*
X236308448Y-64866271D01*
X236337778Y-64902009D01*
X236337779Y-64902011D01*
X236421443Y-65058533D01*
X236421443Y-65058534D01*
X236472963Y-65228373D01*
X236490359Y-65405000D01*
X236472963Y-65581627D01*
X236438616Y-65694853D01*
X236421443Y-65751467D01*
X236347348Y-65890087D01*
X236337778Y-65907991D01*
X236308448Y-65943729D01*
X236225186Y-66045186D01*
X236123729Y-66128448D01*
X236087991Y-66157778D01*
X236087989Y-66157779D01*
X235931467Y-66241443D01*
X235874853Y-66258616D01*
X235761627Y-66292963D01*
X235695443Y-66299481D01*
X235629260Y-66306000D01*
X235540740Y-66306000D01*
X235474557Y-66299481D01*
X235408373Y-66292963D01*
X235295147Y-66258616D01*
X235238533Y-66241443D01*
X235082011Y-66157779D01*
X235082009Y-66157778D01*
X235046271Y-66128448D01*
X234944814Y-66045186D01*
X234861552Y-65943729D01*
X234832222Y-65907991D01*
X234822652Y-65890087D01*
X234748557Y-65751467D01*
X234731384Y-65694853D01*
X234697037Y-65581627D01*
X234679641Y-65405000D01*
X234697037Y-65228373D01*
X234748557Y-65058534D01*
X234748557Y-65058533D01*
X234832221Y-64902011D01*
X234832222Y-64902009D01*
X234861552Y-64866271D01*
X234944814Y-64764814D01*
X235046271Y-64681552D01*
X235082009Y-64652222D01*
X235099913Y-64642652D01*
X235238533Y-64568557D01*
X235295147Y-64551384D01*
X235408373Y-64517037D01*
X235474558Y-64510518D01*
X235540740Y-64504000D01*
X235629260Y-64504000D01*
X235695442Y-64510518D01*
X235695442Y-64510518D01*
G37*
G36*
X224421000Y-66306000D02*
X222619000Y-66306000D01*
X222619000Y-64504000D01*
X224421000Y-64504000D01*
X224421000Y-66306000D01*
X224421000Y-66306000D01*
G37*
G36*
X226961000Y-66306000D02*
X225159000Y-66306000D01*
X225159000Y-64504000D01*
X226961000Y-64504000D01*
X226961000Y-66306000D01*
X226961000Y-66306000D01*
G37*
G36*
X229501000Y-66306000D02*
X227699000Y-66306000D01*
X227699000Y-64504000D01*
X229501000Y-64504000D01*
X229501000Y-66306000D01*
X229501000Y-66306000D01*
G37*
G36*
X163940442Y-64510518D02*
X164006627Y-64517037D01*
X164119853Y-64551384D01*
X164176467Y-64568557D01*
X164315087Y-64642652D01*
X164332991Y-64652222D01*
X164368729Y-64681552D01*
X164470186Y-64764814D01*
X164553448Y-64866271D01*
X164582778Y-64902009D01*
X164582779Y-64902011D01*
X164666443Y-65058533D01*
X164666443Y-65058534D01*
X164717963Y-65228373D01*
X164735359Y-65405000D01*
X164717963Y-65581627D01*
X164683616Y-65694853D01*
X164666443Y-65751467D01*
X164592348Y-65890087D01*
X164582778Y-65907991D01*
X164553448Y-65943729D01*
X164470186Y-66045186D01*
X164368729Y-66128448D01*
X164332991Y-66157778D01*
X164332989Y-66157779D01*
X164176467Y-66241443D01*
X164119853Y-66258616D01*
X164006627Y-66292963D01*
X163940443Y-66299481D01*
X163874260Y-66306000D01*
X163785740Y-66306000D01*
X163719557Y-66299481D01*
X163653373Y-66292963D01*
X163540147Y-66258616D01*
X163483533Y-66241443D01*
X163327011Y-66157779D01*
X163327009Y-66157778D01*
X163291271Y-66128448D01*
X163189814Y-66045186D01*
X163106552Y-65943729D01*
X163077222Y-65907991D01*
X163067652Y-65890087D01*
X162993557Y-65751467D01*
X162976384Y-65694853D01*
X162942037Y-65581627D01*
X162924641Y-65405000D01*
X162942037Y-65228373D01*
X162993557Y-65058534D01*
X162993557Y-65058533D01*
X163077221Y-64902011D01*
X163077222Y-64902009D01*
X163106552Y-64866271D01*
X163189814Y-64764814D01*
X163291271Y-64681552D01*
X163327009Y-64652222D01*
X163344913Y-64642652D01*
X163483533Y-64568557D01*
X163540147Y-64551384D01*
X163653373Y-64517037D01*
X163719558Y-64510518D01*
X163785740Y-64504000D01*
X163874260Y-64504000D01*
X163940442Y-64510518D01*
X163940442Y-64510518D01*
G37*
G36*
X164731000Y-63766000D02*
X162929000Y-63766000D01*
X162929000Y-61964000D01*
X164731000Y-61964000D01*
X164731000Y-63766000D01*
X164731000Y-63766000D01*
G37*
G36*
X233946000Y-63766000D02*
X232144000Y-63766000D01*
X232144000Y-61964000D01*
X233946000Y-61964000D01*
X233946000Y-63766000D01*
X233946000Y-63766000D01*
G37*
G36*
X235695443Y-61970519D02*
X235761627Y-61977037D01*
X235874853Y-62011384D01*
X235931467Y-62028557D01*
X236070087Y-62102652D01*
X236087991Y-62112222D01*
X236123729Y-62141552D01*
X236225186Y-62224814D01*
X236308448Y-62326271D01*
X236337778Y-62362009D01*
X236337779Y-62362011D01*
X236421443Y-62518533D01*
X236421443Y-62518534D01*
X236472963Y-62688373D01*
X236490359Y-62865000D01*
X236472963Y-63041627D01*
X236438616Y-63154853D01*
X236421443Y-63211467D01*
X236347348Y-63350087D01*
X236337778Y-63367991D01*
X236308448Y-63403729D01*
X236225186Y-63505186D01*
X236123729Y-63588448D01*
X236087991Y-63617778D01*
X236087989Y-63617779D01*
X235931467Y-63701443D01*
X235874853Y-63718616D01*
X235761627Y-63752963D01*
X235695442Y-63759482D01*
X235629260Y-63766000D01*
X235540740Y-63766000D01*
X235474558Y-63759482D01*
X235408373Y-63752963D01*
X235295147Y-63718616D01*
X235238533Y-63701443D01*
X235082011Y-63617779D01*
X235082009Y-63617778D01*
X235046271Y-63588448D01*
X234944814Y-63505186D01*
X234861552Y-63403729D01*
X234832222Y-63367991D01*
X234822652Y-63350087D01*
X234748557Y-63211467D01*
X234731384Y-63154853D01*
X234697037Y-63041627D01*
X234679641Y-62865000D01*
X234697037Y-62688373D01*
X234748557Y-62518534D01*
X234748557Y-62518533D01*
X234832221Y-62362011D01*
X234832222Y-62362009D01*
X234861552Y-62326271D01*
X234944814Y-62224814D01*
X235046271Y-62141552D01*
X235082009Y-62112222D01*
X235099913Y-62102652D01*
X235238533Y-62028557D01*
X235295147Y-62011384D01*
X235408373Y-61977037D01*
X235474557Y-61970519D01*
X235540740Y-61964000D01*
X235629260Y-61964000D01*
X235695443Y-61970519D01*
X235695443Y-61970519D01*
G37*
G36*
X228710443Y-61970519D02*
X228776627Y-61977037D01*
X228889853Y-62011384D01*
X228946467Y-62028557D01*
X229085087Y-62102652D01*
X229102991Y-62112222D01*
X229138729Y-62141552D01*
X229240186Y-62224814D01*
X229323448Y-62326271D01*
X229352778Y-62362009D01*
X229352779Y-62362011D01*
X229436443Y-62518533D01*
X229436443Y-62518534D01*
X229487963Y-62688373D01*
X229505359Y-62865000D01*
X229487963Y-63041627D01*
X229453616Y-63154853D01*
X229436443Y-63211467D01*
X229362348Y-63350087D01*
X229352778Y-63367991D01*
X229323448Y-63403729D01*
X229240186Y-63505186D01*
X229138729Y-63588448D01*
X229102991Y-63617778D01*
X229102989Y-63617779D01*
X228946467Y-63701443D01*
X228889853Y-63718616D01*
X228776627Y-63752963D01*
X228710442Y-63759482D01*
X228644260Y-63766000D01*
X228555740Y-63766000D01*
X228489558Y-63759482D01*
X228423373Y-63752963D01*
X228310147Y-63718616D01*
X228253533Y-63701443D01*
X228097011Y-63617779D01*
X228097009Y-63617778D01*
X228061271Y-63588448D01*
X227959814Y-63505186D01*
X227876552Y-63403729D01*
X227847222Y-63367991D01*
X227837652Y-63350087D01*
X227763557Y-63211467D01*
X227746384Y-63154853D01*
X227712037Y-63041627D01*
X227694641Y-62865000D01*
X227712037Y-62688373D01*
X227763557Y-62518534D01*
X227763557Y-62518533D01*
X227847221Y-62362011D01*
X227847222Y-62362009D01*
X227876552Y-62326271D01*
X227959814Y-62224814D01*
X228061271Y-62141552D01*
X228097009Y-62112222D01*
X228114913Y-62102652D01*
X228253533Y-62028557D01*
X228310147Y-62011384D01*
X228423373Y-61977037D01*
X228489557Y-61970519D01*
X228555740Y-61964000D01*
X228644260Y-61964000D01*
X228710443Y-61970519D01*
X228710443Y-61970519D01*
G37*
G36*
X226170443Y-61970519D02*
X226236627Y-61977037D01*
X226349853Y-62011384D01*
X226406467Y-62028557D01*
X226545087Y-62102652D01*
X226562991Y-62112222D01*
X226598729Y-62141552D01*
X226700186Y-62224814D01*
X226783448Y-62326271D01*
X226812778Y-62362009D01*
X226812779Y-62362011D01*
X226896443Y-62518533D01*
X226896443Y-62518534D01*
X226947963Y-62688373D01*
X226965359Y-62865000D01*
X226947963Y-63041627D01*
X226913616Y-63154853D01*
X226896443Y-63211467D01*
X226822348Y-63350087D01*
X226812778Y-63367991D01*
X226783448Y-63403729D01*
X226700186Y-63505186D01*
X226598729Y-63588448D01*
X226562991Y-63617778D01*
X226562989Y-63617779D01*
X226406467Y-63701443D01*
X226349853Y-63718616D01*
X226236627Y-63752963D01*
X226170442Y-63759482D01*
X226104260Y-63766000D01*
X226015740Y-63766000D01*
X225949558Y-63759482D01*
X225883373Y-63752963D01*
X225770147Y-63718616D01*
X225713533Y-63701443D01*
X225557011Y-63617779D01*
X225557009Y-63617778D01*
X225521271Y-63588448D01*
X225419814Y-63505186D01*
X225336552Y-63403729D01*
X225307222Y-63367991D01*
X225297652Y-63350087D01*
X225223557Y-63211467D01*
X225206384Y-63154853D01*
X225172037Y-63041627D01*
X225154641Y-62865000D01*
X225172037Y-62688373D01*
X225223557Y-62518534D01*
X225223557Y-62518533D01*
X225307221Y-62362011D01*
X225307222Y-62362009D01*
X225336552Y-62326271D01*
X225419814Y-62224814D01*
X225521271Y-62141552D01*
X225557009Y-62112222D01*
X225574913Y-62102652D01*
X225713533Y-62028557D01*
X225770147Y-62011384D01*
X225883373Y-61977037D01*
X225949557Y-61970519D01*
X226015740Y-61964000D01*
X226104260Y-61964000D01*
X226170443Y-61970519D01*
X226170443Y-61970519D01*
G37*
G36*
X223630443Y-61970519D02*
X223696627Y-61977037D01*
X223809853Y-62011384D01*
X223866467Y-62028557D01*
X224005087Y-62102652D01*
X224022991Y-62112222D01*
X224058729Y-62141552D01*
X224160186Y-62224814D01*
X224243448Y-62326271D01*
X224272778Y-62362009D01*
X224272779Y-62362011D01*
X224356443Y-62518533D01*
X224356443Y-62518534D01*
X224407963Y-62688373D01*
X224425359Y-62865000D01*
X224407963Y-63041627D01*
X224373616Y-63154853D01*
X224356443Y-63211467D01*
X224282348Y-63350087D01*
X224272778Y-63367991D01*
X224243448Y-63403729D01*
X224160186Y-63505186D01*
X224058729Y-63588448D01*
X224022991Y-63617778D01*
X224022989Y-63617779D01*
X223866467Y-63701443D01*
X223809853Y-63718616D01*
X223696627Y-63752963D01*
X223630442Y-63759482D01*
X223564260Y-63766000D01*
X223475740Y-63766000D01*
X223409558Y-63759482D01*
X223343373Y-63752963D01*
X223230147Y-63718616D01*
X223173533Y-63701443D01*
X223017011Y-63617779D01*
X223017009Y-63617778D01*
X222981271Y-63588448D01*
X222879814Y-63505186D01*
X222796552Y-63403729D01*
X222767222Y-63367991D01*
X222757652Y-63350087D01*
X222683557Y-63211467D01*
X222666384Y-63154853D01*
X222632037Y-63041627D01*
X222614641Y-62865000D01*
X222632037Y-62688373D01*
X222683557Y-62518534D01*
X222683557Y-62518533D01*
X222767221Y-62362011D01*
X222767222Y-62362009D01*
X222796552Y-62326271D01*
X222879814Y-62224814D01*
X222981271Y-62141552D01*
X223017009Y-62112222D01*
X223034913Y-62102652D01*
X223173533Y-62028557D01*
X223230147Y-62011384D01*
X223343373Y-61977037D01*
X223409557Y-61970519D01*
X223475740Y-61964000D01*
X223564260Y-61964000D01*
X223630443Y-61970519D01*
X223630443Y-61970519D01*
G37*
G36*
X185022142Y-59543242D02*
X185170102Y-59604530D01*
X185303258Y-59693502D01*
X185416498Y-59806742D01*
X185505470Y-59939898D01*
X185566758Y-60087858D01*
X185598000Y-60244925D01*
X185598000Y-60405075D01*
X185566758Y-60562142D01*
X185505470Y-60710102D01*
X185416498Y-60843258D01*
X185303258Y-60956498D01*
X185170102Y-61045470D01*
X185022142Y-61106758D01*
X184865075Y-61138000D01*
X184704925Y-61138000D01*
X184547858Y-61106758D01*
X184399898Y-61045470D01*
X184266742Y-60956498D01*
X184153502Y-60843258D01*
X184064530Y-60710102D01*
X184003242Y-60562142D01*
X183972000Y-60405075D01*
X183972000Y-60244925D01*
X184003242Y-60087858D01*
X184064530Y-59939898D01*
X184153502Y-59806742D01*
X184266742Y-59693502D01*
X184399898Y-59604530D01*
X184547858Y-59543242D01*
X184704925Y-59512000D01*
X184865075Y-59512000D01*
X185022142Y-59543242D01*
X185022142Y-59543242D01*
G37*
G36*
X218042142Y-59543242D02*
X218190102Y-59604530D01*
X218323258Y-59693502D01*
X218436498Y-59806742D01*
X218525470Y-59939898D01*
X218586758Y-60087858D01*
X218618000Y-60244925D01*
X218618000Y-60405075D01*
X218586758Y-60562142D01*
X218525470Y-60710102D01*
X218436498Y-60843258D01*
X218323258Y-60956498D01*
X218190102Y-61045470D01*
X218042142Y-61106758D01*
X217885075Y-61138000D01*
X217724925Y-61138000D01*
X217567858Y-61106758D01*
X217419898Y-61045470D01*
X217286742Y-60956498D01*
X217173502Y-60843258D01*
X217084530Y-60710102D01*
X217023242Y-60562142D01*
X216992000Y-60405075D01*
X216992000Y-60244925D01*
X217023242Y-60087858D01*
X217084530Y-59939898D01*
X217173502Y-59806742D01*
X217286742Y-59693502D01*
X217419898Y-59604530D01*
X217567858Y-59543242D01*
X217724925Y-59512000D01*
X217885075Y-59512000D01*
X218042142Y-59543242D01*
X218042142Y-59543242D01*
G37*
G36*
X215502142Y-59543242D02*
X215650102Y-59604530D01*
X215783258Y-59693502D01*
X215896498Y-59806742D01*
X215985470Y-59939898D01*
X216046758Y-60087858D01*
X216078000Y-60244925D01*
X216078000Y-60405075D01*
X216046758Y-60562142D01*
X215985470Y-60710102D01*
X215896498Y-60843258D01*
X215783258Y-60956498D01*
X215650102Y-61045470D01*
X215502142Y-61106758D01*
X215345075Y-61138000D01*
X215184925Y-61138000D01*
X215027858Y-61106758D01*
X214879898Y-61045470D01*
X214746742Y-60956498D01*
X214633502Y-60843258D01*
X214544530Y-60710102D01*
X214483242Y-60562142D01*
X214452000Y-60405075D01*
X214452000Y-60244925D01*
X214483242Y-60087858D01*
X214544530Y-59939898D01*
X214633502Y-59806742D01*
X214746742Y-59693502D01*
X214879898Y-59604530D01*
X215027858Y-59543242D01*
X215184925Y-59512000D01*
X215345075Y-59512000D01*
X215502142Y-59543242D01*
X215502142Y-59543242D01*
G37*
G36*
X212962142Y-59543242D02*
X213110102Y-59604530D01*
X213243258Y-59693502D01*
X213356498Y-59806742D01*
X213445470Y-59939898D01*
X213506758Y-60087858D01*
X213538000Y-60244925D01*
X213538000Y-60405075D01*
X213506758Y-60562142D01*
X213445470Y-60710102D01*
X213356498Y-60843258D01*
X213243258Y-60956498D01*
X213110102Y-61045470D01*
X212962142Y-61106758D01*
X212805075Y-61138000D01*
X212644925Y-61138000D01*
X212487858Y-61106758D01*
X212339898Y-61045470D01*
X212206742Y-60956498D01*
X212093502Y-60843258D01*
X212004530Y-60710102D01*
X211943242Y-60562142D01*
X211912000Y-60405075D01*
X211912000Y-60244925D01*
X211943242Y-60087858D01*
X212004530Y-59939898D01*
X212093502Y-59806742D01*
X212206742Y-59693502D01*
X212339898Y-59604530D01*
X212487858Y-59543242D01*
X212644925Y-59512000D01*
X212805075Y-59512000D01*
X212962142Y-59543242D01*
X212962142Y-59543242D01*
G37*
G36*
X210422142Y-59543242D02*
X210570102Y-59604530D01*
X210703258Y-59693502D01*
X210816498Y-59806742D01*
X210905470Y-59939898D01*
X210966758Y-60087858D01*
X210998000Y-60244925D01*
X210998000Y-60405075D01*
X210966758Y-60562142D01*
X210905470Y-60710102D01*
X210816498Y-60843258D01*
X210703258Y-60956498D01*
X210570102Y-61045470D01*
X210422142Y-61106758D01*
X210265075Y-61138000D01*
X210104925Y-61138000D01*
X209947858Y-61106758D01*
X209799898Y-61045470D01*
X209666742Y-60956498D01*
X209553502Y-60843258D01*
X209464530Y-60710102D01*
X209403242Y-60562142D01*
X209372000Y-60405075D01*
X209372000Y-60244925D01*
X209403242Y-60087858D01*
X209464530Y-59939898D01*
X209553502Y-59806742D01*
X209666742Y-59693502D01*
X209799898Y-59604530D01*
X209947858Y-59543242D01*
X210104925Y-59512000D01*
X210265075Y-59512000D01*
X210422142Y-59543242D01*
X210422142Y-59543242D01*
G37*
G36*
X207882142Y-59543242D02*
X208030102Y-59604530D01*
X208163258Y-59693502D01*
X208276498Y-59806742D01*
X208365470Y-59939898D01*
X208426758Y-60087858D01*
X208458000Y-60244925D01*
X208458000Y-60405075D01*
X208426758Y-60562142D01*
X208365470Y-60710102D01*
X208276498Y-60843258D01*
X208163258Y-60956498D01*
X208030102Y-61045470D01*
X207882142Y-61106758D01*
X207725075Y-61138000D01*
X207564925Y-61138000D01*
X207407858Y-61106758D01*
X207259898Y-61045470D01*
X207126742Y-60956498D01*
X207013502Y-60843258D01*
X206924530Y-60710102D01*
X206863242Y-60562142D01*
X206832000Y-60405075D01*
X206832000Y-60244925D01*
X206863242Y-60087858D01*
X206924530Y-59939898D01*
X207013502Y-59806742D01*
X207126742Y-59693502D01*
X207259898Y-59604530D01*
X207407858Y-59543242D01*
X207564925Y-59512000D01*
X207725075Y-59512000D01*
X207882142Y-59543242D01*
X207882142Y-59543242D01*
G37*
G36*
X172322142Y-59543242D02*
X172470102Y-59604530D01*
X172603258Y-59693502D01*
X172716498Y-59806742D01*
X172805470Y-59939898D01*
X172866758Y-60087858D01*
X172898000Y-60244925D01*
X172898000Y-60405075D01*
X172866758Y-60562142D01*
X172805470Y-60710102D01*
X172716498Y-60843258D01*
X172603258Y-60956498D01*
X172470102Y-61045470D01*
X172322142Y-61106758D01*
X172165075Y-61138000D01*
X172004925Y-61138000D01*
X171847858Y-61106758D01*
X171699898Y-61045470D01*
X171566742Y-60956498D01*
X171453502Y-60843258D01*
X171364530Y-60710102D01*
X171303242Y-60562142D01*
X171272000Y-60405075D01*
X171272000Y-60244925D01*
X171303242Y-60087858D01*
X171364530Y-59939898D01*
X171453502Y-59806742D01*
X171566742Y-59693502D01*
X171699898Y-59604530D01*
X171847858Y-59543242D01*
X172004925Y-59512000D01*
X172165075Y-59512000D01*
X172322142Y-59543242D01*
X172322142Y-59543242D01*
G37*
G36*
X177402142Y-59543242D02*
X177550102Y-59604530D01*
X177683258Y-59693502D01*
X177796498Y-59806742D01*
X177885470Y-59939898D01*
X177946758Y-60087858D01*
X177978000Y-60244925D01*
X177978000Y-60405075D01*
X177946758Y-60562142D01*
X177885470Y-60710102D01*
X177796498Y-60843258D01*
X177683258Y-60956498D01*
X177550102Y-61045470D01*
X177402142Y-61106758D01*
X177245075Y-61138000D01*
X177084925Y-61138000D01*
X176927858Y-61106758D01*
X176779898Y-61045470D01*
X176646742Y-60956498D01*
X176533502Y-60843258D01*
X176444530Y-60710102D01*
X176383242Y-60562142D01*
X176352000Y-60405075D01*
X176352000Y-60244925D01*
X176383242Y-60087858D01*
X176444530Y-59939898D01*
X176533502Y-59806742D01*
X176646742Y-59693502D01*
X176779898Y-59604530D01*
X176927858Y-59543242D01*
X177084925Y-59512000D01*
X177245075Y-59512000D01*
X177402142Y-59543242D01*
X177402142Y-59543242D01*
G37*
G36*
X205342142Y-59543242D02*
X205490102Y-59604530D01*
X205623258Y-59693502D01*
X205736498Y-59806742D01*
X205825470Y-59939898D01*
X205886758Y-60087858D01*
X205918000Y-60244925D01*
X205918000Y-60405075D01*
X205886758Y-60562142D01*
X205825470Y-60710102D01*
X205736498Y-60843258D01*
X205623258Y-60956498D01*
X205490102Y-61045470D01*
X205342142Y-61106758D01*
X205185075Y-61138000D01*
X205024925Y-61138000D01*
X204867858Y-61106758D01*
X204719898Y-61045470D01*
X204586742Y-60956498D01*
X204473502Y-60843258D01*
X204384530Y-60710102D01*
X204323242Y-60562142D01*
X204292000Y-60405075D01*
X204292000Y-60244925D01*
X204323242Y-60087858D01*
X204384530Y-59939898D01*
X204473502Y-59806742D01*
X204586742Y-59693502D01*
X204719898Y-59604530D01*
X204867858Y-59543242D01*
X205024925Y-59512000D01*
X205185075Y-59512000D01*
X205342142Y-59543242D01*
X205342142Y-59543242D01*
G37*
G36*
X202802142Y-59543242D02*
X202950102Y-59604530D01*
X203083258Y-59693502D01*
X203196498Y-59806742D01*
X203285470Y-59939898D01*
X203346758Y-60087858D01*
X203378000Y-60244925D01*
X203378000Y-60405075D01*
X203346758Y-60562142D01*
X203285470Y-60710102D01*
X203196498Y-60843258D01*
X203083258Y-60956498D01*
X202950102Y-61045470D01*
X202802142Y-61106758D01*
X202645075Y-61138000D01*
X202484925Y-61138000D01*
X202327858Y-61106758D01*
X202179898Y-61045470D01*
X202046742Y-60956498D01*
X201933502Y-60843258D01*
X201844530Y-60710102D01*
X201783242Y-60562142D01*
X201752000Y-60405075D01*
X201752000Y-60244925D01*
X201783242Y-60087858D01*
X201844530Y-59939898D01*
X201933502Y-59806742D01*
X202046742Y-59693502D01*
X202179898Y-59604530D01*
X202327858Y-59543242D01*
X202484925Y-59512000D01*
X202645075Y-59512000D01*
X202802142Y-59543242D01*
X202802142Y-59543242D01*
G37*
G36*
X200262142Y-59543242D02*
X200410102Y-59604530D01*
X200543258Y-59693502D01*
X200656498Y-59806742D01*
X200745470Y-59939898D01*
X200806758Y-60087858D01*
X200838000Y-60244925D01*
X200838000Y-60405075D01*
X200806758Y-60562142D01*
X200745470Y-60710102D01*
X200656498Y-60843258D01*
X200543258Y-60956498D01*
X200410102Y-61045470D01*
X200262142Y-61106758D01*
X200105075Y-61138000D01*
X199944925Y-61138000D01*
X199787858Y-61106758D01*
X199639898Y-61045470D01*
X199506742Y-60956498D01*
X199393502Y-60843258D01*
X199304530Y-60710102D01*
X199243242Y-60562142D01*
X199212000Y-60405075D01*
X199212000Y-60244925D01*
X199243242Y-60087858D01*
X199304530Y-59939898D01*
X199393502Y-59806742D01*
X199506742Y-59693502D01*
X199639898Y-59604530D01*
X199787858Y-59543242D01*
X199944925Y-59512000D01*
X200105075Y-59512000D01*
X200262142Y-59543242D01*
X200262142Y-59543242D01*
G37*
G36*
X197722142Y-59543242D02*
X197870102Y-59604530D01*
X198003258Y-59693502D01*
X198116498Y-59806742D01*
X198205470Y-59939898D01*
X198266758Y-60087858D01*
X198298000Y-60244925D01*
X198298000Y-60405075D01*
X198266758Y-60562142D01*
X198205470Y-60710102D01*
X198116498Y-60843258D01*
X198003258Y-60956498D01*
X197870102Y-61045470D01*
X197722142Y-61106758D01*
X197565075Y-61138000D01*
X197404925Y-61138000D01*
X197247858Y-61106758D01*
X197099898Y-61045470D01*
X196966742Y-60956498D01*
X196853502Y-60843258D01*
X196764530Y-60710102D01*
X196703242Y-60562142D01*
X196672000Y-60405075D01*
X196672000Y-60244925D01*
X196703242Y-60087858D01*
X196764530Y-59939898D01*
X196853502Y-59806742D01*
X196966742Y-59693502D01*
X197099898Y-59604530D01*
X197247858Y-59543242D01*
X197404925Y-59512000D01*
X197565075Y-59512000D01*
X197722142Y-59543242D01*
X197722142Y-59543242D01*
G37*
G36*
X195182142Y-59543242D02*
X195330102Y-59604530D01*
X195463258Y-59693502D01*
X195576498Y-59806742D01*
X195665470Y-59939898D01*
X195726758Y-60087858D01*
X195758000Y-60244925D01*
X195758000Y-60405075D01*
X195726758Y-60562142D01*
X195665470Y-60710102D01*
X195576498Y-60843258D01*
X195463258Y-60956498D01*
X195330102Y-61045470D01*
X195182142Y-61106758D01*
X195025075Y-61138000D01*
X194864925Y-61138000D01*
X194707858Y-61106758D01*
X194559898Y-61045470D01*
X194426742Y-60956498D01*
X194313502Y-60843258D01*
X194224530Y-60710102D01*
X194163242Y-60562142D01*
X194132000Y-60405075D01*
X194132000Y-60244925D01*
X194163242Y-60087858D01*
X194224530Y-59939898D01*
X194313502Y-59806742D01*
X194426742Y-59693502D01*
X194559898Y-59604530D01*
X194707858Y-59543242D01*
X194864925Y-59512000D01*
X195025075Y-59512000D01*
X195182142Y-59543242D01*
X195182142Y-59543242D01*
G37*
G36*
X192642142Y-59543242D02*
X192790102Y-59604530D01*
X192923258Y-59693502D01*
X193036498Y-59806742D01*
X193125470Y-59939898D01*
X193186758Y-60087858D01*
X193218000Y-60244925D01*
X193218000Y-60405075D01*
X193186758Y-60562142D01*
X193125470Y-60710102D01*
X193036498Y-60843258D01*
X192923258Y-60956498D01*
X192790102Y-61045470D01*
X192642142Y-61106758D01*
X192485075Y-61138000D01*
X192324925Y-61138000D01*
X192167858Y-61106758D01*
X192019898Y-61045470D01*
X191886742Y-60956498D01*
X191773502Y-60843258D01*
X191684530Y-60710102D01*
X191623242Y-60562142D01*
X191592000Y-60405075D01*
X191592000Y-60244925D01*
X191623242Y-60087858D01*
X191684530Y-59939898D01*
X191773502Y-59806742D01*
X191886742Y-59693502D01*
X192019898Y-59604530D01*
X192167858Y-59543242D01*
X192324925Y-59512000D01*
X192485075Y-59512000D01*
X192642142Y-59543242D01*
X192642142Y-59543242D01*
G37*
G36*
X190102142Y-59543242D02*
X190250102Y-59604530D01*
X190383258Y-59693502D01*
X190496498Y-59806742D01*
X190585470Y-59939898D01*
X190646758Y-60087858D01*
X190678000Y-60244925D01*
X190678000Y-60405075D01*
X190646758Y-60562142D01*
X190585470Y-60710102D01*
X190496498Y-60843258D01*
X190383258Y-60956498D01*
X190250102Y-61045470D01*
X190102142Y-61106758D01*
X189945075Y-61138000D01*
X189784925Y-61138000D01*
X189627858Y-61106758D01*
X189479898Y-61045470D01*
X189346742Y-60956498D01*
X189233502Y-60843258D01*
X189144530Y-60710102D01*
X189083242Y-60562142D01*
X189052000Y-60405075D01*
X189052000Y-60244925D01*
X189083242Y-60087858D01*
X189144530Y-59939898D01*
X189233502Y-59806742D01*
X189346742Y-59693502D01*
X189479898Y-59604530D01*
X189627858Y-59543242D01*
X189784925Y-59512000D01*
X189945075Y-59512000D01*
X190102142Y-59543242D01*
X190102142Y-59543242D01*
G37*
G36*
X187562142Y-59543242D02*
X187710102Y-59604530D01*
X187843258Y-59693502D01*
X187956498Y-59806742D01*
X188045470Y-59939898D01*
X188106758Y-60087858D01*
X188138000Y-60244925D01*
X188138000Y-60405075D01*
X188106758Y-60562142D01*
X188045470Y-60710102D01*
X187956498Y-60843258D01*
X187843258Y-60956498D01*
X187710102Y-61045470D01*
X187562142Y-61106758D01*
X187405075Y-61138000D01*
X187244925Y-61138000D01*
X187087858Y-61106758D01*
X186939898Y-61045470D01*
X186806742Y-60956498D01*
X186693502Y-60843258D01*
X186604530Y-60710102D01*
X186543242Y-60562142D01*
X186512000Y-60405075D01*
X186512000Y-60244925D01*
X186543242Y-60087858D01*
X186604530Y-59939898D01*
X186693502Y-59806742D01*
X186806742Y-59693502D01*
X186939898Y-59604530D01*
X187087858Y-59543242D01*
X187244925Y-59512000D01*
X187405075Y-59512000D01*
X187562142Y-59543242D01*
X187562142Y-59543242D01*
G37*
G36*
X174862142Y-59543242D02*
X175010102Y-59604530D01*
X175143258Y-59693502D01*
X175256498Y-59806742D01*
X175345470Y-59939898D01*
X175406758Y-60087858D01*
X175438000Y-60244925D01*
X175438000Y-60405075D01*
X175406758Y-60562142D01*
X175345470Y-60710102D01*
X175256498Y-60843258D01*
X175143258Y-60956498D01*
X175010102Y-61045470D01*
X174862142Y-61106758D01*
X174705075Y-61138000D01*
X174544925Y-61138000D01*
X174387858Y-61106758D01*
X174239898Y-61045470D01*
X174106742Y-60956498D01*
X173993502Y-60843258D01*
X173904530Y-60710102D01*
X173843242Y-60562142D01*
X173812000Y-60405075D01*
X173812000Y-60244925D01*
X173843242Y-60087858D01*
X173904530Y-59939898D01*
X173993502Y-59806742D01*
X174106742Y-59693502D01*
X174239898Y-59604530D01*
X174387858Y-59543242D01*
X174544925Y-59512000D01*
X174705075Y-59512000D01*
X174862142Y-59543242D01*
X174862142Y-59543242D01*
G37*
G36*
X182482142Y-59543242D02*
X182630102Y-59604530D01*
X182763258Y-59693502D01*
X182876498Y-59806742D01*
X182965470Y-59939898D01*
X183026758Y-60087858D01*
X183058000Y-60244925D01*
X183058000Y-60405075D01*
X183026758Y-60562142D01*
X182965470Y-60710102D01*
X182876498Y-60843258D01*
X182763258Y-60956498D01*
X182630102Y-61045470D01*
X182482142Y-61106758D01*
X182325075Y-61138000D01*
X182164925Y-61138000D01*
X182007858Y-61106758D01*
X181859898Y-61045470D01*
X181726742Y-60956498D01*
X181613502Y-60843258D01*
X181524530Y-60710102D01*
X181463242Y-60562142D01*
X181432000Y-60405075D01*
X181432000Y-60244925D01*
X181463242Y-60087858D01*
X181524530Y-59939898D01*
X181613502Y-59806742D01*
X181726742Y-59693502D01*
X181859898Y-59604530D01*
X182007858Y-59543242D01*
X182164925Y-59512000D01*
X182325075Y-59512000D01*
X182482142Y-59543242D01*
X182482142Y-59543242D01*
G37*
G36*
X179942142Y-59543242D02*
X180090102Y-59604530D01*
X180223258Y-59693502D01*
X180336498Y-59806742D01*
X180425470Y-59939898D01*
X180486758Y-60087858D01*
X180518000Y-60244925D01*
X180518000Y-60405075D01*
X180486758Y-60562142D01*
X180425470Y-60710102D01*
X180336498Y-60843258D01*
X180223258Y-60956498D01*
X180090102Y-61045470D01*
X179942142Y-61106758D01*
X179785075Y-61138000D01*
X179624925Y-61138000D01*
X179467858Y-61106758D01*
X179319898Y-61045470D01*
X179186742Y-60956498D01*
X179073502Y-60843258D01*
X178984530Y-60710102D01*
X178923242Y-60562142D01*
X178892000Y-60405075D01*
X178892000Y-60244925D01*
X178923242Y-60087858D01*
X178984530Y-59939898D01*
X179073502Y-59806742D01*
X179186742Y-59693502D01*
X179319898Y-59604530D01*
X179467858Y-59543242D01*
X179624925Y-59512000D01*
X179785075Y-59512000D01*
X179942142Y-59543242D01*
X179942142Y-59543242D01*
G37*
G36*
X169782142Y-59543242D02*
X169930102Y-59604530D01*
X170063258Y-59693502D01*
X170176498Y-59806742D01*
X170265470Y-59939898D01*
X170326758Y-60087858D01*
X170358000Y-60244925D01*
X170358000Y-60405075D01*
X170326758Y-60562142D01*
X170265470Y-60710102D01*
X170176498Y-60843258D01*
X170063258Y-60956498D01*
X169930102Y-61045470D01*
X169782142Y-61106758D01*
X169625075Y-61138000D01*
X169464925Y-61138000D01*
X169307858Y-61106758D01*
X169159898Y-61045470D01*
X169026742Y-60956498D01*
X168913502Y-60843258D01*
X168824530Y-60710102D01*
X168763242Y-60562142D01*
X168732000Y-60405075D01*
X168732000Y-60244925D01*
X168763242Y-60087858D01*
X168824530Y-59939898D01*
X168913502Y-59806742D01*
X169026742Y-59693502D01*
X169159898Y-59604530D01*
X169307858Y-59543242D01*
X169464925Y-59512000D01*
X169625075Y-59512000D01*
X169782142Y-59543242D01*
X169782142Y-59543242D01*
G37*
G36*
X225056000Y-51066000D02*
X223254000Y-51066000D01*
X223254000Y-49264000D01*
X225056000Y-49264000D01*
X225056000Y-51066000D01*
X225056000Y-51066000D01*
G37*
G36*
X235216000Y-51066000D02*
X233414000Y-51066000D01*
X233414000Y-49264000D01*
X235216000Y-49264000D01*
X235216000Y-51066000D01*
X235216000Y-51066000D01*
G37*
G36*
X209901000Y-47661000D02*
X209199000Y-47661000D01*
X209199000Y-45559000D01*
X209901000Y-45559000D01*
X209901000Y-47661000D01*
X209901000Y-47661000D01*
G37*
G36*
X199741000Y-47661000D02*
X199039000Y-47661000D01*
X199039000Y-45559000D01*
X199741000Y-45559000D01*
X199741000Y-47661000D01*
X199741000Y-47661000D01*
G37*
G36*
X208631000Y-47661000D02*
X207929000Y-47661000D01*
X207929000Y-45559000D01*
X208631000Y-45559000D01*
X208631000Y-47661000D01*
X208631000Y-47661000D01*
G37*
G36*
X207361000Y-47661000D02*
X206659000Y-47661000D01*
X206659000Y-45559000D01*
X207361000Y-45559000D01*
X207361000Y-47661000D01*
X207361000Y-47661000D01*
G37*
G36*
X201011000Y-47661000D02*
X200309000Y-47661000D01*
X200309000Y-45559000D01*
X201011000Y-45559000D01*
X201011000Y-47661000D01*
X201011000Y-47661000D01*
G37*
G36*
X171801000Y-47661000D02*
X171099000Y-47661000D01*
X171099000Y-45559000D01*
X171801000Y-45559000D01*
X171801000Y-47661000D01*
X171801000Y-47661000D01*
G37*
G36*
X173071000Y-47661000D02*
X172369000Y-47661000D01*
X172369000Y-45559000D01*
X173071000Y-45559000D01*
X173071000Y-47661000D01*
X173071000Y-47661000D01*
G37*
G36*
X174341000Y-47661000D02*
X173639000Y-47661000D01*
X173639000Y-45559000D01*
X174341000Y-45559000D01*
X174341000Y-47661000D01*
X174341000Y-47661000D01*
G37*
G36*
X175611000Y-47661000D02*
X174909000Y-47661000D01*
X174909000Y-45559000D01*
X175611000Y-45559000D01*
X175611000Y-47661000D01*
X175611000Y-47661000D01*
G37*
G36*
X176881000Y-47661000D02*
X176179000Y-47661000D01*
X176179000Y-45559000D01*
X176881000Y-45559000D01*
X176881000Y-47661000D01*
X176881000Y-47661000D01*
G37*
G36*
X178151000Y-47661000D02*
X177449000Y-47661000D01*
X177449000Y-45559000D01*
X178151000Y-45559000D01*
X178151000Y-47661000D01*
X178151000Y-47661000D01*
G37*
G36*
X179421000Y-47661000D02*
X178719000Y-47661000D01*
X178719000Y-45559000D01*
X179421000Y-45559000D01*
X179421000Y-47661000D01*
X179421000Y-47661000D01*
G37*
G36*
X180691000Y-47661000D02*
X179989000Y-47661000D01*
X179989000Y-45559000D01*
X180691000Y-45559000D01*
X180691000Y-47661000D01*
X180691000Y-47661000D01*
G37*
G36*
X181961000Y-47661000D02*
X181259000Y-47661000D01*
X181259000Y-45559000D01*
X181961000Y-45559000D01*
X181961000Y-47661000D01*
X181961000Y-47661000D01*
G37*
G36*
X183231000Y-47661000D02*
X182529000Y-47661000D01*
X182529000Y-45559000D01*
X183231000Y-45559000D01*
X183231000Y-47661000D01*
X183231000Y-47661000D01*
G37*
G36*
X184501000Y-47661000D02*
X183799000Y-47661000D01*
X183799000Y-45559000D01*
X184501000Y-45559000D01*
X184501000Y-47661000D01*
X184501000Y-47661000D01*
G37*
G36*
X185771000Y-47661000D02*
X185069000Y-47661000D01*
X185069000Y-45559000D01*
X185771000Y-45559000D01*
X185771000Y-47661000D01*
X185771000Y-47661000D01*
G37*
G36*
X211171000Y-47661000D02*
X210469000Y-47661000D01*
X210469000Y-45559000D01*
X211171000Y-45559000D01*
X211171000Y-47661000D01*
X211171000Y-47661000D01*
G37*
G36*
X212441000Y-47661000D02*
X211739000Y-47661000D01*
X211739000Y-45559000D01*
X212441000Y-45559000D01*
X212441000Y-47661000D01*
X212441000Y-47661000D01*
G37*
G36*
X187041000Y-47661000D02*
X186339000Y-47661000D01*
X186339000Y-45559000D01*
X187041000Y-45559000D01*
X187041000Y-47661000D01*
X187041000Y-47661000D01*
G37*
G36*
X188311000Y-47661000D02*
X187609000Y-47661000D01*
X187609000Y-45559000D01*
X188311000Y-45559000D01*
X188311000Y-47661000D01*
X188311000Y-47661000D01*
G37*
G36*
X213711000Y-47661000D02*
X213009000Y-47661000D01*
X213009000Y-45559000D01*
X213711000Y-45559000D01*
X213711000Y-47661000D01*
X213711000Y-47661000D01*
G37*
G36*
X202281000Y-47661000D02*
X201579000Y-47661000D01*
X201579000Y-45559000D01*
X202281000Y-45559000D01*
X202281000Y-47661000D01*
X202281000Y-47661000D01*
G37*
G36*
X203551000Y-47661000D02*
X202849000Y-47661000D01*
X202849000Y-45559000D01*
X203551000Y-45559000D01*
X203551000Y-47661000D01*
X203551000Y-47661000D01*
G37*
G36*
X204821000Y-47661000D02*
X204119000Y-47661000D01*
X204119000Y-45559000D01*
X204821000Y-45559000D01*
X204821000Y-47661000D01*
X204821000Y-47661000D01*
G37*
G36*
X206091000Y-47661000D02*
X205389000Y-47661000D01*
X205389000Y-45559000D01*
X206091000Y-45559000D01*
X206091000Y-47661000D01*
X206091000Y-47661000D01*
G37*
G36*
X214981000Y-47661000D02*
X214279000Y-47661000D01*
X214279000Y-45559000D01*
X214981000Y-45559000D01*
X214981000Y-47661000D01*
X214981000Y-47661000D01*
G37*
G36*
X216251000Y-47661000D02*
X215549000Y-47661000D01*
X215549000Y-45559000D01*
X216251000Y-45559000D01*
X216251000Y-47661000D01*
X216251000Y-47661000D01*
G37*
G36*
X163376000Y-46536000D02*
X160474000Y-46536000D01*
X160474000Y-43634000D01*
X163376000Y-43634000D01*
X163376000Y-46536000D01*
X163376000Y-46536000D01*
G37*
G36*
X162348238Y-38689760D02*
X162348240Y-38689761D01*
X162348241Y-38689761D01*
X162612306Y-38799140D01*
X162612307Y-38799141D01*
X162849962Y-38957937D01*
X163052063Y-39160038D01*
X163052065Y-39160041D01*
X163210860Y-39397694D01*
X163320239Y-39661759D01*
X163376000Y-39942089D01*
X163376000Y-40227911D01*
X163320239Y-40508241D01*
X163210860Y-40772306D01*
X163210859Y-40772307D01*
X163052063Y-41009962D01*
X162849962Y-41212063D01*
X162849959Y-41212065D01*
X162612306Y-41370860D01*
X162348241Y-41480239D01*
X162348240Y-41480239D01*
X162348238Y-41480240D01*
X162067912Y-41536000D01*
X161782088Y-41536000D01*
X161501762Y-41480240D01*
X161501760Y-41480239D01*
X161501759Y-41480239D01*
X161237694Y-41370860D01*
X161000041Y-41212065D01*
X161000038Y-41212063D01*
X160797937Y-41009962D01*
X160639141Y-40772307D01*
X160639140Y-40772306D01*
X160529761Y-40508241D01*
X160474000Y-40227911D01*
X160474000Y-39942089D01*
X160529761Y-39661759D01*
X160639140Y-39397694D01*
X160797935Y-39160041D01*
X160797937Y-39160038D01*
X161000038Y-38957937D01*
X161237693Y-38799141D01*
X161237694Y-38799140D01*
X161501759Y-38689761D01*
X161501760Y-38689761D01*
X161501762Y-38689760D01*
X161782088Y-38634000D01*
X162067912Y-38634000D01*
X162348238Y-38689760D01*
X162348238Y-38689760D01*
G37*
G36*
X213711000Y-38261000D02*
X213009000Y-38261000D01*
X213009000Y-36159000D01*
X213711000Y-36159000D01*
X213711000Y-38261000D01*
X213711000Y-38261000D01*
G37*
G36*
X212441000Y-38261000D02*
X211739000Y-38261000D01*
X211739000Y-36159000D01*
X212441000Y-36159000D01*
X212441000Y-38261000D01*
X212441000Y-38261000D01*
G37*
G36*
X211171000Y-38261000D02*
X210469000Y-38261000D01*
X210469000Y-36159000D01*
X211171000Y-36159000D01*
X211171000Y-38261000D01*
X211171000Y-38261000D01*
G37*
G36*
X209901000Y-38261000D02*
X209199000Y-38261000D01*
X209199000Y-36159000D01*
X209901000Y-36159000D01*
X209901000Y-38261000D01*
X209901000Y-38261000D01*
G37*
G36*
X208631000Y-38261000D02*
X207929000Y-38261000D01*
X207929000Y-36159000D01*
X208631000Y-36159000D01*
X208631000Y-38261000D01*
X208631000Y-38261000D01*
G37*
G36*
X207361000Y-38261000D02*
X206659000Y-38261000D01*
X206659000Y-36159000D01*
X207361000Y-36159000D01*
X207361000Y-38261000D01*
X207361000Y-38261000D01*
G37*
G36*
X206091000Y-38261000D02*
X205389000Y-38261000D01*
X205389000Y-36159000D01*
X206091000Y-36159000D01*
X206091000Y-38261000D01*
X206091000Y-38261000D01*
G37*
G36*
X204821000Y-38261000D02*
X204119000Y-38261000D01*
X204119000Y-36159000D01*
X204821000Y-36159000D01*
X204821000Y-38261000D01*
X204821000Y-38261000D01*
G37*
G36*
X203551000Y-38261000D02*
X202849000Y-38261000D01*
X202849000Y-36159000D01*
X203551000Y-36159000D01*
X203551000Y-38261000D01*
X203551000Y-38261000D01*
G37*
G36*
X202281000Y-38261000D02*
X201579000Y-38261000D01*
X201579000Y-36159000D01*
X202281000Y-36159000D01*
X202281000Y-38261000D01*
X202281000Y-38261000D01*
G37*
G36*
X201011000Y-38261000D02*
X200309000Y-38261000D01*
X200309000Y-36159000D01*
X201011000Y-36159000D01*
X201011000Y-38261000D01*
X201011000Y-38261000D01*
G37*
G36*
X199741000Y-38261000D02*
X199039000Y-38261000D01*
X199039000Y-36159000D01*
X199741000Y-36159000D01*
X199741000Y-38261000D01*
X199741000Y-38261000D01*
G37*
G36*
X188311000Y-38261000D02*
X187609000Y-38261000D01*
X187609000Y-36159000D01*
X188311000Y-36159000D01*
X188311000Y-38261000D01*
X188311000Y-38261000D01*
G37*
G36*
X187041000Y-38261000D02*
X186339000Y-38261000D01*
X186339000Y-36159000D01*
X187041000Y-36159000D01*
X187041000Y-38261000D01*
X187041000Y-38261000D01*
G37*
G36*
X185771000Y-38261000D02*
X185069000Y-38261000D01*
X185069000Y-36159000D01*
X185771000Y-36159000D01*
X185771000Y-38261000D01*
X185771000Y-38261000D01*
G37*
G36*
X184501000Y-38261000D02*
X183799000Y-38261000D01*
X183799000Y-36159000D01*
X184501000Y-36159000D01*
X184501000Y-38261000D01*
X184501000Y-38261000D01*
G37*
G36*
X183231000Y-38261000D02*
X182529000Y-38261000D01*
X182529000Y-36159000D01*
X183231000Y-36159000D01*
X183231000Y-38261000D01*
X183231000Y-38261000D01*
G37*
G36*
X181961000Y-38261000D02*
X181259000Y-38261000D01*
X181259000Y-36159000D01*
X181961000Y-36159000D01*
X181961000Y-38261000D01*
X181961000Y-38261000D01*
G37*
G36*
X180691000Y-38261000D02*
X179989000Y-38261000D01*
X179989000Y-36159000D01*
X180691000Y-36159000D01*
X180691000Y-38261000D01*
X180691000Y-38261000D01*
G37*
G36*
X179421000Y-38261000D02*
X178719000Y-38261000D01*
X178719000Y-36159000D01*
X179421000Y-36159000D01*
X179421000Y-38261000D01*
X179421000Y-38261000D01*
G37*
G36*
X178151000Y-38261000D02*
X177449000Y-38261000D01*
X177449000Y-36159000D01*
X178151000Y-36159000D01*
X178151000Y-38261000D01*
X178151000Y-38261000D01*
G37*
G36*
X176881000Y-38261000D02*
X176179000Y-38261000D01*
X176179000Y-36159000D01*
X176881000Y-36159000D01*
X176881000Y-38261000D01*
X176881000Y-38261000D01*
G37*
G36*
X175611000Y-38261000D02*
X174909000Y-38261000D01*
X174909000Y-36159000D01*
X175611000Y-36159000D01*
X175611000Y-38261000D01*
X175611000Y-38261000D01*
G37*
G36*
X174341000Y-38261000D02*
X173639000Y-38261000D01*
X173639000Y-36159000D01*
X174341000Y-36159000D01*
X174341000Y-38261000D01*
X174341000Y-38261000D01*
G37*
G36*
X173071000Y-38261000D02*
X172369000Y-38261000D01*
X172369000Y-36159000D01*
X173071000Y-36159000D01*
X173071000Y-38261000D01*
X173071000Y-38261000D01*
G37*
G36*
X171801000Y-38261000D02*
X171099000Y-38261000D01*
X171099000Y-36159000D01*
X171801000Y-36159000D01*
X171801000Y-38261000D01*
X171801000Y-38261000D01*
G37*
G36*
X214981000Y-38261000D02*
X214279000Y-38261000D01*
X214279000Y-36159000D01*
X214981000Y-36159000D01*
X214981000Y-38261000D01*
X214981000Y-38261000D01*
G37*
G36*
X216251000Y-38261000D02*
X215549000Y-38261000D01*
X215549000Y-36159000D01*
X216251000Y-36159000D01*
X216251000Y-38261000D01*
X216251000Y-38261000D01*
G37*
G36*
X225116000Y-35826000D02*
X223314000Y-35826000D01*
X223314000Y-34024000D01*
X225116000Y-34024000D01*
X225116000Y-35826000D01*
X225116000Y-35826000D01*
G37*
G36*
X235216000Y-35826000D02*
X233414000Y-35826000D01*
X233414000Y-34024000D01*
X235216000Y-34024000D01*
X235216000Y-35826000D01*
X235216000Y-35826000D01*
G37*
G36*
X163067030Y-25134000D02*
X163391606Y-25198562D01*
X163910455Y-25413476D01*
X164374259Y-25723380D01*
X164377410Y-25725486D01*
X164774514Y-26122590D01*
X164774516Y-26122593D01*
X165086524Y-26589545D01*
X165301438Y-27108394D01*
X165411000Y-27659201D01*
X165411000Y-28220799D01*
X165301438Y-28771606D01*
X165086524Y-29290455D01*
X164857483Y-29633238D01*
X164774514Y-29757410D01*
X164377410Y-30154514D01*
X164377407Y-30154516D01*
X163910455Y-30466524D01*
X163391606Y-30681438D01*
X162840800Y-30791000D01*
X162279200Y-30791000D01*
X162003798Y-30736219D01*
X161728394Y-30681438D01*
X161209545Y-30466524D01*
X160742593Y-30154516D01*
X160742590Y-30154514D01*
X160345486Y-29757410D01*
X160262517Y-29633238D01*
X160033476Y-29290455D01*
X159818562Y-28771606D01*
X159709000Y-28220799D01*
X159709000Y-27659201D01*
X159818562Y-27108394D01*
X160033476Y-26589545D01*
X160345484Y-26122593D01*
X160345486Y-26122590D01*
X160742590Y-25725486D01*
X160745741Y-25723380D01*
X161209545Y-25413476D01*
X161728394Y-25198562D01*
X162052970Y-25134000D01*
X162279200Y-25089000D01*
X162840800Y-25089000D01*
X163067030Y-25134000D01*
X163067030Y-25134000D01*
G37*
G36*
X235457030Y-25134000D02*
X235781606Y-25198562D01*
X236300455Y-25413476D01*
X236764259Y-25723380D01*
X236767410Y-25725486D01*
X237164514Y-26122590D01*
X237164516Y-26122593D01*
X237476524Y-26589545D01*
X237691438Y-27108394D01*
X237801000Y-27659201D01*
X237801000Y-28220799D01*
X237691438Y-28771606D01*
X237476524Y-29290455D01*
X237247483Y-29633238D01*
X237164514Y-29757410D01*
X236767410Y-30154514D01*
X236767407Y-30154516D01*
X236300455Y-30466524D01*
X235781606Y-30681438D01*
X235230800Y-30791000D01*
X234669200Y-30791000D01*
X234393798Y-30736219D01*
X234118394Y-30681438D01*
X233599545Y-30466524D01*
X233132593Y-30154516D01*
X233132590Y-30154514D01*
X232735486Y-29757410D01*
X232652517Y-29633238D01*
X232423476Y-29290455D01*
X232208562Y-28771606D01*
X232099000Y-28220799D01*
X232099000Y-27659201D01*
X232208562Y-27108394D01*
X232423476Y-26589545D01*
X232735484Y-26122593D01*
X232735486Y-26122590D01*
X233132590Y-25725486D01*
X233135741Y-25723380D01*
X233599545Y-25413476D01*
X234118394Y-25198562D01*
X234442970Y-25134000D01*
X234669200Y-25089000D01*
X235230800Y-25089000D01*
X235457030Y-25134000D01*
X235457030Y-25134000D01*
G37*
G36*
X204813238Y-27814760D02*
X204813240Y-27814761D01*
X204813241Y-27814761D01*
X205077306Y-27924140D01*
X205077307Y-27924141D01*
X205314962Y-28082937D01*
X205517063Y-28285038D01*
X205517065Y-28285041D01*
X205675860Y-28522694D01*
X205785239Y-28786759D01*
X205841000Y-29067089D01*
X205841000Y-29352911D01*
X205785239Y-29633241D01*
X205675860Y-29897306D01*
X205675859Y-29897307D01*
X205517063Y-30134962D01*
X205314962Y-30337063D01*
X205314959Y-30337065D01*
X205077306Y-30495860D01*
X204813241Y-30605239D01*
X204813240Y-30605239D01*
X204813238Y-30605240D01*
X204532912Y-30661000D01*
X204247088Y-30661000D01*
X203966762Y-30605240D01*
X203966760Y-30605239D01*
X203966759Y-30605239D01*
X203702694Y-30495860D01*
X203465041Y-30337065D01*
X203465038Y-30337063D01*
X203262937Y-30134962D01*
X203104141Y-29897307D01*
X203104140Y-29897306D01*
X202994761Y-29633241D01*
X202939000Y-29352911D01*
X202939000Y-29067089D01*
X202994761Y-28786759D01*
X203104140Y-28522694D01*
X203262935Y-28285041D01*
X203262937Y-28285038D01*
X203465038Y-28082937D01*
X203702693Y-27924141D01*
X203702694Y-27924140D01*
X203966759Y-27814761D01*
X203966760Y-27814761D01*
X203966762Y-27814760D01*
X204247088Y-27759000D01*
X204532912Y-27759000D01*
X204813238Y-27814760D01*
X204813238Y-27814760D01*
G37*
G36*
X200841000Y-30661000D02*
X197939000Y-30661000D01*
X197939000Y-27759000D01*
X200841000Y-27759000D01*
X200841000Y-30661000D01*
X200841000Y-30661000D01*
G37*
G36*
X170441000Y-30661000D02*
X167539000Y-30661000D01*
X167539000Y-27759000D01*
X170441000Y-27759000D01*
X170441000Y-30661000D01*
X170441000Y-30661000D01*
G37*
G36*
X174413238Y-27814760D02*
X174413240Y-27814761D01*
X174413241Y-27814761D01*
X174677306Y-27924140D01*
X174677307Y-27924141D01*
X174914962Y-28082937D01*
X175117063Y-28285038D01*
X175117065Y-28285041D01*
X175275860Y-28522694D01*
X175385239Y-28786759D01*
X175441000Y-29067089D01*
X175441000Y-29352911D01*
X175385239Y-29633241D01*
X175275860Y-29897306D01*
X175275859Y-29897307D01*
X175117063Y-30134962D01*
X174914962Y-30337063D01*
X174914959Y-30337065D01*
X174677306Y-30495860D01*
X174413241Y-30605239D01*
X174413240Y-30605239D01*
X174413238Y-30605240D01*
X174132912Y-30661000D01*
X173847088Y-30661000D01*
X173566762Y-30605240D01*
X173566760Y-30605239D01*
X173566759Y-30605239D01*
X173302694Y-30495860D01*
X173065041Y-30337065D01*
X173065038Y-30337063D01*
X172862937Y-30134962D01*
X172704141Y-29897307D01*
X172704140Y-29897306D01*
X172594761Y-29633241D01*
X172539000Y-29352911D01*
X172539000Y-29067089D01*
X172594761Y-28786759D01*
X172704140Y-28522694D01*
X172862935Y-28285041D01*
X172862937Y-28285038D01*
X173065038Y-28082937D01*
X173302693Y-27924141D01*
X173302694Y-27924140D01*
X173566759Y-27814761D01*
X173566760Y-27814761D01*
X173566762Y-27814760D01*
X173847088Y-27759000D01*
X174132912Y-27759000D01*
X174413238Y-27814760D01*
X174413238Y-27814760D01*
G37*
G36*
X189573238Y-27814760D02*
X189573240Y-27814761D01*
X189573241Y-27814761D01*
X189837306Y-27924140D01*
X189837307Y-27924141D01*
X190074962Y-28082937D01*
X190277063Y-28285038D01*
X190277065Y-28285041D01*
X190435860Y-28522694D01*
X190545239Y-28786759D01*
X190601000Y-29067089D01*
X190601000Y-29352911D01*
X190545239Y-29633241D01*
X190435860Y-29897306D01*
X190435859Y-29897307D01*
X190277063Y-30134962D01*
X190074962Y-30337063D01*
X190074959Y-30337065D01*
X189837306Y-30495860D01*
X189573241Y-30605239D01*
X189573240Y-30605239D01*
X189573238Y-30605240D01*
X189292912Y-30661000D01*
X189007088Y-30661000D01*
X188726762Y-30605240D01*
X188726760Y-30605239D01*
X188726759Y-30605239D01*
X188462694Y-30495860D01*
X188225041Y-30337065D01*
X188225038Y-30337063D01*
X188022937Y-30134962D01*
X187864141Y-29897307D01*
X187864140Y-29897306D01*
X187754761Y-29633241D01*
X187699000Y-29352911D01*
X187699000Y-29067089D01*
X187754761Y-28786759D01*
X187864140Y-28522694D01*
X188022935Y-28285041D01*
X188022937Y-28285038D01*
X188225038Y-28082937D01*
X188462693Y-27924141D01*
X188462694Y-27924140D01*
X188726759Y-27814761D01*
X188726760Y-27814761D01*
X188726762Y-27814760D01*
X189007088Y-27759000D01*
X189292912Y-27759000D01*
X189573238Y-27814760D01*
X189573238Y-27814760D01*
G37*
G36*
X185601000Y-30661000D02*
X182699000Y-30661000D01*
X182699000Y-27759000D01*
X185601000Y-27759000D01*
X185601000Y-30661000D01*
X185601000Y-30661000D01*
G37*
G36*
X179971000Y-29476000D02*
X178169000Y-29476000D01*
X178169000Y-27674000D01*
X179971000Y-27674000D01*
X179971000Y-29476000D01*
X179971000Y-29476000D01*
G37*
G36*
X210451000Y-29476000D02*
X208649000Y-29476000D01*
X208649000Y-27674000D01*
X210451000Y-27674000D01*
X210451000Y-29476000D01*
X210451000Y-29476000D01*
G37*
G36*
X214261000Y-29476000D02*
X212459000Y-29476000D01*
X212459000Y-27674000D01*
X214261000Y-27674000D01*
X214261000Y-29476000D01*
X214261000Y-29476000D01*
G37*
G36*
X218071000Y-29476000D02*
X216269000Y-29476000D01*
X216269000Y-27674000D01*
X218071000Y-27674000D01*
X218071000Y-29476000D01*
X218071000Y-29476000D01*
G37*
G36*
X195211000Y-29476000D02*
X193409000Y-29476000D01*
X193409000Y-27674000D01*
X195211000Y-27674000D01*
X195211000Y-29476000D01*
X195211000Y-29476000D01*
G37*
G36*
X217280443Y-25140519D02*
X217346627Y-25147037D01*
X217459853Y-25181384D01*
X217516467Y-25198557D01*
X217655087Y-25272652D01*
X217672991Y-25282222D01*
X217708729Y-25311552D01*
X217810186Y-25394814D01*
X217893448Y-25496271D01*
X217922778Y-25532009D01*
X217922779Y-25532011D01*
X218006443Y-25688533D01*
X218006443Y-25688534D01*
X218057963Y-25858373D01*
X218075359Y-26035000D01*
X218057963Y-26211627D01*
X218023616Y-26324853D01*
X218006443Y-26381467D01*
X217932348Y-26520087D01*
X217922778Y-26537991D01*
X217893448Y-26573729D01*
X217810186Y-26675186D01*
X217708729Y-26758448D01*
X217672991Y-26787778D01*
X217672989Y-26787779D01*
X217516467Y-26871443D01*
X217459853Y-26888616D01*
X217346627Y-26922963D01*
X217280443Y-26929481D01*
X217214260Y-26936000D01*
X217125740Y-26936000D01*
X217059557Y-26929481D01*
X216993373Y-26922963D01*
X216880147Y-26888616D01*
X216823533Y-26871443D01*
X216667011Y-26787779D01*
X216667009Y-26787778D01*
X216631271Y-26758448D01*
X216529814Y-26675186D01*
X216446552Y-26573729D01*
X216417222Y-26537991D01*
X216407652Y-26520087D01*
X216333557Y-26381467D01*
X216316384Y-26324853D01*
X216282037Y-26211627D01*
X216264641Y-26035000D01*
X216282037Y-25858373D01*
X216333557Y-25688534D01*
X216333557Y-25688533D01*
X216417221Y-25532011D01*
X216417222Y-25532009D01*
X216446552Y-25496271D01*
X216529814Y-25394814D01*
X216631271Y-25311552D01*
X216667009Y-25282222D01*
X216684913Y-25272652D01*
X216823533Y-25198557D01*
X216880147Y-25181384D01*
X216993373Y-25147037D01*
X217059558Y-25140518D01*
X217125740Y-25134000D01*
X217214260Y-25134000D01*
X217280443Y-25140519D01*
X217280443Y-25140519D01*
G37*
G36*
X213470443Y-25140519D02*
X213536627Y-25147037D01*
X213649853Y-25181384D01*
X213706467Y-25198557D01*
X213845087Y-25272652D01*
X213862991Y-25282222D01*
X213898729Y-25311552D01*
X214000186Y-25394814D01*
X214083448Y-25496271D01*
X214112778Y-25532009D01*
X214112779Y-25532011D01*
X214196443Y-25688533D01*
X214196443Y-25688534D01*
X214247963Y-25858373D01*
X214265359Y-26035000D01*
X214247963Y-26211627D01*
X214213616Y-26324853D01*
X214196443Y-26381467D01*
X214122348Y-26520087D01*
X214112778Y-26537991D01*
X214083448Y-26573729D01*
X214000186Y-26675186D01*
X213898729Y-26758448D01*
X213862991Y-26787778D01*
X213862989Y-26787779D01*
X213706467Y-26871443D01*
X213649853Y-26888616D01*
X213536627Y-26922963D01*
X213470443Y-26929481D01*
X213404260Y-26936000D01*
X213315740Y-26936000D01*
X213249557Y-26929481D01*
X213183373Y-26922963D01*
X213070147Y-26888616D01*
X213013533Y-26871443D01*
X212857011Y-26787779D01*
X212857009Y-26787778D01*
X212821271Y-26758448D01*
X212719814Y-26675186D01*
X212636552Y-26573729D01*
X212607222Y-26537991D01*
X212597652Y-26520087D01*
X212523557Y-26381467D01*
X212506384Y-26324853D01*
X212472037Y-26211627D01*
X212454641Y-26035000D01*
X212472037Y-25858373D01*
X212523557Y-25688534D01*
X212523557Y-25688533D01*
X212607221Y-25532011D01*
X212607222Y-25532009D01*
X212636552Y-25496271D01*
X212719814Y-25394814D01*
X212821271Y-25311552D01*
X212857009Y-25282222D01*
X212874913Y-25272652D01*
X213013533Y-25198557D01*
X213070147Y-25181384D01*
X213183373Y-25147037D01*
X213249558Y-25140518D01*
X213315740Y-25134000D01*
X213404260Y-25134000D01*
X213470443Y-25140519D01*
X213470443Y-25140519D01*
G37*
G36*
X209660443Y-25140519D02*
X209726627Y-25147037D01*
X209839853Y-25181384D01*
X209896467Y-25198557D01*
X210035087Y-25272652D01*
X210052991Y-25282222D01*
X210088729Y-25311552D01*
X210190186Y-25394814D01*
X210273448Y-25496271D01*
X210302778Y-25532009D01*
X210302779Y-25532011D01*
X210386443Y-25688533D01*
X210386443Y-25688534D01*
X210437963Y-25858373D01*
X210455359Y-26035000D01*
X210437963Y-26211627D01*
X210403616Y-26324853D01*
X210386443Y-26381467D01*
X210312348Y-26520087D01*
X210302778Y-26537991D01*
X210273448Y-26573729D01*
X210190186Y-26675186D01*
X210088729Y-26758448D01*
X210052991Y-26787778D01*
X210052989Y-26787779D01*
X209896467Y-26871443D01*
X209839853Y-26888616D01*
X209726627Y-26922963D01*
X209660443Y-26929481D01*
X209594260Y-26936000D01*
X209505740Y-26936000D01*
X209439557Y-26929481D01*
X209373373Y-26922963D01*
X209260147Y-26888616D01*
X209203533Y-26871443D01*
X209047011Y-26787779D01*
X209047009Y-26787778D01*
X209011271Y-26758448D01*
X208909814Y-26675186D01*
X208826552Y-26573729D01*
X208797222Y-26537991D01*
X208787652Y-26520087D01*
X208713557Y-26381467D01*
X208696384Y-26324853D01*
X208662037Y-26211627D01*
X208644641Y-26035000D01*
X208662037Y-25858373D01*
X208713557Y-25688534D01*
X208713557Y-25688533D01*
X208797221Y-25532011D01*
X208797222Y-25532009D01*
X208826552Y-25496271D01*
X208909814Y-25394814D01*
X209011271Y-25311552D01*
X209047009Y-25282222D01*
X209064913Y-25272652D01*
X209203533Y-25198557D01*
X209260147Y-25181384D01*
X209373373Y-25147037D01*
X209439558Y-25140518D01*
X209505740Y-25134000D01*
X209594260Y-25134000D01*
X209660443Y-25140519D01*
X209660443Y-25140519D01*
G37*
G36*
X194420443Y-25140519D02*
X194486627Y-25147037D01*
X194599853Y-25181384D01*
X194656467Y-25198557D01*
X194795087Y-25272652D01*
X194812991Y-25282222D01*
X194848729Y-25311552D01*
X194950186Y-25394814D01*
X195033448Y-25496271D01*
X195062778Y-25532009D01*
X195062779Y-25532011D01*
X195146443Y-25688533D01*
X195146443Y-25688534D01*
X195197963Y-25858373D01*
X195215359Y-26035000D01*
X195197963Y-26211627D01*
X195163616Y-26324853D01*
X195146443Y-26381467D01*
X195072348Y-26520087D01*
X195062778Y-26537991D01*
X195033448Y-26573729D01*
X194950186Y-26675186D01*
X194848729Y-26758448D01*
X194812991Y-26787778D01*
X194812989Y-26787779D01*
X194656467Y-26871443D01*
X194599853Y-26888616D01*
X194486627Y-26922963D01*
X194420443Y-26929481D01*
X194354260Y-26936000D01*
X194265740Y-26936000D01*
X194199557Y-26929481D01*
X194133373Y-26922963D01*
X194020147Y-26888616D01*
X193963533Y-26871443D01*
X193807011Y-26787779D01*
X193807009Y-26787778D01*
X193771271Y-26758448D01*
X193669814Y-26675186D01*
X193586552Y-26573729D01*
X193557222Y-26537991D01*
X193547652Y-26520087D01*
X193473557Y-26381467D01*
X193456384Y-26324853D01*
X193422037Y-26211627D01*
X193404641Y-26035000D01*
X193422037Y-25858373D01*
X193473557Y-25688534D01*
X193473557Y-25688533D01*
X193557221Y-25532011D01*
X193557222Y-25532009D01*
X193586552Y-25496271D01*
X193669814Y-25394814D01*
X193771271Y-25311552D01*
X193807009Y-25282222D01*
X193824913Y-25272652D01*
X193963533Y-25198557D01*
X194020147Y-25181384D01*
X194133373Y-25147037D01*
X194199558Y-25140518D01*
X194265740Y-25134000D01*
X194354260Y-25134000D01*
X194420443Y-25140519D01*
X194420443Y-25140519D01*
G37*
G36*
X179180443Y-25140519D02*
X179246627Y-25147037D01*
X179359853Y-25181384D01*
X179416467Y-25198557D01*
X179555087Y-25272652D01*
X179572991Y-25282222D01*
X179608729Y-25311552D01*
X179710186Y-25394814D01*
X179793448Y-25496271D01*
X179822778Y-25532009D01*
X179822779Y-25532011D01*
X179906443Y-25688533D01*
X179906443Y-25688534D01*
X179957963Y-25858373D01*
X179975359Y-26035000D01*
X179957963Y-26211627D01*
X179923616Y-26324853D01*
X179906443Y-26381467D01*
X179832348Y-26520087D01*
X179822778Y-26537991D01*
X179793448Y-26573729D01*
X179710186Y-26675186D01*
X179608729Y-26758448D01*
X179572991Y-26787778D01*
X179572989Y-26787779D01*
X179416467Y-26871443D01*
X179359853Y-26888616D01*
X179246627Y-26922963D01*
X179180443Y-26929481D01*
X179114260Y-26936000D01*
X179025740Y-26936000D01*
X178959557Y-26929481D01*
X178893373Y-26922963D01*
X178780147Y-26888616D01*
X178723533Y-26871443D01*
X178567011Y-26787779D01*
X178567009Y-26787778D01*
X178531271Y-26758448D01*
X178429814Y-26675186D01*
X178346552Y-26573729D01*
X178317222Y-26537991D01*
X178307652Y-26520087D01*
X178233557Y-26381467D01*
X178216384Y-26324853D01*
X178182037Y-26211627D01*
X178164641Y-26035000D01*
X178182037Y-25858373D01*
X178233557Y-25688534D01*
X178233557Y-25688533D01*
X178317221Y-25532011D01*
X178317222Y-25532009D01*
X178346552Y-25496271D01*
X178429814Y-25394814D01*
X178531271Y-25311552D01*
X178567009Y-25282222D01*
X178584913Y-25272652D01*
X178723533Y-25198557D01*
X178780147Y-25181384D01*
X178893373Y-25147037D01*
X178959558Y-25140518D01*
X179025740Y-25134000D01*
X179114260Y-25134000D01*
X179180443Y-25140519D01*
X179180443Y-25140519D01*
G37*
M02*
