G04 #@! TF.GenerationSoftware,KiCad,Pcbnew,(5.0.1-3-g963ef8bb5)*
G04 #@! TF.CreationDate,2019-10-11T12:22:28+03:00*
G04 #@! TF.ProjectId,thermocontrol,746865726D6F636F6E74726F6C2E6B69,rev?*
G04 #@! TF.SameCoordinates,Original*
G04 #@! TF.FileFunction,Copper,L1,Top,Mixed*
G04 #@! TF.FilePolarity,Positive*
%FSLAX46Y46*%
G04 Gerber Fmt 4.6, Leading zero omitted, Abs format (unit mm)*
G04 Created by KiCad (PCBNEW (5.0.1-3-g963ef8bb5)) date 2019 October 11, Friday 12:22:28*
%MOMM*%
%LPD*%
G01*
G04 APERTURE LIST*
G04 #@! TA.AperFunction,ComponentPad*
%ADD10R,1.700000X1.700000*%
G04 #@! TD*
G04 #@! TA.AperFunction,ComponentPad*
%ADD11O,1.700000X1.700000*%
G04 #@! TD*
G04 #@! TA.AperFunction,ComponentPad*
%ADD12R,2.800000X2.800000*%
G04 #@! TD*
G04 #@! TA.AperFunction,ComponentPad*
%ADD13C,2.800000*%
G04 #@! TD*
G04 #@! TA.AperFunction,ComponentPad*
%ADD14C,1.524000*%
G04 #@! TD*
G04 #@! TA.AperFunction,SMDPad,CuDef*
%ADD15R,0.600000X2.000000*%
G04 #@! TD*
G04 #@! TA.AperFunction,ComponentPad*
%ADD16C,5.600000*%
G04 #@! TD*
G04 #@! TA.AperFunction,ViaPad*
%ADD17C,0.800000*%
G04 #@! TD*
G04 #@! TA.AperFunction,Conductor*
%ADD18C,1.000000*%
G04 #@! TD*
G04 #@! TA.AperFunction,Conductor*
%ADD19C,0.599800*%
G04 #@! TD*
G04 #@! TA.AperFunction,Conductor*
%ADD20C,0.500000*%
G04 #@! TD*
G04 #@! TA.AperFunction,Conductor*
%ADD21C,2.000000*%
G04 #@! TD*
G04 #@! TA.AperFunction,Conductor*
%ADD22C,0.254000*%
G04 #@! TD*
G04 APERTURE END LIST*
D10*
G04 #@! TO.P,J_RS485,1*
G04 #@! TO.N,Net-(J_RS485-Pad1)*
X163830000Y-62865000D03*
D11*
G04 #@! TO.P,J_RS485,2*
G04 #@! TO.N,Net-(J_RS485-Pad2)*
X163830000Y-65405000D03*
G04 #@! TD*
D12*
G04 #@! TO.P,J_IN24,1*
G04 #@! TO.N,+24V*
X161925000Y-45085000D03*
D13*
G04 #@! TO.P,J_IN24,2*
G04 #@! TO.N,GND*
X161925000Y-40085000D03*
G04 #@! TD*
D14*
G04 #@! TO.P,U2,5V*
G04 #@! TO.N,+5V*
X212725000Y-75565000D03*
G04 #@! TO.P,U2,G*
G04 #@! TO.N,GND*
X169545000Y-60325000D03*
X172085000Y-60325000D03*
G04 #@! TO.P,U2,3V3*
G04 #@! TO.N,+3V3*
X174625000Y-60325000D03*
G04 #@! TO.P,U2,NRST*
G04 #@! TO.N,/RESET*
X177165000Y-60325000D03*
G04 #@! TO.P,U2,PB11*
G04 #@! TO.N,/EXT2*
X179705000Y-60325000D03*
G04 #@! TO.P,U2,PB10*
G04 #@! TO.N,/EXT1*
X182245000Y-60325000D03*
G04 #@! TO.P,U2,PB1*
G04 #@! TO.N,Net-(R6-Pad2)*
X184785000Y-60325000D03*
G04 #@! TO.P,U2,PB0*
G04 #@! TO.N,/P_IN5*
X187325000Y-60325000D03*
G04 #@! TO.P,U2,PA7*
G04 #@! TO.N,/P_IN3*
X189865000Y-60325000D03*
G04 #@! TO.P,U2,PA6*
G04 #@! TO.N,/P_IN1*
X192405000Y-60325000D03*
G04 #@! TO.P,U2,PA5*
G04 #@! TO.N,/TH3*
X194945000Y-60325000D03*
G04 #@! TO.P,U2,PA4*
G04 #@! TO.N,/TH2*
X197485000Y-60325000D03*
G04 #@! TO.P,U2,PA3*
G04 #@! TO.N,/RS485_RO*
X200025000Y-60325000D03*
G04 #@! TO.P,U2,PA2*
G04 #@! TO.N,/RS485_DI*
X202565000Y-60325000D03*
G04 #@! TO.P,U2,PA1*
G04 #@! TO.N,/RS485_DE*
X205105000Y-60325000D03*
G04 #@! TO.P,U2,PA0*
G04 #@! TO.N,/TH1*
X207645000Y-60325000D03*
G04 #@! TO.P,U2,PC15*
G04 #@! TO.N,/P_IN8*
X210185000Y-60325000D03*
G04 #@! TO.P,U2,PC14*
G04 #@! TO.N,/P_IN7*
X212725000Y-60325000D03*
G04 #@! TO.P,U2,PC13*
G04 #@! TO.N,/DEBUG*
X215265000Y-60325000D03*
G04 #@! TO.P,U2,VBAT*
G04 #@! TO.N,Net-(U2-PadVBAT)*
X217805000Y-60325000D03*
G04 #@! TO.P,U2,3V3*
G04 #@! TO.N,+3V3*
X217805000Y-75565000D03*
G04 #@! TO.P,U2,G*
G04 #@! TO.N,GND*
X215265000Y-75565000D03*
G04 #@! TO.P,U2,PB9*
G04 #@! TO.N,Net-(U2-PadPB9)*
X210185000Y-75565000D03*
G04 #@! TO.P,U2,PB8*
G04 #@! TO.N,Net-(U2-PadPB8)*
X207645000Y-75565000D03*
G04 #@! TO.P,U2,PB7*
G04 #@! TO.N,/SDA*
X205105000Y-75565000D03*
G04 #@! TO.P,U2,PB6*
G04 #@! TO.N,/SCL*
X202565000Y-75565000D03*
G04 #@! TO.P,U2,PB5*
G04 #@! TO.N,Net-(U2-PadPB5)*
X200025000Y-75565000D03*
G04 #@! TO.P,U2,PB4*
G04 #@! TO.N,Net-(U2-PadPB4)*
X197485000Y-75565000D03*
G04 #@! TO.P,U2,PB3*
G04 #@! TO.N,Net-(U2-PadPB3)*
X194945000Y-75565000D03*
G04 #@! TO.P,U2,PA15*
G04 #@! TO.N,Net-(U2-PadPA15)*
X192405000Y-75565000D03*
G04 #@! TO.P,U2,PA12*
G04 #@! TO.N,Net-(U2-PadPA12)*
X189865000Y-75565000D03*
G04 #@! TO.P,U2,PA11*
G04 #@! TO.N,Net-(U2-PadPA11)*
X187325000Y-75565000D03*
G04 #@! TO.P,U2,PA10*
G04 #@! TO.N,/RX*
X184785000Y-75565000D03*
G04 #@! TO.P,U2,PA9*
G04 #@! TO.N,/TX*
X182245000Y-75565000D03*
G04 #@! TO.P,U2,PA8*
G04 #@! TO.N,Net-(U2-PadPA8)*
X179705000Y-75565000D03*
G04 #@! TO.P,U2,PB15*
G04 #@! TO.N,/P_IN2*
X177165000Y-75565000D03*
G04 #@! TO.P,U2,PB14*
G04 #@! TO.N,/P_IN4*
X174625000Y-75565000D03*
G04 #@! TO.P,U2,PB13*
G04 #@! TO.N,/P_IN6*
X172085000Y-75565000D03*
G04 #@! TO.P,U2,PB12*
G04 #@! TO.N,Net-(U2-PadPB12)*
X169545000Y-75565000D03*
G04 #@! TD*
D10*
G04 #@! TO.P,J_ISP1,1*
G04 #@! TO.N,/RESET*
X233045000Y-62865000D03*
D11*
G04 #@! TO.P,J_ISP1,2*
G04 #@! TO.N,/RX*
X235585000Y-62865000D03*
G04 #@! TO.P,J_ISP1,3*
G04 #@! TO.N,/TX*
X233045000Y-65405000D03*
G04 #@! TO.P,J_ISP1,4*
G04 #@! TO.N,GND*
X235585000Y-65405000D03*
G04 #@! TD*
G04 #@! TO.P,J_OUT2,2*
G04 #@! TO.N,GND*
X217170000Y-26035000D03*
D10*
G04 #@! TO.P,J_OUT2,1*
G04 #@! TO.N,Net-(J_OUT2-Pad1)*
X217170000Y-28575000D03*
G04 #@! TD*
G04 #@! TO.P,J_OUT1,1*
G04 #@! TO.N,Net-(J_OUT1-Pad1)*
X213360000Y-28575000D03*
D11*
G04 #@! TO.P,J_OUT1,2*
G04 #@! TO.N,GND*
X213360000Y-26035000D03*
G04 #@! TD*
D10*
G04 #@! TO.P,J_OLED1,1*
G04 #@! TO.N,/SDA*
X223520000Y-73025000D03*
D11*
G04 #@! TO.P,J_OLED1,2*
G04 #@! TO.N,/SCL*
X226060000Y-73025000D03*
G04 #@! TO.P,J_OLED1,3*
G04 #@! TO.N,+3V3*
X223520000Y-75565000D03*
G04 #@! TO.P,J_OLED1,4*
G04 #@! TO.N,GND*
X226060000Y-75565000D03*
G04 #@! TD*
D10*
G04 #@! TO.P,J_SOUT1,1*
G04 #@! TO.N,+5V*
X224155000Y-50165000D03*
G04 #@! TD*
G04 #@! TO.P,J_SIN1,1*
G04 #@! TO.N,+24V*
X224215000Y-34925000D03*
G04 #@! TD*
G04 #@! TO.P,J_SG2,1*
G04 #@! TO.N,GND*
X234315000Y-50165000D03*
G04 #@! TD*
G04 #@! TO.P,J_SG1,1*
G04 #@! TO.N,GND*
X234315000Y-34925000D03*
G04 #@! TD*
D11*
G04 #@! TO.P,J_TH3,2*
G04 #@! TO.N,GND*
X223520000Y-62865000D03*
D10*
G04 #@! TO.P,J_TH3,1*
G04 #@! TO.N,/TH3*
X223520000Y-65405000D03*
G04 #@! TD*
G04 #@! TO.P,J_TH2,1*
G04 #@! TO.N,/TH2*
X226060000Y-65405000D03*
D11*
G04 #@! TO.P,J_TH2,2*
G04 #@! TO.N,GND*
X226060000Y-62865000D03*
G04 #@! TD*
G04 #@! TO.P,J_TH1,2*
G04 #@! TO.N,GND*
X228600000Y-62865000D03*
D10*
G04 #@! TO.P,J_TH1,1*
G04 #@! TO.N,/TH1*
X228600000Y-65405000D03*
G04 #@! TD*
G04 #@! TO.P,J_F3,1*
G04 #@! TO.N,Net-(J_F3-Pad1)*
X209550000Y-28575000D03*
D11*
G04 #@! TO.P,J_F3,2*
G04 #@! TO.N,GND*
X209550000Y-26035000D03*
G04 #@! TD*
G04 #@! TO.P,J_F2,2*
G04 #@! TO.N,GND*
X194310000Y-26035000D03*
D10*
G04 #@! TO.P,J_F2,1*
G04 #@! TO.N,Net-(J_F2-Pad1)*
X194310000Y-28575000D03*
G04 #@! TD*
G04 #@! TO.P,J_F1,1*
G04 #@! TO.N,Net-(J_F1-Pad1)*
X179070000Y-28575000D03*
D11*
G04 #@! TO.P,J_F1,2*
G04 #@! TO.N,GND*
X179070000Y-26035000D03*
G04 #@! TD*
D15*
G04 #@! TO.P,U3,28*
G04 #@! TO.N,+24V*
X171450000Y-37210000D03*
G04 #@! TO.P,U3,27*
G04 #@! TO.N,/OUT_E1*
X172720000Y-37210000D03*
G04 #@! TO.P,U3,26*
X173990000Y-37210000D03*
G04 #@! TO.P,U3,25*
X175260000Y-37210000D03*
G04 #@! TO.P,U3,24*
G04 #@! TO.N,Net-(J_F1-Pad1)*
X176530000Y-37210000D03*
G04 #@! TO.P,U3,23*
X177800000Y-37210000D03*
G04 #@! TO.P,U3,22*
X179070000Y-37210000D03*
G04 #@! TO.P,U3,21*
G04 #@! TO.N,/OUT_E2*
X180340000Y-37210000D03*
G04 #@! TO.P,U3,20*
X181610000Y-37210000D03*
G04 #@! TO.P,U3,19*
X182880000Y-37210000D03*
G04 #@! TO.P,U3,18*
G04 #@! TO.N,Net-(J_F2-Pad1)*
X184150000Y-37210000D03*
G04 #@! TO.P,U3,17*
X185420000Y-37210000D03*
G04 #@! TO.P,U3,16*
X186690000Y-37210000D03*
G04 #@! TO.P,U3,15*
G04 #@! TO.N,+24V*
X187960000Y-37210000D03*
G04 #@! TO.P,U3,14*
X187960000Y-46610000D03*
G04 #@! TO.P,U3,13*
G04 #@! TO.N,/P_IS4*
X186690000Y-46610000D03*
G04 #@! TO.P,U3,12*
G04 #@! TO.N,/P_IS3*
X185420000Y-46610000D03*
G04 #@! TO.P,U3,11*
G04 #@! TO.N,/P_IN3*
X184150000Y-46610000D03*
G04 #@! TO.P,U3,10*
G04 #@! TO.N,/P_IN4*
X182880000Y-46610000D03*
G04 #@! TO.P,U3,9*
G04 #@! TO.N,GND*
X181610000Y-46610000D03*
G04 #@! TO.P,U3,8*
G04 #@! TO.N,+24V*
X180340000Y-46610000D03*
G04 #@! TO.P,U3,7*
X179070000Y-46610000D03*
G04 #@! TO.P,U3,6*
G04 #@! TO.N,/P_IS2*
X177800000Y-46610000D03*
G04 #@! TO.P,U3,5*
G04 #@! TO.N,/P_IS1*
X176530000Y-46610000D03*
G04 #@! TO.P,U3,4*
G04 #@! TO.N,/P_IN1*
X175260000Y-46610000D03*
G04 #@! TO.P,U3,3*
G04 #@! TO.N,/P_IN2*
X173990000Y-46610000D03*
G04 #@! TO.P,U3,2*
G04 #@! TO.N,GND*
X172720000Y-46610000D03*
G04 #@! TO.P,U3,1*
G04 #@! TO.N,+24V*
X171450000Y-46610000D03*
G04 #@! TD*
G04 #@! TO.P,U4,1*
G04 #@! TO.N,+24V*
X199390000Y-46610000D03*
G04 #@! TO.P,U4,2*
G04 #@! TO.N,GND*
X200660000Y-46610000D03*
G04 #@! TO.P,U4,3*
G04 #@! TO.N,/P_IN6*
X201930000Y-46610000D03*
G04 #@! TO.P,U4,4*
G04 #@! TO.N,/P_IN5*
X203200000Y-46610000D03*
G04 #@! TO.P,U4,5*
G04 #@! TO.N,/P_IS5*
X204470000Y-46610000D03*
G04 #@! TO.P,U4,6*
G04 #@! TO.N,/P_IS6*
X205740000Y-46610000D03*
G04 #@! TO.P,U4,7*
G04 #@! TO.N,+24V*
X207010000Y-46610000D03*
G04 #@! TO.P,U4,8*
X208280000Y-46610000D03*
G04 #@! TO.P,U4,9*
G04 #@! TO.N,GND*
X209550000Y-46610000D03*
G04 #@! TO.P,U4,10*
G04 #@! TO.N,/P_IN8*
X210820000Y-46610000D03*
G04 #@! TO.P,U4,11*
G04 #@! TO.N,/P_IN7*
X212090000Y-46610000D03*
G04 #@! TO.P,U4,12*
G04 #@! TO.N,/P_IS7*
X213360000Y-46610000D03*
G04 #@! TO.P,U4,13*
G04 #@! TO.N,/P_IS8*
X214630000Y-46610000D03*
G04 #@! TO.P,U4,14*
G04 #@! TO.N,+24V*
X215900000Y-46610000D03*
G04 #@! TO.P,U4,15*
X215900000Y-37210000D03*
G04 #@! TO.P,U4,16*
G04 #@! TO.N,Net-(J_OUT2-Pad1)*
X214630000Y-37210000D03*
G04 #@! TO.P,U4,17*
X213360000Y-37210000D03*
G04 #@! TO.P,U4,18*
X212090000Y-37210000D03*
G04 #@! TO.P,U4,19*
G04 #@! TO.N,Net-(J_OUT1-Pad1)*
X210820000Y-37210000D03*
G04 #@! TO.P,U4,20*
X209550000Y-37210000D03*
G04 #@! TO.P,U4,21*
X208280000Y-37210000D03*
G04 #@! TO.P,U4,22*
G04 #@! TO.N,Net-(J_F3-Pad1)*
X207010000Y-37210000D03*
G04 #@! TO.P,U4,23*
X205740000Y-37210000D03*
G04 #@! TO.P,U4,24*
X204470000Y-37210000D03*
G04 #@! TO.P,U4,25*
G04 #@! TO.N,/OUT_E3*
X203200000Y-37210000D03*
G04 #@! TO.P,U4,26*
X201930000Y-37210000D03*
G04 #@! TO.P,U4,27*
X200660000Y-37210000D03*
G04 #@! TO.P,U4,28*
G04 #@! TO.N,+24V*
X199390000Y-37210000D03*
G04 #@! TD*
D12*
G04 #@! TO.P,J_E2,1*
G04 #@! TO.N,/OUT_E2*
X184150000Y-29210000D03*
D13*
G04 #@! TO.P,J_E2,2*
G04 #@! TO.N,GND*
X189150000Y-29210000D03*
G04 #@! TD*
G04 #@! TO.P,J_E1,2*
G04 #@! TO.N,GND*
X173990000Y-29210000D03*
D12*
G04 #@! TO.P,J_E1,1*
G04 #@! TO.N,/OUT_E1*
X168990000Y-29210000D03*
G04 #@! TD*
G04 #@! TO.P,J_E3,1*
G04 #@! TO.N,/OUT_E3*
X199390000Y-29210000D03*
D13*
G04 #@! TO.P,J_E3,2*
G04 #@! TO.N,GND*
X204390000Y-29210000D03*
G04 #@! TD*
D16*
G04 #@! TO.P,H4,1*
G04 #@! TO.N,GND*
X162560000Y-27940000D03*
G04 #@! TD*
G04 #@! TO.P,H3,1*
G04 #@! TO.N,GND*
X162560000Y-75565000D03*
G04 #@! TD*
G04 #@! TO.P,H2,1*
G04 #@! TO.N,GND*
X234950000Y-75565000D03*
G04 #@! TD*
G04 #@! TO.P,H1,1*
G04 #@! TO.N,GND*
X234950000Y-27940000D03*
G04 #@! TD*
D17*
G04 #@! TO.N,GND*
X202565000Y-33020000D03*
X204470000Y-33020000D03*
X205740000Y-52070000D03*
X208915000Y-52070000D03*
X225425000Y-39370000D03*
X223520000Y-41910000D03*
X216535000Y-51435000D03*
X227965000Y-53975000D03*
X234315000Y-55880000D03*
X233045000Y-40640000D03*
X214630000Y-66675000D03*
X163830000Y-34290000D03*
X161290000Y-34290000D03*
X164465000Y-58420000D03*
X180975000Y-50800000D03*
X189865000Y-50800000D03*
X193675000Y-50800000D03*
X197485000Y-50800000D03*
G04 #@! TO.N,+24V*
X179705000Y-48895000D03*
X207645000Y-48895000D03*
G04 #@! TO.N,/TH3*
X220067800Y-62760400D03*
G04 #@! TO.N,/TH2*
X195816500Y-66021500D03*
X198310500Y-62768200D03*
G04 #@! TO.N,/TH1*
X220104700Y-67324500D03*
G04 #@! TO.N,+3V3*
X192411100Y-63282700D03*
G04 #@! TO.N,/P_IN3*
X189865000Y-54610000D03*
G04 #@! TO.N,/P_IN4*
X173355000Y-55245000D03*
G04 #@! TO.N,/P_IS1*
X176530000Y-50800000D03*
G04 #@! TO.N,/P_IN1*
X179705000Y-52705000D03*
G04 #@! TD*
D18*
G04 #@! TO.N,Net-(J_OUT1-Pad1)*
X210820000Y-35659800D02*
X213360000Y-33119800D01*
X213360000Y-33119800D02*
X213360000Y-28575000D01*
X210820000Y-35659800D02*
X210820000Y-35309700D01*
X210820000Y-37210000D02*
X210820000Y-35659800D01*
X209550000Y-37210000D02*
X209550000Y-35309700D01*
X209550000Y-35309700D02*
X210820000Y-35309700D01*
X208410400Y-37210000D02*
X209550000Y-37210000D01*
D19*
X208410400Y-37210000D02*
X208280000Y-37210000D01*
D20*
G04 #@! TO.N,GND*
X172720000Y-46610000D02*
X172720000Y-48260000D01*
X181610000Y-46610000D02*
X181610000Y-48260000D01*
X200660000Y-46610000D02*
X200660000Y-48895000D01*
X209550000Y-46610000D02*
X209550000Y-48895000D01*
D18*
G04 #@! TO.N,Net-(J_OUT2-Pad1)*
X214630000Y-35309700D02*
X217170000Y-32769700D01*
X217170000Y-32769700D02*
X217170000Y-28575000D01*
X214630000Y-35659800D02*
X214630000Y-35309700D01*
X214630000Y-37210000D02*
X214630000Y-35659800D01*
X213360000Y-37210000D02*
X213360000Y-35309700D01*
X213360000Y-35309700D02*
X214630000Y-35309700D01*
X212220400Y-37210000D02*
X213360000Y-37210000D01*
D19*
X212220400Y-37210000D02*
X212090000Y-37210000D01*
G04 #@! TO.N,+24V*
X170736300Y-46491000D02*
X171331000Y-46491000D01*
X171331000Y-46491000D02*
X171450000Y-46610000D01*
D21*
X224215000Y-34925000D02*
X221964700Y-34925000D01*
X218415500Y-39125800D02*
X221964700Y-35576600D01*
X221964700Y-35576600D02*
X221964700Y-34925000D01*
D19*
X188698200Y-45871800D02*
X187960000Y-46610000D01*
X199390000Y-46610000D02*
X199390000Y-44909800D01*
X216870500Y-45639500D02*
X215900000Y-46610000D01*
D20*
G04 #@! TO.N,/TH3*
X223520000Y-65405000D02*
X222119700Y-65405000D01*
X222119700Y-65405000D02*
X222119700Y-64812300D01*
X222119700Y-64812300D02*
X220067800Y-62760400D01*
G04 #@! TO.N,/TH2*
X198310500Y-63985700D02*
X198310500Y-62768200D01*
X226060000Y-65405000D02*
X224659700Y-66805300D01*
X224659700Y-66805300D02*
X220929500Y-66805300D01*
X220929500Y-66805300D02*
X218109900Y-63985700D01*
X218109900Y-63985700D02*
X198310500Y-63985700D01*
X195816500Y-66021500D02*
X197852300Y-63985700D01*
X197852300Y-63985700D02*
X198310500Y-63985700D01*
G04 #@! TO.N,/TH1*
X220104700Y-67324500D02*
X220397100Y-67616900D01*
X220397100Y-67616900D02*
X226388100Y-67616900D01*
X226388100Y-67616900D02*
X228600000Y-65405000D01*
D18*
G04 #@! TO.N,+3V3*
X174625000Y-60325000D02*
X177582700Y-63282700D01*
X177582700Y-63282700D02*
X192411100Y-63282700D01*
X223520000Y-75565000D02*
X217805000Y-75565000D01*
D20*
G04 #@! TO.N,/P_IN6*
X168213200Y-71693200D02*
X172085000Y-75565000D01*
X171024000Y-56986100D02*
X168213200Y-59796900D01*
X193104200Y-56986100D02*
X171024000Y-56986100D01*
X168213200Y-59796900D02*
X168213200Y-71693200D01*
X201930000Y-52070000D02*
X193104200Y-56986100D01*
X201930000Y-46610000D02*
X201930000Y-52070000D01*
G04 #@! TO.N,/P_IN5*
X203200000Y-46709700D02*
X203200000Y-53340000D01*
X189257500Y-58392500D02*
X187325000Y-60325000D01*
X192967800Y-58392500D02*
X189257500Y-58392500D01*
X203200000Y-53340000D02*
X192967800Y-58392500D01*
G04 #@! TO.N,/P_IN8*
X210820000Y-46610000D02*
X210820000Y-59690000D01*
X210820000Y-59690000D02*
X210185000Y-60325000D01*
G04 #@! TO.N,/P_IN7*
X212090000Y-46610000D02*
X212090000Y-59690000D01*
X212090000Y-59690000D02*
X212725000Y-60325000D01*
D18*
G04 #@! TO.N,Net-(J_F3-Pad1)*
X209550000Y-28575000D02*
X209550000Y-30325300D01*
X207010000Y-35309700D02*
X207010000Y-32865300D01*
X207010000Y-32865300D02*
X209550000Y-30325300D01*
X207010000Y-35659800D02*
X207010000Y-35309700D01*
X207010000Y-37210000D02*
X207010000Y-35659800D01*
X205740000Y-37210000D02*
X205740000Y-35309700D01*
X205740000Y-35309700D02*
X207010000Y-35309700D01*
X204600400Y-37210000D02*
X205740000Y-37210000D01*
D19*
X204600400Y-37210000D02*
X204470000Y-37210000D01*
D18*
G04 #@! TO.N,Net-(J_F1-Pad1)*
X179070000Y-28575000D02*
X179070000Y-30325300D01*
X177800000Y-35309700D02*
X177800000Y-31595300D01*
X177800000Y-31595300D02*
X179070000Y-30325300D01*
X177800000Y-35659800D02*
X177800000Y-35309700D01*
X177800000Y-37210000D02*
X177800000Y-35659800D01*
X176530000Y-37210000D02*
X176530000Y-35309700D01*
X177800000Y-35309700D02*
X176530000Y-35309700D01*
D19*
X178939600Y-37210000D02*
X179070000Y-37210000D01*
D18*
X178939600Y-37210000D02*
X177800000Y-37210000D01*
G04 #@! TO.N,Net-(J_F2-Pad1)*
X194310000Y-28575000D02*
X192559700Y-28575000D01*
X186690000Y-35309700D02*
X192559700Y-29440000D01*
X192559700Y-29440000D02*
X192559700Y-28575000D01*
X185420000Y-35903400D02*
X186013700Y-35309700D01*
X186013700Y-35309700D02*
X186690000Y-35309700D01*
X185420000Y-35903400D02*
X184826300Y-35309700D01*
X184826300Y-35309700D02*
X184150000Y-35309700D01*
X185420000Y-36259800D02*
X185420000Y-35903400D01*
X186690000Y-37210000D02*
X186690000Y-35309700D01*
X184150000Y-37210000D02*
X184150000Y-35309700D01*
X185420000Y-37210000D02*
X185420000Y-36259800D01*
D20*
G04 #@! TO.N,/P_IN3*
X184150000Y-48160300D02*
X184150000Y-46610000D01*
X186894300Y-50904600D02*
X184150000Y-48160300D01*
X189865000Y-54610000D02*
X186894300Y-50904600D01*
G04 #@! TO.N,/P_IN4*
X182880000Y-53975000D02*
X182880000Y-46610000D01*
X182245000Y-55245000D02*
X182880000Y-53975000D01*
X173355000Y-55245000D02*
X182245000Y-55245000D01*
G04 #@! TO.N,/P_IS1*
X176530000Y-48160300D02*
X176530000Y-46610000D01*
X176530000Y-50800000D02*
X176530000Y-48160300D01*
G04 #@! TO.N,/P_IN1*
X175260000Y-52705000D02*
X175260000Y-46610000D01*
X179705000Y-52705000D02*
X175260000Y-52705000D01*
G04 #@! TO.N,/P_IN2*
X175828600Y-76901400D02*
X177165000Y-75565000D01*
X167407900Y-75284300D02*
X169025000Y-76901400D01*
X169025000Y-76901400D02*
X175828600Y-76901400D01*
X173990000Y-52705000D02*
X167005000Y-52705000D01*
X167005000Y-52705000D02*
X167407900Y-75284300D01*
X173990000Y-46610000D02*
X173990000Y-52705000D01*
G04 #@! TO.N,/SCL*
X226060000Y-73025000D02*
X224645800Y-71610800D01*
X224645800Y-71610800D02*
X206519200Y-71610800D01*
X206519200Y-71610800D02*
X202565000Y-75565000D01*
G04 #@! TO.N,/SDA*
X223520000Y-73025000D02*
X207645000Y-73025000D01*
X207645000Y-73025000D02*
X205105000Y-75565000D01*
G04 #@! TO.N,/RESET*
X233045000Y-62865000D02*
X231644700Y-62865000D01*
X231644700Y-62865000D02*
X230231200Y-61451500D01*
X230231200Y-61451500D02*
X220268400Y-61451500D01*
X220268400Y-61451500D02*
X220082500Y-61637400D01*
X220082500Y-61637400D02*
X178477400Y-61637400D01*
X178477400Y-61637400D02*
X177165000Y-60325000D01*
G04 #@! TO.N,/RX*
X235585000Y-62865000D02*
X236999200Y-64279200D01*
X236999200Y-64279200D02*
X236999200Y-66032100D01*
X236999200Y-66032100D02*
X233281800Y-69749500D01*
X233281800Y-69749500D02*
X190600500Y-69749500D01*
X190600500Y-69749500D02*
X184785000Y-75565000D01*
G04 #@! TO.N,/TX*
X233045000Y-65405000D02*
X231644700Y-65405000D01*
X231644700Y-65405000D02*
X228595200Y-68454500D01*
X228595200Y-68454500D02*
X189355500Y-68454500D01*
X189355500Y-68454500D02*
X182245000Y-75565000D01*
D18*
G04 #@! TO.N,/OUT_E1*
X168990000Y-29210000D02*
X168990000Y-31510300D01*
X172720000Y-35309700D02*
X172720000Y-35240300D01*
X172720000Y-35240300D02*
X168990000Y-31510300D01*
X172720000Y-36259800D02*
X172720000Y-35309700D01*
X172720000Y-37210000D02*
X172720000Y-36259800D01*
X173990000Y-37210000D02*
X173990000Y-35309700D01*
X173990000Y-35309700D02*
X172720000Y-35309700D01*
D19*
X175129600Y-37210000D02*
X175260000Y-37210000D01*
D18*
X175129600Y-37210000D02*
X173990000Y-37210000D01*
G04 #@! TO.N,/OUT_E2*
X184150000Y-29210000D02*
X184150000Y-31510300D01*
X181610000Y-35309700D02*
X181610000Y-34050300D01*
X181610000Y-34050300D02*
X184150000Y-31510300D01*
X181610000Y-35659800D02*
X181610000Y-35309700D01*
X181610000Y-37210000D02*
X181610000Y-35659800D01*
X180340000Y-37210000D02*
X180340000Y-35309700D01*
X181610000Y-35309700D02*
X180340000Y-35309700D01*
D19*
X182749600Y-37210000D02*
X182880000Y-37210000D01*
D18*
X182749600Y-37210000D02*
X181610000Y-37210000D01*
G04 #@! TO.N,/OUT_E3*
X200660000Y-35309700D02*
X200660000Y-32780300D01*
X200660000Y-32780300D02*
X199390000Y-31510300D01*
X199390000Y-29210000D02*
X199390000Y-31510300D01*
X200660000Y-35309700D02*
X201336300Y-35309700D01*
X201336300Y-35309700D02*
X201930000Y-35903400D01*
X201930000Y-35903400D02*
X202523700Y-35309700D01*
X202523700Y-35309700D02*
X203200000Y-35309700D01*
X201930000Y-36259800D02*
X201930000Y-35903400D01*
X200660000Y-37210000D02*
X200660000Y-35309700D01*
X203200000Y-37210000D02*
X203200000Y-35309700D01*
X201930000Y-37210000D02*
X201930000Y-36259800D01*
G04 #@! TD*
D22*
G04 #@! TO.N,GND*
G36*
X172846799Y-47610000D02*
X172847000Y-47611010D01*
X172847000Y-48086250D01*
X172913000Y-48152250D01*
X172913001Y-51628000D01*
X167101376Y-51628000D01*
X166985409Y-51607076D01*
X166785488Y-51650565D01*
X166584776Y-51690489D01*
X166576485Y-51696029D01*
X166566744Y-51698148D01*
X166398695Y-51814824D01*
X166228527Y-51928527D01*
X166222987Y-51936819D01*
X166214798Y-51942504D01*
X166104191Y-52114609D01*
X165990489Y-52284776D01*
X165988543Y-52294557D01*
X165983154Y-52302943D01*
X165946824Y-52504296D01*
X165906901Y-52705000D01*
X165929891Y-52820578D01*
X166329006Y-75187755D01*
X166309802Y-75284300D01*
X166332791Y-75399873D01*
X166332964Y-75409569D01*
X166353478Y-75503872D01*
X166393390Y-75704524D01*
X166398929Y-75712813D01*
X166401048Y-75722556D01*
X166517738Y-75890624D01*
X166571342Y-75970849D01*
X166578198Y-75977705D01*
X166645404Y-76074502D01*
X166728216Y-76127723D01*
X168188443Y-77587951D01*
X168248527Y-77677873D01*
X168338449Y-77737957D01*
X168338450Y-77737958D01*
X168604775Y-77915911D01*
X168667777Y-77928443D01*
X168918928Y-77978400D01*
X168918932Y-77978400D01*
X169025000Y-77999498D01*
X169131068Y-77978400D01*
X175722534Y-77978400D01*
X175828600Y-77999498D01*
X175934666Y-77978400D01*
X175934672Y-77978400D01*
X176248824Y-77915911D01*
X176605073Y-77677873D01*
X176665159Y-77587948D01*
X177099107Y-77154000D01*
X177481072Y-77154000D01*
X178065096Y-76912089D01*
X178435000Y-76542185D01*
X178804904Y-76912089D01*
X179388928Y-77154000D01*
X180021072Y-77154000D01*
X180605096Y-76912089D01*
X180975000Y-76542185D01*
X181344904Y-76912089D01*
X181928928Y-77154000D01*
X182561072Y-77154000D01*
X183145096Y-76912089D01*
X183515000Y-76542185D01*
X183884904Y-76912089D01*
X184468928Y-77154000D01*
X185101072Y-77154000D01*
X185685096Y-76912089D01*
X186055000Y-76542185D01*
X186424904Y-76912089D01*
X187008928Y-77154000D01*
X187641072Y-77154000D01*
X188225096Y-76912089D01*
X188595000Y-76542185D01*
X188964904Y-76912089D01*
X189548928Y-77154000D01*
X190181072Y-77154000D01*
X190765096Y-76912089D01*
X191135000Y-76542185D01*
X191504904Y-76912089D01*
X192088928Y-77154000D01*
X192721072Y-77154000D01*
X193305096Y-76912089D01*
X193675000Y-76542185D01*
X194044904Y-76912089D01*
X194628928Y-77154000D01*
X195261072Y-77154000D01*
X195845096Y-76912089D01*
X196215000Y-76542185D01*
X196584904Y-76912089D01*
X197168928Y-77154000D01*
X197801072Y-77154000D01*
X198385096Y-76912089D01*
X198755000Y-76542185D01*
X199124904Y-76912089D01*
X199708928Y-77154000D01*
X200341072Y-77154000D01*
X200925096Y-76912089D01*
X201295000Y-76542185D01*
X201664904Y-76912089D01*
X202248928Y-77154000D01*
X202881072Y-77154000D01*
X203465096Y-76912089D01*
X203835000Y-76542185D01*
X204204904Y-76912089D01*
X204788928Y-77154000D01*
X205421072Y-77154000D01*
X206005096Y-76912089D01*
X206375000Y-76542185D01*
X206744904Y-76912089D01*
X207328928Y-77154000D01*
X207961072Y-77154000D01*
X208545096Y-76912089D01*
X208915000Y-76542185D01*
X209284904Y-76912089D01*
X209868928Y-77154000D01*
X210501072Y-77154000D01*
X211085096Y-76912089D01*
X211455000Y-76542185D01*
X211824904Y-76912089D01*
X212408928Y-77154000D01*
X213041072Y-77154000D01*
X213625096Y-76912089D01*
X213991972Y-76545213D01*
X214464392Y-76545213D01*
X214533857Y-76787397D01*
X215057302Y-76974144D01*
X215612368Y-76946362D01*
X215996143Y-76787397D01*
X216065608Y-76545213D01*
X215265000Y-75744605D01*
X214464392Y-76545213D01*
X213991972Y-76545213D01*
X214072089Y-76465096D01*
X214131509Y-76321644D01*
X214284787Y-76365608D01*
X215085395Y-75565000D01*
X214284787Y-74764392D01*
X214131509Y-74808356D01*
X214072089Y-74664904D01*
X213991972Y-74584787D01*
X214464392Y-74584787D01*
X215265000Y-75385395D01*
X216065608Y-74584787D01*
X215996143Y-74342603D01*
X215472698Y-74155856D01*
X214917632Y-74183638D01*
X214533857Y-74342603D01*
X214464392Y-74584787D01*
X213991972Y-74584787D01*
X213625096Y-74217911D01*
X213345262Y-74102000D01*
X217184738Y-74102000D01*
X216904904Y-74217911D01*
X216457911Y-74664904D01*
X216398491Y-74808356D01*
X216245213Y-74764392D01*
X215444605Y-75565000D01*
X216245213Y-76365608D01*
X216398491Y-76321644D01*
X216457911Y-76465096D01*
X216904904Y-76912089D01*
X217488928Y-77154000D01*
X218121072Y-77154000D01*
X218705096Y-76912089D01*
X218725185Y-76892000D01*
X222487477Y-76892000D01*
X222865667Y-77144699D01*
X223354832Y-77242000D01*
X223685168Y-77242000D01*
X224174333Y-77144699D01*
X224729049Y-76774049D01*
X224924585Y-76481409D01*
X225178642Y-76760183D01*
X225703108Y-77006486D01*
X225933000Y-76885819D01*
X225933000Y-75692000D01*
X226187000Y-75692000D01*
X226187000Y-76885819D01*
X226416892Y-77006486D01*
X226941358Y-76760183D01*
X227331645Y-76331924D01*
X227370565Y-76237956D01*
X231512965Y-76237956D01*
X232032122Y-77502027D01*
X232043797Y-77519499D01*
X232497660Y-77837735D01*
X234770395Y-75565000D01*
X232497660Y-73292265D01*
X232043797Y-73610501D01*
X231517064Y-74871434D01*
X231512965Y-76237956D01*
X227370565Y-76237956D01*
X227501476Y-75921890D01*
X227380155Y-75692000D01*
X226187000Y-75692000D01*
X225933000Y-75692000D01*
X225913000Y-75692000D01*
X225913000Y-75438000D01*
X225933000Y-75438000D01*
X225933000Y-75418000D01*
X226187000Y-75418000D01*
X226187000Y-75438000D01*
X227380155Y-75438000D01*
X227501476Y-75208110D01*
X227331645Y-74798076D01*
X226988478Y-74421521D01*
X227269049Y-74234049D01*
X227639699Y-73679333D01*
X227752417Y-73112660D01*
X232677265Y-73112660D01*
X234950000Y-75385395D01*
X237222735Y-73112660D01*
X236904499Y-72658797D01*
X235643566Y-72132064D01*
X234277044Y-72127965D01*
X233012973Y-72647122D01*
X232995501Y-72658797D01*
X232677265Y-73112660D01*
X227752417Y-73112660D01*
X227769854Y-73025000D01*
X227639699Y-72370667D01*
X227269049Y-71815951D01*
X226714333Y-71445301D01*
X226225168Y-71348000D01*
X225906107Y-71348000D01*
X225482359Y-70924252D01*
X225422273Y-70834327D01*
X225410559Y-70826500D01*
X233175734Y-70826500D01*
X233281800Y-70847598D01*
X233387866Y-70826500D01*
X233387872Y-70826500D01*
X233702024Y-70764011D01*
X234058273Y-70525973D01*
X234118359Y-70436048D01*
X237685751Y-66868657D01*
X237775673Y-66808573D01*
X237858000Y-66685362D01*
X237858000Y-73613190D01*
X237856203Y-73610501D01*
X237402340Y-73292265D01*
X235129605Y-75565000D01*
X237402340Y-77837735D01*
X237856203Y-77519499D01*
X237858000Y-77515197D01*
X237858000Y-78473000D01*
X236901810Y-78473000D01*
X236904499Y-78471203D01*
X237222735Y-78017340D01*
X234950000Y-75744605D01*
X232677265Y-78017340D01*
X232995501Y-78471203D01*
X232999803Y-78473000D01*
X164511810Y-78473000D01*
X164514499Y-78471203D01*
X164832735Y-78017340D01*
X162560000Y-75744605D01*
X160287265Y-78017340D01*
X160605501Y-78471203D01*
X160609803Y-78473000D01*
X159652000Y-78473000D01*
X159652000Y-77516810D01*
X159653797Y-77519499D01*
X160107660Y-77837735D01*
X162380395Y-75565000D01*
X162739605Y-75565000D01*
X165012340Y-77837735D01*
X165466203Y-77519499D01*
X165992936Y-76258566D01*
X165997035Y-74892044D01*
X165477878Y-73627973D01*
X165466203Y-73610501D01*
X165012340Y-73292265D01*
X162739605Y-75565000D01*
X162380395Y-75565000D01*
X160107660Y-73292265D01*
X159653797Y-73610501D01*
X159652000Y-73614803D01*
X159652000Y-73112660D01*
X160287265Y-73112660D01*
X162560000Y-75385395D01*
X164832735Y-73112660D01*
X164514499Y-72658797D01*
X163253566Y-72132064D01*
X161887044Y-72127965D01*
X160622973Y-72647122D01*
X160605501Y-72658797D01*
X160287265Y-73112660D01*
X159652000Y-73112660D01*
X159652000Y-65405000D01*
X162120146Y-65405000D01*
X162250301Y-66059333D01*
X162620951Y-66614049D01*
X163175667Y-66984699D01*
X163664832Y-67082000D01*
X163995168Y-67082000D01*
X164484333Y-66984699D01*
X165039049Y-66614049D01*
X165409699Y-66059333D01*
X165539854Y-65405000D01*
X165409699Y-64750667D01*
X165165511Y-64385215D01*
X165276233Y-64311233D01*
X165459016Y-64037679D01*
X165523201Y-63715000D01*
X165523201Y-62015000D01*
X165459016Y-61692321D01*
X165276233Y-61418767D01*
X165002679Y-61235984D01*
X164680000Y-61171799D01*
X162980000Y-61171799D01*
X162657321Y-61235984D01*
X162383767Y-61418767D01*
X162200984Y-61692321D01*
X162136799Y-62015000D01*
X162136799Y-63715000D01*
X162200984Y-64037679D01*
X162383767Y-64311233D01*
X162494489Y-64385215D01*
X162250301Y-64750667D01*
X162120146Y-65405000D01*
X159652000Y-65405000D01*
X159652000Y-50357000D01*
X171450000Y-50357000D01*
X171766479Y-50294048D01*
X172034777Y-50114777D01*
X172214048Y-49846479D01*
X172277000Y-49530000D01*
X172277000Y-48252493D01*
X172290310Y-48243600D01*
X172293690Y-48245000D01*
X172434250Y-48245000D01*
X172593000Y-48086250D01*
X172593000Y-47611010D01*
X172593201Y-47610000D01*
X172593201Y-47182000D01*
X172846799Y-47182000D01*
X172846799Y-47610000D01*
X172846799Y-47610000D01*
G37*
X172846799Y-47610000D02*
X172847000Y-47611010D01*
X172847000Y-48086250D01*
X172913000Y-48152250D01*
X172913001Y-51628000D01*
X167101376Y-51628000D01*
X166985409Y-51607076D01*
X166785488Y-51650565D01*
X166584776Y-51690489D01*
X166576485Y-51696029D01*
X166566744Y-51698148D01*
X166398695Y-51814824D01*
X166228527Y-51928527D01*
X166222987Y-51936819D01*
X166214798Y-51942504D01*
X166104191Y-52114609D01*
X165990489Y-52284776D01*
X165988543Y-52294557D01*
X165983154Y-52302943D01*
X165946824Y-52504296D01*
X165906901Y-52705000D01*
X165929891Y-52820578D01*
X166329006Y-75187755D01*
X166309802Y-75284300D01*
X166332791Y-75399873D01*
X166332964Y-75409569D01*
X166353478Y-75503872D01*
X166393390Y-75704524D01*
X166398929Y-75712813D01*
X166401048Y-75722556D01*
X166517738Y-75890624D01*
X166571342Y-75970849D01*
X166578198Y-75977705D01*
X166645404Y-76074502D01*
X166728216Y-76127723D01*
X168188443Y-77587951D01*
X168248527Y-77677873D01*
X168338449Y-77737957D01*
X168338450Y-77737958D01*
X168604775Y-77915911D01*
X168667777Y-77928443D01*
X168918928Y-77978400D01*
X168918932Y-77978400D01*
X169025000Y-77999498D01*
X169131068Y-77978400D01*
X175722534Y-77978400D01*
X175828600Y-77999498D01*
X175934666Y-77978400D01*
X175934672Y-77978400D01*
X176248824Y-77915911D01*
X176605073Y-77677873D01*
X176665159Y-77587948D01*
X177099107Y-77154000D01*
X177481072Y-77154000D01*
X178065096Y-76912089D01*
X178435000Y-76542185D01*
X178804904Y-76912089D01*
X179388928Y-77154000D01*
X180021072Y-77154000D01*
X180605096Y-76912089D01*
X180975000Y-76542185D01*
X181344904Y-76912089D01*
X181928928Y-77154000D01*
X182561072Y-77154000D01*
X183145096Y-76912089D01*
X183515000Y-76542185D01*
X183884904Y-76912089D01*
X184468928Y-77154000D01*
X185101072Y-77154000D01*
X185685096Y-76912089D01*
X186055000Y-76542185D01*
X186424904Y-76912089D01*
X187008928Y-77154000D01*
X187641072Y-77154000D01*
X188225096Y-76912089D01*
X188595000Y-76542185D01*
X188964904Y-76912089D01*
X189548928Y-77154000D01*
X190181072Y-77154000D01*
X190765096Y-76912089D01*
X191135000Y-76542185D01*
X191504904Y-76912089D01*
X192088928Y-77154000D01*
X192721072Y-77154000D01*
X193305096Y-76912089D01*
X193675000Y-76542185D01*
X194044904Y-76912089D01*
X194628928Y-77154000D01*
X195261072Y-77154000D01*
X195845096Y-76912089D01*
X196215000Y-76542185D01*
X196584904Y-76912089D01*
X197168928Y-77154000D01*
X197801072Y-77154000D01*
X198385096Y-76912089D01*
X198755000Y-76542185D01*
X199124904Y-76912089D01*
X199708928Y-77154000D01*
X200341072Y-77154000D01*
X200925096Y-76912089D01*
X201295000Y-76542185D01*
X201664904Y-76912089D01*
X202248928Y-77154000D01*
X202881072Y-77154000D01*
X203465096Y-76912089D01*
X203835000Y-76542185D01*
X204204904Y-76912089D01*
X204788928Y-77154000D01*
X205421072Y-77154000D01*
X206005096Y-76912089D01*
X206375000Y-76542185D01*
X206744904Y-76912089D01*
X207328928Y-77154000D01*
X207961072Y-77154000D01*
X208545096Y-76912089D01*
X208915000Y-76542185D01*
X209284904Y-76912089D01*
X209868928Y-77154000D01*
X210501072Y-77154000D01*
X211085096Y-76912089D01*
X211455000Y-76542185D01*
X211824904Y-76912089D01*
X212408928Y-77154000D01*
X213041072Y-77154000D01*
X213625096Y-76912089D01*
X213991972Y-76545213D01*
X214464392Y-76545213D01*
X214533857Y-76787397D01*
X215057302Y-76974144D01*
X215612368Y-76946362D01*
X215996143Y-76787397D01*
X216065608Y-76545213D01*
X215265000Y-75744605D01*
X214464392Y-76545213D01*
X213991972Y-76545213D01*
X214072089Y-76465096D01*
X214131509Y-76321644D01*
X214284787Y-76365608D01*
X215085395Y-75565000D01*
X214284787Y-74764392D01*
X214131509Y-74808356D01*
X214072089Y-74664904D01*
X213991972Y-74584787D01*
X214464392Y-74584787D01*
X215265000Y-75385395D01*
X216065608Y-74584787D01*
X215996143Y-74342603D01*
X215472698Y-74155856D01*
X214917632Y-74183638D01*
X214533857Y-74342603D01*
X214464392Y-74584787D01*
X213991972Y-74584787D01*
X213625096Y-74217911D01*
X213345262Y-74102000D01*
X217184738Y-74102000D01*
X216904904Y-74217911D01*
X216457911Y-74664904D01*
X216398491Y-74808356D01*
X216245213Y-74764392D01*
X215444605Y-75565000D01*
X216245213Y-76365608D01*
X216398491Y-76321644D01*
X216457911Y-76465096D01*
X216904904Y-76912089D01*
X217488928Y-77154000D01*
X218121072Y-77154000D01*
X218705096Y-76912089D01*
X218725185Y-76892000D01*
X222487477Y-76892000D01*
X222865667Y-77144699D01*
X223354832Y-77242000D01*
X223685168Y-77242000D01*
X224174333Y-77144699D01*
X224729049Y-76774049D01*
X224924585Y-76481409D01*
X225178642Y-76760183D01*
X225703108Y-77006486D01*
X225933000Y-76885819D01*
X225933000Y-75692000D01*
X226187000Y-75692000D01*
X226187000Y-76885819D01*
X226416892Y-77006486D01*
X226941358Y-76760183D01*
X227331645Y-76331924D01*
X227370565Y-76237956D01*
X231512965Y-76237956D01*
X232032122Y-77502027D01*
X232043797Y-77519499D01*
X232497660Y-77837735D01*
X234770395Y-75565000D01*
X232497660Y-73292265D01*
X232043797Y-73610501D01*
X231517064Y-74871434D01*
X231512965Y-76237956D01*
X227370565Y-76237956D01*
X227501476Y-75921890D01*
X227380155Y-75692000D01*
X226187000Y-75692000D01*
X225933000Y-75692000D01*
X225913000Y-75692000D01*
X225913000Y-75438000D01*
X225933000Y-75438000D01*
X225933000Y-75418000D01*
X226187000Y-75418000D01*
X226187000Y-75438000D01*
X227380155Y-75438000D01*
X227501476Y-75208110D01*
X227331645Y-74798076D01*
X226988478Y-74421521D01*
X227269049Y-74234049D01*
X227639699Y-73679333D01*
X227752417Y-73112660D01*
X232677265Y-73112660D01*
X234950000Y-75385395D01*
X237222735Y-73112660D01*
X236904499Y-72658797D01*
X235643566Y-72132064D01*
X234277044Y-72127965D01*
X233012973Y-72647122D01*
X232995501Y-72658797D01*
X232677265Y-73112660D01*
X227752417Y-73112660D01*
X227769854Y-73025000D01*
X227639699Y-72370667D01*
X227269049Y-71815951D01*
X226714333Y-71445301D01*
X226225168Y-71348000D01*
X225906107Y-71348000D01*
X225482359Y-70924252D01*
X225422273Y-70834327D01*
X225410559Y-70826500D01*
X233175734Y-70826500D01*
X233281800Y-70847598D01*
X233387866Y-70826500D01*
X233387872Y-70826500D01*
X233702024Y-70764011D01*
X234058273Y-70525973D01*
X234118359Y-70436048D01*
X237685751Y-66868657D01*
X237775673Y-66808573D01*
X237858000Y-66685362D01*
X237858000Y-73613190D01*
X237856203Y-73610501D01*
X237402340Y-73292265D01*
X235129605Y-75565000D01*
X237402340Y-77837735D01*
X237856203Y-77519499D01*
X237858000Y-77515197D01*
X237858000Y-78473000D01*
X236901810Y-78473000D01*
X236904499Y-78471203D01*
X237222735Y-78017340D01*
X234950000Y-75744605D01*
X232677265Y-78017340D01*
X232995501Y-78471203D01*
X232999803Y-78473000D01*
X164511810Y-78473000D01*
X164514499Y-78471203D01*
X164832735Y-78017340D01*
X162560000Y-75744605D01*
X160287265Y-78017340D01*
X160605501Y-78471203D01*
X160609803Y-78473000D01*
X159652000Y-78473000D01*
X159652000Y-77516810D01*
X159653797Y-77519499D01*
X160107660Y-77837735D01*
X162380395Y-75565000D01*
X162739605Y-75565000D01*
X165012340Y-77837735D01*
X165466203Y-77519499D01*
X165992936Y-76258566D01*
X165997035Y-74892044D01*
X165477878Y-73627973D01*
X165466203Y-73610501D01*
X165012340Y-73292265D01*
X162739605Y-75565000D01*
X162380395Y-75565000D01*
X160107660Y-73292265D01*
X159653797Y-73610501D01*
X159652000Y-73614803D01*
X159652000Y-73112660D01*
X160287265Y-73112660D01*
X162560000Y-75385395D01*
X164832735Y-73112660D01*
X164514499Y-72658797D01*
X163253566Y-72132064D01*
X161887044Y-72127965D01*
X160622973Y-72647122D01*
X160605501Y-72658797D01*
X160287265Y-73112660D01*
X159652000Y-73112660D01*
X159652000Y-65405000D01*
X162120146Y-65405000D01*
X162250301Y-66059333D01*
X162620951Y-66614049D01*
X163175667Y-66984699D01*
X163664832Y-67082000D01*
X163995168Y-67082000D01*
X164484333Y-66984699D01*
X165039049Y-66614049D01*
X165409699Y-66059333D01*
X165539854Y-65405000D01*
X165409699Y-64750667D01*
X165165511Y-64385215D01*
X165276233Y-64311233D01*
X165459016Y-64037679D01*
X165523201Y-63715000D01*
X165523201Y-62015000D01*
X165459016Y-61692321D01*
X165276233Y-61418767D01*
X165002679Y-61235984D01*
X164680000Y-61171799D01*
X162980000Y-61171799D01*
X162657321Y-61235984D01*
X162383767Y-61418767D01*
X162200984Y-61692321D01*
X162136799Y-62015000D01*
X162136799Y-63715000D01*
X162200984Y-64037679D01*
X162383767Y-64311233D01*
X162494489Y-64385215D01*
X162250301Y-64750667D01*
X162120146Y-65405000D01*
X159652000Y-65405000D01*
X159652000Y-50357000D01*
X171450000Y-50357000D01*
X171766479Y-50294048D01*
X172034777Y-50114777D01*
X172214048Y-49846479D01*
X172277000Y-49530000D01*
X172277000Y-48252493D01*
X172290310Y-48243600D01*
X172293690Y-48245000D01*
X172434250Y-48245000D01*
X172593000Y-48086250D01*
X172593000Y-47611010D01*
X172593201Y-47610000D01*
X172593201Y-47182000D01*
X172846799Y-47182000D01*
X172846799Y-47610000D01*
G36*
X187390893Y-58736000D02*
X187008928Y-58736000D01*
X186424904Y-58977911D01*
X186055000Y-59347815D01*
X185685096Y-58977911D01*
X185101072Y-58736000D01*
X184468928Y-58736000D01*
X183884904Y-58977911D01*
X183515000Y-59347815D01*
X183145096Y-58977911D01*
X182561072Y-58736000D01*
X181928928Y-58736000D01*
X181344904Y-58977911D01*
X180975000Y-59347815D01*
X180605096Y-58977911D01*
X180021072Y-58736000D01*
X179388928Y-58736000D01*
X178804904Y-58977911D01*
X178435000Y-59347815D01*
X178065096Y-58977911D01*
X177481072Y-58736000D01*
X176848928Y-58736000D01*
X176264904Y-58977911D01*
X175895000Y-59347815D01*
X175525096Y-58977911D01*
X174941072Y-58736000D01*
X174308928Y-58736000D01*
X173724904Y-58977911D01*
X173277911Y-59424904D01*
X173218491Y-59568356D01*
X173065213Y-59524392D01*
X172264605Y-60325000D01*
X173065213Y-61125608D01*
X173218491Y-61081644D01*
X173277911Y-61225096D01*
X173724904Y-61672089D01*
X174308928Y-61914000D01*
X174337340Y-61914000D01*
X176551954Y-64128615D01*
X176625987Y-64239413D01*
X177064930Y-64532706D01*
X177452004Y-64609700D01*
X177452007Y-64609700D01*
X177582699Y-64635696D01*
X177713391Y-64609700D01*
X192541796Y-64609700D01*
X192928870Y-64532706D01*
X193367813Y-64239413D01*
X193661106Y-63800470D01*
X193764097Y-63282700D01*
X193661106Y-62764930D01*
X193627343Y-62714400D01*
X197083500Y-62714400D01*
X197083500Y-63012265D01*
X197145736Y-63162515D01*
X197075827Y-63209227D01*
X197015743Y-63299149D01*
X195483593Y-64831300D01*
X195121461Y-64981300D01*
X194776300Y-65326461D01*
X194589500Y-65777435D01*
X194589500Y-66265565D01*
X194776300Y-66716539D01*
X195121461Y-67061700D01*
X195572435Y-67248500D01*
X196060565Y-67248500D01*
X196511539Y-67061700D01*
X196856700Y-66716539D01*
X197006700Y-66354407D01*
X198282816Y-65078292D01*
X198310500Y-65083799D01*
X198416571Y-65062700D01*
X217663793Y-65062700D01*
X219147527Y-66546434D01*
X219064500Y-66629461D01*
X218877700Y-67080435D01*
X218877700Y-67377500D01*
X189461568Y-67377500D01*
X189355500Y-67356402D01*
X189249432Y-67377500D01*
X189249428Y-67377500D01*
X188998277Y-67427457D01*
X188935275Y-67439989D01*
X188668950Y-67617942D01*
X188668949Y-67617943D01*
X188579027Y-67678027D01*
X188518943Y-67767949D01*
X182310893Y-73976000D01*
X181928928Y-73976000D01*
X181344904Y-74217911D01*
X180975000Y-74587815D01*
X180605096Y-74217911D01*
X180021072Y-73976000D01*
X179388928Y-73976000D01*
X178804904Y-74217911D01*
X178435000Y-74587815D01*
X178065096Y-74217911D01*
X177481072Y-73976000D01*
X176848928Y-73976000D01*
X176264904Y-74217911D01*
X175895000Y-74587815D01*
X175525096Y-74217911D01*
X174941072Y-73976000D01*
X174308928Y-73976000D01*
X173724904Y-74217911D01*
X173355000Y-74587815D01*
X172985096Y-74217911D01*
X172401072Y-73976000D01*
X172019108Y-73976000D01*
X169290200Y-71247093D01*
X169290200Y-61717340D01*
X169337302Y-61734144D01*
X169892368Y-61706362D01*
X170276143Y-61547397D01*
X170345608Y-61305213D01*
X171284392Y-61305213D01*
X171353857Y-61547397D01*
X171877302Y-61734144D01*
X172432368Y-61706362D01*
X172816143Y-61547397D01*
X172885608Y-61305213D01*
X172085000Y-60504605D01*
X171284392Y-61305213D01*
X170345608Y-61305213D01*
X169545000Y-60504605D01*
X169530858Y-60518748D01*
X169351253Y-60339143D01*
X169365395Y-60325000D01*
X169724605Y-60325000D01*
X170525213Y-61125608D01*
X170767397Y-61056143D01*
X170811453Y-60932656D01*
X170862603Y-61056143D01*
X171104787Y-61125608D01*
X171905395Y-60325000D01*
X171104787Y-59524392D01*
X170862603Y-59593857D01*
X170818547Y-59717344D01*
X170767397Y-59593857D01*
X170525213Y-59524392D01*
X169724605Y-60325000D01*
X169365395Y-60325000D01*
X169351253Y-60310858D01*
X169530858Y-60131253D01*
X169545000Y-60145395D01*
X170345608Y-59344787D01*
X171284392Y-59344787D01*
X172085000Y-60145395D01*
X172885608Y-59344787D01*
X172816143Y-59102603D01*
X172292698Y-58915856D01*
X171737632Y-58943638D01*
X171353857Y-59102603D01*
X171284392Y-59344787D01*
X170345608Y-59344787D01*
X170310572Y-59222636D01*
X171470108Y-58063100D01*
X188063792Y-58063100D01*
X187390893Y-58736000D01*
X187390893Y-58736000D01*
G37*
X187390893Y-58736000D02*
X187008928Y-58736000D01*
X186424904Y-58977911D01*
X186055000Y-59347815D01*
X185685096Y-58977911D01*
X185101072Y-58736000D01*
X184468928Y-58736000D01*
X183884904Y-58977911D01*
X183515000Y-59347815D01*
X183145096Y-58977911D01*
X182561072Y-58736000D01*
X181928928Y-58736000D01*
X181344904Y-58977911D01*
X180975000Y-59347815D01*
X180605096Y-58977911D01*
X180021072Y-58736000D01*
X179388928Y-58736000D01*
X178804904Y-58977911D01*
X178435000Y-59347815D01*
X178065096Y-58977911D01*
X177481072Y-58736000D01*
X176848928Y-58736000D01*
X176264904Y-58977911D01*
X175895000Y-59347815D01*
X175525096Y-58977911D01*
X174941072Y-58736000D01*
X174308928Y-58736000D01*
X173724904Y-58977911D01*
X173277911Y-59424904D01*
X173218491Y-59568356D01*
X173065213Y-59524392D01*
X172264605Y-60325000D01*
X173065213Y-61125608D01*
X173218491Y-61081644D01*
X173277911Y-61225096D01*
X173724904Y-61672089D01*
X174308928Y-61914000D01*
X174337340Y-61914000D01*
X176551954Y-64128615D01*
X176625987Y-64239413D01*
X177064930Y-64532706D01*
X177452004Y-64609700D01*
X177452007Y-64609700D01*
X177582699Y-64635696D01*
X177713391Y-64609700D01*
X192541796Y-64609700D01*
X192928870Y-64532706D01*
X193367813Y-64239413D01*
X193661106Y-63800470D01*
X193764097Y-63282700D01*
X193661106Y-62764930D01*
X193627343Y-62714400D01*
X197083500Y-62714400D01*
X197083500Y-63012265D01*
X197145736Y-63162515D01*
X197075827Y-63209227D01*
X197015743Y-63299149D01*
X195483593Y-64831300D01*
X195121461Y-64981300D01*
X194776300Y-65326461D01*
X194589500Y-65777435D01*
X194589500Y-66265565D01*
X194776300Y-66716539D01*
X195121461Y-67061700D01*
X195572435Y-67248500D01*
X196060565Y-67248500D01*
X196511539Y-67061700D01*
X196856700Y-66716539D01*
X197006700Y-66354407D01*
X198282816Y-65078292D01*
X198310500Y-65083799D01*
X198416571Y-65062700D01*
X217663793Y-65062700D01*
X219147527Y-66546434D01*
X219064500Y-66629461D01*
X218877700Y-67080435D01*
X218877700Y-67377500D01*
X189461568Y-67377500D01*
X189355500Y-67356402D01*
X189249432Y-67377500D01*
X189249428Y-67377500D01*
X188998277Y-67427457D01*
X188935275Y-67439989D01*
X188668950Y-67617942D01*
X188668949Y-67617943D01*
X188579027Y-67678027D01*
X188518943Y-67767949D01*
X182310893Y-73976000D01*
X181928928Y-73976000D01*
X181344904Y-74217911D01*
X180975000Y-74587815D01*
X180605096Y-74217911D01*
X180021072Y-73976000D01*
X179388928Y-73976000D01*
X178804904Y-74217911D01*
X178435000Y-74587815D01*
X178065096Y-74217911D01*
X177481072Y-73976000D01*
X176848928Y-73976000D01*
X176264904Y-74217911D01*
X175895000Y-74587815D01*
X175525096Y-74217911D01*
X174941072Y-73976000D01*
X174308928Y-73976000D01*
X173724904Y-74217911D01*
X173355000Y-74587815D01*
X172985096Y-74217911D01*
X172401072Y-73976000D01*
X172019108Y-73976000D01*
X169290200Y-71247093D01*
X169290200Y-61717340D01*
X169337302Y-61734144D01*
X169892368Y-61706362D01*
X170276143Y-61547397D01*
X170345608Y-61305213D01*
X171284392Y-61305213D01*
X171353857Y-61547397D01*
X171877302Y-61734144D01*
X172432368Y-61706362D01*
X172816143Y-61547397D01*
X172885608Y-61305213D01*
X172085000Y-60504605D01*
X171284392Y-61305213D01*
X170345608Y-61305213D01*
X169545000Y-60504605D01*
X169530858Y-60518748D01*
X169351253Y-60339143D01*
X169365395Y-60325000D01*
X169724605Y-60325000D01*
X170525213Y-61125608D01*
X170767397Y-61056143D01*
X170811453Y-60932656D01*
X170862603Y-61056143D01*
X171104787Y-61125608D01*
X171905395Y-60325000D01*
X171104787Y-59524392D01*
X170862603Y-59593857D01*
X170818547Y-59717344D01*
X170767397Y-59593857D01*
X170525213Y-59524392D01*
X169724605Y-60325000D01*
X169365395Y-60325000D01*
X169351253Y-60310858D01*
X169530858Y-60131253D01*
X169545000Y-60145395D01*
X170345608Y-59344787D01*
X171284392Y-59344787D01*
X172085000Y-60145395D01*
X172885608Y-59344787D01*
X172816143Y-59102603D01*
X172292698Y-58915856D01*
X171737632Y-58943638D01*
X171353857Y-59102603D01*
X171284392Y-59344787D01*
X170345608Y-59344787D01*
X170310572Y-59222636D01*
X171470108Y-58063100D01*
X188063792Y-58063100D01*
X187390893Y-58736000D01*
G36*
X235712000Y-65278000D02*
X235732000Y-65278000D01*
X235732000Y-65532000D01*
X235712000Y-65532000D01*
X235712000Y-65552000D01*
X235458000Y-65552000D01*
X235458000Y-65532000D01*
X235438000Y-65532000D01*
X235438000Y-65278000D01*
X235458000Y-65278000D01*
X235458000Y-65258000D01*
X235712000Y-65258000D01*
X235712000Y-65278000D01*
X235712000Y-65278000D01*
G37*
X235712000Y-65278000D02*
X235732000Y-65278000D01*
X235732000Y-65532000D01*
X235712000Y-65532000D01*
X235712000Y-65552000D01*
X235458000Y-65552000D01*
X235458000Y-65532000D01*
X235438000Y-65532000D01*
X235438000Y-65278000D01*
X235458000Y-65278000D01*
X235458000Y-65258000D01*
X235712000Y-65258000D01*
X235712000Y-65278000D01*
G36*
X222199845Y-62738000D02*
X223393000Y-62738000D01*
X223393000Y-62718000D01*
X223647000Y-62718000D01*
X223647000Y-62738000D01*
X225933000Y-62738000D01*
X225933000Y-62718000D01*
X226187000Y-62718000D01*
X226187000Y-62738000D01*
X228473000Y-62738000D01*
X228473000Y-62718000D01*
X228727000Y-62718000D01*
X228727000Y-62738000D01*
X229920155Y-62738000D01*
X229945868Y-62689276D01*
X230808143Y-63551551D01*
X230868227Y-63641473D01*
X230958149Y-63701557D01*
X230958150Y-63701558D01*
X231069537Y-63775984D01*
X231224476Y-63879511D01*
X231391116Y-63912658D01*
X231415984Y-64037679D01*
X231598767Y-64311233D01*
X231604309Y-64314936D01*
X231538633Y-64328000D01*
X231538628Y-64328000D01*
X231224476Y-64390489D01*
X231143345Y-64444699D01*
X230958150Y-64568442D01*
X230958149Y-64568443D01*
X230868227Y-64628527D01*
X230808143Y-64718449D01*
X230293201Y-65233391D01*
X230293201Y-64555000D01*
X230229016Y-64232321D01*
X230046233Y-63958767D01*
X229772679Y-63775984D01*
X229745318Y-63770542D01*
X229871645Y-63631924D01*
X230041476Y-63221890D01*
X229920155Y-62992000D01*
X228727000Y-62992000D01*
X228727000Y-63012000D01*
X228473000Y-63012000D01*
X228473000Y-62992000D01*
X226187000Y-62992000D01*
X226187000Y-63012000D01*
X225933000Y-63012000D01*
X225933000Y-62992000D01*
X223647000Y-62992000D01*
X223647000Y-63012000D01*
X223393000Y-63012000D01*
X223393000Y-62992000D01*
X222199845Y-62992000D01*
X222078524Y-63221890D01*
X222096996Y-63266489D01*
X221359007Y-62528500D01*
X222089285Y-62528500D01*
X222199845Y-62738000D01*
X222199845Y-62738000D01*
G37*
X222199845Y-62738000D02*
X223393000Y-62738000D01*
X223393000Y-62718000D01*
X223647000Y-62718000D01*
X223647000Y-62738000D01*
X225933000Y-62738000D01*
X225933000Y-62718000D01*
X226187000Y-62718000D01*
X226187000Y-62738000D01*
X228473000Y-62738000D01*
X228473000Y-62718000D01*
X228727000Y-62718000D01*
X228727000Y-62738000D01*
X229920155Y-62738000D01*
X229945868Y-62689276D01*
X230808143Y-63551551D01*
X230868227Y-63641473D01*
X230958149Y-63701557D01*
X230958150Y-63701558D01*
X231069537Y-63775984D01*
X231224476Y-63879511D01*
X231391116Y-63912658D01*
X231415984Y-64037679D01*
X231598767Y-64311233D01*
X231604309Y-64314936D01*
X231538633Y-64328000D01*
X231538628Y-64328000D01*
X231224476Y-64390489D01*
X231143345Y-64444699D01*
X230958150Y-64568442D01*
X230958149Y-64568443D01*
X230868227Y-64628527D01*
X230808143Y-64718449D01*
X230293201Y-65233391D01*
X230293201Y-64555000D01*
X230229016Y-64232321D01*
X230046233Y-63958767D01*
X229772679Y-63775984D01*
X229745318Y-63770542D01*
X229871645Y-63631924D01*
X230041476Y-63221890D01*
X229920155Y-62992000D01*
X228727000Y-62992000D01*
X228727000Y-63012000D01*
X228473000Y-63012000D01*
X228473000Y-62992000D01*
X226187000Y-62992000D01*
X226187000Y-63012000D01*
X225933000Y-63012000D01*
X225933000Y-62992000D01*
X223647000Y-62992000D01*
X223647000Y-63012000D01*
X223393000Y-63012000D01*
X223393000Y-62992000D01*
X222199845Y-62992000D01*
X222078524Y-63221890D01*
X222096996Y-63266489D01*
X221359007Y-62528500D01*
X222089285Y-62528500D01*
X222199845Y-62738000D01*
G36*
X160605501Y-25033797D02*
X160287265Y-25487660D01*
X162560000Y-27760395D01*
X164832735Y-25487660D01*
X164514499Y-25033797D01*
X164510197Y-25032000D01*
X178013499Y-25032000D01*
X177798355Y-25268076D01*
X177628524Y-25678110D01*
X177749845Y-25908000D01*
X178943000Y-25908000D01*
X178943000Y-25888000D01*
X179197000Y-25888000D01*
X179197000Y-25908000D01*
X180390155Y-25908000D01*
X180511476Y-25678110D01*
X180341645Y-25268076D01*
X180126501Y-25032000D01*
X193253499Y-25032000D01*
X193038355Y-25268076D01*
X192868524Y-25678110D01*
X192989845Y-25908000D01*
X194183000Y-25908000D01*
X194183000Y-25888000D01*
X194437000Y-25888000D01*
X194437000Y-25908000D01*
X195630155Y-25908000D01*
X195751476Y-25678110D01*
X195581645Y-25268076D01*
X195366501Y-25032000D01*
X208493499Y-25032000D01*
X208278355Y-25268076D01*
X208108524Y-25678110D01*
X208229845Y-25908000D01*
X209423000Y-25908000D01*
X209423000Y-25888000D01*
X209677000Y-25888000D01*
X209677000Y-25908000D01*
X210870155Y-25908000D01*
X210991476Y-25678110D01*
X210821645Y-25268076D01*
X210606501Y-25032000D01*
X212303499Y-25032000D01*
X212088355Y-25268076D01*
X211918524Y-25678110D01*
X212039845Y-25908000D01*
X213233000Y-25908000D01*
X213233000Y-25888000D01*
X213487000Y-25888000D01*
X213487000Y-25908000D01*
X214680155Y-25908000D01*
X214801476Y-25678110D01*
X214631645Y-25268076D01*
X214416501Y-25032000D01*
X216113499Y-25032000D01*
X215898355Y-25268076D01*
X215728524Y-25678110D01*
X215849845Y-25908000D01*
X217043000Y-25908000D01*
X217043000Y-25888000D01*
X217297000Y-25888000D01*
X217297000Y-25908000D01*
X218490155Y-25908000D01*
X218611476Y-25678110D01*
X218441645Y-25268076D01*
X218226501Y-25032000D01*
X232998190Y-25032000D01*
X232995501Y-25033797D01*
X232677265Y-25487660D01*
X234950000Y-27760395D01*
X237222735Y-25487660D01*
X236904499Y-25033797D01*
X236900197Y-25032000D01*
X237858001Y-25032000D01*
X237858001Y-25988192D01*
X237856203Y-25985501D01*
X237402340Y-25667265D01*
X235129605Y-27940000D01*
X237402340Y-30212735D01*
X237856203Y-29894499D01*
X237858001Y-29890195D01*
X237858000Y-63625938D01*
X237835758Y-63592650D01*
X237835757Y-63592649D01*
X237775673Y-63502727D01*
X237685751Y-63442643D01*
X237263871Y-63020763D01*
X237294854Y-62865000D01*
X237164699Y-62210667D01*
X236794049Y-61655951D01*
X236239333Y-61285301D01*
X235750168Y-61188000D01*
X235419832Y-61188000D01*
X234930667Y-61285301D01*
X234565215Y-61529489D01*
X234491233Y-61418767D01*
X234217679Y-61235984D01*
X233895000Y-61171799D01*
X232195000Y-61171799D01*
X231872321Y-61235984D01*
X231672385Y-61369577D01*
X231067759Y-60764952D01*
X231007673Y-60675027D01*
X230651424Y-60436989D01*
X230337272Y-60374500D01*
X230337266Y-60374500D01*
X230231200Y-60353402D01*
X230125134Y-60374500D01*
X220374466Y-60374500D01*
X220268399Y-60353402D01*
X220162333Y-60374500D01*
X220162328Y-60374500D01*
X219848176Y-60436989D01*
X219663478Y-60560400D01*
X219394000Y-60560400D01*
X219394000Y-60008928D01*
X219152089Y-59424904D01*
X218705096Y-58977911D01*
X218121072Y-58736000D01*
X217488928Y-58736000D01*
X216904904Y-58977911D01*
X216535000Y-59347815D01*
X216165096Y-58977911D01*
X215581072Y-58736000D01*
X214948928Y-58736000D01*
X214364904Y-58977911D01*
X213995000Y-59347815D01*
X213625096Y-58977911D01*
X213167000Y-58788161D01*
X213167000Y-48453201D01*
X213660000Y-48453201D01*
X213982679Y-48389016D01*
X213995000Y-48380783D01*
X214007321Y-48389016D01*
X214330000Y-48453201D01*
X214930000Y-48453201D01*
X215073000Y-48424756D01*
X215073000Y-48895000D01*
X215135952Y-49211479D01*
X215315223Y-49479777D01*
X215583521Y-49659048D01*
X215900000Y-49722000D01*
X218440000Y-49722000D01*
X218756479Y-49659048D01*
X219024777Y-49479777D01*
X219134877Y-49315000D01*
X222461799Y-49315000D01*
X222461799Y-51015000D01*
X222525984Y-51337679D01*
X222708767Y-51611233D01*
X222982321Y-51794016D01*
X223305000Y-51858201D01*
X225005000Y-51858201D01*
X225327679Y-51794016D01*
X225601233Y-51611233D01*
X225784016Y-51337679D01*
X225848201Y-51015000D01*
X225848201Y-50450750D01*
X232830000Y-50450750D01*
X232830000Y-51141309D01*
X232926673Y-51374698D01*
X233105301Y-51553327D01*
X233338690Y-51650000D01*
X234029250Y-51650000D01*
X234188000Y-51491250D01*
X234188000Y-50292000D01*
X234442000Y-50292000D01*
X234442000Y-51491250D01*
X234600750Y-51650000D01*
X235291310Y-51650000D01*
X235524699Y-51553327D01*
X235703327Y-51374698D01*
X235800000Y-51141309D01*
X235800000Y-50450750D01*
X235641250Y-50292000D01*
X234442000Y-50292000D01*
X234188000Y-50292000D01*
X232988750Y-50292000D01*
X232830000Y-50450750D01*
X225848201Y-50450750D01*
X225848201Y-49315000D01*
X225823077Y-49188691D01*
X232830000Y-49188691D01*
X232830000Y-49879250D01*
X232988750Y-50038000D01*
X234188000Y-50038000D01*
X234188000Y-48838750D01*
X234442000Y-48838750D01*
X234442000Y-50038000D01*
X235641250Y-50038000D01*
X235800000Y-49879250D01*
X235800000Y-49188691D01*
X235703327Y-48955302D01*
X235524699Y-48776673D01*
X235291310Y-48680000D01*
X234600750Y-48680000D01*
X234442000Y-48838750D01*
X234188000Y-48838750D01*
X234029250Y-48680000D01*
X233338690Y-48680000D01*
X233105301Y-48776673D01*
X232926673Y-48955302D01*
X232830000Y-49188691D01*
X225823077Y-49188691D01*
X225784016Y-48992321D01*
X225601233Y-48718767D01*
X225327679Y-48535984D01*
X225005000Y-48471799D01*
X223305000Y-48471799D01*
X222982321Y-48535984D01*
X222708767Y-48718767D01*
X222525984Y-48992321D01*
X222461799Y-49315000D01*
X219134877Y-49315000D01*
X219204048Y-49211479D01*
X219267000Y-48895000D01*
X219267000Y-40754159D01*
X219580145Y-40544923D01*
X223129346Y-36995723D01*
X223281894Y-36893794D01*
X223376637Y-36752000D01*
X224394943Y-36752000D01*
X224927860Y-36645996D01*
X224969458Y-36618201D01*
X225065000Y-36618201D01*
X225387679Y-36554016D01*
X225661233Y-36371233D01*
X225844016Y-36097679D01*
X225908201Y-35775000D01*
X225908201Y-35679458D01*
X225935996Y-35637860D01*
X226020953Y-35210750D01*
X232830000Y-35210750D01*
X232830000Y-35901309D01*
X232926673Y-36134698D01*
X233105301Y-36313327D01*
X233338690Y-36410000D01*
X234029250Y-36410000D01*
X234188000Y-36251250D01*
X234188000Y-35052000D01*
X234442000Y-35052000D01*
X234442000Y-36251250D01*
X234600750Y-36410000D01*
X235291310Y-36410000D01*
X235524699Y-36313327D01*
X235703327Y-36134698D01*
X235800000Y-35901309D01*
X235800000Y-35210750D01*
X235641250Y-35052000D01*
X234442000Y-35052000D01*
X234188000Y-35052000D01*
X232988750Y-35052000D01*
X232830000Y-35210750D01*
X226020953Y-35210750D01*
X226077793Y-34925000D01*
X225935996Y-34212140D01*
X225908201Y-34170542D01*
X225908201Y-34075000D01*
X225883077Y-33948691D01*
X232830000Y-33948691D01*
X232830000Y-34639250D01*
X232988750Y-34798000D01*
X234188000Y-34798000D01*
X234188000Y-33598750D01*
X234442000Y-33598750D01*
X234442000Y-34798000D01*
X235641250Y-34798000D01*
X235800000Y-34639250D01*
X235800000Y-33948691D01*
X235703327Y-33715302D01*
X235524699Y-33536673D01*
X235291310Y-33440000D01*
X234600750Y-33440000D01*
X234442000Y-33598750D01*
X234188000Y-33598750D01*
X234029250Y-33440000D01*
X233338690Y-33440000D01*
X233105301Y-33536673D01*
X232926673Y-33715302D01*
X232830000Y-33948691D01*
X225883077Y-33948691D01*
X225844016Y-33752321D01*
X225661233Y-33478767D01*
X225387679Y-33295984D01*
X225065000Y-33231799D01*
X224969458Y-33231799D01*
X224927860Y-33204004D01*
X224394943Y-33098000D01*
X222144643Y-33098000D01*
X221964700Y-33062207D01*
X221784757Y-33098000D01*
X221251840Y-33204004D01*
X220647506Y-33607806D01*
X220243704Y-34212140D01*
X220119133Y-34838398D01*
X219267000Y-35690531D01*
X219267000Y-34925000D01*
X219204048Y-34608521D01*
X219024777Y-34340223D01*
X218756479Y-34160952D01*
X218440000Y-34098000D01*
X217718361Y-34098000D01*
X218015917Y-33800444D01*
X218126712Y-33726413D01*
X218200744Y-33615617D01*
X218200746Y-33615615D01*
X218420006Y-33287470D01*
X218436608Y-33204004D01*
X218497000Y-32900396D01*
X218497000Y-32900393D01*
X218522996Y-32769701D01*
X218497000Y-32639009D01*
X218497000Y-30392340D01*
X232677265Y-30392340D01*
X232995501Y-30846203D01*
X234256434Y-31372936D01*
X235622956Y-31377035D01*
X236887027Y-30857878D01*
X236904499Y-30846203D01*
X237222735Y-30392340D01*
X234950000Y-28119605D01*
X232677265Y-30392340D01*
X218497000Y-30392340D01*
X218497000Y-30100902D01*
X218616233Y-30021233D01*
X218799016Y-29747679D01*
X218863201Y-29425000D01*
X218863201Y-28612956D01*
X231512965Y-28612956D01*
X232032122Y-29877027D01*
X232043797Y-29894499D01*
X232497660Y-30212735D01*
X234770395Y-27940000D01*
X232497660Y-25667265D01*
X232043797Y-25985501D01*
X231517064Y-27246434D01*
X231512965Y-28612956D01*
X218863201Y-28612956D01*
X218863201Y-27725000D01*
X218799016Y-27402321D01*
X218616233Y-27128767D01*
X218342679Y-26945984D01*
X218315318Y-26940542D01*
X218441645Y-26801924D01*
X218611476Y-26391890D01*
X218490155Y-26162000D01*
X217297000Y-26162000D01*
X217297000Y-26182000D01*
X217043000Y-26182000D01*
X217043000Y-26162000D01*
X215849845Y-26162000D01*
X215728524Y-26391890D01*
X215898355Y-26801924D01*
X216024682Y-26940542D01*
X215997321Y-26945984D01*
X215723767Y-27128767D01*
X215540984Y-27402321D01*
X215476799Y-27725000D01*
X215476799Y-29425000D01*
X215540984Y-29747679D01*
X215723767Y-30021233D01*
X215843001Y-30100902D01*
X215843000Y-32220039D01*
X214655827Y-33407213D01*
X214687000Y-33250496D01*
X214687000Y-33250493D01*
X214712996Y-33119801D01*
X214687000Y-32989109D01*
X214687000Y-30100902D01*
X214806233Y-30021233D01*
X214989016Y-29747679D01*
X215053201Y-29425000D01*
X215053201Y-27725000D01*
X214989016Y-27402321D01*
X214806233Y-27128767D01*
X214532679Y-26945984D01*
X214505318Y-26940542D01*
X214631645Y-26801924D01*
X214801476Y-26391890D01*
X214680155Y-26162000D01*
X213487000Y-26162000D01*
X213487000Y-26182000D01*
X213233000Y-26182000D01*
X213233000Y-26162000D01*
X212039845Y-26162000D01*
X211918524Y-26391890D01*
X212088355Y-26801924D01*
X212214682Y-26940542D01*
X212187321Y-26945984D01*
X211913767Y-27128767D01*
X211730984Y-27402321D01*
X211666799Y-27725000D01*
X211666799Y-29425000D01*
X211730984Y-29747679D01*
X211913767Y-30021233D01*
X212033001Y-30100902D01*
X212033000Y-32570139D01*
X210620440Y-33982700D01*
X209680696Y-33982700D01*
X209550000Y-33956703D01*
X209419305Y-33982700D01*
X209419304Y-33982700D01*
X209032230Y-34059694D01*
X208593287Y-34352987D01*
X208337000Y-34736547D01*
X208337000Y-33414960D01*
X210395915Y-31356046D01*
X210506713Y-31282013D01*
X210800006Y-30843070D01*
X210877000Y-30455996D01*
X210877000Y-30455993D01*
X210902996Y-30325301D01*
X210877000Y-30194609D01*
X210877000Y-30100902D01*
X210996233Y-30021233D01*
X211179016Y-29747679D01*
X211243201Y-29425000D01*
X211243201Y-27725000D01*
X211179016Y-27402321D01*
X210996233Y-27128767D01*
X210722679Y-26945984D01*
X210695318Y-26940542D01*
X210821645Y-26801924D01*
X210991476Y-26391890D01*
X210870155Y-26162000D01*
X209677000Y-26162000D01*
X209677000Y-26182000D01*
X209423000Y-26182000D01*
X209423000Y-26162000D01*
X208229845Y-26162000D01*
X208108524Y-26391890D01*
X208278355Y-26801924D01*
X208404682Y-26940542D01*
X208377321Y-26945984D01*
X208103767Y-27128767D01*
X207920984Y-27402321D01*
X207856799Y-27725000D01*
X207856799Y-29425000D01*
X207920984Y-29747679D01*
X208053154Y-29945485D01*
X206164086Y-31834554D01*
X206053288Y-31908587D01*
X205979255Y-32019385D01*
X205979254Y-32019386D01*
X205759994Y-32347531D01*
X205657004Y-32865300D01*
X205683001Y-32995996D01*
X205683001Y-33968041D01*
X205609305Y-33982700D01*
X205609304Y-33982700D01*
X205222230Y-34059694D01*
X204783287Y-34352987D01*
X204489994Y-34791930D01*
X204470000Y-34892446D01*
X204450006Y-34791930D01*
X204156713Y-34352987D01*
X203717770Y-34059694D01*
X203516737Y-34019706D01*
X203330696Y-33982700D01*
X203200000Y-33956703D01*
X203069305Y-33982700D01*
X202654392Y-33982700D01*
X202523700Y-33956704D01*
X202393008Y-33982700D01*
X202393004Y-33982700D01*
X202005930Y-34059694D01*
X201987000Y-34072343D01*
X201987000Y-32910991D01*
X202012996Y-32780299D01*
X201987000Y-32649607D01*
X201987000Y-32649604D01*
X201910006Y-32262530D01*
X201616713Y-31823587D01*
X201505915Y-31749554D01*
X201132280Y-31375919D01*
X201386233Y-31206233D01*
X201569016Y-30932679D01*
X201624901Y-30651724D01*
X203127882Y-30651724D01*
X203275455Y-30960106D01*
X204030031Y-31253405D01*
X204839409Y-31235614D01*
X205504545Y-30960106D01*
X205652118Y-30651724D01*
X204390000Y-29389605D01*
X203127882Y-30651724D01*
X201624901Y-30651724D01*
X201633201Y-30610000D01*
X201633201Y-28850031D01*
X202346595Y-28850031D01*
X202364386Y-29659409D01*
X202639894Y-30324545D01*
X202948276Y-30472118D01*
X204210395Y-29210000D01*
X204569605Y-29210000D01*
X205831724Y-30472118D01*
X206140106Y-30324545D01*
X206433405Y-29569969D01*
X206415614Y-28760591D01*
X206140106Y-28095455D01*
X205831724Y-27947882D01*
X204569605Y-29210000D01*
X204210395Y-29210000D01*
X202948276Y-27947882D01*
X202639894Y-28095455D01*
X202346595Y-28850031D01*
X201633201Y-28850031D01*
X201633201Y-27810000D01*
X201624902Y-27768276D01*
X203127882Y-27768276D01*
X204390000Y-29030395D01*
X205652118Y-27768276D01*
X205504545Y-27459894D01*
X204749969Y-27166595D01*
X203940591Y-27184386D01*
X203275455Y-27459894D01*
X203127882Y-27768276D01*
X201624902Y-27768276D01*
X201569016Y-27487321D01*
X201386233Y-27213767D01*
X201112679Y-27030984D01*
X200790000Y-26966799D01*
X197990000Y-26966799D01*
X197667321Y-27030984D01*
X197393767Y-27213767D01*
X197210984Y-27487321D01*
X197146799Y-27810000D01*
X197146799Y-30610000D01*
X197210984Y-30932679D01*
X197393767Y-31206233D01*
X197667321Y-31389016D01*
X197990000Y-31453201D01*
X198048362Y-31453201D01*
X198037004Y-31510300D01*
X198139994Y-32028069D01*
X198353452Y-32347530D01*
X198433288Y-32467013D01*
X198544086Y-32541046D01*
X199333001Y-33329961D01*
X199333000Y-34098000D01*
X189778360Y-34098000D01*
X193405617Y-30470744D01*
X193516412Y-30396713D01*
X193590444Y-30285917D01*
X193590446Y-30285915D01*
X193602282Y-30268201D01*
X195160000Y-30268201D01*
X195482679Y-30204016D01*
X195756233Y-30021233D01*
X195939016Y-29747679D01*
X196003201Y-29425000D01*
X196003201Y-27725000D01*
X195939016Y-27402321D01*
X195756233Y-27128767D01*
X195482679Y-26945984D01*
X195455318Y-26940542D01*
X195581645Y-26801924D01*
X195751476Y-26391890D01*
X195630155Y-26162000D01*
X194437000Y-26162000D01*
X194437000Y-26182000D01*
X194183000Y-26182000D01*
X194183000Y-26162000D01*
X192989845Y-26162000D01*
X192868524Y-26391890D01*
X193038355Y-26801924D01*
X193164682Y-26940542D01*
X193137321Y-26945984D01*
X192863767Y-27128767D01*
X192784098Y-27248000D01*
X192690396Y-27248000D01*
X192559700Y-27222003D01*
X192429005Y-27248000D01*
X192429004Y-27248000D01*
X192041930Y-27324994D01*
X191602987Y-27618287D01*
X191309694Y-28057230D01*
X191206703Y-28575000D01*
X191232700Y-28705696D01*
X191232700Y-28890339D01*
X191179632Y-28943407D01*
X191175614Y-28760591D01*
X190900106Y-28095455D01*
X190591724Y-27947882D01*
X189329605Y-29210000D01*
X189343748Y-29224143D01*
X189164143Y-29403748D01*
X189150000Y-29389605D01*
X187887882Y-30651724D01*
X188035455Y-30960106D01*
X188790031Y-31253405D01*
X188871424Y-31251616D01*
X186141012Y-33982028D01*
X186013700Y-33956704D01*
X185883008Y-33982700D01*
X185883004Y-33982700D01*
X185495930Y-34059694D01*
X185420000Y-34110429D01*
X185344070Y-34059694D01*
X184956996Y-33982700D01*
X184956992Y-33982700D01*
X184826300Y-33956704D01*
X184695608Y-33982700D01*
X184280696Y-33982700D01*
X184150000Y-33956703D01*
X184019305Y-33982700D01*
X184019304Y-33982700D01*
X183632230Y-34059694D01*
X183193287Y-34352987D01*
X182937000Y-34736547D01*
X182937000Y-34599960D01*
X184995915Y-32541046D01*
X185106713Y-32467013D01*
X185400006Y-32028070D01*
X185477000Y-31640996D01*
X185477000Y-31640993D01*
X185502996Y-31510301D01*
X185491638Y-31453201D01*
X185550000Y-31453201D01*
X185872679Y-31389016D01*
X186146233Y-31206233D01*
X186329016Y-30932679D01*
X186393201Y-30610000D01*
X186393201Y-28850031D01*
X187106595Y-28850031D01*
X187124386Y-29659409D01*
X187399894Y-30324545D01*
X187708276Y-30472118D01*
X188970395Y-29210000D01*
X187708276Y-27947882D01*
X187399894Y-28095455D01*
X187106595Y-28850031D01*
X186393201Y-28850031D01*
X186393201Y-27810000D01*
X186384902Y-27768276D01*
X187887882Y-27768276D01*
X189150000Y-29030395D01*
X190412118Y-27768276D01*
X190264545Y-27459894D01*
X189509969Y-27166595D01*
X188700591Y-27184386D01*
X188035455Y-27459894D01*
X187887882Y-27768276D01*
X186384902Y-27768276D01*
X186329016Y-27487321D01*
X186146233Y-27213767D01*
X185872679Y-27030984D01*
X185550000Y-26966799D01*
X182750000Y-26966799D01*
X182427321Y-27030984D01*
X182153767Y-27213767D01*
X181970984Y-27487321D01*
X181906799Y-27810000D01*
X181906799Y-30610000D01*
X181970984Y-30932679D01*
X182153767Y-31206233D01*
X182407720Y-31375919D01*
X180764086Y-33019554D01*
X180653288Y-33093587D01*
X180359994Y-33532530D01*
X180283000Y-33919604D01*
X180283000Y-33919608D01*
X180272969Y-33970036D01*
X180209305Y-33982700D01*
X180209304Y-33982700D01*
X179822230Y-34059694D01*
X179383287Y-34352987D01*
X179127000Y-34736547D01*
X179127000Y-32144960D01*
X179915915Y-31356046D01*
X180026713Y-31282013D01*
X180320006Y-30843070D01*
X180397000Y-30455996D01*
X180397000Y-30455993D01*
X180422996Y-30325301D01*
X180397000Y-30194609D01*
X180397000Y-30100902D01*
X180516233Y-30021233D01*
X180699016Y-29747679D01*
X180763201Y-29425000D01*
X180763201Y-27725000D01*
X180699016Y-27402321D01*
X180516233Y-27128767D01*
X180242679Y-26945984D01*
X180215318Y-26940542D01*
X180341645Y-26801924D01*
X180511476Y-26391890D01*
X180390155Y-26162000D01*
X179197000Y-26162000D01*
X179197000Y-26182000D01*
X178943000Y-26182000D01*
X178943000Y-26162000D01*
X177749845Y-26162000D01*
X177628524Y-26391890D01*
X177798355Y-26801924D01*
X177924682Y-26940542D01*
X177897321Y-26945984D01*
X177623767Y-27128767D01*
X177440984Y-27402321D01*
X177376799Y-27725000D01*
X177376799Y-29425000D01*
X177440984Y-29747679D01*
X177573154Y-29945485D01*
X176954086Y-30564554D01*
X176843288Y-30638587D01*
X176769255Y-30749385D01*
X176769254Y-30749386D01*
X176549994Y-31077531D01*
X176447004Y-31595300D01*
X176473001Y-31725996D01*
X176473000Y-33968041D01*
X176399305Y-33982700D01*
X176399304Y-33982700D01*
X176012230Y-34059694D01*
X175573287Y-34352987D01*
X175279994Y-34791930D01*
X175260000Y-34892446D01*
X175240006Y-34791930D01*
X174946713Y-34352987D01*
X174507770Y-34059694D01*
X174306737Y-34019706D01*
X174120696Y-33982700D01*
X173990000Y-33956703D01*
X173859305Y-33982700D01*
X173339062Y-33982700D01*
X170732280Y-31375919D01*
X170986233Y-31206233D01*
X171169016Y-30932679D01*
X171224901Y-30651724D01*
X172727882Y-30651724D01*
X172875455Y-30960106D01*
X173630031Y-31253405D01*
X174439409Y-31235614D01*
X175104545Y-30960106D01*
X175252118Y-30651724D01*
X173990000Y-29389605D01*
X172727882Y-30651724D01*
X171224901Y-30651724D01*
X171233201Y-30610000D01*
X171233201Y-28850031D01*
X171946595Y-28850031D01*
X171964386Y-29659409D01*
X172239894Y-30324545D01*
X172548276Y-30472118D01*
X173810395Y-29210000D01*
X174169605Y-29210000D01*
X175431724Y-30472118D01*
X175740106Y-30324545D01*
X176033405Y-29569969D01*
X176015614Y-28760591D01*
X175740106Y-28095455D01*
X175431724Y-27947882D01*
X174169605Y-29210000D01*
X173810395Y-29210000D01*
X172548276Y-27947882D01*
X172239894Y-28095455D01*
X171946595Y-28850031D01*
X171233201Y-28850031D01*
X171233201Y-27810000D01*
X171224902Y-27768276D01*
X172727882Y-27768276D01*
X173990000Y-29030395D01*
X175252118Y-27768276D01*
X175104545Y-27459894D01*
X174349969Y-27166595D01*
X173540591Y-27184386D01*
X172875455Y-27459894D01*
X172727882Y-27768276D01*
X171224902Y-27768276D01*
X171169016Y-27487321D01*
X170986233Y-27213767D01*
X170712679Y-27030984D01*
X170390000Y-26966799D01*
X167590000Y-26966799D01*
X167267321Y-27030984D01*
X166993767Y-27213767D01*
X166810984Y-27487321D01*
X166746799Y-27810000D01*
X166746799Y-30610000D01*
X166810984Y-30932679D01*
X166993767Y-31206233D01*
X167267321Y-31389016D01*
X167590000Y-31453201D01*
X167648362Y-31453201D01*
X167637004Y-31510300D01*
X167739994Y-32028069D01*
X167953452Y-32347530D01*
X168033288Y-32467013D01*
X168144086Y-32541046D01*
X169701039Y-34098000D01*
X168910000Y-34098000D01*
X168593521Y-34160952D01*
X168325223Y-34340223D01*
X168145952Y-34608521D01*
X168083000Y-34925000D01*
X168083000Y-36030107D01*
X159652000Y-36311141D01*
X159652000Y-30392340D01*
X160287265Y-30392340D01*
X160605501Y-30846203D01*
X161866434Y-31372936D01*
X163232956Y-31377035D01*
X164497027Y-30857878D01*
X164514499Y-30846203D01*
X164832735Y-30392340D01*
X162560000Y-28119605D01*
X160287265Y-30392340D01*
X159652000Y-30392340D01*
X159652000Y-29891810D01*
X159653797Y-29894499D01*
X160107660Y-30212735D01*
X162380395Y-27940000D01*
X162739605Y-27940000D01*
X165012340Y-30212735D01*
X165466203Y-29894499D01*
X165992936Y-28633566D01*
X165997035Y-27267044D01*
X165477878Y-26002973D01*
X165466203Y-25985501D01*
X165012340Y-25667265D01*
X162739605Y-27940000D01*
X162380395Y-27940000D01*
X160107660Y-25667265D01*
X159653797Y-25985501D01*
X159652000Y-25989803D01*
X159652000Y-25032000D01*
X160608190Y-25032000D01*
X160605501Y-25033797D01*
X160605501Y-25033797D01*
G37*
X160605501Y-25033797D02*
X160287265Y-25487660D01*
X162560000Y-27760395D01*
X164832735Y-25487660D01*
X164514499Y-25033797D01*
X164510197Y-25032000D01*
X178013499Y-25032000D01*
X177798355Y-25268076D01*
X177628524Y-25678110D01*
X177749845Y-25908000D01*
X178943000Y-25908000D01*
X178943000Y-25888000D01*
X179197000Y-25888000D01*
X179197000Y-25908000D01*
X180390155Y-25908000D01*
X180511476Y-25678110D01*
X180341645Y-25268076D01*
X180126501Y-25032000D01*
X193253499Y-25032000D01*
X193038355Y-25268076D01*
X192868524Y-25678110D01*
X192989845Y-25908000D01*
X194183000Y-25908000D01*
X194183000Y-25888000D01*
X194437000Y-25888000D01*
X194437000Y-25908000D01*
X195630155Y-25908000D01*
X195751476Y-25678110D01*
X195581645Y-25268076D01*
X195366501Y-25032000D01*
X208493499Y-25032000D01*
X208278355Y-25268076D01*
X208108524Y-25678110D01*
X208229845Y-25908000D01*
X209423000Y-25908000D01*
X209423000Y-25888000D01*
X209677000Y-25888000D01*
X209677000Y-25908000D01*
X210870155Y-25908000D01*
X210991476Y-25678110D01*
X210821645Y-25268076D01*
X210606501Y-25032000D01*
X212303499Y-25032000D01*
X212088355Y-25268076D01*
X211918524Y-25678110D01*
X212039845Y-25908000D01*
X213233000Y-25908000D01*
X213233000Y-25888000D01*
X213487000Y-25888000D01*
X213487000Y-25908000D01*
X214680155Y-25908000D01*
X214801476Y-25678110D01*
X214631645Y-25268076D01*
X214416501Y-25032000D01*
X216113499Y-25032000D01*
X215898355Y-25268076D01*
X215728524Y-25678110D01*
X215849845Y-25908000D01*
X217043000Y-25908000D01*
X217043000Y-25888000D01*
X217297000Y-25888000D01*
X217297000Y-25908000D01*
X218490155Y-25908000D01*
X218611476Y-25678110D01*
X218441645Y-25268076D01*
X218226501Y-25032000D01*
X232998190Y-25032000D01*
X232995501Y-25033797D01*
X232677265Y-25487660D01*
X234950000Y-27760395D01*
X237222735Y-25487660D01*
X236904499Y-25033797D01*
X236900197Y-25032000D01*
X237858001Y-25032000D01*
X237858001Y-25988192D01*
X237856203Y-25985501D01*
X237402340Y-25667265D01*
X235129605Y-27940000D01*
X237402340Y-30212735D01*
X237856203Y-29894499D01*
X237858001Y-29890195D01*
X237858000Y-63625938D01*
X237835758Y-63592650D01*
X237835757Y-63592649D01*
X237775673Y-63502727D01*
X237685751Y-63442643D01*
X237263871Y-63020763D01*
X237294854Y-62865000D01*
X237164699Y-62210667D01*
X236794049Y-61655951D01*
X236239333Y-61285301D01*
X235750168Y-61188000D01*
X235419832Y-61188000D01*
X234930667Y-61285301D01*
X234565215Y-61529489D01*
X234491233Y-61418767D01*
X234217679Y-61235984D01*
X233895000Y-61171799D01*
X232195000Y-61171799D01*
X231872321Y-61235984D01*
X231672385Y-61369577D01*
X231067759Y-60764952D01*
X231007673Y-60675027D01*
X230651424Y-60436989D01*
X230337272Y-60374500D01*
X230337266Y-60374500D01*
X230231200Y-60353402D01*
X230125134Y-60374500D01*
X220374466Y-60374500D01*
X220268399Y-60353402D01*
X220162333Y-60374500D01*
X220162328Y-60374500D01*
X219848176Y-60436989D01*
X219663478Y-60560400D01*
X219394000Y-60560400D01*
X219394000Y-60008928D01*
X219152089Y-59424904D01*
X218705096Y-58977911D01*
X218121072Y-58736000D01*
X217488928Y-58736000D01*
X216904904Y-58977911D01*
X216535000Y-59347815D01*
X216165096Y-58977911D01*
X215581072Y-58736000D01*
X214948928Y-58736000D01*
X214364904Y-58977911D01*
X213995000Y-59347815D01*
X213625096Y-58977911D01*
X213167000Y-58788161D01*
X213167000Y-48453201D01*
X213660000Y-48453201D01*
X213982679Y-48389016D01*
X213995000Y-48380783D01*
X214007321Y-48389016D01*
X214330000Y-48453201D01*
X214930000Y-48453201D01*
X215073000Y-48424756D01*
X215073000Y-48895000D01*
X215135952Y-49211479D01*
X215315223Y-49479777D01*
X215583521Y-49659048D01*
X215900000Y-49722000D01*
X218440000Y-49722000D01*
X218756479Y-49659048D01*
X219024777Y-49479777D01*
X219134877Y-49315000D01*
X222461799Y-49315000D01*
X222461799Y-51015000D01*
X222525984Y-51337679D01*
X222708767Y-51611233D01*
X222982321Y-51794016D01*
X223305000Y-51858201D01*
X225005000Y-51858201D01*
X225327679Y-51794016D01*
X225601233Y-51611233D01*
X225784016Y-51337679D01*
X225848201Y-51015000D01*
X225848201Y-50450750D01*
X232830000Y-50450750D01*
X232830000Y-51141309D01*
X232926673Y-51374698D01*
X233105301Y-51553327D01*
X233338690Y-51650000D01*
X234029250Y-51650000D01*
X234188000Y-51491250D01*
X234188000Y-50292000D01*
X234442000Y-50292000D01*
X234442000Y-51491250D01*
X234600750Y-51650000D01*
X235291310Y-51650000D01*
X235524699Y-51553327D01*
X235703327Y-51374698D01*
X235800000Y-51141309D01*
X235800000Y-50450750D01*
X235641250Y-50292000D01*
X234442000Y-50292000D01*
X234188000Y-50292000D01*
X232988750Y-50292000D01*
X232830000Y-50450750D01*
X225848201Y-50450750D01*
X225848201Y-49315000D01*
X225823077Y-49188691D01*
X232830000Y-49188691D01*
X232830000Y-49879250D01*
X232988750Y-50038000D01*
X234188000Y-50038000D01*
X234188000Y-48838750D01*
X234442000Y-48838750D01*
X234442000Y-50038000D01*
X235641250Y-50038000D01*
X235800000Y-49879250D01*
X235800000Y-49188691D01*
X235703327Y-48955302D01*
X235524699Y-48776673D01*
X235291310Y-48680000D01*
X234600750Y-48680000D01*
X234442000Y-48838750D01*
X234188000Y-48838750D01*
X234029250Y-48680000D01*
X233338690Y-48680000D01*
X233105301Y-48776673D01*
X232926673Y-48955302D01*
X232830000Y-49188691D01*
X225823077Y-49188691D01*
X225784016Y-48992321D01*
X225601233Y-48718767D01*
X225327679Y-48535984D01*
X225005000Y-48471799D01*
X223305000Y-48471799D01*
X222982321Y-48535984D01*
X222708767Y-48718767D01*
X222525984Y-48992321D01*
X222461799Y-49315000D01*
X219134877Y-49315000D01*
X219204048Y-49211479D01*
X219267000Y-48895000D01*
X219267000Y-40754159D01*
X219580145Y-40544923D01*
X223129346Y-36995723D01*
X223281894Y-36893794D01*
X223376637Y-36752000D01*
X224394943Y-36752000D01*
X224927860Y-36645996D01*
X224969458Y-36618201D01*
X225065000Y-36618201D01*
X225387679Y-36554016D01*
X225661233Y-36371233D01*
X225844016Y-36097679D01*
X225908201Y-35775000D01*
X225908201Y-35679458D01*
X225935996Y-35637860D01*
X226020953Y-35210750D01*
X232830000Y-35210750D01*
X232830000Y-35901309D01*
X232926673Y-36134698D01*
X233105301Y-36313327D01*
X233338690Y-36410000D01*
X234029250Y-36410000D01*
X234188000Y-36251250D01*
X234188000Y-35052000D01*
X234442000Y-35052000D01*
X234442000Y-36251250D01*
X234600750Y-36410000D01*
X235291310Y-36410000D01*
X235524699Y-36313327D01*
X235703327Y-36134698D01*
X235800000Y-35901309D01*
X235800000Y-35210750D01*
X235641250Y-35052000D01*
X234442000Y-35052000D01*
X234188000Y-35052000D01*
X232988750Y-35052000D01*
X232830000Y-35210750D01*
X226020953Y-35210750D01*
X226077793Y-34925000D01*
X225935996Y-34212140D01*
X225908201Y-34170542D01*
X225908201Y-34075000D01*
X225883077Y-33948691D01*
X232830000Y-33948691D01*
X232830000Y-34639250D01*
X232988750Y-34798000D01*
X234188000Y-34798000D01*
X234188000Y-33598750D01*
X234442000Y-33598750D01*
X234442000Y-34798000D01*
X235641250Y-34798000D01*
X235800000Y-34639250D01*
X235800000Y-33948691D01*
X235703327Y-33715302D01*
X235524699Y-33536673D01*
X235291310Y-33440000D01*
X234600750Y-33440000D01*
X234442000Y-33598750D01*
X234188000Y-33598750D01*
X234029250Y-33440000D01*
X233338690Y-33440000D01*
X233105301Y-33536673D01*
X232926673Y-33715302D01*
X232830000Y-33948691D01*
X225883077Y-33948691D01*
X225844016Y-33752321D01*
X225661233Y-33478767D01*
X225387679Y-33295984D01*
X225065000Y-33231799D01*
X224969458Y-33231799D01*
X224927860Y-33204004D01*
X224394943Y-33098000D01*
X222144643Y-33098000D01*
X221964700Y-33062207D01*
X221784757Y-33098000D01*
X221251840Y-33204004D01*
X220647506Y-33607806D01*
X220243704Y-34212140D01*
X220119133Y-34838398D01*
X219267000Y-35690531D01*
X219267000Y-34925000D01*
X219204048Y-34608521D01*
X219024777Y-34340223D01*
X218756479Y-34160952D01*
X218440000Y-34098000D01*
X217718361Y-34098000D01*
X218015917Y-33800444D01*
X218126712Y-33726413D01*
X218200744Y-33615617D01*
X218200746Y-33615615D01*
X218420006Y-33287470D01*
X218436608Y-33204004D01*
X218497000Y-32900396D01*
X218497000Y-32900393D01*
X218522996Y-32769701D01*
X218497000Y-32639009D01*
X218497000Y-30392340D01*
X232677265Y-30392340D01*
X232995501Y-30846203D01*
X234256434Y-31372936D01*
X235622956Y-31377035D01*
X236887027Y-30857878D01*
X236904499Y-30846203D01*
X237222735Y-30392340D01*
X234950000Y-28119605D01*
X232677265Y-30392340D01*
X218497000Y-30392340D01*
X218497000Y-30100902D01*
X218616233Y-30021233D01*
X218799016Y-29747679D01*
X218863201Y-29425000D01*
X218863201Y-28612956D01*
X231512965Y-28612956D01*
X232032122Y-29877027D01*
X232043797Y-29894499D01*
X232497660Y-30212735D01*
X234770395Y-27940000D01*
X232497660Y-25667265D01*
X232043797Y-25985501D01*
X231517064Y-27246434D01*
X231512965Y-28612956D01*
X218863201Y-28612956D01*
X218863201Y-27725000D01*
X218799016Y-27402321D01*
X218616233Y-27128767D01*
X218342679Y-26945984D01*
X218315318Y-26940542D01*
X218441645Y-26801924D01*
X218611476Y-26391890D01*
X218490155Y-26162000D01*
X217297000Y-26162000D01*
X217297000Y-26182000D01*
X217043000Y-26182000D01*
X217043000Y-26162000D01*
X215849845Y-26162000D01*
X215728524Y-26391890D01*
X215898355Y-26801924D01*
X216024682Y-26940542D01*
X215997321Y-26945984D01*
X215723767Y-27128767D01*
X215540984Y-27402321D01*
X215476799Y-27725000D01*
X215476799Y-29425000D01*
X215540984Y-29747679D01*
X215723767Y-30021233D01*
X215843001Y-30100902D01*
X215843000Y-32220039D01*
X214655827Y-33407213D01*
X214687000Y-33250496D01*
X214687000Y-33250493D01*
X214712996Y-33119801D01*
X214687000Y-32989109D01*
X214687000Y-30100902D01*
X214806233Y-30021233D01*
X214989016Y-29747679D01*
X215053201Y-29425000D01*
X215053201Y-27725000D01*
X214989016Y-27402321D01*
X214806233Y-27128767D01*
X214532679Y-26945984D01*
X214505318Y-26940542D01*
X214631645Y-26801924D01*
X214801476Y-26391890D01*
X214680155Y-26162000D01*
X213487000Y-26162000D01*
X213487000Y-26182000D01*
X213233000Y-26182000D01*
X213233000Y-26162000D01*
X212039845Y-26162000D01*
X211918524Y-26391890D01*
X212088355Y-26801924D01*
X212214682Y-26940542D01*
X212187321Y-26945984D01*
X211913767Y-27128767D01*
X211730984Y-27402321D01*
X211666799Y-27725000D01*
X211666799Y-29425000D01*
X211730984Y-29747679D01*
X211913767Y-30021233D01*
X212033001Y-30100902D01*
X212033000Y-32570139D01*
X210620440Y-33982700D01*
X209680696Y-33982700D01*
X209550000Y-33956703D01*
X209419305Y-33982700D01*
X209419304Y-33982700D01*
X209032230Y-34059694D01*
X208593287Y-34352987D01*
X208337000Y-34736547D01*
X208337000Y-33414960D01*
X210395915Y-31356046D01*
X210506713Y-31282013D01*
X210800006Y-30843070D01*
X210877000Y-30455996D01*
X210877000Y-30455993D01*
X210902996Y-30325301D01*
X210877000Y-30194609D01*
X210877000Y-30100902D01*
X210996233Y-30021233D01*
X211179016Y-29747679D01*
X211243201Y-29425000D01*
X211243201Y-27725000D01*
X211179016Y-27402321D01*
X210996233Y-27128767D01*
X210722679Y-26945984D01*
X210695318Y-26940542D01*
X210821645Y-26801924D01*
X210991476Y-26391890D01*
X210870155Y-26162000D01*
X209677000Y-26162000D01*
X209677000Y-26182000D01*
X209423000Y-26182000D01*
X209423000Y-26162000D01*
X208229845Y-26162000D01*
X208108524Y-26391890D01*
X208278355Y-26801924D01*
X208404682Y-26940542D01*
X208377321Y-26945984D01*
X208103767Y-27128767D01*
X207920984Y-27402321D01*
X207856799Y-27725000D01*
X207856799Y-29425000D01*
X207920984Y-29747679D01*
X208053154Y-29945485D01*
X206164086Y-31834554D01*
X206053288Y-31908587D01*
X205979255Y-32019385D01*
X205979254Y-32019386D01*
X205759994Y-32347531D01*
X205657004Y-32865300D01*
X205683001Y-32995996D01*
X205683001Y-33968041D01*
X205609305Y-33982700D01*
X205609304Y-33982700D01*
X205222230Y-34059694D01*
X204783287Y-34352987D01*
X204489994Y-34791930D01*
X204470000Y-34892446D01*
X204450006Y-34791930D01*
X204156713Y-34352987D01*
X203717770Y-34059694D01*
X203516737Y-34019706D01*
X203330696Y-33982700D01*
X203200000Y-33956703D01*
X203069305Y-33982700D01*
X202654392Y-33982700D01*
X202523700Y-33956704D01*
X202393008Y-33982700D01*
X202393004Y-33982700D01*
X202005930Y-34059694D01*
X201987000Y-34072343D01*
X201987000Y-32910991D01*
X202012996Y-32780299D01*
X201987000Y-32649607D01*
X201987000Y-32649604D01*
X201910006Y-32262530D01*
X201616713Y-31823587D01*
X201505915Y-31749554D01*
X201132280Y-31375919D01*
X201386233Y-31206233D01*
X201569016Y-30932679D01*
X201624901Y-30651724D01*
X203127882Y-30651724D01*
X203275455Y-30960106D01*
X204030031Y-31253405D01*
X204839409Y-31235614D01*
X205504545Y-30960106D01*
X205652118Y-30651724D01*
X204390000Y-29389605D01*
X203127882Y-30651724D01*
X201624901Y-30651724D01*
X201633201Y-30610000D01*
X201633201Y-28850031D01*
X202346595Y-28850031D01*
X202364386Y-29659409D01*
X202639894Y-30324545D01*
X202948276Y-30472118D01*
X204210395Y-29210000D01*
X204569605Y-29210000D01*
X205831724Y-30472118D01*
X206140106Y-30324545D01*
X206433405Y-29569969D01*
X206415614Y-28760591D01*
X206140106Y-28095455D01*
X205831724Y-27947882D01*
X204569605Y-29210000D01*
X204210395Y-29210000D01*
X202948276Y-27947882D01*
X202639894Y-28095455D01*
X202346595Y-28850031D01*
X201633201Y-28850031D01*
X201633201Y-27810000D01*
X201624902Y-27768276D01*
X203127882Y-27768276D01*
X204390000Y-29030395D01*
X205652118Y-27768276D01*
X205504545Y-27459894D01*
X204749969Y-27166595D01*
X203940591Y-27184386D01*
X203275455Y-27459894D01*
X203127882Y-27768276D01*
X201624902Y-27768276D01*
X201569016Y-27487321D01*
X201386233Y-27213767D01*
X201112679Y-27030984D01*
X200790000Y-26966799D01*
X197990000Y-26966799D01*
X197667321Y-27030984D01*
X197393767Y-27213767D01*
X197210984Y-27487321D01*
X197146799Y-27810000D01*
X197146799Y-30610000D01*
X197210984Y-30932679D01*
X197393767Y-31206233D01*
X197667321Y-31389016D01*
X197990000Y-31453201D01*
X198048362Y-31453201D01*
X198037004Y-31510300D01*
X198139994Y-32028069D01*
X198353452Y-32347530D01*
X198433288Y-32467013D01*
X198544086Y-32541046D01*
X199333001Y-33329961D01*
X199333000Y-34098000D01*
X189778360Y-34098000D01*
X193405617Y-30470744D01*
X193516412Y-30396713D01*
X193590444Y-30285917D01*
X193590446Y-30285915D01*
X193602282Y-30268201D01*
X195160000Y-30268201D01*
X195482679Y-30204016D01*
X195756233Y-30021233D01*
X195939016Y-29747679D01*
X196003201Y-29425000D01*
X196003201Y-27725000D01*
X195939016Y-27402321D01*
X195756233Y-27128767D01*
X195482679Y-26945984D01*
X195455318Y-26940542D01*
X195581645Y-26801924D01*
X195751476Y-26391890D01*
X195630155Y-26162000D01*
X194437000Y-26162000D01*
X194437000Y-26182000D01*
X194183000Y-26182000D01*
X194183000Y-26162000D01*
X192989845Y-26162000D01*
X192868524Y-26391890D01*
X193038355Y-26801924D01*
X193164682Y-26940542D01*
X193137321Y-26945984D01*
X192863767Y-27128767D01*
X192784098Y-27248000D01*
X192690396Y-27248000D01*
X192559700Y-27222003D01*
X192429005Y-27248000D01*
X192429004Y-27248000D01*
X192041930Y-27324994D01*
X191602987Y-27618287D01*
X191309694Y-28057230D01*
X191206703Y-28575000D01*
X191232700Y-28705696D01*
X191232700Y-28890339D01*
X191179632Y-28943407D01*
X191175614Y-28760591D01*
X190900106Y-28095455D01*
X190591724Y-27947882D01*
X189329605Y-29210000D01*
X189343748Y-29224143D01*
X189164143Y-29403748D01*
X189150000Y-29389605D01*
X187887882Y-30651724D01*
X188035455Y-30960106D01*
X188790031Y-31253405D01*
X188871424Y-31251616D01*
X186141012Y-33982028D01*
X186013700Y-33956704D01*
X185883008Y-33982700D01*
X185883004Y-33982700D01*
X185495930Y-34059694D01*
X185420000Y-34110429D01*
X185344070Y-34059694D01*
X184956996Y-33982700D01*
X184956992Y-33982700D01*
X184826300Y-33956704D01*
X184695608Y-33982700D01*
X184280696Y-33982700D01*
X184150000Y-33956703D01*
X184019305Y-33982700D01*
X184019304Y-33982700D01*
X183632230Y-34059694D01*
X183193287Y-34352987D01*
X182937000Y-34736547D01*
X182937000Y-34599960D01*
X184995915Y-32541046D01*
X185106713Y-32467013D01*
X185400006Y-32028070D01*
X185477000Y-31640996D01*
X185477000Y-31640993D01*
X185502996Y-31510301D01*
X185491638Y-31453201D01*
X185550000Y-31453201D01*
X185872679Y-31389016D01*
X186146233Y-31206233D01*
X186329016Y-30932679D01*
X186393201Y-30610000D01*
X186393201Y-28850031D01*
X187106595Y-28850031D01*
X187124386Y-29659409D01*
X187399894Y-30324545D01*
X187708276Y-30472118D01*
X188970395Y-29210000D01*
X187708276Y-27947882D01*
X187399894Y-28095455D01*
X187106595Y-28850031D01*
X186393201Y-28850031D01*
X186393201Y-27810000D01*
X186384902Y-27768276D01*
X187887882Y-27768276D01*
X189150000Y-29030395D01*
X190412118Y-27768276D01*
X190264545Y-27459894D01*
X189509969Y-27166595D01*
X188700591Y-27184386D01*
X188035455Y-27459894D01*
X187887882Y-27768276D01*
X186384902Y-27768276D01*
X186329016Y-27487321D01*
X186146233Y-27213767D01*
X185872679Y-27030984D01*
X185550000Y-26966799D01*
X182750000Y-26966799D01*
X182427321Y-27030984D01*
X182153767Y-27213767D01*
X181970984Y-27487321D01*
X181906799Y-27810000D01*
X181906799Y-30610000D01*
X181970984Y-30932679D01*
X182153767Y-31206233D01*
X182407720Y-31375919D01*
X180764086Y-33019554D01*
X180653288Y-33093587D01*
X180359994Y-33532530D01*
X180283000Y-33919604D01*
X180283000Y-33919608D01*
X180272969Y-33970036D01*
X180209305Y-33982700D01*
X180209304Y-33982700D01*
X179822230Y-34059694D01*
X179383287Y-34352987D01*
X179127000Y-34736547D01*
X179127000Y-32144960D01*
X179915915Y-31356046D01*
X180026713Y-31282013D01*
X180320006Y-30843070D01*
X180397000Y-30455996D01*
X180397000Y-30455993D01*
X180422996Y-30325301D01*
X180397000Y-30194609D01*
X180397000Y-30100902D01*
X180516233Y-30021233D01*
X180699016Y-29747679D01*
X180763201Y-29425000D01*
X180763201Y-27725000D01*
X180699016Y-27402321D01*
X180516233Y-27128767D01*
X180242679Y-26945984D01*
X180215318Y-26940542D01*
X180341645Y-26801924D01*
X180511476Y-26391890D01*
X180390155Y-26162000D01*
X179197000Y-26162000D01*
X179197000Y-26182000D01*
X178943000Y-26182000D01*
X178943000Y-26162000D01*
X177749845Y-26162000D01*
X177628524Y-26391890D01*
X177798355Y-26801924D01*
X177924682Y-26940542D01*
X177897321Y-26945984D01*
X177623767Y-27128767D01*
X177440984Y-27402321D01*
X177376799Y-27725000D01*
X177376799Y-29425000D01*
X177440984Y-29747679D01*
X177573154Y-29945485D01*
X176954086Y-30564554D01*
X176843288Y-30638587D01*
X176769255Y-30749385D01*
X176769254Y-30749386D01*
X176549994Y-31077531D01*
X176447004Y-31595300D01*
X176473001Y-31725996D01*
X176473000Y-33968041D01*
X176399305Y-33982700D01*
X176399304Y-33982700D01*
X176012230Y-34059694D01*
X175573287Y-34352987D01*
X175279994Y-34791930D01*
X175260000Y-34892446D01*
X175240006Y-34791930D01*
X174946713Y-34352987D01*
X174507770Y-34059694D01*
X174306737Y-34019706D01*
X174120696Y-33982700D01*
X173990000Y-33956703D01*
X173859305Y-33982700D01*
X173339062Y-33982700D01*
X170732280Y-31375919D01*
X170986233Y-31206233D01*
X171169016Y-30932679D01*
X171224901Y-30651724D01*
X172727882Y-30651724D01*
X172875455Y-30960106D01*
X173630031Y-31253405D01*
X174439409Y-31235614D01*
X175104545Y-30960106D01*
X175252118Y-30651724D01*
X173990000Y-29389605D01*
X172727882Y-30651724D01*
X171224901Y-30651724D01*
X171233201Y-30610000D01*
X171233201Y-28850031D01*
X171946595Y-28850031D01*
X171964386Y-29659409D01*
X172239894Y-30324545D01*
X172548276Y-30472118D01*
X173810395Y-29210000D01*
X174169605Y-29210000D01*
X175431724Y-30472118D01*
X175740106Y-30324545D01*
X176033405Y-29569969D01*
X176015614Y-28760591D01*
X175740106Y-28095455D01*
X175431724Y-27947882D01*
X174169605Y-29210000D01*
X173810395Y-29210000D01*
X172548276Y-27947882D01*
X172239894Y-28095455D01*
X171946595Y-28850031D01*
X171233201Y-28850031D01*
X171233201Y-27810000D01*
X171224902Y-27768276D01*
X172727882Y-27768276D01*
X173990000Y-29030395D01*
X175252118Y-27768276D01*
X175104545Y-27459894D01*
X174349969Y-27166595D01*
X173540591Y-27184386D01*
X172875455Y-27459894D01*
X172727882Y-27768276D01*
X171224902Y-27768276D01*
X171169016Y-27487321D01*
X170986233Y-27213767D01*
X170712679Y-27030984D01*
X170390000Y-26966799D01*
X167590000Y-26966799D01*
X167267321Y-27030984D01*
X166993767Y-27213767D01*
X166810984Y-27487321D01*
X166746799Y-27810000D01*
X166746799Y-30610000D01*
X166810984Y-30932679D01*
X166993767Y-31206233D01*
X167267321Y-31389016D01*
X167590000Y-31453201D01*
X167648362Y-31453201D01*
X167637004Y-31510300D01*
X167739994Y-32028069D01*
X167953452Y-32347530D01*
X168033288Y-32467013D01*
X168144086Y-32541046D01*
X169701039Y-34098000D01*
X168910000Y-34098000D01*
X168593521Y-34160952D01*
X168325223Y-34340223D01*
X168145952Y-34608521D01*
X168083000Y-34925000D01*
X168083000Y-36030107D01*
X159652000Y-36311141D01*
X159652000Y-30392340D01*
X160287265Y-30392340D01*
X160605501Y-30846203D01*
X161866434Y-31372936D01*
X163232956Y-31377035D01*
X164497027Y-30857878D01*
X164514499Y-30846203D01*
X164832735Y-30392340D01*
X162560000Y-28119605D01*
X160287265Y-30392340D01*
X159652000Y-30392340D01*
X159652000Y-29891810D01*
X159653797Y-29894499D01*
X160107660Y-30212735D01*
X162380395Y-27940000D01*
X162739605Y-27940000D01*
X165012340Y-30212735D01*
X165466203Y-29894499D01*
X165992936Y-28633566D01*
X165997035Y-27267044D01*
X165477878Y-26002973D01*
X165466203Y-25985501D01*
X165012340Y-25667265D01*
X162739605Y-27940000D01*
X162380395Y-27940000D01*
X160107660Y-25667265D01*
X159653797Y-25985501D01*
X159652000Y-25989803D01*
X159652000Y-25032000D01*
X160608190Y-25032000D01*
X160605501Y-25033797D01*
G36*
X209676799Y-47610000D02*
X209677000Y-47611010D01*
X209677000Y-48086250D01*
X209743000Y-48152250D01*
X209743001Y-58788161D01*
X209284904Y-58977911D01*
X208915000Y-59347815D01*
X208545096Y-58977911D01*
X207961072Y-58736000D01*
X207328928Y-58736000D01*
X206744904Y-58977911D01*
X206375000Y-59347815D01*
X206005096Y-58977911D01*
X205421072Y-58736000D01*
X204788928Y-58736000D01*
X204204904Y-58977911D01*
X203835000Y-59347815D01*
X203465096Y-58977911D01*
X202881072Y-58736000D01*
X202248928Y-58736000D01*
X201664904Y-58977911D01*
X201295000Y-59347815D01*
X200925096Y-58977911D01*
X200341072Y-58736000D01*
X199708928Y-58736000D01*
X199124904Y-58977911D01*
X198755000Y-59347815D01*
X198385096Y-58977911D01*
X197801072Y-58736000D01*
X197168928Y-58736000D01*
X196584904Y-58977911D01*
X196215000Y-59347815D01*
X195845096Y-58977911D01*
X195261072Y-58736000D01*
X194704678Y-58736000D01*
X203549456Y-54368588D01*
X203620224Y-54354511D01*
X203739881Y-54274558D01*
X203771949Y-54258724D01*
X203827892Y-54215751D01*
X203976473Y-54116473D01*
X203996863Y-54085958D01*
X204025965Y-54063603D01*
X204115229Y-53908810D01*
X204214511Y-53760224D01*
X204221671Y-53724229D01*
X204240003Y-53692439D01*
X204263235Y-53515275D01*
X204277000Y-53446072D01*
X204277000Y-53410300D01*
X204295710Y-53267618D01*
X204277000Y-53197934D01*
X204277000Y-49287167D01*
X206691923Y-50293385D01*
X207010000Y-50357000D01*
X208280000Y-50357000D01*
X208596479Y-50294048D01*
X208864777Y-50114777D01*
X209044048Y-49846479D01*
X209107000Y-49530000D01*
X209107000Y-48252493D01*
X209120310Y-48243600D01*
X209123690Y-48245000D01*
X209264250Y-48245000D01*
X209423000Y-48086250D01*
X209423000Y-47611010D01*
X209423201Y-47610000D01*
X209423201Y-47182000D01*
X209676799Y-47182000D01*
X209676799Y-47610000D01*
X209676799Y-47610000D01*
G37*
X209676799Y-47610000D02*
X209677000Y-47611010D01*
X209677000Y-48086250D01*
X209743000Y-48152250D01*
X209743001Y-58788161D01*
X209284904Y-58977911D01*
X208915000Y-59347815D01*
X208545096Y-58977911D01*
X207961072Y-58736000D01*
X207328928Y-58736000D01*
X206744904Y-58977911D01*
X206375000Y-59347815D01*
X206005096Y-58977911D01*
X205421072Y-58736000D01*
X204788928Y-58736000D01*
X204204904Y-58977911D01*
X203835000Y-59347815D01*
X203465096Y-58977911D01*
X202881072Y-58736000D01*
X202248928Y-58736000D01*
X201664904Y-58977911D01*
X201295000Y-59347815D01*
X200925096Y-58977911D01*
X200341072Y-58736000D01*
X199708928Y-58736000D01*
X199124904Y-58977911D01*
X198755000Y-59347815D01*
X198385096Y-58977911D01*
X197801072Y-58736000D01*
X197168928Y-58736000D01*
X196584904Y-58977911D01*
X196215000Y-59347815D01*
X195845096Y-58977911D01*
X195261072Y-58736000D01*
X194704678Y-58736000D01*
X203549456Y-54368588D01*
X203620224Y-54354511D01*
X203739881Y-54274558D01*
X203771949Y-54258724D01*
X203827892Y-54215751D01*
X203976473Y-54116473D01*
X203996863Y-54085958D01*
X204025965Y-54063603D01*
X204115229Y-53908810D01*
X204214511Y-53760224D01*
X204221671Y-53724229D01*
X204240003Y-53692439D01*
X204263235Y-53515275D01*
X204277000Y-53446072D01*
X204277000Y-53410300D01*
X204295710Y-53267618D01*
X204277000Y-53197934D01*
X204277000Y-49287167D01*
X206691923Y-50293385D01*
X207010000Y-50357000D01*
X208280000Y-50357000D01*
X208596479Y-50294048D01*
X208864777Y-50114777D01*
X209044048Y-49846479D01*
X209107000Y-49530000D01*
X209107000Y-48252493D01*
X209120310Y-48243600D01*
X209123690Y-48245000D01*
X209264250Y-48245000D01*
X209423000Y-48086250D01*
X209423000Y-47611010D01*
X209423201Y-47610000D01*
X209423201Y-47182000D01*
X209676799Y-47182000D01*
X209676799Y-47610000D01*
G36*
X181736799Y-47610000D02*
X181737000Y-47611010D01*
X181737000Y-48086250D01*
X181803001Y-48152251D01*
X181803000Y-53720756D01*
X181579378Y-54168000D01*
X173961196Y-54168000D01*
X173599065Y-54018000D01*
X173110935Y-54018000D01*
X172659961Y-54204800D01*
X172314800Y-54549961D01*
X172128000Y-55000935D01*
X172128000Y-55489065D01*
X172301985Y-55909100D01*
X171130066Y-55909100D01*
X171023999Y-55888002D01*
X170917933Y-55909100D01*
X170917928Y-55909100D01*
X170603776Y-55971589D01*
X170247527Y-56209627D01*
X170187443Y-56299549D01*
X168182095Y-58304898D01*
X168101389Y-53782000D01*
X173883929Y-53782000D01*
X173990000Y-53803099D01*
X174410224Y-53719511D01*
X174625000Y-53576002D01*
X174839776Y-53719511D01*
X175260000Y-53803099D01*
X175366071Y-53782000D01*
X179098804Y-53782000D01*
X179460935Y-53932000D01*
X179949065Y-53932000D01*
X180400039Y-53745200D01*
X180745200Y-53400039D01*
X180932000Y-52949065D01*
X180932000Y-52460935D01*
X180745200Y-52009961D01*
X180400039Y-51664800D01*
X179949065Y-51478000D01*
X179460935Y-51478000D01*
X179098804Y-51628000D01*
X177437239Y-51628000D01*
X177570200Y-51495039D01*
X177757000Y-51044065D01*
X177757000Y-50555935D01*
X177607000Y-50193804D01*
X177607000Y-48453201D01*
X178100000Y-48453201D01*
X178243000Y-48424756D01*
X178243000Y-49530000D01*
X178305952Y-49846479D01*
X178485223Y-50114777D01*
X178753521Y-50294048D01*
X179070000Y-50357000D01*
X180340000Y-50357000D01*
X180656479Y-50294048D01*
X180924777Y-50114777D01*
X181104048Y-49846479D01*
X181167000Y-49530000D01*
X181167000Y-48252493D01*
X181180310Y-48243600D01*
X181183690Y-48245000D01*
X181324250Y-48245000D01*
X181483000Y-48086250D01*
X181483000Y-47611010D01*
X181483201Y-47610000D01*
X181483201Y-47182000D01*
X181736799Y-47182000D01*
X181736799Y-47610000D01*
X181736799Y-47610000D01*
G37*
X181736799Y-47610000D02*
X181737000Y-47611010D01*
X181737000Y-48086250D01*
X181803001Y-48152251D01*
X181803000Y-53720756D01*
X181579378Y-54168000D01*
X173961196Y-54168000D01*
X173599065Y-54018000D01*
X173110935Y-54018000D01*
X172659961Y-54204800D01*
X172314800Y-54549961D01*
X172128000Y-55000935D01*
X172128000Y-55489065D01*
X172301985Y-55909100D01*
X171130066Y-55909100D01*
X171023999Y-55888002D01*
X170917933Y-55909100D01*
X170917928Y-55909100D01*
X170603776Y-55971589D01*
X170247527Y-56209627D01*
X170187443Y-56299549D01*
X168182095Y-58304898D01*
X168101389Y-53782000D01*
X173883929Y-53782000D01*
X173990000Y-53803099D01*
X174410224Y-53719511D01*
X174625000Y-53576002D01*
X174839776Y-53719511D01*
X175260000Y-53803099D01*
X175366071Y-53782000D01*
X179098804Y-53782000D01*
X179460935Y-53932000D01*
X179949065Y-53932000D01*
X180400039Y-53745200D01*
X180745200Y-53400039D01*
X180932000Y-52949065D01*
X180932000Y-52460935D01*
X180745200Y-52009961D01*
X180400039Y-51664800D01*
X179949065Y-51478000D01*
X179460935Y-51478000D01*
X179098804Y-51628000D01*
X177437239Y-51628000D01*
X177570200Y-51495039D01*
X177757000Y-51044065D01*
X177757000Y-50555935D01*
X177607000Y-50193804D01*
X177607000Y-48453201D01*
X178100000Y-48453201D01*
X178243000Y-48424756D01*
X178243000Y-49530000D01*
X178305952Y-49846479D01*
X178485223Y-50114777D01*
X178753521Y-50294048D01*
X179070000Y-50357000D01*
X180340000Y-50357000D01*
X180656479Y-50294048D01*
X180924777Y-50114777D01*
X181104048Y-49846479D01*
X181167000Y-49530000D01*
X181167000Y-48252493D01*
X181180310Y-48243600D01*
X181183690Y-48245000D01*
X181324250Y-48245000D01*
X181483000Y-48086250D01*
X181483000Y-47611010D01*
X181483201Y-47610000D01*
X181483201Y-47182000D01*
X181736799Y-47182000D01*
X181736799Y-47610000D01*
G36*
X200787000Y-47833000D02*
X200787000Y-48086250D01*
X200853000Y-48152250D01*
X200853001Y-51437097D01*
X192824482Y-55909100D01*
X183096558Y-55909100D01*
X183119260Y-55875125D01*
X183160861Y-55821522D01*
X183178060Y-55787124D01*
X183259511Y-55665224D01*
X183273055Y-55597134D01*
X183813060Y-54517124D01*
X183894511Y-54395224D01*
X183928849Y-54222594D01*
X183975336Y-54052844D01*
X183957000Y-53907394D01*
X183957000Y-49490407D01*
X186090975Y-51624383D01*
X188638000Y-54801328D01*
X188638000Y-54854065D01*
X188824800Y-55305039D01*
X189169961Y-55650200D01*
X189620935Y-55837000D01*
X190109065Y-55837000D01*
X190560039Y-55650200D01*
X190905200Y-55305039D01*
X191092000Y-54854065D01*
X191092000Y-54365935D01*
X190905200Y-53914961D01*
X190560039Y-53569800D01*
X190337559Y-53477645D01*
X187763825Y-50267389D01*
X187730858Y-50218050D01*
X187697627Y-50184819D01*
X187668239Y-50148163D01*
X187622816Y-50110008D01*
X185925193Y-48412385D01*
X186042679Y-48389016D01*
X186055000Y-48380783D01*
X186067321Y-48389016D01*
X186390000Y-48453201D01*
X186990000Y-48453201D01*
X187164525Y-48418486D01*
X187195952Y-48576479D01*
X187375223Y-48844777D01*
X187643521Y-49024048D01*
X187960000Y-49087000D01*
X199390000Y-49087000D01*
X199706479Y-49024048D01*
X199974777Y-48844777D01*
X200154048Y-48576479D01*
X200217000Y-48260000D01*
X200217000Y-48252493D01*
X200230310Y-48243600D01*
X200233690Y-48245000D01*
X200374250Y-48245000D01*
X200533000Y-48086250D01*
X200533000Y-47727167D01*
X200787000Y-47833000D01*
X200787000Y-47833000D01*
G37*
X200787000Y-47833000D02*
X200787000Y-48086250D01*
X200853000Y-48152250D01*
X200853001Y-51437097D01*
X192824482Y-55909100D01*
X183096558Y-55909100D01*
X183119260Y-55875125D01*
X183160861Y-55821522D01*
X183178060Y-55787124D01*
X183259511Y-55665224D01*
X183273055Y-55597134D01*
X183813060Y-54517124D01*
X183894511Y-54395224D01*
X183928849Y-54222594D01*
X183975336Y-54052844D01*
X183957000Y-53907394D01*
X183957000Y-49490407D01*
X186090975Y-51624383D01*
X188638000Y-54801328D01*
X188638000Y-54854065D01*
X188824800Y-55305039D01*
X189169961Y-55650200D01*
X189620935Y-55837000D01*
X190109065Y-55837000D01*
X190560039Y-55650200D01*
X190905200Y-55305039D01*
X191092000Y-54854065D01*
X191092000Y-54365935D01*
X190905200Y-53914961D01*
X190560039Y-53569800D01*
X190337559Y-53477645D01*
X187763825Y-50267389D01*
X187730858Y-50218050D01*
X187697627Y-50184819D01*
X187668239Y-50148163D01*
X187622816Y-50110008D01*
X185925193Y-48412385D01*
X186042679Y-48389016D01*
X186055000Y-48380783D01*
X186067321Y-48389016D01*
X186390000Y-48453201D01*
X186990000Y-48453201D01*
X187164525Y-48418486D01*
X187195952Y-48576479D01*
X187375223Y-48844777D01*
X187643521Y-49024048D01*
X187960000Y-49087000D01*
X199390000Y-49087000D01*
X199706479Y-49024048D01*
X199974777Y-48844777D01*
X200154048Y-48576479D01*
X200217000Y-48260000D01*
X200217000Y-48252493D01*
X200230310Y-48243600D01*
X200233690Y-48245000D01*
X200374250Y-48245000D01*
X200533000Y-48086250D01*
X200533000Y-47727167D01*
X200787000Y-47833000D01*
G04 #@! TO.N,+24V*
G36*
X171323000Y-35719962D02*
X171323000Y-36830000D01*
X171332667Y-36878601D01*
X171360197Y-36919803D01*
X171393000Y-36941721D01*
X171393000Y-37340695D01*
X171469994Y-37727769D01*
X171576799Y-37887614D01*
X171576799Y-38210000D01*
X171640984Y-38532679D01*
X171823767Y-38806233D01*
X172097321Y-38989016D01*
X172420000Y-39053201D01*
X173020000Y-39053201D01*
X173342679Y-38989016D01*
X173355000Y-38980783D01*
X173367321Y-38989016D01*
X173690000Y-39053201D01*
X174290000Y-39053201D01*
X174612679Y-38989016D01*
X174625000Y-38980783D01*
X174637321Y-38989016D01*
X174960000Y-39053201D01*
X175560000Y-39053201D01*
X175882679Y-38989016D01*
X175895000Y-38980783D01*
X175907321Y-38989016D01*
X176230000Y-39053201D01*
X176830000Y-39053201D01*
X177152679Y-38989016D01*
X177165000Y-38980783D01*
X177177321Y-38989016D01*
X177500000Y-39053201D01*
X178100000Y-39053201D01*
X178422679Y-38989016D01*
X178435000Y-38980783D01*
X178447321Y-38989016D01*
X178770000Y-39053201D01*
X179370000Y-39053201D01*
X179692679Y-38989016D01*
X179705000Y-38980783D01*
X179717321Y-38989016D01*
X180040000Y-39053201D01*
X180640000Y-39053201D01*
X180962679Y-38989016D01*
X180975000Y-38980783D01*
X180987321Y-38989016D01*
X181310000Y-39053201D01*
X181910000Y-39053201D01*
X182232679Y-38989016D01*
X182245000Y-38980783D01*
X182257321Y-38989016D01*
X182580000Y-39053201D01*
X183180000Y-39053201D01*
X183502679Y-38989016D01*
X183515000Y-38980783D01*
X183527321Y-38989016D01*
X183850000Y-39053201D01*
X184450000Y-39053201D01*
X184772679Y-38989016D01*
X184785000Y-38980783D01*
X184797321Y-38989016D01*
X185120000Y-39053201D01*
X185720000Y-39053201D01*
X186042679Y-38989016D01*
X186055000Y-38980783D01*
X186067321Y-38989016D01*
X186390000Y-39053201D01*
X186990000Y-39053201D01*
X187312679Y-38989016D01*
X187586233Y-38806233D01*
X187769016Y-38532679D01*
X187833201Y-38210000D01*
X187833201Y-37887614D01*
X187940006Y-37727770D01*
X188017000Y-37340696D01*
X188017000Y-36941721D01*
X188049803Y-36919803D01*
X188077333Y-36878601D01*
X188087000Y-36830000D01*
X188087000Y-35789360D01*
X188824360Y-35052000D01*
X199263000Y-35052000D01*
X199263000Y-36830000D01*
X199272667Y-36878601D01*
X199300197Y-36919803D01*
X199333000Y-36941721D01*
X199333000Y-37340695D01*
X199409994Y-37727769D01*
X199516799Y-37887614D01*
X199516799Y-38210000D01*
X199580984Y-38532679D01*
X199763767Y-38806233D01*
X200037321Y-38989016D01*
X200360000Y-39053201D01*
X200960000Y-39053201D01*
X201282679Y-38989016D01*
X201295000Y-38980783D01*
X201307321Y-38989016D01*
X201630000Y-39053201D01*
X202230000Y-39053201D01*
X202552679Y-38989016D01*
X202565000Y-38980783D01*
X202577321Y-38989016D01*
X202900000Y-39053201D01*
X203500000Y-39053201D01*
X203822679Y-38989016D01*
X203835000Y-38980783D01*
X203847321Y-38989016D01*
X204170000Y-39053201D01*
X204770000Y-39053201D01*
X205092679Y-38989016D01*
X205105000Y-38980783D01*
X205117321Y-38989016D01*
X205440000Y-39053201D01*
X206040000Y-39053201D01*
X206362679Y-38989016D01*
X206375000Y-38980783D01*
X206387321Y-38989016D01*
X206710000Y-39053201D01*
X207310000Y-39053201D01*
X207632679Y-38989016D01*
X207645000Y-38980783D01*
X207657321Y-38989016D01*
X207980000Y-39053201D01*
X208580000Y-39053201D01*
X208902679Y-38989016D01*
X208915000Y-38980783D01*
X208927321Y-38989016D01*
X209250000Y-39053201D01*
X209850000Y-39053201D01*
X210172679Y-38989016D01*
X210185000Y-38980783D01*
X210197321Y-38989016D01*
X210520000Y-39053201D01*
X211120000Y-39053201D01*
X211442679Y-38989016D01*
X211455000Y-38980783D01*
X211467321Y-38989016D01*
X211790000Y-39053201D01*
X212390000Y-39053201D01*
X212712679Y-38989016D01*
X212725000Y-38980783D01*
X212737321Y-38989016D01*
X213060000Y-39053201D01*
X213660000Y-39053201D01*
X213982679Y-38989016D01*
X213995000Y-38980783D01*
X214007321Y-38989016D01*
X214330000Y-39053201D01*
X214930000Y-39053201D01*
X215252679Y-38989016D01*
X215526233Y-38806233D01*
X215709016Y-38532679D01*
X215773201Y-38210000D01*
X215773201Y-37887614D01*
X215880006Y-37727770D01*
X215957000Y-37340696D01*
X215957000Y-36941721D01*
X215989803Y-36919803D01*
X216017333Y-36878601D01*
X216027000Y-36830000D01*
X216027000Y-35789360D01*
X216764360Y-35052000D01*
X218313000Y-35052000D01*
X218313000Y-48768000D01*
X216027000Y-48768000D01*
X216027000Y-46355000D01*
X216017333Y-46306399D01*
X215989803Y-46265197D01*
X215948601Y-46237667D01*
X215900000Y-46228000D01*
X215773201Y-46228000D01*
X215773201Y-45610000D01*
X215709016Y-45287321D01*
X215526233Y-45013767D01*
X215252679Y-44830984D01*
X214930000Y-44766799D01*
X214330000Y-44766799D01*
X214007321Y-44830984D01*
X213995000Y-44839217D01*
X213982679Y-44830984D01*
X213660000Y-44766799D01*
X213060000Y-44766799D01*
X212737321Y-44830984D01*
X212725000Y-44839217D01*
X212712679Y-44830984D01*
X212390000Y-44766799D01*
X211790000Y-44766799D01*
X211467321Y-44830984D01*
X211455000Y-44839217D01*
X211442679Y-44830984D01*
X211120000Y-44766799D01*
X210520000Y-44766799D01*
X210197321Y-44830984D01*
X210185000Y-44839217D01*
X210172679Y-44830984D01*
X209850000Y-44766799D01*
X209250000Y-44766799D01*
X208927321Y-44830984D01*
X208653767Y-45013767D01*
X208470984Y-45287321D01*
X208406799Y-45610000D01*
X208406799Y-46228000D01*
X208280000Y-46228000D01*
X208231399Y-46237667D01*
X208190197Y-46265197D01*
X208162667Y-46306399D01*
X208153000Y-46355000D01*
X208153000Y-49403000D01*
X207035400Y-49403000D01*
X204755883Y-48453201D01*
X204770000Y-48453201D01*
X205092679Y-48389016D01*
X205105000Y-48380783D01*
X205117321Y-48389016D01*
X205440000Y-48453201D01*
X206040000Y-48453201D01*
X206362679Y-48389016D01*
X206636233Y-48206233D01*
X206819016Y-47932679D01*
X206883201Y-47610000D01*
X206883201Y-45610000D01*
X206819016Y-45287321D01*
X206636233Y-45013767D01*
X206362679Y-44830984D01*
X206040000Y-44766799D01*
X205440000Y-44766799D01*
X205117321Y-44830984D01*
X205105000Y-44839217D01*
X205092679Y-44830984D01*
X204770000Y-44766799D01*
X204170000Y-44766799D01*
X203847321Y-44830984D01*
X203835000Y-44839217D01*
X203822679Y-44830984D01*
X203500000Y-44766799D01*
X202900000Y-44766799D01*
X202577321Y-44830984D01*
X202565000Y-44839217D01*
X202552679Y-44830984D01*
X202230000Y-44766799D01*
X201630000Y-44766799D01*
X201307321Y-44830984D01*
X201295000Y-44839217D01*
X201282679Y-44830984D01*
X200960000Y-44766799D01*
X200360000Y-44766799D01*
X200037321Y-44830984D01*
X199763767Y-45013767D01*
X199580984Y-45287321D01*
X199516799Y-45610000D01*
X199516799Y-46270249D01*
X199438846Y-46237769D01*
X199390266Y-46228000D01*
X199341645Y-46237566D01*
X199300386Y-46265010D01*
X199272769Y-46306154D01*
X199263000Y-46355000D01*
X199263000Y-48133000D01*
X188087000Y-48133000D01*
X188087000Y-46355000D01*
X188077333Y-46306399D01*
X188049803Y-46265197D01*
X188008601Y-46237667D01*
X187960000Y-46228000D01*
X187833201Y-46228000D01*
X187833201Y-45610000D01*
X187769016Y-45287321D01*
X187586233Y-45013767D01*
X187312679Y-44830984D01*
X186990000Y-44766799D01*
X186390000Y-44766799D01*
X186067321Y-44830984D01*
X186055000Y-44839217D01*
X186042679Y-44830984D01*
X185720000Y-44766799D01*
X185120000Y-44766799D01*
X184797321Y-44830984D01*
X184785000Y-44839217D01*
X184772679Y-44830984D01*
X184450000Y-44766799D01*
X183850000Y-44766799D01*
X183527321Y-44830984D01*
X183515000Y-44839217D01*
X183502679Y-44830984D01*
X183180000Y-44766799D01*
X182580000Y-44766799D01*
X182257321Y-44830984D01*
X182245000Y-44839217D01*
X182232679Y-44830984D01*
X181910000Y-44766799D01*
X181310000Y-44766799D01*
X180987321Y-44830984D01*
X180713767Y-45013767D01*
X180530984Y-45287321D01*
X180466799Y-45610000D01*
X180466799Y-46228000D01*
X180340000Y-46228000D01*
X180291399Y-46237667D01*
X180250197Y-46265197D01*
X180222667Y-46306399D01*
X180213000Y-46355000D01*
X180213000Y-49403000D01*
X179197000Y-49403000D01*
X179197000Y-46355000D01*
X179187333Y-46306399D01*
X179159803Y-46265197D01*
X179118601Y-46237667D01*
X179070000Y-46228000D01*
X178943201Y-46228000D01*
X178943201Y-45610000D01*
X178879016Y-45287321D01*
X178696233Y-45013767D01*
X178422679Y-44830984D01*
X178100000Y-44766799D01*
X177500000Y-44766799D01*
X177177321Y-44830984D01*
X177165000Y-44839217D01*
X177152679Y-44830984D01*
X176830000Y-44766799D01*
X176230000Y-44766799D01*
X175907321Y-44830984D01*
X175895000Y-44839217D01*
X175882679Y-44830984D01*
X175560000Y-44766799D01*
X174960000Y-44766799D01*
X174637321Y-44830984D01*
X174625000Y-44839217D01*
X174612679Y-44830984D01*
X174290000Y-44766799D01*
X173690000Y-44766799D01*
X173367321Y-44830984D01*
X173355000Y-44839217D01*
X173342679Y-44830984D01*
X173020000Y-44766799D01*
X172420000Y-44766799D01*
X172097321Y-44830984D01*
X171823767Y-45013767D01*
X171640984Y-45287321D01*
X171576799Y-45610000D01*
X171576799Y-46228000D01*
X171450000Y-46228000D01*
X171401399Y-46237667D01*
X171360197Y-46265197D01*
X171332667Y-46306399D01*
X171323000Y-46355000D01*
X171323000Y-49403000D01*
X159652000Y-49403000D01*
X159652000Y-39642022D01*
X159698000Y-39642022D01*
X159698000Y-40527978D01*
X160037040Y-41346494D01*
X160663506Y-41972960D01*
X161482022Y-42312000D01*
X162367978Y-42312000D01*
X163186494Y-41972960D01*
X163812960Y-41346494D01*
X164152000Y-40527978D01*
X164152000Y-39642022D01*
X163812960Y-38823506D01*
X163186494Y-38197040D01*
X162367978Y-37858000D01*
X161482022Y-37858000D01*
X160663506Y-38197040D01*
X160037040Y-38823506D01*
X159698000Y-39642022D01*
X159652000Y-39642022D01*
X159652000Y-37265671D01*
X168914231Y-36956930D01*
X168962483Y-36945648D01*
X169002744Y-36916761D01*
X169028887Y-36874665D01*
X169037000Y-36830000D01*
X169037000Y-35052000D01*
X170655038Y-35052000D01*
X171323000Y-35719962D01*
X171323000Y-35719962D01*
G37*
X171323000Y-35719962D02*
X171323000Y-36830000D01*
X171332667Y-36878601D01*
X171360197Y-36919803D01*
X171393000Y-36941721D01*
X171393000Y-37340695D01*
X171469994Y-37727769D01*
X171576799Y-37887614D01*
X171576799Y-38210000D01*
X171640984Y-38532679D01*
X171823767Y-38806233D01*
X172097321Y-38989016D01*
X172420000Y-39053201D01*
X173020000Y-39053201D01*
X173342679Y-38989016D01*
X173355000Y-38980783D01*
X173367321Y-38989016D01*
X173690000Y-39053201D01*
X174290000Y-39053201D01*
X174612679Y-38989016D01*
X174625000Y-38980783D01*
X174637321Y-38989016D01*
X174960000Y-39053201D01*
X175560000Y-39053201D01*
X175882679Y-38989016D01*
X175895000Y-38980783D01*
X175907321Y-38989016D01*
X176230000Y-39053201D01*
X176830000Y-39053201D01*
X177152679Y-38989016D01*
X177165000Y-38980783D01*
X177177321Y-38989016D01*
X177500000Y-39053201D01*
X178100000Y-39053201D01*
X178422679Y-38989016D01*
X178435000Y-38980783D01*
X178447321Y-38989016D01*
X178770000Y-39053201D01*
X179370000Y-39053201D01*
X179692679Y-38989016D01*
X179705000Y-38980783D01*
X179717321Y-38989016D01*
X180040000Y-39053201D01*
X180640000Y-39053201D01*
X180962679Y-38989016D01*
X180975000Y-38980783D01*
X180987321Y-38989016D01*
X181310000Y-39053201D01*
X181910000Y-39053201D01*
X182232679Y-38989016D01*
X182245000Y-38980783D01*
X182257321Y-38989016D01*
X182580000Y-39053201D01*
X183180000Y-39053201D01*
X183502679Y-38989016D01*
X183515000Y-38980783D01*
X183527321Y-38989016D01*
X183850000Y-39053201D01*
X184450000Y-39053201D01*
X184772679Y-38989016D01*
X184785000Y-38980783D01*
X184797321Y-38989016D01*
X185120000Y-39053201D01*
X185720000Y-39053201D01*
X186042679Y-38989016D01*
X186055000Y-38980783D01*
X186067321Y-38989016D01*
X186390000Y-39053201D01*
X186990000Y-39053201D01*
X187312679Y-38989016D01*
X187586233Y-38806233D01*
X187769016Y-38532679D01*
X187833201Y-38210000D01*
X187833201Y-37887614D01*
X187940006Y-37727770D01*
X188017000Y-37340696D01*
X188017000Y-36941721D01*
X188049803Y-36919803D01*
X188077333Y-36878601D01*
X188087000Y-36830000D01*
X188087000Y-35789360D01*
X188824360Y-35052000D01*
X199263000Y-35052000D01*
X199263000Y-36830000D01*
X199272667Y-36878601D01*
X199300197Y-36919803D01*
X199333000Y-36941721D01*
X199333000Y-37340695D01*
X199409994Y-37727769D01*
X199516799Y-37887614D01*
X199516799Y-38210000D01*
X199580984Y-38532679D01*
X199763767Y-38806233D01*
X200037321Y-38989016D01*
X200360000Y-39053201D01*
X200960000Y-39053201D01*
X201282679Y-38989016D01*
X201295000Y-38980783D01*
X201307321Y-38989016D01*
X201630000Y-39053201D01*
X202230000Y-39053201D01*
X202552679Y-38989016D01*
X202565000Y-38980783D01*
X202577321Y-38989016D01*
X202900000Y-39053201D01*
X203500000Y-39053201D01*
X203822679Y-38989016D01*
X203835000Y-38980783D01*
X203847321Y-38989016D01*
X204170000Y-39053201D01*
X204770000Y-39053201D01*
X205092679Y-38989016D01*
X205105000Y-38980783D01*
X205117321Y-38989016D01*
X205440000Y-39053201D01*
X206040000Y-39053201D01*
X206362679Y-38989016D01*
X206375000Y-38980783D01*
X206387321Y-38989016D01*
X206710000Y-39053201D01*
X207310000Y-39053201D01*
X207632679Y-38989016D01*
X207645000Y-38980783D01*
X207657321Y-38989016D01*
X207980000Y-39053201D01*
X208580000Y-39053201D01*
X208902679Y-38989016D01*
X208915000Y-38980783D01*
X208927321Y-38989016D01*
X209250000Y-39053201D01*
X209850000Y-39053201D01*
X210172679Y-38989016D01*
X210185000Y-38980783D01*
X210197321Y-38989016D01*
X210520000Y-39053201D01*
X211120000Y-39053201D01*
X211442679Y-38989016D01*
X211455000Y-38980783D01*
X211467321Y-38989016D01*
X211790000Y-39053201D01*
X212390000Y-39053201D01*
X212712679Y-38989016D01*
X212725000Y-38980783D01*
X212737321Y-38989016D01*
X213060000Y-39053201D01*
X213660000Y-39053201D01*
X213982679Y-38989016D01*
X213995000Y-38980783D01*
X214007321Y-38989016D01*
X214330000Y-39053201D01*
X214930000Y-39053201D01*
X215252679Y-38989016D01*
X215526233Y-38806233D01*
X215709016Y-38532679D01*
X215773201Y-38210000D01*
X215773201Y-37887614D01*
X215880006Y-37727770D01*
X215957000Y-37340696D01*
X215957000Y-36941721D01*
X215989803Y-36919803D01*
X216017333Y-36878601D01*
X216027000Y-36830000D01*
X216027000Y-35789360D01*
X216764360Y-35052000D01*
X218313000Y-35052000D01*
X218313000Y-48768000D01*
X216027000Y-48768000D01*
X216027000Y-46355000D01*
X216017333Y-46306399D01*
X215989803Y-46265197D01*
X215948601Y-46237667D01*
X215900000Y-46228000D01*
X215773201Y-46228000D01*
X215773201Y-45610000D01*
X215709016Y-45287321D01*
X215526233Y-45013767D01*
X215252679Y-44830984D01*
X214930000Y-44766799D01*
X214330000Y-44766799D01*
X214007321Y-44830984D01*
X213995000Y-44839217D01*
X213982679Y-44830984D01*
X213660000Y-44766799D01*
X213060000Y-44766799D01*
X212737321Y-44830984D01*
X212725000Y-44839217D01*
X212712679Y-44830984D01*
X212390000Y-44766799D01*
X211790000Y-44766799D01*
X211467321Y-44830984D01*
X211455000Y-44839217D01*
X211442679Y-44830984D01*
X211120000Y-44766799D01*
X210520000Y-44766799D01*
X210197321Y-44830984D01*
X210185000Y-44839217D01*
X210172679Y-44830984D01*
X209850000Y-44766799D01*
X209250000Y-44766799D01*
X208927321Y-44830984D01*
X208653767Y-45013767D01*
X208470984Y-45287321D01*
X208406799Y-45610000D01*
X208406799Y-46228000D01*
X208280000Y-46228000D01*
X208231399Y-46237667D01*
X208190197Y-46265197D01*
X208162667Y-46306399D01*
X208153000Y-46355000D01*
X208153000Y-49403000D01*
X207035400Y-49403000D01*
X204755883Y-48453201D01*
X204770000Y-48453201D01*
X205092679Y-48389016D01*
X205105000Y-48380783D01*
X205117321Y-48389016D01*
X205440000Y-48453201D01*
X206040000Y-48453201D01*
X206362679Y-48389016D01*
X206636233Y-48206233D01*
X206819016Y-47932679D01*
X206883201Y-47610000D01*
X206883201Y-45610000D01*
X206819016Y-45287321D01*
X206636233Y-45013767D01*
X206362679Y-44830984D01*
X206040000Y-44766799D01*
X205440000Y-44766799D01*
X205117321Y-44830984D01*
X205105000Y-44839217D01*
X205092679Y-44830984D01*
X204770000Y-44766799D01*
X204170000Y-44766799D01*
X203847321Y-44830984D01*
X203835000Y-44839217D01*
X203822679Y-44830984D01*
X203500000Y-44766799D01*
X202900000Y-44766799D01*
X202577321Y-44830984D01*
X202565000Y-44839217D01*
X202552679Y-44830984D01*
X202230000Y-44766799D01*
X201630000Y-44766799D01*
X201307321Y-44830984D01*
X201295000Y-44839217D01*
X201282679Y-44830984D01*
X200960000Y-44766799D01*
X200360000Y-44766799D01*
X200037321Y-44830984D01*
X199763767Y-45013767D01*
X199580984Y-45287321D01*
X199516799Y-45610000D01*
X199516799Y-46270249D01*
X199438846Y-46237769D01*
X199390266Y-46228000D01*
X199341645Y-46237566D01*
X199300386Y-46265010D01*
X199272769Y-46306154D01*
X199263000Y-46355000D01*
X199263000Y-48133000D01*
X188087000Y-48133000D01*
X188087000Y-46355000D01*
X188077333Y-46306399D01*
X188049803Y-46265197D01*
X188008601Y-46237667D01*
X187960000Y-46228000D01*
X187833201Y-46228000D01*
X187833201Y-45610000D01*
X187769016Y-45287321D01*
X187586233Y-45013767D01*
X187312679Y-44830984D01*
X186990000Y-44766799D01*
X186390000Y-44766799D01*
X186067321Y-44830984D01*
X186055000Y-44839217D01*
X186042679Y-44830984D01*
X185720000Y-44766799D01*
X185120000Y-44766799D01*
X184797321Y-44830984D01*
X184785000Y-44839217D01*
X184772679Y-44830984D01*
X184450000Y-44766799D01*
X183850000Y-44766799D01*
X183527321Y-44830984D01*
X183515000Y-44839217D01*
X183502679Y-44830984D01*
X183180000Y-44766799D01*
X182580000Y-44766799D01*
X182257321Y-44830984D01*
X182245000Y-44839217D01*
X182232679Y-44830984D01*
X181910000Y-44766799D01*
X181310000Y-44766799D01*
X180987321Y-44830984D01*
X180713767Y-45013767D01*
X180530984Y-45287321D01*
X180466799Y-45610000D01*
X180466799Y-46228000D01*
X180340000Y-46228000D01*
X180291399Y-46237667D01*
X180250197Y-46265197D01*
X180222667Y-46306399D01*
X180213000Y-46355000D01*
X180213000Y-49403000D01*
X179197000Y-49403000D01*
X179197000Y-46355000D01*
X179187333Y-46306399D01*
X179159803Y-46265197D01*
X179118601Y-46237667D01*
X179070000Y-46228000D01*
X178943201Y-46228000D01*
X178943201Y-45610000D01*
X178879016Y-45287321D01*
X178696233Y-45013767D01*
X178422679Y-44830984D01*
X178100000Y-44766799D01*
X177500000Y-44766799D01*
X177177321Y-44830984D01*
X177165000Y-44839217D01*
X177152679Y-44830984D01*
X176830000Y-44766799D01*
X176230000Y-44766799D01*
X175907321Y-44830984D01*
X175895000Y-44839217D01*
X175882679Y-44830984D01*
X175560000Y-44766799D01*
X174960000Y-44766799D01*
X174637321Y-44830984D01*
X174625000Y-44839217D01*
X174612679Y-44830984D01*
X174290000Y-44766799D01*
X173690000Y-44766799D01*
X173367321Y-44830984D01*
X173355000Y-44839217D01*
X173342679Y-44830984D01*
X173020000Y-44766799D01*
X172420000Y-44766799D01*
X172097321Y-44830984D01*
X171823767Y-45013767D01*
X171640984Y-45287321D01*
X171576799Y-45610000D01*
X171576799Y-46228000D01*
X171450000Y-46228000D01*
X171401399Y-46237667D01*
X171360197Y-46265197D01*
X171332667Y-46306399D01*
X171323000Y-46355000D01*
X171323000Y-49403000D01*
X159652000Y-49403000D01*
X159652000Y-39642022D01*
X159698000Y-39642022D01*
X159698000Y-40527978D01*
X160037040Y-41346494D01*
X160663506Y-41972960D01*
X161482022Y-42312000D01*
X162367978Y-42312000D01*
X163186494Y-41972960D01*
X163812960Y-41346494D01*
X164152000Y-40527978D01*
X164152000Y-39642022D01*
X163812960Y-38823506D01*
X163186494Y-38197040D01*
X162367978Y-37858000D01*
X161482022Y-37858000D01*
X160663506Y-38197040D01*
X160037040Y-38823506D01*
X159698000Y-39642022D01*
X159652000Y-39642022D01*
X159652000Y-37265671D01*
X168914231Y-36956930D01*
X168962483Y-36945648D01*
X169002744Y-36916761D01*
X169028887Y-36874665D01*
X169037000Y-36830000D01*
X169037000Y-35052000D01*
X170655038Y-35052000D01*
X171323000Y-35719962D01*
G04 #@! TD*
M02*
