M48
;DRILL file {KiCad (5.0.1-3-g963ef8bb5)} date 2019 October 11, Friday 12:22:47
;FORMAT={-:-/ absolute / metric / decimal}
FMAT,2
METRIC,TZ
T1C0.400
T2C0.762
T3C1.000
T4C1.400
T5C3.200
%
G90
G05
M71
T1
X161.29Y-34.29
X163.83Y-34.29
X164.465Y-58.42
X173.355Y-55.245
X176.53Y-50.8
X179.705Y-48.895
X179.705Y-52.705
X180.975Y-50.8
X189.865Y-50.8
X189.865Y-54.61
X192.411Y-63.283
X193.675Y-50.8
X195.816Y-66.022
X197.485Y-50.8
X198.31Y-62.768
X202.565Y-33.02
X204.47Y-33.02
X205.74Y-52.07
X207.645Y-48.895
X208.915Y-52.07
X214.63Y-66.675
X216.535Y-51.435
X220.068Y-62.76
X220.105Y-67.325
X223.52Y-41.91
X225.425Y-39.37
X227.965Y-53.975
X233.045Y-40.64
X234.315Y-55.88
T2
X169.545Y-60.325
X169.545Y-75.565
X172.085Y-60.325
X172.085Y-75.565
X174.625Y-60.325
X174.625Y-75.565
X177.165Y-60.325
X177.165Y-75.565
X179.705Y-60.325
X179.705Y-75.565
X182.245Y-60.325
X182.245Y-75.565
X184.785Y-60.325
X184.785Y-75.565
X187.325Y-60.325
X187.325Y-75.565
X189.865Y-60.325
X189.865Y-75.565
X192.405Y-60.325
X192.405Y-75.565
X194.945Y-60.325
X194.945Y-75.565
X197.485Y-60.325
X197.485Y-75.565
X200.025Y-60.325
X200.025Y-75.565
X202.565Y-60.325
X202.565Y-75.565
X205.105Y-60.325
X205.105Y-75.565
X207.645Y-60.325
X207.645Y-75.565
X210.185Y-60.325
X210.185Y-75.565
X212.725Y-60.325
X212.725Y-75.565
X215.265Y-60.325
X215.265Y-75.565
X217.805Y-60.325
X217.805Y-75.565
T3
X226.06Y-62.865
X226.06Y-65.405
X209.55Y-26.035
X209.55Y-28.575
X224.155Y-50.165
X163.83Y-62.865
X163.83Y-65.405
X179.07Y-26.035
X179.07Y-28.575
X233.045Y-62.865
X233.045Y-65.405
X235.585Y-62.865
X235.585Y-65.405
X213.36Y-26.035
X213.36Y-28.575
X234.315Y-50.165
X223.52Y-62.865
X223.52Y-65.405
X228.6Y-62.865
X228.6Y-65.405
X194.31Y-26.035
X194.31Y-28.575
X224.215Y-34.925
X217.17Y-26.035
X217.17Y-28.575
X223.52Y-73.025
X223.52Y-75.565
X226.06Y-73.025
X226.06Y-75.565
X234.315Y-34.925
T4
X161.925Y-40.085
X161.925Y-45.085
X184.15Y-29.21
X189.15Y-29.21
X168.99Y-29.21
X173.99Y-29.21
X199.39Y-29.21
X204.39Y-29.21
T5
X234.95Y-75.565
X162.56Y-75.565
X162.56Y-27.94
X234.95Y-27.94
T0
M30
